<svg width="806" height="458" viewBox="0 0 806 458" style="fill:none;stroke:none;fill-rule:evenodd;clip-rule:evenodd;stroke-linecap:round;stroke-linejoin:round;stroke-miterlimit:1.5;" version="1.1"
  xmlns="http://www.w3.org/2000/svg"
  xmlns:xlink="http://www.w3.org/1999/xlink">
  <g id="blend" style="mix-blend-mode:multiply">
    <g id="g-root-5.cu_sy_13zvp261pmmmmg-fill" data-item-order="-256850" data-item-id="5.cu_sy_13zvp261pmmmmg" data-item-class="ScenePart Indexed Fill Stroke" data-item-index="5" data-renderer-id="0" transform="matrix(1, 0, 0, 1, 267.73199462890625, 375)">
      <g id="5.cu_sy_13zvp261pmmmmg-fill" stroke="none" fill="#e9fbf3" transform="matrix(1, 0, 0, 1, -2.73199462890625, -2)">
        <g xmlns="http://www.w3.org/2000/svg" transform="translate(-252, -444)">
          <path d="M 264.732 528L 306.302 456L 749.706 456L 791.275 528L 264.732 528Z"></path>
        </g>
      </g>
    </g>
    <g id="g-root-5.cu_1_sy_zk26xq1pmmnep-fill" data-item-order="-256847" data-item-id="5.cu_1_sy_zk26xq1pmmnep" data-item-class="ScenePart Indexed Stroke" data-item-index="5" data-renderer-id="0" transform="matrix(1, 0, 0, 1, 231, 405)"></g>
    <g id="g-root-4.cu_sy_18fp76m1pmmlu6-fill" data-item-order="-256846" data-item-id="4.cu_sy_18fp76m1pmmlu6" data-item-class="ScenePart Indexed Fill Stroke" data-item-index="4" data-renderer-id="0" transform="matrix(1, 0, 0, 1, 316.22900390625, 291)">
      <g id="4.cu_sy_18fp76m1pmmlu6-fill" stroke="none" fill="#e6efff" transform="matrix(1, 0, 0, 1, -2.22900390625, -2)">
        <g xmlns="http://www.w3.org/2000/svg" transform="translate(-301, -360)">
          <path d="M 313.229 444L 354.799 372L 701.208 372L 742.779 444L 313.229 444Z"></path>
        </g>
      </g>
    </g>
    <g id="g-root-4.cu_1_sy_18fp76m1pmmlu7-fill" data-item-order="-256843" data-item-id="4.cu_1_sy_18fp76m1pmmlu7" data-item-class="ScenePart Indexed Stroke" data-item-index="4" data-renderer-id="0" transform="matrix(1, 0, 0, 1, 231, 321)"></g>
    <g id="g-root-3.cu_sy_1lqj8gu1pmmnf0-fill" data-item-order="-256842" data-item-id="3.cu_sy_1lqj8gu1pmmnf0" data-item-class="ScenePart Indexed Fill Stroke" data-item-index="3" data-renderer-id="0" transform="matrix(1, 0, 0, 1, 364.72698974609375, 207)">
      <g id="3.cu_sy_1lqj8gu1pmmnf0-fill" stroke="none" fill="#ffe7e6" transform="matrix(1, 0, 0, 1, -2.72698974609375, -2)">
        <g xmlns="http://www.w3.org/2000/svg" transform="translate(-349, -276)">
          <path d="M 361.727 360L 403.296 288L 652.712 288L 694.281 360L 361.727 360Z"></path>
        </g>
      </g>
    </g>
    <g id="g-root-3.cu_1_sy_1hapqce1pmmo79-fill" data-item-order="-256839" data-item-id="3.cu_1_sy_1hapqce1pmmo79" data-item-class="ScenePart Indexed Stroke" data-item-index="3" data-renderer-id="0" transform="matrix(1, 0, 0, 1, 231, 237)"></g>
    <g id="g-root-2.cu_sy_1um68pq1pmmmma-fill" data-item-order="-256838" data-item-id="2.cu_sy_1um68pq1pmmmma" data-item-class="ScenePart Indexed Fill Stroke" data-item-index="2" data-renderer-id="0" transform="matrix(1, 0, 0, 1, 413.2249755859375, 123)">
      <g id="2.cu_sy_1um68pq1pmmmma-fill" stroke="none" fill="#fef2e6" transform="matrix(1, 0, 0, 1, -2.225006103515625, -2)">
        <g xmlns="http://www.w3.org/2000/svg" transform="translate(-398, -192)">
          <path d="M 410.225 276L 451.794 204L 604.215 204L 645.784 276L 410.225 276Z"></path>
        </g>
      </g>
    </g>
    <g id="g-root-2.cu_1_sy_1lqj8gu1pmmnez-fill" data-item-order="-256835" data-item-id="2.cu_1_sy_1lqj8gu1pmmnez" data-item-class="ScenePart Indexed Stroke" data-item-index="2" data-renderer-id="0" transform="matrix(1, 0, 0, 1, 231, 153)"></g>
    <g id="g-root-1.cu_sy_vov21pmmm14-fill" data-item-order="-256834" data-item-id="1.cu_sy_vov21pmmm14" data-item-class="ScenePart Indexed Indexed_1 Fill Stroke" data-item-index="1" data-renderer-id="0" transform="matrix(1, 0, 0, 1, 461.72198486328125, -9)">
      <g id="1.cu_sy_vov21pmmm14-fill" stroke="none" fill="#fffce6" transform="matrix(1, 0, 0, 1, -2.72198486328125, -2)">
        <g xmlns="http://www.w3.org/2000/svg" transform="translate(-446, -60)">
          <path d="M 458.722 192L 528.004 72L 597.286 192L 458.722 192Z"></path>
        </g>
      </g>
    </g>
    <g id="g-root-1.cu_1_sy_vov21pmmm15-fill" data-item-order="-256831" data-item-id="1.cu_1_sy_vov21pmmm15" data-item-class="ScenePart Indexed Indexed_1 Stroke" data-item-index="1" data-renderer-id="0" transform="matrix(1, 0, 0, 1, 231, 69)"></g>
    <g id="g-root-tx_business_1lsenq61pmmmfj-fill" data-item-order="0" data-item-id="tx_business_1lsenq61pmmmfj" data-item-class="Label Stroke SceneTarget Indexed Indexed_1" data-item-index="1" data-renderer-id="0" transform="matrix(1, 0, 0, 1, 27, 63)"></g>
    <g id="g-root-codi_8xrtlq1pm76dd-fill" data-item-order="0" data-item-id="codi_8xrtlq1pm76dd" data-item-class="Icon Stroke SceneTarget Indexed Indexed_1 InsideFill InsideColorFill" data-item-index="1" data-renderer-id="0" transform="matrix(1, 0, 0, 1, 507, 51)"></g>
    <g id="g-root-tx_aidevelo_24n1a1pmmo7i-fill" data-item-order="0" data-item-id="tx_aidevelo_24n1a1pmmo7i" data-item-class="Label Stroke SceneTarget Indexed" data-item-index="2" data-renderer-id="0" transform="matrix(1, 0, 0, 1, -9, 147)"></g>
    <g id="g-root-user_qofd0e1pm7760-fill" data-item-order="0" data-item-id="user_qofd0e1pm7760" data-item-class="Icon Stroke SceneTarget Indexed InsideFill InsideColorFill" data-item-index="2" data-renderer-id="0" transform="matrix(1, 0, 0, 1, 507, 135)"></g>
    <g id="g-root-tx_valuegen_8xrna61pmmnet-fill" data-item-order="0" data-item-id="tx_valuegen_8xrna61pmmnet" data-item-class="Label Stroke SceneTarget Indexed" data-item-index="3" data-renderer-id="0" transform="matrix(1, 0, 0, 1, 51, 231)"></g>
    <g id="g-root-path_1lr5vvi1pm4cgf-fill" data-item-order="0" data-item-id="path_1lr5vvi1pm4cgf" data-item-class="Icon Stroke SceneTarget Indexed InsideFill InsideColorFill" data-item-index="3" data-renderer-id="0" transform="matrix(1, 0, 0, 1, 507, 219)"></g>
    <g id="g-root-tx_processe_ddl5em1pmmmmk-fill" data-item-order="0" data-item-id="tx_processe_ddl5em1pmmmmk" data-item-class="Label Stroke SceneTarget Indexed" data-item-index="4" data-renderer-id="0" transform="matrix(1, 0, 0, 1, 111, 315)"></g>
    <g id="g-root-2_vv6m1pm4e8e-fill" data-item-order="0" data-item-id="2_vv6m1pm4e8e" data-item-class="Icon Stroke SceneTarget Indexed InsideFill InsideColorFill" data-item-index="4" data-renderer-id="0" transform="matrix(1, 0, 0, 1, 507, 303)"></g>
    <g id="g-root-tx_individu_m985ni1pmmltv-fill" data-item-order="0" data-item-id="tx_individu_m985ni1pmmltv" data-item-class="Label Stroke SceneTarget Indexed" data-item-index="5" data-renderer-id="0" transform="matrix(1, 0, 0, 1, 75, 399)"></g>
    <g id="g-root-mult_dccdjy1pm4cnh-fill" data-item-order="0" data-item-id="mult_dccdjy1pm4cnh" data-item-class="Icon Stroke SceneTarget Indexed InsideFill InsideColorFill" data-item-index="5" data-renderer-id="0" transform="matrix(1, 0, 0, 1, 507, 387)"></g>
    <g id="g-root-5.cu_sy_13zvp261pmmmmg-stroke" data-item-order="-256850" data-item-id="5.cu_sy_13zvp261pmmmmg" data-item-class="ScenePart Indexed Fill Stroke" data-item-index="5" data-renderer-id="0" transform="matrix(1, 0, 0, 1, 267.73199462890625, 375)">
      <g id="5.cu_sy_13zvp261pmmmmg-stroke" fill="none" stroke-linecap="round" stroke-linejoin="round" stroke-miterlimit="1.5" stroke="#3bc482" stroke-width="2" transform="matrix(1, 0, 0, 1, -2.73199462890625, -2)">
        <g xmlns="http://www.w3.org/2000/svg" transform="translate(-252, -444)">
          <path d="M 264.732 528L 306.302 456L 749.707 456L 791.276 528L 264.732 528Z"></path>
        </g>
      </g>
    </g>
    <g id="g-root-5.cu_1_sy_zk26xq1pmmnep-stroke" data-item-order="-256847" data-item-id="5.cu_1_sy_zk26xq1pmmnep" data-item-class="ScenePart Indexed Stroke" data-item-index="5" data-renderer-id="0" transform="matrix(1, 0, 0, 1, 231, 405)">
      <g id="5.cu_1_sy_zk26xq1pmmnep-stroke" fill="none" stroke-linecap="round" stroke-linejoin="round" stroke-miterlimit="1.5" stroke="#484848" stroke-width="2" transform="matrix(1, 0, 0, 1, -2, -2)">
        <g xmlns="http://www.w3.org/2000/svg" transform="translate(-216, -474)">
          <path d="M 228 492L 273.53 491.996M 267.53 498L 273.53 491.996L 267.538 486"></path>
        </g>
      </g>
    </g>
    <g id="g-root-4.cu_sy_18fp76m1pmmlu6-stroke" data-item-order="-256846" data-item-id="4.cu_sy_18fp76m1pmmlu6" data-item-class="ScenePart Indexed Fill Stroke" data-item-index="4" data-renderer-id="0" transform="matrix(1, 0, 0, 1, 316.22900390625, 291)">
      <g id="4.cu_sy_18fp76m1pmmlu6-stroke" fill="none" stroke-linecap="round" stroke-linejoin="round" stroke-miterlimit="1.5" stroke="#4682e3" stroke-width="2" transform="matrix(1, 0, 0, 1, -2.22900390625, -2)">
        <g xmlns="http://www.w3.org/2000/svg" transform="translate(-301, -360)">
          <path d="M 313.229 444L 354.799 372L 701.209 372L 742.778 444L 313.229 444Z"></path>
        </g>
      </g>
    </g>
    <g id="g-root-4.cu_1_sy_18fp76m1pmmlu7-stroke" data-item-order="-256843" data-item-id="4.cu_1_sy_18fp76m1pmmlu7" data-item-class="ScenePart Indexed Stroke" data-item-index="4" data-renderer-id="0" transform="matrix(1, 0, 0, 1, 231, 321)">
      <g id="4.cu_1_sy_18fp76m1pmmlu7-stroke" fill="none" stroke-linecap="round" stroke-linejoin="round" stroke-miterlimit="1.5" stroke="#484848" stroke-width="2" transform="matrix(1, 0, 0, 1, -2, -2)">
        <g xmlns="http://www.w3.org/2000/svg" transform="translate(-216, -390)">
          <path d="M 228 408L 321.994 407.996M 315.994 414L 321.994 407.996L 316.002 402"></path>
        </g>
      </g>
    </g>
    <g id="g-root-3.cu_sy_1lqj8gu1pmmnf0-stroke" data-item-order="-256842" data-item-id="3.cu_sy_1lqj8gu1pmmnf0" data-item-class="ScenePart Indexed Fill Stroke" data-item-index="3" data-renderer-id="0" transform="matrix(1, 0, 0, 1, 364.72698974609375, 207)">
      <g id="3.cu_sy_1lqj8gu1pmmnf0-stroke" fill="none" stroke-linecap="round" stroke-linejoin="round" stroke-miterlimit="1.5" stroke="#e15e5a" stroke-width="2" transform="matrix(1, 0, 0, 1, -2.72698974609375, -2)">
        <g xmlns="http://www.w3.org/2000/svg" transform="translate(-349, -276)">
          <path d="M 361.727 360L 403.296 288L 652.711 288L 694.28 360L 361.727 360Z"></path>
        </g>
      </g>
    </g>
    <g id="g-root-3.cu_1_sy_1hapqce1pmmo79-stroke" data-item-order="-256839" data-item-id="3.cu_1_sy_1hapqce1pmmo79" data-item-class="ScenePart Indexed Stroke" data-item-index="3" data-renderer-id="0" transform="matrix(1, 0, 0, 1, 231, 237)">
      <g id="3.cu_1_sy_1hapqce1pmmo79-stroke" fill="none" stroke-linecap="round" stroke-linejoin="round" stroke-miterlimit="1.5" stroke="#484848" stroke-width="2" transform="matrix(1, 0, 0, 1, -2, -2)">
        <g xmlns="http://www.w3.org/2000/svg" transform="translate(-216, -306)">
          <path d="M 228 324L 370.546 323.996M 364.546 330L 370.546 323.996L 364.554 318"></path>
        </g>
      </g>
    </g>
    <g id="g-root-2.cu_sy_1um68pq1pmmmma-stroke" data-item-order="-256838" data-item-id="2.cu_sy_1um68pq1pmmmma" data-item-class="ScenePart Indexed Fill Stroke" data-item-index="2" data-renderer-id="0" transform="matrix(1, 0, 0, 1, 413.2249755859375, 123)">
      <g id="2.cu_sy_1um68pq1pmmmma-stroke" fill="none" stroke-linecap="round" stroke-linejoin="round" stroke-miterlimit="1.5" stroke="#dd8433" stroke-width="2" transform="matrix(1, 0, 0, 1, -2.225006103515625, -2)">
        <g xmlns="http://www.w3.org/2000/svg" transform="translate(-398, -192)">
          <path d="M 410.225 276L 451.794 204L 604.214 204L 645.784 276L 410.225 276Z"></path>
        </g>
      </g>
    </g>
    <g id="g-root-2.cu_1_sy_1lqj8gu1pmmnez-stroke" data-item-order="-256835" data-item-id="2.cu_1_sy_1lqj8gu1pmmnez" data-item-class="ScenePart Indexed Stroke" data-item-index="2" data-renderer-id="0" transform="matrix(1, 0, 0, 1, 231, 153)">
      <g id="2.cu_1_sy_1lqj8gu1pmmnez-stroke" fill="none" stroke-linecap="round" stroke-linejoin="round" stroke-miterlimit="1.5" stroke="#484848" stroke-width="2" transform="matrix(1, 0, 0, 1, -2, -2)">
        <g xmlns="http://www.w3.org/2000/svg" transform="translate(-216, -222)">
          <path d="M 228 240L 419.007 239.996M 413.007 246L 419.007 239.996L 413.015 234"></path>
        </g>
      </g>
    </g>
    <g id="g-root-1.cu_sy_vov21pmmm14-stroke" data-item-order="-256834" data-item-id="1.cu_sy_vov21pmmm14" data-item-class="ScenePart Indexed Indexed_1 Fill Stroke" data-item-index="1" data-renderer-id="0" transform="matrix(1, 0, 0, 1, 461.72198486328125, -9)">
      <g id="1.cu_sy_vov21pmmm14-stroke" fill="none" stroke-linecap="round" stroke-linejoin="round" stroke-miterlimit="1.5" stroke="#e3cd09" stroke-width="2" transform="matrix(1, 0, 0, 1, -2.72198486328125, -2)">
        <g xmlns="http://www.w3.org/2000/svg" transform="translate(-446, -60)">
          <path d="M 458.722 192L 528.004 72L 597.286 192L 458.722 192Z"></path>
        </g>
      </g>
    </g>
    <g id="g-root-1.cu_1_sy_vov21pmmm15-stroke" data-item-order="-256831" data-item-id="1.cu_1_sy_vov21pmmm15" data-item-class="ScenePart Indexed Indexed_1 Stroke" data-item-index="1" data-renderer-id="0" transform="matrix(1, 0, 0, 1, 231, 69)">
      <g id="1.cu_1_sy_vov21pmmm15-stroke" fill="none" stroke-linecap="round" stroke-linejoin="round" stroke-miterlimit="1.5" stroke="#484848" stroke-width="2" transform="matrix(1, 0, 0, 1, -2, -2)">
        <g xmlns="http://www.w3.org/2000/svg" transform="translate(-216, -138)">
          <path d="M 228 156L 467.508 155.996M 461.508 162L 467.508 155.996L 461.516 150"></path>
        </g>
      </g>
    </g>
    <g id="g-root-tx_business_1lsenq61pmmmfj-stroke" data-item-order="0" data-item-id="tx_business_1lsenq61pmmmfj" data-item-class="Label Stroke SceneTarget Indexed Indexed_1" data-item-index="1" data-renderer-id="0" transform="matrix(1, 0, 0, 1, 27, 63)">
      <g id="tx_business_1lsenq61pmmmfj-stroke" fill="none" stroke-linecap="square" stroke-linejoin="miter" stroke-miterlimit="4" stroke="#484848" stroke-width="1" transform="matrix(1, 0, 0, 1, 7, 1)">
        <g xmlns="http://www.w3.org/2000/svg" transform="translate(39, 9)">
          <path d="M-26.539029 18.1165L-26.530779 4.97778H-25.561929L-20.258639 18.1151H-19.943409L-14.624289 4.97778H-13.654389L-13.659789 18.1165 M-0.762989 13.4569C-0.762989 16.5223 -2.633939 18.3403 -4.941879 18.3403C-7.249819 18.3403 -9.120779 16.5223 -9.120779 13.4569C-9.120779 10.3915 -7.249819 8.57349 -4.941879 8.57349C-2.633939 8.57349 -0.762989 10.3915 -0.762989 13.4569Z M10.429771 18.1243V4.12329M10.070021 16.7727C9.208021 17.8707 8.109711 18.3402 6.800151 18.3402C4.618821 18.3402 2.967491 17.0292 2.967491 13.4576C2.967491 9.88607 4.724481 8.57507 6.905801 8.57507C8.175411 8.57507 9.384971 9.11426 10.070021 10.1748 M21.927469 17.2181C20.953679 18.1548 19.928979 18.3386 18.743519 18.3386C16.674749 18.3386 14.811509 17.0276 14.811509 13.4561C14.811509 9.88449 16.620899 8.57349 18.689669 8.57349C20.758449 8.57349 22.361799 9.62966 22.361799 13.2012H15.142279 M26.54563 4.125V18.1264 M39.257009 13.4569C39.257009 16.5223 37.386059 18.3403 35.078119 18.3403C32.770179 18.3403 30.899219 16.5223 30.899219 13.4569C30.899219 10.3915 32.770179 8.57349 35.078119 8.57349C37.386059 8.57349 39.257009 10.3915 39.257009 13.4569Z M56.449767 18.1243V4.12329M56.090017 16.7727C55.228017 17.8707 54.129707 18.3402 52.820147 18.3402C50.638817 18.3402 48.987487 17.0292 48.987487 13.4576C48.987487 9.88607 50.744477 8.57507 52.925797 8.57507C54.195407 8.57507 55.404967 9.11426 56.090017 10.1748 M67.947466 17.2181C66.973676 18.1548 65.948976 18.3386 64.763516 18.3386C62.694746 18.3386 60.831506 17.0276 60.831506 13.4561C60.831506 9.88449 62.640896 8.57349 64.709666 8.57349C66.778446 8.57349 68.381796 9.62966 68.381796 13.2012H61.162276 M78.776383 18.1161L78.774123 4.97986L79.265903 4.97949L87.819903 18.1168H88.292803V4.97949 M100.087465 17.2181C99.113675 18.1548 98.088975 18.3386 96.903515 18.3386C94.834745 18.3386 92.971505 17.0276 92.971505 13.4561C92.971505 9.88449 94.780895 8.57349 96.849665 8.57349C98.918445 8.57349 100.521795 9.62966 100.521795 13.2012H93.302275 M111.579162 8.65246V18.6545C111.579162 23.3512 106.285742 23.0007 104.850852 21.4703M111.245482 16.5732C110.565342 17.6608 109.341072 18.2139 108.055192 18.2139C105.873872 18.2139 104.116882 16.9029 104.116882 13.3313C104.116882 9.75974 105.768212 8.44873 107.949542 8.44873C109.217572 8.44873 110.522612 9.1294 111.245482 10.5024 M121.388637 3.92761L120.141407 5.55454M124.137907 13.4672C124.137907 16.5326 122.266907 18.3506 119.958967 18.3506C117.651027 18.3506 115.780077 16.5326 115.780077 13.4672C115.780077 10.4018 117.651027 8.58374 119.958967 8.58374C122.266907 8.58374 124.137907 10.4018 124.137907 13.4672Z M135.131792 16.2538C134.759822 17.6492 133.192222 18.3386 131.723122 18.3386C129.585752 18.3386 127.819882 17.0276 127.819882 13.4561C127.819882 9.88449 129.689282 8.57349 131.826652 8.57349C133.333662 8.57349 134.983772 9.41043 135.217062 10.9154 M139.478438 4.97076H139.502368M139.462208 8.80402V18.1446 M152.186995 13.4569C152.186995 16.5223 150.316045 18.3403 148.008105 18.3403C145.700165 18.3403 143.829205 16.5223 143.829205 13.4569C143.829205 10.3915 145.700165 8.57349 148.008105 8.57349C150.316045 8.57349 152.186995 10.3915 152.186995 13.4569Z"></path>
        </g>
      </g>
    </g>
    <g id="g-root-codi_8xrtlq1pm76dd-stroke" data-item-order="0" data-item-id="codi_8xrtlq1pm76dd" data-item-class="Icon Stroke SceneTarget Indexed Indexed_1 InsideFill InsideColorFill" data-item-index="1" data-renderer-id="0" transform="matrix(1, 0, 0, 1, 507, 51)">
      <g id="codi_8xrtlq1pm76dd-stroke" fill="none" stroke-linecap="round" stroke-linejoin="round" stroke-miterlimit="1.5" stroke="#e3cd09" stroke-width="1" transform="matrix(2, 0, 0, 2, -14, -14)">
        <g xmlns="http://www.w3.org/2000/svg" transform="translate(12, 12)">
          <path d="M14.5,3.523a2.645,2.645,0,0,0-5.114-.95A2.633,2.633,0,0,0,6.562,6.7a2.641,2.641,0,0,0,1.577,4.766h3.314A3.042,3.042,0,0,0,14.5,8.427a3.042,3.042,0,0,0,3.042,3.042h3.314A2.641,2.641,0,0,0,22.428,6.7a2.625,2.625,0,0,0-2.819-4.13,2.645,2.645,0,0,0-5.114.95ZM14.495 8.427L14.495 2.993M17.144 3.482L17.144 4.012M.5,22.067l6.216,1a5.754,5.754,0,0,0,3.734-.754l6.508-3.869a1.918,1.918,0,0,0,.668-2.629h0A1.917,1.917,0,0,0,15,15.151L9.914,18.173M.5,17.076l2.64-1.569a5.753,5.753,0,0,1,3.239-.8l2.629.137a1.79,1.79,0,0,1,1.78,1.883h0a1.79,1.79,0,0,1-1.657,1.693L5.774,18.4M22.428,6.7a2.244,2.244,0,0,0-3.02.781M19.609,2.573a2.139,2.139,0,0,1,.163,1.439M18.684,9.539A1.54,1.54,0,0,1,17.144,8M11.84 3.482L11.84 4.012M6.556,6.7a2.243,2.243,0,0,1,3.019.781M9.375,2.573a2.134,2.134,0,0,0-.164,1.439M10.3,9.539A1.541,1.541,0,0,0,11.84,8"></path>
        </g>
      </g>
    </g>
    <g id="g-root-tx_aidevelo_24n1a1pmmo7i-stroke" data-item-order="0" data-item-id="tx_aidevelo_24n1a1pmmo7i" data-item-class="Label Stroke SceneTarget Indexed" data-item-index="2" data-renderer-id="0" transform="matrix(1, 0, 0, 1, -9, 147)">
      <g id="tx_aidevelo_24n1a1pmmo7i-stroke" fill="none" stroke-linecap="square" stroke-linejoin="miter" stroke-miterlimit="4" stroke="#484848" stroke-width="1" transform="matrix(1, 0, 0, 1, 12, 2)">
        <g xmlns="http://www.w3.org/2000/svg" transform="translate(82, 8)">
          <path d="M-65.493206 18.1804L-69.502486 18.1827V4.94829C-68.554566 4.94829 -67.276026 4.94607 -65.876026 4.94607C-64.423386 4.90961 -60.643126 6.17329 -60.643126 11.5108C-60.643126 16.8483 -64.168176 18.1804 -65.493206 18.1804Z M-49.422567 17.2181C-50.396357 18.1548 -51.421057 18.3386 -52.606517 18.3386C-54.675287 18.3386 -56.538527 17.0276 -56.538527 13.4561C-56.538527 9.88449 -54.729137 8.57349 -52.660367 8.57349C-50.591587 8.57349 -48.988237 9.62966 -48.988237 13.2012H-56.207757 M-38.782196 10.3814C-39.077926 9.4042 -40.232236 8.58374 -41.842326 8.58374C-43.730046 8.58374 -44.949716 9.44691 -45.041366 10.7511C-45.146406 12.2457 -43.912296 12.8218 -41.981796 13.3386C-40.288186 13.7969 -38.344776 14.2772 -38.499066 16.1222C-38.598436 17.3105 -39.575206 18.3458 -41.931926 18.3458C-43.837856 18.3458 -44.915236 17.5302 -45.249596 16.4244 M-27.482565 17.2181C-28.456355 18.1548 -29.481055 18.3386 -30.666515 18.3386C-32.735285 18.3386 -34.598525 17.0276 -34.598525 13.4561C-34.598525 9.88449 -32.789135 8.57349 -30.720365 8.57349C-28.651585 8.57349 -27.048235 9.62966 -27.048235 13.2012H-34.267755 M-23.001114 8.77967L-23.000854 18.1279M-16.166564 18.1279V12.0738C-16.166564 11.3619 -16.070834 8.79026 -18.453924 8.58694C-20.211964 8.43694 -21.901004 9.56164 -22.677344 10.9562 M-5.237263 8.69055L-8.606723 18.119L-8.807963 18.1189L-12.212283 8.69055 M6.556974 13.4569C6.556974 16.5223 4.686024 18.3403 2.378084 18.3403C0.070144 18.3403 -1.800816 16.5223 -1.800816 13.4569C-1.800816 10.3915 0.070144 8.57349 2.378084 8.57349C4.686024 8.57349 6.556974 10.3915 6.556974 13.4569Z M10.885592 4.125V18.1264 M21.952735 8.69055L18.583275 18.119L18.382035 18.1189L14.977715 8.69055 M32.597437 17.2181C31.623647 18.1548 30.598947 18.3386 29.413487 18.3386C27.344717 18.3386 25.481477 17.0276 25.481477 13.4561C25.481477 9.88449 27.290867 8.57349 29.359637 8.57349C31.428417 8.57349 33.031767 9.62966 33.031767 13.2012H25.812247 M44.079734 18.1243V4.12329M43.719984 16.7727C42.857984 17.8707 41.759674 18.3402 40.450114 18.3402C38.268784 18.3402 36.617454 17.0292 36.617454 13.4576C36.617454 9.88607 38.374444 8.57507 40.555764 8.57507C41.825374 8.57507 43.034934 9.11426 43.719984 10.1748 M56.726973 13.4569C56.726973 16.5223 54.856023 18.3403 52.548083 18.3403C50.240143 18.3403 48.369183 16.5223 48.369183 13.4569C48.369183 10.3915 50.240143 8.57349 52.548083 8.57349C54.856023 8.57349 56.726973 10.3915 56.726973 13.4569Z M64.524778 8.60908C63.144358 8.41894 61.895968 9.31927 61.253988 10.6193M60.899358 8.77269V18.1226 M74.677439 17.2181C73.703649 18.1548 72.678949 18.3386 71.493489 18.3386C69.424719 18.3386 67.561479 17.0276 67.561479 13.4561C67.561479 9.88449 69.370869 8.57349 71.439639 8.57349C73.508419 8.57349 75.111769 9.62966 75.111769 13.2012H67.892249 M85.317814 10.3814C85.022084 9.4042 83.867774 8.58374 82.257684 8.58374C80.369964 8.58374 79.150294 9.44691 79.058644 10.7511C78.953604 12.2457 80.187714 12.8218 82.118214 13.3386C83.811824 13.7969 85.755234 14.2772 85.600944 16.1222C85.501574 17.3105 84.524804 18.3458 82.168084 18.3458C80.262154 18.3458 79.184774 17.5302 78.850414 16.4244 M102.969741 18.1243V4.12329M102.609991 16.7727C101.747991 17.8707 100.649681 18.3402 99.340121 18.3402C97.158791 18.3402 95.507461 17.0292 95.507461 13.4576C95.507461 9.88607 97.264451 8.57507 99.445771 8.57507C100.715381 8.57507 101.924941 9.11426 102.609991 10.1748 M114.467447 17.2181C113.493657 18.1548 112.468957 18.3386 111.283497 18.3386C109.214727 18.3386 107.351487 17.0276 107.351487 13.4561C107.351487 9.88449 109.160877 8.57349 111.229647 8.57349C113.298427 8.57349 114.901777 9.62966 114.901777 13.2012H107.682257 M125.435102 4.93762V18.1269 M129.903539 18.1453L134.852209 4.97268L135.440079 4.97266L140.403699 18.1453M131.720959 14.2942H138.579599"></path>
        </g>
      </g>
    </g>
    <g id="g-root-user_qofd0e1pm7760-stroke" data-item-order="0" data-item-id="user_qofd0e1pm7760" data-item-class="Icon Stroke SceneTarget Indexed InsideFill InsideColorFill" data-item-index="2" data-renderer-id="0" transform="matrix(1, 0, 0, 1, 507, 135)">
      <g id="user_qofd0e1pm7760-stroke" fill="none" stroke-linecap="round" stroke-linejoin="round" stroke-miterlimit="1.5" stroke="#dd8433" stroke-width="1" transform="matrix(2, 0, 0, 2, -12, -14)">
        <g xmlns="http://www.w3.org/2000/svg" transform="translate(11, 12)">
          <path d="M11,12.5a6,6,0,0,1,0-12ZM1.5,23.5A9.5,9.5,0,0,1,11,14v9.5ZM13,12.5a6,6,0,0,0,1-.09V10.88a4.443,4.443,0,0,0,1.387-.579l1.086,1.086a6.007,6.007,0,0,0,1.414-1.414L16.8,8.887A4.443,4.443,0,0,0,17.38,7.5h1.53a6,6,0,0,0,.09-1,6,6,0,0,0-.09-1H17.38A4.443,4.443,0,0,0,16.8,4.113l1.086-1.086a6.007,6.007,0,0,0-1.414-1.414L15.387,2.7A4.443,4.443,0,0,0,14,2.12V.59A6,6,0,0,0,13,.5M13,4.5a2,2,0,0,1,0,4M22.5,23.5a9.506,9.506,0,0,0-.13-1.5H20.349a7.413,7.413,0,0,0-.654-1.867l1.471-1.47a9.536,9.536,0,0,0-2.719-2.939l-1.442,1.443a7.407,7.407,0,0,0-2-.889V14.215A9.544,9.544,0,0,0,13,14M13,19.5a4,4,0,0,1,4,4"></path>
        </g>
      </g>
    </g>
    <g id="g-root-tx_valuegen_8xrna61pmmnet-stroke" data-item-order="0" data-item-id="tx_valuegen_8xrna61pmmnet" data-item-class="Label Stroke SceneTarget Indexed" data-item-index="3" data-renderer-id="0" transform="matrix(1, 0, 0, 1, 51, 231)">
      <g id="tx_valuegen_8xrna61pmmnet-stroke" fill="none" stroke-linecap="square" stroke-linejoin="miter" stroke-miterlimit="4" stroke="#484848" stroke-width="1" transform="matrix(1, 0, 0, 1, 3, 2)">
        <g xmlns="http://www.w3.org/2000/svg" transform="translate(7, 8)">
          <path d="M11.906987 12.3702L15.480487 12.3361L15.469687 16.8469C14.262987 18.0193 13.116047 18.3984 10.798507 18.3984C8.133557 18.3984 5.973187 16.2071 5.973187 13.5039V9.62109C5.973187 6.91792 8.133557 4.72656 10.798507 4.72656C12.806307 4.72656 14.527687 5.97044 15.254587 7.73992 M27.027449 17.2181C26.053659 18.1548 25.028959 18.3386 23.843499 18.3386C21.774729 18.3386 19.911489 17.0276 19.911489 13.4561C19.911489 9.88449 21.720879 8.57349 23.789649 8.57349C25.858429 8.57349 27.461779 9.62966 27.461779 13.2012H20.242259 M35.114788 8.60908C33.734368 8.41894 32.485978 9.31927 31.843998 10.6193M31.489368 8.77269V18.1226 M38.737616 10.2457C39.101976 9.28012 40.518326 8.56665 41.858346 8.56665C43.711586 8.56665 45.213936 9.8797 45.213936 11.4994L45.219686 12.957V15.5711C45.219686 16.614 45.195116 17.3527 45.496486 18.2784M44.840336 12.957H42.112366C39.608966 12.957 38.308716 14.3433 38.308716 15.8374C38.308716 17.3315 39.546826 18.3408 41.162496 18.3408C43.144726 18.3408 44.770566 16.8882 45.171136 15.7324 M52.836247 22.4782C53.472767 22.5791 54.369357 22.2513 54.473477 21.4032C54.572977 20.5928 54.046267 20.0199 53.273317 19.8846L53.486637 18.5043M56.816497 16.2538C56.444517 17.6492 54.876917 18.3386 53.407817 18.3386C51.270447 18.3386 49.504577 17.0276 49.504577 13.4561C49.504577 9.88449 51.373977 8.57349 53.511347 8.57349C55.018357 8.57349 56.668467 9.41043 56.901757 10.9154 M61.785498 5.3457C61.968508 4.88799 62.562058 4.37024 63.272498 4.37024C64.239888 4.37024 64.792338 5.3457 65.849988 5.3457C67.138728 5.3457 67.474258 4.37118 67.474258 4.37118M61.157618 10.2457C61.521978 9.28012 62.938328 8.56665 64.278348 8.56665C66.131588 8.56665 67.633938 9.8797 67.633938 11.4994L67.639688 12.957V15.5711C67.639688 16.614 67.615118 17.3527 67.916488 18.2784M67.260338 12.957H64.532368C62.028968 12.957 60.728718 14.3433 60.728718 15.8374C60.728718 17.3315 61.966828 18.3408 63.582498 18.3408C65.564728 18.3408 67.190568 16.8882 67.591138 15.7324 M80.256987 13.4569C80.256987 16.5223 78.386037 18.3403 76.078097 18.3403C73.770157 18.3403 71.899197 16.5223 71.899197 13.4569C71.899197 10.3915 73.770157 8.57349 76.078097 8.57349C78.386037 8.57349 80.256987 10.3915 80.256987 13.4569Z M97.449744 18.1243V4.12329M97.089994 16.7727C96.227994 17.8707 95.129684 18.3402 93.820124 18.3402C91.638794 18.3402 89.987464 17.0292 89.987464 13.4576C89.987464 9.88607 91.744454 8.57507 93.925774 8.57507C95.195384 8.57507 96.404944 9.11426 97.089994 10.1748 M108.947443 17.2181C107.973653 18.1548 106.948953 18.3386 105.763493 18.3386C103.694723 18.3386 101.831483 17.0276 101.831483 13.4561C101.831483 9.88449 103.640873 8.57349 105.709643 8.57349C107.778423 8.57349 109.381773 9.62966 109.381773 13.2012H102.162253 M128.75208 4.92993L124.0144 18.1025L123.4533 18.1025L118.72991 4.92993 M132.917613 10.2457C133.281973 9.28012 134.698323 8.56665 136.038343 8.56665C137.891583 8.56665 139.393933 9.8797 139.393933 11.4994L139.399683 12.957V15.5711C139.399683 16.614 139.375113 17.3527 139.676483 18.2784M139.020333 12.957H136.292363C133.788963 12.957 132.488713 14.3433 132.488713 15.8374C132.488713 17.3315 133.726823 18.3408 135.342493 18.3408C137.324723 18.3408 138.950563 16.8882 139.351133 15.7324 M144.365611 4.125V18.1264 M157.076994 13.4569C157.076994 16.5223 155.206044 18.3403 152.898104 18.3403C150.590164 18.3403 148.719204 16.5223 148.719204 13.4569C148.719204 10.3915 150.590164 8.57349 152.898104 8.57349C155.206044 8.57349 157.076994 10.3915 157.076994 13.4569Z M164.874799 8.60908C163.494379 8.41894 162.245989 9.31927 161.604009 10.6193M161.249379 8.77269V18.1226"></path>
        </g>
      </g>
    </g>
    <g id="g-root-path_1lr5vvi1pm4cgf-stroke" data-item-order="0" data-item-id="path_1lr5vvi1pm4cgf" data-item-class="Icon Stroke SceneTarget Indexed InsideFill InsideColorFill" data-item-index="3" data-renderer-id="0" transform="matrix(1, 0, 0, 1, 507, 219)">
      <g id="path_1lr5vvi1pm4cgf-stroke" fill="none" stroke-linecap="round" stroke-linejoin="round" stroke-miterlimit="1.5" stroke="#e15e5a" stroke-width="1" transform="matrix(2, 0, 0, 2, -16, -14)">
        <g xmlns="http://www.w3.org/2000/svg" transform="translate(13, 12)">
          <path d="M13.24,13.49A4.44,4.44,0,0,1,13.5,15a4.51,4.51,0,1,1-1.32-3.18M16.34,10.71A8.52,8.52,0,1,1,15,9M0.5 23.5L2.99 21.01M15.01 21.01L17.5 23.5M16.43000030517578 7.570000171661377L16.06999969482422 3.680000066757202L19.25 0.5L20.31999969482422 3.680000066757202L23.5 4.75L20.31999969482422 7.929999828338623L16.43000030517578 7.570000171661377ZM19 5L9 15"></path>
        </g>
      </g>
    </g>
    <g id="g-root-tx_processe_ddl5em1pmmmmk-stroke" data-item-order="0" data-item-id="tx_processe_ddl5em1pmmmmk" data-item-class="Label Stroke SceneTarget Indexed" data-item-index="4" data-renderer-id="0" transform="matrix(1, 0, 0, 1, 111, 315)">
      <g id="tx_processe_ddl5em1pmmmmk-stroke" fill="none" stroke-linecap="square" stroke-linejoin="miter" stroke-miterlimit="4" stroke="#484848" stroke-width="1" transform="matrix(1, 0, 0, 1, 7, 2)">
        <g xmlns="http://www.w3.org/2000/svg" transform="translate(3, 8)">
          <path d="M9.871215 18.1308V4.94395L15.149625 4.92822C16.248455 4.96678 18.633005 5.74944 18.633005 8.57165C18.633005 11.3939 16.248455 12.2536 15.149625 12.3307L10.399095 12.3449 M26.354805 8.60908C24.974385 8.41894 23.725995 9.31927 23.084015 10.6193M22.729385 8.77269V18.1226 M37.657005 13.4569C37.657005 16.5223 35.786055 18.3403 33.478115 18.3403C31.170175 18.3403 29.299215 16.5223 29.299215 13.4569C29.299215 10.3915 31.170175 8.57349 33.478115 8.57349C35.786055 8.57349 37.657005 10.3915 37.657005 13.4569Z M48.661795 16.2538C48.289825 17.6492 46.722225 18.3386 45.253125 18.3386C43.115755 18.3386 41.349885 17.0276 41.349885 13.4561C41.349885 9.88449 43.219285 8.57349 45.356655 8.57349C46.863665 8.57349 48.513775 9.41043 48.747065 10.9154 M59.477465 17.2181C58.503675 18.1548 57.478975 18.3386 56.293515 18.3386C54.224745 18.3386 52.361505 17.0276 52.361505 13.4561C52.361505 9.88449 54.170895 8.57349 56.239665 8.57349C58.308445 8.57349 59.911795 9.62966 59.911795 13.2012H52.692275 M70.117836 10.3814C69.822106 9.4042 68.667796 8.58374 67.057706 8.58374C65.169986 8.58374 63.950316 9.44691 63.858666 10.7511C63.753626 12.2457 64.987736 12.8218 66.918236 13.3386C68.611846 13.7969 70.555256 14.2772 70.400966 16.1222C70.301596 17.3105 69.324826 18.3458 66.968106 18.3458C65.062176 18.3458 63.984796 17.5302 63.650436 16.4244 M80.927837 10.3814C80.632107 9.4042 79.477797 8.58374 77.867707 8.58374C75.979987 8.58374 74.760317 9.44691 74.668667 10.7511C74.563627 12.2457 75.797737 12.8218 77.728237 13.3386C79.421847 13.7969 81.365257 14.2772 81.210967 16.1222C81.111597 17.3105 80.134827 18.3458 77.778107 18.3458C75.872177 18.3458 74.794797 17.5302 74.460437 16.4244 M93.377005 13.4569C93.377005 16.5223 91.506055 18.3403 89.198115 18.3403C86.890175 18.3403 85.019215 16.5223 85.019215 13.4569C85.019215 10.3915 86.890175 8.57349 89.198115 8.57349C91.506055 8.57349 93.377005 10.3915 93.377005 13.4569Z M103.727832 10.3814C103.432102 9.4042 102.277792 8.58374 100.667702 8.58374C98.779982 8.58374 97.560312 9.44691 97.468662 10.7511C97.363622 12.2457 98.597732 12.8218 100.528232 13.3386C102.221842 13.7969 104.165252 14.2772 104.010962 16.1222C103.911592 17.3105 102.934822 18.3458 100.578102 18.3458C98.672172 18.3458 97.594792 17.5302 97.260432 16.4244"></path>
        </g>
      </g>
    </g>
    <g id="g-root-2_vv6m1pm4e8e-stroke" data-item-order="0" data-item-id="2_vv6m1pm4e8e" data-item-class="Icon Stroke SceneTarget Indexed InsideFill InsideColorFill" data-item-index="4" data-renderer-id="0" transform="matrix(1, 0, 0, 1, 507, 303)">
      <g id="2_vv6m1pm4e8e-stroke" fill="none" stroke-linecap="round" stroke-linejoin="round" stroke-miterlimit="1.5" stroke="#4682e3" stroke-width="1" transform="matrix(2, 0, 0, 2, -14, -14)">
        <g xmlns="http://www.w3.org/2000/svg" transform="translate(12, 12)">
          <path d="M23.25,20.769a2.5,2.5,0,0,1-2.5,2.5H3.25a2.5,2.5,0,0,1,0-5h17.5A2.5,2.5,0,0,1,23.25,20.769ZM4.16 13.151L9.914 13.151L9.914 18.269L4.16 18.269ZM4 20.769a0.5 0.5 0 1 0 1 0a0.5 0.5 0 1 0 -1 0M9 20.769a0.5 0.5 0 1 0 1 0a0.5 0.5 0 1 0 -1 0M14.042 20.769a0.5 0.5 0 1 0 1 0a0.5 0.5 0 1 0 -1 0M19.042 20.769a0.5 0.5 0 1 0 1 0a0.5 0.5 0 1 0 -1 0M7.037 15.194L7.037 13.151M14.542 13.151L20.296 13.151L20.296 18.269L14.542 18.269ZM17.419 15.194L17.419 13.151M22.27199935913086 5.71999979019165L17.281999588012695 0.7310000061988831L17.281999588012695 3.9739999771118164L3.0239999294281006 3.9739999771118164L3.0239999294281006 7.63100004196167L17.281999588012695 7.63100004196167L17.281999588012695 10.710000038146973L22.27199935913086 5.71999979019165Z"></path>
        </g>
      </g>
    </g>
    <g id="g-root-tx_individu_m985ni1pmmltv-stroke" data-item-order="0" data-item-id="tx_individu_m985ni1pmmltv" data-item-class="Label Stroke SceneTarget Indexed" data-item-index="5" data-renderer-id="0" transform="matrix(1, 0, 0, 1, 75, 399)">
      <g id="tx_individu_m985ni1pmmltv-stroke" fill="none" stroke-linecap="square" stroke-linejoin="miter" stroke-miterlimit="4" stroke="#484848" stroke-width="1" transform="matrix(1, 0, 0, 1, 11, 2)">
        <g xmlns="http://www.w3.org/2000/svg" transform="translate(-1, 8)">
          <path d="M13.189403 4.94702V14.4784C13.189403 16.6108 15.168973 18.3395 17.610883 18.3395C20.052803 18.3395 22.032393 16.6108 22.032393 14.4784V4.94702 M32.917823 10.3814C32.622093 9.4042 31.467783 8.58374 29.857693 8.58374C27.969973 8.58374 26.750303 9.44691 26.658653 10.7511C26.553613 12.2457 27.787723 12.8218 29.718223 13.3386C31.411833 13.7969 33.355243 14.2772 33.200953 16.1222C33.101583 17.3105 32.124813 18.3458 29.768093 18.3458C27.862163 18.3458 26.784783 17.5302 26.450423 16.4244 M45.366995 13.4569C45.366995 16.5223 43.496045 18.3403 41.188105 18.3403C38.880165 18.3403 37.009205 16.5223 37.009205 13.4569C37.009205 10.3915 38.880165 8.57349 41.188105 8.57349C43.496045 8.57349 45.366995 10.3915 45.366995 13.4569Z M55.738433 4.97076H55.762363M55.722203 8.80402V18.1446 M60.648903 8.77967L60.649163 18.1279M67.483453 18.1279V12.0738C67.483453 11.3619 67.579183 8.79026 65.196093 8.58694C63.438053 8.43694 61.749013 9.56164 60.972673 10.9562 M79.25975 18.1243V4.12329M78.9 16.7727C78.038 17.8707 76.93969 18.3402 75.63013 18.3402C73.4488 18.3402 71.79747 17.0292 71.79747 13.4576C71.79747 9.88607 73.55446 8.57507 75.73578 8.57507C77.00539 8.57507 78.21495 9.11426 78.9 10.1748 M84.288436 4.97076H84.312366M84.272206 8.80402V18.1446 M95.352752 8.69055L91.983292 18.119L91.782052 18.1189L88.377732 8.69055 M99.528434 4.97076H99.552364M99.512204 8.80402V18.1446 M111.439758 18.1243V4.12329M111.080008 16.7727C110.218008 17.8707 109.119698 18.3402 107.810138 18.3402C105.628808 18.3402 103.977478 17.0292 103.977478 13.4576C103.977478 9.88607 105.734468 8.57507 107.915788 8.57507C109.185398 8.57507 110.394958 9.11426 111.080008 10.1748 M123.096626 18.1148L123.096366 8.7666M116.262076 8.7666L116.262076 14.8207C116.262076 15.5325 116.167076 18.0958 118.549436 18.3075C120.639666 18.4933 121.913096 17.6528 122.615466 16.4701 M128.017627 10.2457C128.381987 9.28012 129.798337 8.56665 131.138357 8.56665C132.991597 8.56665 134.493947 9.8797 134.493947 11.4994L134.499697 12.957V15.5711C134.499697 16.614 134.475127 17.3527 134.776497 18.2784M134.120347 12.957H131.392377C128.888977 12.957 127.588727 14.3433 127.588727 15.8374C127.588727 17.3315 128.826837 18.3408 130.442507 18.3408C132.424737 18.3408 134.050577 16.8882 134.451147 15.7324 M139.465617 4.125V18.1264"></path>
        </g>
      </g>
    </g>
    <g id="g-root-mult_dccdjy1pm4cnh-stroke" data-item-order="0" data-item-id="mult_dccdjy1pm4cnh" data-item-class="Icon Stroke SceneTarget Indexed InsideFill InsideColorFill" data-item-index="5" data-renderer-id="0" transform="matrix(1, 0, 0, 1, 507, 387)">
      <g id="mult_dccdjy1pm4cnh-stroke" fill="none" stroke-linecap="round" stroke-linejoin="round" stroke-miterlimit="1.5" stroke="#3bc482" stroke-width="1" transform="matrix(2, 0, 0, 2, -10, -14)">
        <g xmlns="http://www.w3.org/2000/svg" transform="translate(10, 12)">
          <path d="M21.5,3.5a1,1,0,0,0-1-1H15.052a3.329,3.329,0,0,0-6.1,0H3.5a1,1,0,0,0-1,1v19a1,1,0,0,0,1,1h17a1,1,0,0,0,1-1ZM5.5,20.5h9.08a2,2,0,0,0,1.519-.7l1.92-2.239a2.006,2.006,0,0,0,.481-1.3V5.5H5.5ZM14.769,9.913l-2.9,3.874a.751.751,0,0,1-1.131.08l-1.5-1.5"></path>
        </g>
      </g>
    </g>
  </g>
</svg>