<svg width="854" height="314" viewBox="0 0 854 314" style="fill:none;stroke:none;fill-rule:evenodd;clip-rule:evenodd;stroke-linecap:round;stroke-linejoin:round;stroke-miterlimit:1.5;" version="1.1"
  xmlns="http://www.w3.org/2000/svg"
  xmlns:xlink="http://www.w3.org/1999/xlink">
  <g id="blend" style="mix-blend-mode:multiply">
    <g id="g-root--1.cu_sy_i0938jdwyih4-fill" data-item-order="-149756" data-item-id="-1.cu_sy_i0938jdwyih4" data-item-class="ScenePart Fill Stroke ColorFillGray ColorStrokeGray" data-item-index="-1" data-renderer-id="0" transform="matrix(1, 0, 0, 1, 170, 45)">
      <g id="-1.cu_sy_i0938jdwyih4-fill" stroke="none" fill="#fafafa" transform="matrix(1, 0, 0, 1, -2, -2)">
        <g xmlns="http://www.w3.org/2000/svg" transform="translate(-251, -216)">
          <path d="M 378 252L 354 228L 263 384L 287 408L 378 252ZM 378 252L 287 408L 469 408L 378 252Z"></path>
        </g>
      </g>
    </g>
    <g id="g-root-0.line-start_sy_mg2lczdwyigw-fill" data-item-order="-149753" data-item-id="0.line-start_sy_mg2lczdwyigw" data-item-class="ScenePart Indexed_0 Stroke" data-item-index="0" data-renderer-id="0" transform="matrix(1, 0, 0, 1, 147, 147)"></g>
    <g id="g-root-0.cr-small_cr_i0938jdwyih8-fill" data-item-order="-149752" data-item-id="0.cr-small_cr_i0938jdwyih8" data-item-class="Shape Stroke Fill ScenePart Indexed_0" data-item-index="0" data-renderer-id="0" transform="matrix(1, 0, 0, 1, 75, 111)">
      <g id="0.cr-small_cr_i0938jdwyih8-fill" stroke="none" fill="#f0f0f0" transform="matrix(1, 0, 0, 1, -2, -2)">
        <g xmlns="http://www.w3.org/2000/svg" transform="translate(12, 12)">
          <path d="M0 36a36 36 0 1 0 72 0a36 36 0 1 0 -72 0"></path>
        </g>
      </g>
    </g>
    <g id="g-root-4.cu_sy_mg2lczdwyigx-fill" data-item-order="-149749" data-item-id="4.cu_sy_mg2lczdwyigx" data-item-class="ScenePart Indexed Stroke" data-item-index="4" data-renderer-id="0" transform="matrix(1, 0, 0, 1, 239.5, 147)"></g>
    <g id="g-root-4.cr-small_cr_dkfl43dwyj9q-fill" data-item-order="-149748" data-item-id="4.cr-small_cr_dkfl43dwyj9q" data-item-class="Shape Stroke Fill ScenePart Indexed" data-item-index="4" data-renderer-id="0" transform="matrix(1, 0, 0, 1, 495, 243)">
      <g id="4.cr-small_cr_dkfl43dwyj9q-fill" stroke="none" fill="#fee7f5" transform="matrix(1, 0, 0, 1, -2, -2)">
        <g xmlns="http://www.w3.org/2000/svg" transform="translate(12, 12)">
          <path d="M0 30a30 30 0 1 0 60 0a30 30 0 1 0 -60 0"></path>
        </g>
      </g>
    </g>
    <g id="g-root-3.cu_sy_mg2lczdwyigy-fill" data-item-order="-149745" data-item-id="3.cu_sy_mg2lczdwyigy" data-item-class="ScenePart Indexed Stroke" data-item-index="3" data-renderer-id="0" transform="matrix(1, 0, 0, 1, 240, 147)"></g>
    <g id="g-root-3.cr-small_cr_mg2lczdwyigz-fill" data-item-order="-149744" data-item-id="3.cr-small_cr_mg2lczdwyigz" data-item-class="Shape Stroke Fill ScenePart Indexed" data-item-index="3" data-renderer-id="0" transform="matrix(1, 0, 0, 1, 495, 159)">
      <g id="3.cr-small_cr_mg2lczdwyigz-fill" stroke="none" fill="#ffe7e6" transform="matrix(1, 0, 0, 1, -2, -2)">
        <g xmlns="http://www.w3.org/2000/svg" transform="translate(12, 12)">
          <path d="M0 30a30 30 0 1 0 60 0a30 30 0 1 0 -60 0"></path>
        </g>
      </g>
    </g>
    <g id="g-root-2.cu_sy_i0938jdwyih9-fill" data-item-order="-149741" data-item-id="2.cu_sy_i0938jdwyih9" data-item-class="ScenePart Indexed Stroke" data-item-index="2" data-renderer-id="0" transform="matrix(1, 0, 0, 1, 239.5, 100.36181640625)"></g>
    <g id="g-root-2.cr-small_cr_i0938jdwyih5-fill" data-item-order="-149740" data-item-id="2.cr-small_cr_i0938jdwyih5" data-item-class="Shape Stroke Fill ScenePart Indexed" data-item-index="2" data-renderer-id="0" transform="matrix(1, 0, 0, 1, 495, 75)">
      <g id="2.cr-small_cr_i0938jdwyih5-fill" stroke="none" fill="#fef2e6" transform="matrix(1, 0, 0, 1, -2, -2)">
        <g xmlns="http://www.w3.org/2000/svg" transform="translate(12, 12)">
          <path d="M0 30a30 30 0 1 0 60 0a30 30 0 1 0 -60 0"></path>
        </g>
      </g>
    </g>
    <g id="g-root-1.cu_sy_i0938jdwyih3-fill" data-item-order="-149737" data-item-id="1.cu_sy_i0938jdwyih3" data-item-class="ScenePart Indexed Indexed_1 Stroke" data-item-index="1" data-renderer-id="0" transform="matrix(1, 0, 0, 1, 239.5, 19.18408203125)"></g>
    <g id="g-root-1.cr-small_cr_i0938jdwyih0-fill" data-item-order="-149736" data-item-id="1.cr-small_cr_i0938jdwyih0" data-item-class="Shape Stroke Fill ScenePart Indexed Indexed_1" data-item-index="1" data-renderer-id="0" transform="matrix(1, 0, 0, 1, 495, -9)">
      <g id="1.cr-small_cr_i0938jdwyih0-fill" stroke="none" fill="#fffce6" transform="matrix(1, 0, 0, 1, -2, -2)">
        <g xmlns="http://www.w3.org/2000/svg" transform="translate(12, 12)">
          <path d="M0 30a30 30 0 1 0 60 0a30 30 0 1 0 -60 0"></path>
        </g>
      </g>
    </g>
    <g id="g-root-1_i0938jdwyih2-fill" data-item-order="0" data-item-id="1_i0938jdwyih2" data-item-class="Icon Stroke SceneTarget Indexed Indexed_1 InsideFill InsideColorFill" data-item-index="1" data-renderer-id="0" transform="matrix(1, 0, 0, 1, 507, 3)"></g>
    <g id="g-root-tx_biasandd_i0938jdwyih1-fill" data-item-order="0" data-item-id="tx_biasandd_i0938jdwyih1" data-item-class="Label Stroke SceneTarget Indexed Indexed_1" data-item-index="1" data-renderer-id="0" transform="matrix(1, 0, 0, 1, 567, -3)"></g>
    <g id="g-root-1_i0938jdwyih7-fill" data-item-order="0" data-item-id="1_i0938jdwyih7" data-item-class="Icon Stroke SceneTarget Indexed InsideFill InsideColorFill" data-item-index="2" data-renderer-id="0" transform="matrix(1, 0, 0, 1, 507, 87)"></g>
    <g id="g-root-tx_datapriv_i0938jdwyih6-fill" data-item-order="0" data-item-id="tx_datapriv_i0938jdwyih6" data-item-class="Label Stroke SceneTarget Indexed" data-item-index="2" data-renderer-id="0" transform="matrix(1, 0, 0, 1, 567, 81)"></g>
    <g id="g-root-tx_airisks_i0938jdwyiha-fill" data-item-order="0" data-item-id="tx_airisks_i0938jdwyiha" data-item-class="Label Stroke SceneTarget SceneStart" data-item-index="none" data-renderer-id="0" transform="matrix(1, 0, 0, 1, -9, 135)"></g>
    <g id="g-root-1_i0938jdwyihb-fill" data-item-order="0" data-item-id="1_i0938jdwyihb" data-item-class="Icon Stroke SceneTarget SceneStart InsideFill" data-item-index="none" data-renderer-id="0" transform="matrix(1, 0, 0, 1, 87, 123)"></g>
    <g id="g-root-sear_dkfl43dwyj9p-fill" data-item-order="0" data-item-id="sear_dkfl43dwyj9p" data-item-class="Icon Stroke SceneTarget Indexed InsideFill InsideColorFill" data-item-index="3" data-renderer-id="0" transform="matrix(1, 0, 0, 1, 507, 171)"></g>
    <g id="g-root-tx_transpar_mg2lczdwyih0-fill" data-item-order="0" data-item-id="tx_transpar_mg2lczdwyih0" data-item-class="Label Stroke SceneTarget Indexed" data-item-index="3" data-renderer-id="0" transform="matrix(1, 0, 0, 1, 567, 165)"></g>
    <g id="g-root-clou_i0938jdwyj9c-fill" data-item-order="0" data-item-id="clou_i0938jdwyj9c" data-item-class="Icon Stroke SceneTarget Indexed InsideFill InsideColorFill" data-item-index="4" data-renderer-id="0" transform="matrix(1, 0, 0, 1, 507, 255)"></g>
    <g id="g-root-tx_generati_dkfl43dwyj9r-fill" data-item-order="0" data-item-id="tx_generati_dkfl43dwyj9r" data-item-class="Label Stroke SceneTarget Indexed" data-item-index="4" data-renderer-id="0" transform="matrix(1, 0, 0, 1, 567, 249)"></g>
    <g id="g-root--1.cu_sy_i0938jdwyih4-stroke" data-item-order="-149756" data-item-id="-1.cu_sy_i0938jdwyih4" data-item-class="ScenePart Fill Stroke ColorFillGray ColorStrokeGray" data-item-index="-1" data-renderer-id="0" transform="matrix(1, 0, 0, 1, 170, 45)">
      <g id="-1.cu_sy_i0938jdwyih4-stroke" fill="none" stroke-linecap="round" stroke-linejoin="round" stroke-miterlimit="1.5" stroke="#bbbbbb" stroke-width="2" transform="matrix(1, 0, 0, 1, -2, -2)">
        <g xmlns="http://www.w3.org/2000/svg" transform="translate(-251, -216)">
          <path d="M 378 252L 354 228L 263 384L 287 408L 378 252ZM 378 252L 287 408L 469 408L 378 252Z"></path>
        </g>
      </g>
    </g>
    <g id="g-root-0.line-start_sy_mg2lczdwyigw-stroke" data-item-order="-149753" data-item-id="0.line-start_sy_mg2lczdwyigw" data-item-class="ScenePart Indexed_0 Stroke" data-item-index="0" data-renderer-id="0" transform="matrix(1, 0, 0, 1, 147, 147)">
      <g id="0.line-start_sy_mg2lczdwyigw-stroke" fill="none" stroke-linecap="round" stroke-linejoin="round" stroke-miterlimit="1.5" stroke="#484848" stroke-width="2" transform="matrix(1, 0, 0, 1, -2, -2)">
        <g xmlns="http://www.w3.org/2000/svg" transform="translate(-228, -318)">
          <path d="M 240 330L 332.5 330"></path>
        </g>
      </g>
    </g>
    <g id="g-root-0.cr-small_cr_i0938jdwyih8-stroke" data-item-order="-149752" data-item-id="0.cr-small_cr_i0938jdwyih8" data-item-class="Shape Stroke Fill ScenePart Indexed_0" data-item-index="0" data-renderer-id="0" transform="matrix(1, 0, 0, 1, 75, 111)">
      <g id="0.cr-small_cr_i0938jdwyih8-stroke" fill="none" stroke-linecap="round" stroke-linejoin="round" stroke-miterlimit="1.5" stroke="#484848" stroke-width="2" transform="matrix(1, 0, 0, 1, -2, -2)">
        <g xmlns="http://www.w3.org/2000/svg" transform="translate(12, 12)">
          <path d="M0 36a36 36 0 1 0 72 0a36 36 0 1 0 -72 0"></path>
        </g>
      </g>
    </g>
    <g id="g-root-4.cu_sy_mg2lczdwyigx-stroke" data-item-order="-149749" data-item-id="4.cu_sy_mg2lczdwyigx" data-item-class="ScenePart Indexed Stroke" data-item-index="4" data-renderer-id="0" transform="matrix(1, 0, 0, 1, 239.5, 147)">
      <g id="4.cu_sy_mg2lczdwyigx-stroke" fill="none" stroke-linecap="round" stroke-linejoin="round" stroke-miterlimit="1.5" stroke="#da5da8" stroke-width="2" transform="matrix(1, 0, 0, 1, -2.5, -2)">
        <g xmlns="http://www.w3.org/2000/svg" transform="translate(-320, -318)">
          <path d="M 582 456L 434 348L 332.5 330M 580.581 447.594L 581.974 455.943L 573.625 457.336"></path>
        </g>
      </g>
    </g>
    <g id="g-root-4.cr-small_cr_dkfl43dwyj9q-stroke" data-item-order="-149748" data-item-id="4.cr-small_cr_dkfl43dwyj9q" data-item-class="Shape Stroke Fill ScenePart Indexed" data-item-index="4" data-renderer-id="0" transform="matrix(1, 0, 0, 1, 495, 243)">
      <g id="4.cr-small_cr_dkfl43dwyj9q-stroke" fill="none" stroke-linecap="round" stroke-linejoin="round" stroke-miterlimit="1.5" stroke="#da5da8" stroke-width="2" transform="matrix(1, 0, 0, 1, -2, -2)">
        <g xmlns="http://www.w3.org/2000/svg" transform="translate(12, 12)">
          <path d="M0 30a30 30 0 1 0 60 0a30 30 0 1 0 -60 0"></path>
        </g>
      </g>
    </g>
    <g id="g-root-3.cu_sy_mg2lczdwyigy-stroke" data-item-order="-149745" data-item-id="3.cu_sy_mg2lczdwyigy" data-item-class="ScenePart Indexed Stroke" data-item-index="3" data-renderer-id="0" transform="matrix(1, 0, 0, 1, 240, 147)">
      <g id="3.cu_sy_mg2lczdwyigy-stroke" fill="none" stroke-linecap="round" stroke-linejoin="round" stroke-miterlimit="1.5" stroke="#e15e5a" stroke-width="2" transform="matrix(1, 0, 0, 1, -2, -2)">
        <g xmlns="http://www.w3.org/2000/svg" transform="translate(-321, -318)">
          <path d="M 582 372L 427 336L 333 330M 577.571 365L 582.131 372.131L 575 376.691"></path>
        </g>
      </g>
    </g>
    <g id="g-root-3.cr-small_cr_mg2lczdwyigz-stroke" data-item-order="-149744" data-item-id="3.cr-small_cr_mg2lczdwyigz" data-item-class="Shape Stroke Fill ScenePart Indexed" data-item-index="3" data-renderer-id="0" transform="matrix(1, 0, 0, 1, 495, 159)">
      <g id="3.cr-small_cr_mg2lczdwyigz-stroke" fill="none" stroke-linecap="round" stroke-linejoin="round" stroke-miterlimit="1.5" stroke="#e15e5a" stroke-width="2" transform="matrix(1, 0, 0, 1, -2, -2)">
        <g xmlns="http://www.w3.org/2000/svg" transform="translate(12, 12)">
          <path d="M0 30a30 30 0 1 0 60 0a30 30 0 1 0 -60 0"></path>
        </g>
      </g>
    </g>
    <g id="g-root-2.cu_sy_i0938jdwyih9-stroke" data-item-order="-149741" data-item-id="2.cu_sy_i0938jdwyih9" data-item-class="ScenePart Indexed Stroke" data-item-index="2" data-renderer-id="0" transform="matrix(1, 0, 0, 1, 239.5, 100.36181640625)">
      <g id="2.cu_sy_i0938jdwyih9-stroke" fill="none" stroke-linecap="round" stroke-linejoin="round" stroke-miterlimit="1.5" stroke="#dd8433" stroke-width="2" transform="matrix(1, 0, 0, 1, -2.5, -2.36199951171875)">
        <g xmlns="http://www.w3.org/2000/svg" transform="translate(-320, -271)">
          <path d="M 582 288L 420 324L 332.5 330M 575 283.362L 582.19 287.828L 577.724 295.018"></path>
        </g>
      </g>
    </g>
    <g id="g-root-2.cr-small_cr_i0938jdwyih5-stroke" data-item-order="-149740" data-item-id="2.cr-small_cr_i0938jdwyih5" data-item-class="Shape Stroke Fill ScenePart Indexed" data-item-index="2" data-renderer-id="0" transform="matrix(1, 0, 0, 1, 495, 75)">
      <g id="2.cr-small_cr_i0938jdwyih5-stroke" fill="none" stroke-linecap="round" stroke-linejoin="round" stroke-miterlimit="1.5" stroke="#dd8433" stroke-width="2" transform="matrix(1, 0, 0, 1, -2, -2)">
        <g xmlns="http://www.w3.org/2000/svg" transform="translate(12, 12)">
          <path d="M0 30a30 30 0 1 0 60 0a30 30 0 1 0 -60 0"></path>
        </g>
      </g>
    </g>
    <g id="g-root-1.cu_sy_i0938jdwyih3-stroke" data-item-order="-149737" data-item-id="1.cu_sy_i0938jdwyih3" data-item-class="ScenePart Indexed Indexed_1 Stroke" data-item-index="1" data-renderer-id="0" transform="matrix(1, 0, 0, 1, 239.5, 19.18408203125)">
      <g id="1.cu_sy_i0938jdwyih3-stroke" fill="none" stroke-linecap="round" stroke-linejoin="round" stroke-miterlimit="1.5" stroke="#e3cd09" stroke-width="2" transform="matrix(1, 0, 0, 1, -2.5, -2.1840057373046875)">
        <g xmlns="http://www.w3.org/2000/svg" transform="translate(-320, -190)">
          <path d="M 332.5 330L 413 312L 582 204M 573.606 202.184L 581.879 203.973L 580.091 212.246"></path>
        </g>
      </g>
    </g>
    <g id="g-root-1.cr-small_cr_i0938jdwyih0-stroke" data-item-order="-149736" data-item-id="1.cr-small_cr_i0938jdwyih0" data-item-class="Shape Stroke Fill ScenePart Indexed Indexed_1" data-item-index="1" data-renderer-id="0" transform="matrix(1, 0, 0, 1, 495, -9)">
      <g id="1.cr-small_cr_i0938jdwyih0-stroke" fill="none" stroke-linecap="round" stroke-linejoin="round" stroke-miterlimit="1.5" stroke="#e3cd09" stroke-width="2" transform="matrix(1, 0, 0, 1, -2, -2)">
        <g xmlns="http://www.w3.org/2000/svg" transform="translate(12, 12)">
          <path d="M0 30a30 30 0 1 0 60 0a30 30 0 1 0 -60 0"></path>
        </g>
      </g>
    </g>
    <g id="g-root-1_i0938jdwyih2-stroke" data-item-order="0" data-item-id="1_i0938jdwyih2" data-item-class="Icon Stroke SceneTarget Indexed Indexed_1 InsideFill InsideColorFill" data-item-index="1" data-renderer-id="0" transform="matrix(1, 0, 0, 1, 507, 3)">
      <g id="1_i0938jdwyih2-stroke" fill="none" stroke-linecap="round" stroke-linejoin="round" stroke-miterlimit="1.5" stroke="#e3cd09" stroke-width="1.333" transform="matrix(1.5, 0, 0, 1.5, -8, -5)">
        <g xmlns="http://www.w3.org/2000/svg" transform="translate(12, 10)">
          <path d="M12 3.5L12 22M1 16L4.5 8.535 8 16M4.5,19.5A3.416,3.416,0,0,0,8,16H1A3.416,3.416,0,0,0,4.5,19.5ZM23 10L19.5 2.413 16 10M19.5,13.5A3.416,3.416,0,0,1,16,10h7A3.416,3.416,0,0,1,19.5,13.5ZM13.494 4.895L20.5 2M2.446 9.365L13.494 4.895M7.5 22L16.5 22"></path>
        </g>
      </g>
    </g>
    <g id="g-root-tx_biasandd_i0938jdwyih1-stroke" data-item-order="0" data-item-id="tx_biasandd_i0938jdwyih1" data-item-class="Label Stroke SceneTarget Indexed Indexed_1" data-item-index="1" data-renderer-id="0" transform="matrix(1, 0, 0, 1, 567, -3)">
      <g id="tx_biasandd_i0938jdwyih1-stroke" fill="none" stroke-linecap="square" stroke-linejoin="miter" stroke-miterlimit="4" stroke="#484848" stroke-width="1" transform="matrix(1, 0, 0, 1, 5, 7)">
        <g xmlns="http://www.w3.org/2000/svg" transform="translate(9, 9)">
          <path d="M13.7021 4.92993L8.96442 18.1025L8.40332 18.1025L3.67993 4.92993 M17.92844 4.97076H17.95237M17.91221 8.80402V18.1446 M27.797199 3.92761L26.549969 5.55454M29.487459 17.2181C28.513669 18.1548 27.488969 18.3386 26.303509 18.3386C24.234739 18.3386 22.371499 17.0276 22.371499 13.4561C22.371499 9.88449 24.180889 8.57349 26.249659 8.57349C28.318439 8.57349 29.921789 9.62966 29.921789 13.2012H22.702269 M40.147829 10.3814C39.852099 9.4042 38.697789 8.58374 37.087699 8.58374C35.199979 8.58374 33.980309 9.44691 33.888659 10.7511C33.783619 12.2457 35.017729 12.8218 36.948229 13.3386C38.641839 13.7969 40.585249 14.2772 40.430959 16.1222C40.331589 17.3105 39.354819 18.3458 36.998099 18.3458C35.092169 18.3458 34.014789 17.5302 33.680429 16.4244 M57.447458 17.2181C56.473668 18.1548 55.448968 18.3386 54.263508 18.3386C52.194738 18.3386 50.331498 17.0276 50.331498 13.4561C50.331498 9.88449 52.140888 8.57349 54.209658 8.57349C56.278438 8.57349 57.881788 9.62966 57.881788 13.2012H50.662268 M8.73682 42.1804L4.72754 42.1827V28.94829C5.67546 28.94829 6.954 28.94607 8.354 28.94607C9.80664 28.90961 13.5869 30.17329 13.5869 35.5108C13.5869 40.8483 10.06185 42.1804 8.73682 42.1804Z M18.33844 28.97076H18.36237M18.32221 32.80402V42.1446 M29.407829 34.3814C29.112099 33.4042 27.957789 32.58374 26.347699 32.58374C24.459979 32.58374 23.240309 33.44691 23.148659 34.7511C23.043619 36.2457 24.277729 36.8218 26.208229 37.3386C27.901839 37.7969 29.845249 38.2772 29.690959 40.1222C29.591589 41.3105 28.614819 42.3458 26.258099 42.3458C24.352169 42.3458 23.274789 41.5302 22.940429 40.4244 M40.87179 40.2538C40.49982 41.6492 38.93222 42.3386 37.46312 42.3386C35.32575 42.3386 33.55988 41.0276 33.55988 37.4561C33.55988 33.88449 35.42928 32.57349 37.56665 32.57349C39.07366 32.57349 40.72377 33.41043 40.95706 34.9154 M48.6448 32.60908C47.26438 32.41894 46.01599 33.31927 45.37401 34.6193M45.01938 32.77269V42.1226 M52.32844 28.97076H52.35237M52.31221 32.80402V42.1446 M57.259691 32.81417L57.259961 42.1624M64.094241 42.1624L64.083371 35.4697C64.018921 34.5262 63.651991 33.07848 61.777771 32.64916C59.838081 32.20484 58.358281 33.24827 57.621871 34.5949M70.929301 42.1624V36.1083C70.929301 35.3964 71.043901 33.20604 68.612901 32.64916C66.583801 32.18437 65.049501 33.34748 64.349111 34.7827 M75.888442 28.97076H75.912372M75.872212 32.80402V42.1446 M80.798908 32.77967L80.799168 42.1279M87.633458 42.1279V36.0738C87.633458 35.3619 87.729188 32.79026 85.346098 32.58694C83.588058 32.43694 81.899018 33.56164 81.122678 34.9562 M92.527629 34.2457C92.891989 33.28012 94.308339 32.56665 95.648359 32.56665C97.501599 32.56665 99.003949 33.8797 99.003949 35.4994L99.009699 36.957V39.5711C99.009699 40.614 98.985129 41.3527 99.286499 42.2784M98.630349 36.957H95.902379C93.398979 36.957 92.098729 38.3433 92.098729 39.8374C92.098729 41.3315 93.336839 42.3408 94.952509 42.3408C96.934739 42.3408 98.560579 40.8882 98.961149 39.7324 M106.626259 46.4782C107.262779 46.5791 108.159369 46.2513 108.263489 45.4032C108.362989 44.5928 107.836279 44.0199 107.063329 43.8846L107.276649 42.5043M110.606509 40.2538C110.234529 41.6492 108.666929 42.3386 107.197829 42.3386C105.060459 42.3386 103.294589 41.0276 103.294589 37.4561C103.294589 33.88449 105.163989 32.57349 107.301359 32.57349C108.808369 32.57349 110.458479 33.41043 110.691769 34.9154 M115.575507 29.3457C115.758517 28.88799 116.352067 28.37024 117.062507 28.37024C118.029897 28.37024 118.582347 29.3457 119.639997 29.3457C120.928737 29.3457 121.264267 28.37118 121.264267 28.37118M114.947627 34.2457C115.311987 33.28012 116.728337 32.56665 118.068357 32.56665C119.921597 32.56665 121.423947 33.8797 121.423947 35.4994L121.429697 36.957V39.5711C121.429697 40.614 121.405127 41.3527 121.706497 42.2784M121.050347 36.957H118.322377C115.818977 36.957 114.518727 38.3433 114.518727 39.8374C114.518727 41.3315 115.756837 42.3408 117.372507 42.3408C119.354737 42.3408 120.980577 40.8882 121.381147 39.7324 M134.046995 37.4569C134.046995 40.5223 132.176045 42.3403 129.868105 42.3403C127.560165 42.3403 125.689205 40.5223 125.689205 37.4569C125.689205 34.3915 127.560165 32.57349 129.868105 32.57349C132.176045 32.57349 134.046995 34.3915 134.046995 37.4569Z"></path>
        </g>
      </g>
    </g>
    <g id="g-root-1_i0938jdwyih7-stroke" data-item-order="0" data-item-id="1_i0938jdwyih7" data-item-class="Icon Stroke SceneTarget Indexed InsideFill InsideColorFill" data-item-index="2" data-renderer-id="0" transform="matrix(1, 0, 0, 1, 507, 87)">
      <g id="1_i0938jdwyih7-stroke" fill="none" stroke-linecap="round" stroke-linejoin="round" stroke-miterlimit="1.5" stroke="#dd8433" stroke-width="1.333" transform="matrix(1.5, 0, 0, 1.5, -8, -8)">
        <g xmlns="http://www.w3.org/2000/svg" transform="translate(12, 12)">
          <path d="M3.063.75h6.984a1,1,0,0,1,1,1V7.488a0,0,0,0,1,0,0H2.063a0,0,0,0,1,0,0V1.75A1,1,0,0,1,3.063.75ZM11.361,11.98H1.749A1.123,1.123,0,0,1,.7,10.462L2.063,7.488h8.984l1.365,2.974A1.123,1.123,0,0,1,11.361,11.98ZM6.555 11.98L6.555 17.033M0.875 17.033L10.855 17.033M15.375 15.75h6.5s1.5 0 1.5 1.5v4.5s0 1.5 -1.5 1.5 h-6.5s-1.5 0 -1.5 -1.5v-4.5s0 -1.5 1.5 -1.5M15.125,15.771V14.25a3.5,3.5,0,0,1,7,0v1.521M17.125 19.5L18.125 20.5L20.125 18.5M5.865 9.734L7.36 9.734"></path>
        </g>
      </g>
    </g>
    <g id="g-root-tx_datapriv_i0938jdwyih6-stroke" data-item-order="0" data-item-id="tx_datapriv_i0938jdwyih6" data-item-class="Label Stroke SceneTarget Indexed" data-item-index="2" data-renderer-id="0" transform="matrix(1, 0, 0, 1, 567, 81)">
      <g id="tx_datapriv_i0938jdwyih6-stroke" fill="none" stroke-linecap="square" stroke-linejoin="miter" stroke-miterlimit="4" stroke="#484848" stroke-width="1" transform="matrix(1, 0, 0, 1, 5, 8)">
        <g xmlns="http://www.w3.org/2000/svg" transform="translate(9, 8)">
          <path d="M4.74121 18.1308V4.94395L10.01962 4.92822C11.11845 4.96678 13.503 5.74944 13.503 8.57165C13.503 11.3939 11.11845 12.2536 10.01962 12.3307L5.26909 12.3449 M21.2248 8.60908C19.84438 8.41894 18.59599 9.31927 17.95401 10.6193M17.59938 8.77269V18.1226 M24.90844 4.97076H24.93237M24.89221 8.80402V18.1446 M35.972761 8.69055L32.603301 18.119L32.402061 18.1189L28.997741 8.69055 M40.08763 10.2457C40.45199 9.28012 41.86834 8.56665 43.20836 8.56665C45.0616 8.56665 46.56395 9.8797 46.56395 11.4994L46.5697 12.957V15.5711C46.5697 16.614 46.54513 17.3527 46.8465 18.2784M46.19035 12.957H43.46238C40.95898 12.957 39.65873 14.3433 39.65873 15.8374C39.65873 17.3315 40.89684 18.3408 42.51251 18.3408C44.49474 18.3408 46.12058 16.8882 46.52115 15.7324 M58.21179 16.2538C57.83982 17.6492 56.27222 18.3386 54.80312 18.3386C52.66575 18.3386 50.89988 17.0276 50.89988 13.4561C50.89988 9.88449 52.76928 8.57349 54.90665 8.57349C56.41366 8.57349 58.06377 9.41043 58.29706 10.9154 M62.55844 4.97076H62.58237M62.54221 8.80402V18.1446 M74.469756 18.1243V4.12329M74.110006 16.7727C73.248006 17.8707 72.149696 18.3402 70.840136 18.3402C68.658806 18.3402 67.007476 17.0292 67.007476 13.4576C67.007476 9.88607 68.764466 8.57507 70.945786 8.57507C72.215396 8.57507 73.424956 9.11426 74.110006 10.1748 M79.437632 10.2457C79.801992 9.28012 81.218342 8.56665 82.558362 8.56665C84.411602 8.56665 85.913952 9.8797 85.913952 11.4994L85.919702 12.957V15.5711C85.919702 16.614 85.895132 17.3527 86.196502 18.2784M85.540352 12.957H82.812382C80.308982 12.957 79.008732 14.3433 79.008732 15.8374C79.008732 17.3315 80.246842 18.3408 81.862512 18.3408C83.844742 18.3408 85.470582 16.8882 85.871152 15.7324 M97.749763 18.1243V4.12329M97.390013 16.7727C96.528013 17.8707 95.429703 18.3402 94.120143 18.3402C91.938813 18.3402 90.287483 17.0292 90.287483 13.4576C90.287483 9.88607 92.044473 8.57507 94.225793 8.57507C95.495403 8.57507 96.704963 9.11426 97.390013 10.1748 M109.247461 17.2181C108.273671 18.1548 107.248971 18.3386 106.063511 18.3386C103.994741 18.3386 102.131501 17.0276 102.131501 13.4561C102.131501 9.88449 103.940891 8.57349 106.009661 8.57349C108.078441 8.57349 109.681791 9.62966 109.681791 13.2012H102.462271 M126.377458 17.2181C125.403668 18.1548 124.378968 18.3386 123.193508 18.3386C121.124738 18.3386 119.261498 17.0276 119.261498 13.4561C119.261498 9.88449 121.070888 8.57349 123.139658 8.57349C125.208438 8.57349 126.811788 9.62966 126.811788 13.2012H119.592268 M12.5961 31.45723C12.1648 29.89331 10.54508 28.73169 8.45644 28.73169C6.00763 28.73169 4.30654 29.93098 4.30654 31.75431C4.30654 33.72412 5.77121 34.6852 8.2755 35.406C10.4725 36.0451 12.7095 36.8125 12.7095 39.2879C12.7095 40.9509 11.3974 42.3458 8.34019 42.3458C5.86777 42.3458 4.28744 41.1057 3.92261 39.4828 M23.51746 41.2181C22.54367 42.1548 21.51897 42.3386 20.33351 42.3386C18.26474 42.3386 16.4015 41.0276 16.4015 37.4561C16.4015 33.88449 18.21089 32.57349 20.27966 32.57349C22.34844 32.57349 23.95179 33.62966 23.95179 37.2012H16.73227 M35.009159 32.65246V42.6545C35.009159 47.3512 29.715739 47.0007 28.280849 45.4703M34.675479 40.5732C33.995339 41.6608 32.771069 42.2139 31.485189 42.2139C29.303869 42.2139 27.546879 40.9029 27.546879 37.3313C27.546879 33.75974 29.198209 32.44873 31.379539 32.44873C32.647569 32.44873 33.952609 33.1294 34.675479 34.5024 M46.576629 42.1148L46.576369 32.7666M39.742079 32.7666L39.742079 38.8207C39.742079 39.5325 39.647079 42.0958 42.029439 42.3075C44.119669 42.4933 45.393099 41.6528 46.095469 40.4701 M54.9848 32.60908C53.60438 32.41894 52.35599 33.31927 51.71401 34.6193M51.35938 32.77269V42.1226 M58.607631 34.2457C58.971991 33.28012 60.388341 32.56665 61.728361 32.56665C63.581601 32.56665 65.083951 33.8797 65.083951 35.4994L65.089701 36.957V39.5711C65.089701 40.614 65.065131 41.3527 65.366501 42.2784M64.710351 36.957H61.982381C59.478981 36.957 58.178731 38.3433 58.178731 39.8374C58.178731 41.3315 59.416841 42.3408 61.032511 42.3408C63.014741 42.3408 64.640581 40.8882 65.041151 39.7324 M69.918911 32.77967L69.919171 42.1279M76.753461 42.1279V36.0738C76.753461 35.3619 76.849191 32.79026 74.466101 32.58694C72.708061 32.43694 71.019021 33.56164 70.242681 34.9562 M84.316262 46.4782C84.952782 46.5791 85.849372 46.2513 85.953492 45.4032C86.052992 44.5928 85.526282 44.0199 84.753332 43.8846L84.966652 42.5043M88.296512 40.2538C87.924532 41.6492 86.356932 42.3386 84.887832 42.3386C82.750462 42.3386 80.984592 41.0276 80.984592 37.4561C80.984592 33.88449 82.853992 32.57349 84.991362 32.57349C86.498372 32.57349 88.148482 33.41043 88.381772 34.9154 M92.637629 34.2457C93.001989 33.28012 94.418339 32.56665 95.758359 32.56665C97.611599 32.56665 99.113949 33.8797 99.113949 35.4994L99.119699 36.957V39.5711C99.119699 40.614 99.095129 41.3527 99.396499 42.2784M98.740349 36.957H96.012379C93.508979 36.957 92.208729 38.3433 92.208729 39.8374C92.208729 41.3315 93.446839 42.3408 95.062509 42.3408C97.044739 42.3408 98.670579 40.8882 99.071149 39.7324 M116.94976 42.1243V28.12329M116.59001 40.7727C115.72801 41.8707 114.6297 42.3402 113.32014 42.3402C111.13881 42.3402 109.48748 41.0292 109.48748 37.4576C109.48748 33.88607 111.24447 32.57507 113.42579 32.57507C114.6954 32.57507 115.90496 33.11426 116.59001 34.1748 M128.447458 41.2181C127.473668 42.1548 126.448968 42.3386 125.263508 42.3386C123.194738 42.3386 121.331498 41.0276 121.331498 37.4561C121.331498 33.88449 123.140888 32.57349 125.209658 32.57349C127.278438 32.57349 128.881788 33.62966 128.881788 37.2012H121.662268 M143.286823 42.1804L139.277543 42.1827V28.94829C140.225463 28.94829 141.504003 28.94607 142.904003 28.94607C144.356643 28.90961 148.136903 30.17329 148.136903 35.5108C148.136903 40.8483 144.611853 42.1804 143.286823 42.1804Z M152.827632 34.2457C153.191992 33.28012 154.608342 32.56665 155.948362 32.56665C157.801602 32.56665 159.303952 33.8797 159.303952 35.4994L159.309702 36.957V39.5711C159.309702 40.614 159.285132 41.3527 159.586502 42.2784M158.930352 36.957H156.202382C153.698982 36.957 152.398732 38.3433 152.398732 39.8374C152.398732 41.3315 153.636842 42.3408 155.252512 42.3408C157.234742 42.3408 158.860582 40.8882 159.261152 39.7324 M171.13977 42.1243V28.12329M170.78002 40.7727C169.91802 41.8707 168.81971 42.3402 167.51015 42.3402C165.32882 42.3402 163.67749 41.0292 163.67749 37.4576C163.67749 33.88607 165.43448 32.57507 167.6158 32.57507C168.88541 32.57507 170.09497 33.11426 170.78002 34.1748 M183.787016 37.4569C183.787016 40.5223 181.916066 42.3403 179.608126 42.3403C177.300186 42.3403 175.429226 40.5223 175.429226 37.4569C175.429226 34.3915 177.300186 32.57349 179.608126 32.57349C181.916066 32.57349 183.787016 34.3915 183.787016 37.4569Z M194.137851 34.3814C193.842121 33.4042 192.687811 32.58374 191.077721 32.58374C189.190001 32.58374 187.970331 33.44691 187.878681 34.7511C187.773641 36.2457 189.007751 36.8218 190.938251 37.3386C192.631861 37.7969 194.575271 38.2772 194.420981 40.1222C194.321611 41.3105 193.344841 42.3458 190.988121 42.3458C189.082191 42.3458 188.004811 41.5302 187.670451 40.4244"></path>
        </g>
      </g>
    </g>
    <g id="g-root-tx_airisks_i0938jdwyiha-stroke" data-item-order="0" data-item-id="tx_airisks_i0938jdwyiha" data-item-class="Label Stroke SceneTarget SceneStart" data-item-index="none" data-renderer-id="0" transform="matrix(1, 0, 0, 1, -9, 135)">
      <g id="tx_airisks_i0938jdwyiha-stroke" fill="none" stroke-linecap="square" stroke-linejoin="miter" stroke-miterlimit="4" stroke="#484848" stroke-width="1" transform="matrix(1, 0, 0, 1, 7.599998474121094, 2)">
        <g xmlns="http://www.w3.org/2000/svg" transform="translate(-3, 8)">
          <path d="M15.524979 18.1329V4.94524L20.321249 4.92993C21.390979 4.96747 23.712399 5.72941 23.712399 8.47691C23.712399 11.2244 21.390989 12.0614 20.321249 12.1365L16.074439 12.15M23.938699 18.2494L20.828039 12.5145 M28.278439 4.97076H28.302369M28.262209 8.80402V18.1446 M39.347829 10.3814C39.052099 9.4042 37.897789 8.58374 36.287699 8.58374C34.399979 8.58374 33.180309 9.44691 33.088659 10.7511C32.983619 12.2457 34.217729 12.8218 36.148229 13.3386C37.841839 13.7969 39.785249 14.2772 39.630959 16.1222C39.531589 17.3105 38.554819 18.3458 36.198099 18.3458C34.292169 18.3458 33.214789 17.5302 32.880429 16.4244 M50.811789 16.2538C50.439819 17.6492 48.872219 18.3386 47.403119 18.3386C45.265749 18.3386 43.499879 17.0276 43.499879 13.4561C43.499879 9.88449 45.369279 8.57349 47.506649 8.57349C49.013659 8.57349 50.663769 9.41043 50.897059 10.9154 M62.776998 13.4569C62.776998 16.5223 60.906048 18.3403 58.598108 18.3403C56.290168 18.3403 54.419208 16.5223 54.419208 13.4569C54.419208 10.3915 56.290168 8.57349 58.598108 8.57349C60.906048 8.57349 62.776998 10.3915 62.776998 13.4569Z M73.127826 10.3814C72.832096 9.4042 71.677786 8.58374 70.067696 8.58374C68.179976 8.58374 66.960306 9.44691 66.868656 10.7511C66.763616 12.2457 67.997726 12.8218 69.928226 13.3386C71.621836 13.7969 73.565246 14.2772 73.410956 16.1222C73.311586 17.3105 72.334816 18.3458 69.978096 18.3458C68.072166 18.3458 66.994786 17.5302 66.660426 16.4244"></path>
        </g>
      </g>
    </g>
    <g id="g-root-1_i0938jdwyihb-stroke" data-item-order="0" data-item-id="1_i0938jdwyihb" data-item-class="Icon Stroke SceneTarget SceneStart InsideFill" data-item-index="none" data-renderer-id="0" transform="matrix(1, 0, 0, 1, 87, 123)">
      <g id="1_i0938jdwyihb-stroke" fill="none" stroke-linecap="round" stroke-linejoin="round" stroke-miterlimit="1.5" stroke="#484848" stroke-width="1" transform="matrix(2, 0, 0, 2, -14, -14)">
        <g xmlns="http://www.w3.org/2000/svg" transform="translate(12, 12)">
          <path d="M17.5,20.5a.25.25,0,1,0,.25.25.25.25,0,0,0-.25-.25h0M17.5 18.5L17.5 15.5M18.338,12.5a.95.95,0,0,0-1.676,0l-5.056,9.634a.923.923,0,0,0,.031.914.947.947,0,0,0,.807.449H22.556a.948.948,0,0,0,.807-.448.923.923,0,0,0,.031-.914ZM5.5 20.5L8.5 20.5M8.501 15.5L8.501 20.5M3.25,20a.25.25,0,1,0,.25.25A.25.25,0,0,0,3.25,20h0M.75,20a.25.25,0,1,0,.25.25A.25.25,0,0,0,.75,20h0M4.25,12.75A.25.25,0,1,0,4.5,13a.25.25,0,0,0-.25-.25h0M6.75,12.75A.25.25,0,1,0,7,13a.25.25,0,0,0-.25-.25h0M14.5,10.5H3a2.5,2.5,0,0,0,0,5h8.5M4.25,7.75A.25.25,0,1,0,4.5,8a.25.25,0,0,0-.25-.25h0M6.75,7.75A.25.25,0,1,0,7,8a.25.25,0,0,0-.25-.25h0M17.5,8A2.5,2.5,0,0,0,15,5.5H3a2.5,2.5,0,0,0,0,5H14.5M4.25,2.75A.25.25,0,1,0,4.5,3a.25.25,0,0,0-.25-.25h0M6.75,2.75A.25.25,0,1,0,7,3a.25.25,0,0,0-.25-.25h0M17.5,3A2.5,2.5,0,0,0,15,.5H3a2.5,2.5,0,0,0,0,5H15A2.5,2.5,0,0,0,17.5,3Z"></path>
        </g>
      </g>
    </g>
    <g id="g-root-sear_dkfl43dwyj9p-stroke" data-item-order="0" data-item-id="sear_dkfl43dwyj9p" data-item-class="Icon Stroke SceneTarget Indexed InsideFill InsideColorFill" data-item-index="3" data-renderer-id="0" transform="matrix(1, 0, 0, 1, 507, 171)">
      <g id="sear_dkfl43dwyj9p-stroke" fill="none" stroke-linecap="round" stroke-linejoin="round" stroke-miterlimit="1.5" stroke="#e15e5a" stroke-width="1.333" transform="matrix(1.5, 0, 0, 1.5, -8, -8)">
        <g xmlns="http://www.w3.org/2000/svg" transform="translate(12, 12)">
          <path d="M0.500 8.500 A8.000 8.000 0 1 0 16.500 8.500 A8.000 8.000 0 1 0 0.500 8.500 ZM14.167 14.167L23.5 23.5M6 6L11 11M11 6L6 11"></path>
        </g>
      </g>
    </g>
    <g id="g-root-tx_transpar_mg2lczdwyih0-stroke" data-item-order="0" data-item-id="tx_transpar_mg2lczdwyih0" data-item-class="Label Stroke SceneTarget Indexed" data-item-index="3" data-renderer-id="0" transform="matrix(1, 0, 0, 1, 567, 165)">
      <g id="tx_transpar_mg2lczdwyih0-stroke" fill="none" stroke-linecap="square" stroke-linejoin="miter" stroke-miterlimit="4" stroke="#484848" stroke-width="1" transform="matrix(1, 0, 0, 1, 5, 7)">
        <g xmlns="http://www.w3.org/2000/svg" transform="translate(9, 9)">
          <path d="M13.1732 4.94531C9.91026 4.94531 6.64727 4.95044 3.38428 4.95044M8.26963 18.1241V5.45566 M20.5348 8.60908C19.15438 8.41894 17.90599 9.31927 17.26401 10.6193M16.90938 8.77269V18.1226 M24.15763 10.2457C24.52199 9.28012 25.93834 8.56665 27.27836 8.56665C29.1316 8.56665 30.63395 9.8797 30.63395 11.4994L30.6397 12.957V15.5711C30.6397 16.614 30.61513 17.3527 30.9165 18.2784M30.26035 12.957H27.53238C25.02898 12.957 23.72873 14.3433 23.72873 15.8374C23.72873 17.3315 24.96684 18.3408 26.58251 18.3408C28.56474 18.3408 30.19058 16.8882 30.59115 15.7324 M35.46891 8.77967L35.46917 18.1279M42.30346 18.1279V12.0738C42.30346 11.3619 42.39919 8.79026 40.0161 8.58694C38.25806 8.43694 36.56902 9.56164 35.79268 10.9562 M53.237831 10.3814C52.942101 9.4042 51.787791 8.58374 50.177701 8.58374C48.289981 8.58374 47.070311 9.44691 46.978661 10.7511C46.873621 12.2457 48.107731 12.8218 50.038231 13.3386C51.731841 13.7969 53.675251 14.2772 53.520961 16.1222C53.421591 17.3105 52.444821 18.3458 50.088101 18.3458C48.182171 18.3458 47.104791 17.5302 46.770431 16.4244 M57.882922 8.77398V22.3934M58.248802 10.1239C59.131812 9.02711 60.313112 8.55811 61.622012 8.55811C63.803342 8.55811 65.381992 9.90408 65.381992 13.4756C65.381992 17.0472 63.697692 18.3232 61.516362 18.3232C60.245142 18.3232 58.959342 17.7827 58.248802 16.7195 M69.777629 10.2457C70.141989 9.28012 71.558339 8.56665 72.898359 8.56665C74.751599 8.56665 76.253949 9.8797 76.253949 11.4994L76.259699 12.957V15.5711C76.259699 16.614 76.235129 17.3527 76.536499 18.2784M75.880349 12.957H73.152379C70.648979 12.957 69.348729 14.3433 69.348729 15.8374C69.348729 17.3315 70.586839 18.3408 72.202509 18.3408C74.184739 18.3408 75.810579 16.8882 76.211149 15.7324 M84.694799 8.60908C83.314379 8.41894 82.065989 9.31927 81.424009 10.6193M81.069379 8.77269V18.1226 M89.98309 5.35901L91.29169 3.92761H91.97763L93.28741 5.35901M94.84746 17.2181C93.87367 18.1548 92.84897 18.3386 91.66351 18.3386C89.59474 18.3386 87.7315 17.0276 87.7315 13.4561C87.7315 9.88449 89.54089 8.57349 91.60966 8.57349C93.67844 8.57349 95.28179 9.62966 95.28179 13.2012H88.06227 M99.328907 8.77967L99.329167 18.1279M106.163457 18.1279V12.0738C106.163457 11.3619 106.259187 8.79026 103.876097 8.58694C102.118057 8.43694 100.429017 9.56164 99.652677 10.9562 M117.751788 16.2538C117.379818 17.6492 115.812218 18.3386 114.343118 18.3386C112.205748 18.3386 110.439878 17.0276 110.439878 13.4561C110.439878 9.88449 112.309278 8.57349 114.446648 8.57349C115.953658 8.57349 117.603768 9.41043 117.837058 10.9154 M122.098433 4.97076H122.122363M122.082203 8.80402V18.1446 M127.12762 10.2457C127.49198 9.28012 128.90833 8.56665 130.24835 8.56665C132.10159 8.56665 133.60394 9.8797 133.60394 11.4994L133.60969 12.957V15.5711C133.60969 16.614 133.58512 17.3527 133.88649 18.2784M133.23034 12.957H130.50237C127.99897 12.957 126.69872 14.3433 126.69872 15.8374C126.69872 17.3315 127.93683 18.3408 129.5525 18.3408C131.53473 18.3408 133.16057 16.8882 133.56114 15.7324 M151.087458 17.2181C150.113668 18.1548 149.088968 18.3386 147.903508 18.3386C145.834738 18.3386 143.971498 17.0276 143.971498 13.4561C143.971498 9.88449 145.780888 8.57349 147.849658 8.57349C149.918438 8.57349 151.521788 9.62966 151.521788 13.2012H144.302268 M12.2875 42.1371L4.72412 42.1423V28.94958C5.67204 28.94958 10.8458 28.95044 12.2458 28.95044M11.23356 35.2966H5.18816 M16.04816 32.61108L19.03898 37.2428M22.3111 42.3101L19.21381 37.5135M22.19963 32.61108L15.93669 42.3101 M26.752921 32.77398V46.3934M27.118801 34.1239C28.001811 33.02711 29.183111 32.55811 30.492011 32.55811C32.673341 32.55811 34.251991 33.90408 34.251991 37.4756C34.251991 41.0472 32.567691 42.3232 30.386361 42.3232C29.115141 42.3232 27.829341 41.7827 27.118801 40.7195 M38.665622 28.125V42.1264 M43.758441 28.97076H43.782371M43.742211 32.80402V42.1446 M55.481791 40.2538C55.109821 41.6492 53.542221 42.3386 52.073121 42.3386C49.935751 42.3386 48.169881 41.0276 48.169881 37.4561C48.169881 33.88449 50.039281 32.57349 52.176651 32.57349C53.683661 32.57349 55.333771 33.41043 55.567061 34.9154 M59.76763 34.2457C60.13199 33.28012 61.54834 32.56665 62.88836 32.56665C64.7416 32.56665 66.24395 33.8797 66.24395 35.4994L66.2497 36.957V39.5711C66.2497 40.614 66.22513 41.3527 66.5265 42.2784M65.87035 36.957H63.14238C60.63898 36.957 59.33873 38.3433 59.33873 39.8374C59.33873 41.3315 60.57684 42.3408 62.19251 42.3408C64.17474 42.3408 65.80058 40.8882 66.20115 39.7324 M71.104537 42.1243V28.12329M71.488477 34.1378C72.177577 33.10175 73.373707 32.57507 74.628507 32.57507C76.809827 32.57507 78.566817 33.88607 78.566817 37.4576C78.566817 41.0292 76.915487 42.3402 74.734157 42.3402C73.436827 42.3402 72.346807 41.8795 71.488477 40.8033 M83.078437 28.97076H83.102367M83.062207 32.80402V42.1446 M88.125621 28.125V42.1264 M93.218444 28.97076H93.242374M93.202214 32.80402V42.1446 M105.12976 42.1243V28.12329M104.77001 40.7727C103.90801 41.8707 102.8097 42.3402 101.50014 42.3402C99.31881 42.3402 97.66748 41.0292 97.66748 37.4576C97.66748 33.88607 99.42447 32.57507 101.60579 32.57507C102.8754 32.57507 104.08496 33.11426 104.77001 34.1748 M110.097628 34.2457C110.461988 33.28012 111.878338 32.56665 113.218358 32.56665C115.071598 32.56665 116.573948 33.8797 116.573948 35.4994L116.579698 36.957V39.5711C116.579698 40.614 116.555128 41.3527 116.856498 42.2784M116.200348 36.957H113.472378C110.968978 36.957 109.668728 38.3433 109.668728 39.8374C109.668728 41.3315 110.906838 42.3408 112.522508 42.3408C114.504738 42.3408 116.130578 40.8882 116.531148 39.7324 M128.409759 42.1243V28.12329M128.050009 40.7727C127.188009 41.8707 126.089699 42.3402 124.780139 42.3402C122.598809 42.3402 120.947479 41.0292 120.947479 37.4576C120.947479 33.88607 122.704469 32.57507 124.885789 32.57507C126.155399 32.57507 127.364959 33.11426 128.050009 34.1748 M139.907465 41.2181C138.933675 42.1548 137.908975 42.3386 136.723515 42.3386C134.654745 42.3386 132.791505 41.0276 132.791505 37.4561C132.791505 33.88449 134.600895 32.57349 136.669665 32.57349C138.738445 32.57349 140.341795 33.62966 140.341795 37.2012H133.122275"></path>
        </g>
      </g>
    </g>
    <g id="g-root-clou_i0938jdwyj9c-stroke" data-item-order="0" data-item-id="clou_i0938jdwyj9c" data-item-class="Icon Stroke SceneTarget Indexed InsideFill InsideColorFill" data-item-index="4" data-renderer-id="0" transform="matrix(1, 0, 0, 1, 507, 255)">
      <g id="clou_i0938jdwyj9c-stroke" fill="none" stroke-linecap="round" stroke-linejoin="round" stroke-miterlimit="1.5" stroke="#da5da8" stroke-width="1.333" transform="matrix(1.5, 0, 0, 1.5, -6.5, -8)">
        <g xmlns="http://www.w3.org/2000/svg" transform="translate(11, 12)">
          <path d="M15.5,23.5V20c2,0,3.12-.13,3.82-.83.9-.9.86-4.69.86-4.69s.88,0,1.52,0,.66-.43.7-.94c.11-1.61-2.14-4.36-2.14-5.16,0-5-4.75-7.91-9.07-7.91A9.49,9.49,0,0,0,1.6,10.06c0,3,.9,5.9,3.9,7.68V23.5M8.82,7.23c-1.09,1.28-1.66,2.95.92,4.08,1.18,2.64,3,1.66,4.17.25s1.56-4.47.87-6.54a.5.5,0,0,0-.31-.31.49.49,0,0,0-.44,0C12.18,6,10.06,5.77,8.82,7.23ZM7.58,16a18,18,0,0,1,5.24-8.66"></path>
        </g>
      </g>
    </g>
    <g id="g-root-tx_generati_dkfl43dwyj9r-stroke" data-item-order="0" data-item-id="tx_generati_dkfl43dwyj9r" data-item-class="Label Stroke SceneTarget Indexed" data-item-index="4" data-renderer-id="0" transform="matrix(1, 0, 0, 1, 567, 249)">
      <g id="tx_generati_dkfl43dwyj9r-stroke" fill="none" stroke-linecap="square" stroke-linejoin="miter" stroke-miterlimit="4" stroke="#484848" stroke-width="1" transform="matrix(1, 0, 0, 1, 5, 8)">
        <g xmlns="http://www.w3.org/2000/svg" transform="translate(9, 8)">
          <path d="M3.62354 18.1453L8.57221 4.97268L9.16008 4.97266L14.1237 18.1453M5.44096 14.2942H12.2996 M18.23562 4.125V18.1264 M29.95663 18.1148L29.95637 8.7666M23.12208 8.7666L23.12208 14.8207C23.12208 15.5325 23.02708 18.0958 25.40944 18.3075C27.49967 18.4933 28.7731 17.6528 29.47547 16.4701 M41.571791 16.2538C41.199821 17.6492 39.632221 18.3386 38.163121 18.3386C36.025751 18.3386 34.259881 17.0276 34.259881 13.4561C34.259881 9.88449 36.129281 8.57349 38.266651 8.57349C39.773661 8.57349 41.423771 9.41043 41.657061 10.9154 M45.918441 4.97076H45.942371M45.902211 8.80402V18.1446 M50.828911 8.77967L50.829171 18.1279M57.663461 18.1279V12.0738C57.663461 11.3619 57.759191 8.79026 55.376101 8.58694C53.618061 8.43694 51.929021 9.56164 51.152681 10.9562 M62.557631 10.2457C62.921991 9.28012 64.338341 8.56665 65.678361 8.56665C67.531601 8.56665 69.033951 9.8797 69.033951 11.4994L69.039701 12.957V15.5711C69.039701 16.614 69.015131 17.3527 69.316501 18.2784M68.660351 12.957H65.932381C63.428981 12.957 62.128731 14.3433 62.128731 15.8374C62.128731 17.3315 63.366841 18.3408 64.982511 18.3408C66.964741 18.3408 68.590581 16.8882 68.991151 15.7324 M76.656265 22.4782C77.292785 22.5791 78.189375 22.2513 78.293495 21.4032C78.392995 20.5928 77.866285 20.0199 77.093335 19.8846L77.306655 18.5043M80.636515 16.2538C80.264535 17.6492 78.696935 18.3386 77.227835 18.3386C75.090465 18.3386 73.324595 17.0276 73.324595 13.4561C73.324595 9.88449 75.193995 8.57349 77.331365 8.57349C78.838375 8.57349 80.488485 9.41043 80.721775 10.9154 M85.605513 5.3457C85.788523 4.88799 86.382073 4.37024 87.092513 4.37024C88.059903 4.37024 88.612353 5.3457 89.670003 5.3457C90.958743 5.3457 91.294273 4.37118 91.294273 4.37118M84.977633 10.2457C85.341993 9.28012 86.758343 8.56665 88.098363 8.56665C89.951603 8.56665 91.453953 9.8797 91.453953 11.4994L91.459703 12.957V15.5711C91.459703 16.614 91.435133 17.3527 91.736503 18.2784M91.080353 12.957H88.352383C85.848983 12.957 84.548733 14.3433 84.548733 15.8374C84.548733 17.3315 85.786843 18.3408 87.402513 18.3408C89.384743 18.3408 91.010583 16.8882 91.411153 15.7324 M104.077002 13.4569C104.077002 16.5223 102.206052 18.3403 99.898112 18.3403C97.590172 18.3403 95.719212 16.5223 95.719212 13.4569C95.719212 10.3915 97.590172 8.57349 99.898112 8.57349C102.206052 8.57349 104.077002 10.3915 104.077002 13.4569Z M11.38916 32.65246V42.6545C11.38916 47.3512 6.09574 47.0007 4.66085 45.4703M11.05548 40.5732C10.37534 41.6608 9.15107 42.2139 7.86519 42.2139C5.68387 42.2139 3.92688 40.9029 3.92688 37.3313C3.92688 33.75974 5.57821 32.44873 7.75954 32.44873C9.02757 32.44873 10.33261 33.1294 11.05548 34.5024 M22.79746 41.2181C21.82367 42.1548 20.79897 42.3386 19.61351 42.3386C17.54474 42.3386 15.6815 41.0276 15.6815 37.4561C15.6815 33.88449 17.49089 32.57349 19.55966 32.57349C21.62844 32.57349 23.23179 33.62966 23.23179 37.2012H16.01227 M27.278912 32.77967L27.279172 42.1279M34.113462 42.1279V36.0738C34.113462 35.3619 34.209192 32.79026 31.826102 32.58694C30.068062 32.43694 28.379022 33.56164 27.602682 34.9562 M45.537462 41.2181C44.563672 42.1548 43.538972 42.3386 42.353512 42.3386C40.284742 42.3386 38.421502 41.0276 38.421502 37.4561C38.421502 33.88449 40.230892 32.57349 42.299662 32.57349C44.368442 32.57349 45.971792 33.62966 45.971792 37.2012H38.752272 M53.624803 32.60908C52.244383 32.41894 50.995993 33.31927 50.354013 34.6193M49.999383 32.77269V42.1226 M57.247634 34.2457C57.611994 33.28012 59.028344 32.56665 60.368364 32.56665C62.221604 32.56665 63.723954 33.8797 63.723954 35.4994L63.729704 36.957V39.5711C63.729704 40.614 63.705134 41.3527 64.006504 42.2784M63.350354 36.957H60.622384C58.118984 36.957 56.818734 38.3433 56.818734 39.8374C56.818734 41.3315 58.056844 42.3408 59.672514 42.3408C61.654744 42.3408 63.280584 40.8882 63.681154 39.7324 M71.529328 42.3258C70.119668 42.4655 69.261758 41.7322 69.261758 40.3869V30.08093M71.411668 32.642H69.648258M67.151566 32.642H68.885448 M75.618445 28.97076H75.642375M75.602215 32.80402V42.1446 M86.682769 32.69055L83.313309 42.119L83.112069 42.1189L79.707749 32.69055 M90.797641 34.2457C91.162001 33.28012 92.578351 32.56665 93.918371 32.56665C95.771611 32.56665 97.273961 33.8797 97.273961 35.4994L97.279711 36.957V39.5711C97.279711 40.614 97.255141 41.3527 97.556511 42.2784M96.900361 36.957H94.172391C91.668991 36.957 90.368741 38.3433 90.368741 39.8374C90.368741 41.3315 91.606851 42.3408 93.222521 42.3408C95.204751 42.3408 96.830591 40.8882 97.231161 39.7324"></path>
        </g>
      </g>
    </g>
  </g>
</svg>