<svg width="710" height="254" viewBox="0 0 710 254" style="fill:none;stroke:none;fill-rule:evenodd;clip-rule:evenodd;stroke-linecap:round;stroke-linejoin:round;stroke-miterlimit:1.5;" version="1.1"
  xmlns="http://www.w3.org/2000/svg"
  xmlns:xlink="http://www.w3.org/1999/xlink">
  <g id="blend" style="mix-blend-mode:multiply">
    <g id="g-root-4.cr-small_cr_1hbcn8u1masx70-fill" data-item-order="-86866" data-item-id="4.cr-small_cr_1hbcn8u1masx70" data-item-class="Shape Stroke Fill ScenePart Indexed" data-item-index="4" data-renderer-id="0" transform="matrix(1, 0, 0, 1, 158.04299926757812, 3)">
      <g id="4.cr-small_cr_1hbcn8u1masx70-fill" stroke="none" fill="#e6f9ff" transform="matrix(1, 0, 0, 1, -2, -2)">
        <g xmlns="http://www.w3.org/2000/svg" transform="translate(12, 12)">
          <path d="M0 36a36 36 0 1 0 72 0a36 36 0 1 0 -72 0"></path>
        </g>
      </g>
    </g>
    <g id="g-root-3.cr-small_cr_1hbcn8u1masx6z-fill" data-item-order="-86864" data-item-id="3.cr-small_cr_1hbcn8u1masx6z" data-item-class="Shape Stroke Fill ScenePart Indexed" data-item-index="3" data-renderer-id="0" transform="matrix(1, 0, 0, 1, 158.04299926757812, 171)">
      <g id="3.cr-small_cr_1hbcn8u1masx6z-fill" stroke="none" fill="#ffe7e6" transform="matrix(1, 0, 0, 1, -2, -2)">
        <g xmlns="http://www.w3.org/2000/svg" transform="translate(12, 12)">
          <path d="M0 36a36 36 0 1 0 72 0a36 36 0 1 0 -72 0"></path>
        </g>
      </g>
    </g>
    <g id="g-root-2.cr-small_cr_1q6znhq1maswea-fill" data-item-order="-86862" data-item-id="2.cr-small_cr_1q6znhq1maswea" data-item-class="Shape Stroke Fill ScenePart Indexed" data-item-index="2" data-renderer-id="0" transform="matrix(1, 0, 0, 1, 448, 171)">
      <g id="2.cr-small_cr_1q6znhq1maswea-fill" stroke="none" fill="#e9fbf3" transform="matrix(1, 0, 0, 1, -2, -2)">
        <g xmlns="http://www.w3.org/2000/svg" transform="translate(12, 12)">
          <path d="M0 36a36 36 0 1 0 72 0a36 36 0 1 0 -72 0"></path>
        </g>
      </g>
    </g>
    <g id="g-root-1.cr-small_cr_1umt5m61masvm1-fill" data-item-order="-86860" data-item-id="1.cr-small_cr_1umt5m61masvm1" data-item-class="Shape Stroke Fill ScenePart Indexed Indexed_1" data-item-index="1" data-renderer-id="0" transform="matrix(1, 0, 0, 1, 447.95599365234375, 3)">
      <g id="1.cr-small_cr_1umt5m61masvm1-fill" stroke="none" fill="#fffce6" transform="matrix(1, 0, 0, 1, -2, -2)">
        <g xmlns="http://www.w3.org/2000/svg" transform="translate(12, 12)">
          <path d="M0 36a36 36 0 1 0 72 0a36 36 0 1 0 -72 0"></path>
        </g>
      </g>
    </g>
    <g id="g-root-0.Vector_sy_w4oe1masy6n-fill" data-item-order="-86858" data-item-id="0.Vector_sy_w4oe1masy6n" data-item-class="ScenePart Indexed_0 Fill Stroke ColorFillGray ColorStrokeGray" data-item-index="0" data-renderer-id="0" transform="matrix(1, 0, 0, 1, 267, 50.99609375)">
      <g id="0.Vector_sy_w4oe1masy6n-fill" stroke="none" fill="#fafafa" transform="matrix(1, 0, 0, 1, -2, -2.996002197265625)">
        <g xmlns="http://www.w3.org/2000/svg" transform="translate(-288, -239)">
          <path d="M444 323.996C444 284.232 411.765 251.996 372 251.996V251.996C332.236 251.996 300 284.232 300 323.996V323.996C300 363.761 332.236 395.996 372 395.996V395.996C411.764 395.996 444 363.761 444 323.996V323.996Z"></path>
        </g>
      </g>
    </g>
    <g id="g-root-0.Union_sy_1umt5m61masvm0-fill" data-item-order="-86856" data-item-id="0.Union_sy_1umt5m61masvm0" data-item-class="ScenePart Indexed_0 Fill Stroke ColorFillGray ColorStrokeGray" data-item-index="0" data-renderer-id="0" transform="matrix(1, 0, 0, 1, 241.9849853515625, 51)">
      <g id="0.Union_sy_1umt5m61masvm0-fill" stroke="none" fill="#fafafa" transform="matrix(1, 0, 0, 1, -2.9849853515625, -2)">
        <g xmlns="http://www.w3.org/2000/svg" transform="translate(-262, -240)">
          <path d="M444 324C444 312.936 441.504 302.454 437.045 293.088L459.879 279.905L463.468 286.119L469.116 267.972L450.575 263.789L454.127 269.942L431.284 283.131C418.295 264.324 396.587 252 372 252C347.445 252 325.76 264.292 312.765 283.059L289.991 269.911L293.579 263.696L275.039 267.878L280.687 286.026L284.239 279.873L306.992 293.01C302.51 302.396 300 312.905 300 324C300 335.051 302.49 345.521 306.939 354.879L284.221 367.996L280.633 361.781L274.985 379.929L293.526 384.111L289.973 377.958L312.695 364.84C325.683 383.663 347.401 396 372 396C396.605 396 418.327 383.658 431.313 364.828L454.109 377.989L450.521 384.204L469.062 380.022L463.414 361.874L459.861 368.027L437.067 354.867C441.512 345.512 444 335.046 444 324Z"></path>
        </g>
      </g>
    </g>
    <g id="g-root-tx_dataanal_1cvj54e1masxz9-fill" data-item-order="0" data-item-id="tx_dataanal_1cvj54e1masxz9" data-item-class="Label Stroke SceneTarget Indexed" data-item-index="4" data-renderer-id="0" transform="matrix(1, 0, 0, 1, -9, 15)"></g>
    <g id="g-root-tx_contentg_m98lgu1masxzc-fill" data-item-order="0" data-item-id="tx_contentg_m98lgu1masxzc" data-item-class="Label Stroke SceneTarget Indexed Indexed_1" data-item-index="1" data-renderer-id="0" transform="matrix(1, 0, 0, 1, 531, -9)"></g>
    <g id="g-root-line_1cw5pda1maucjy-fill" data-item-order="0" data-item-id="line_1cw5pda1maucjy" data-item-class="Icon Stroke SceneTarget Indexed InsideFill InsideColorFill" data-item-index="4" data-renderer-id="0" transform="matrix(1, 0, 0, 1, 169, 15)"></g>
    <g id="g-root-play_huo4oe1maua6h-fill" data-item-order="0" data-item-id="play_huo4oe1maua6h" data-item-class="Icon Stroke SceneTarget Indexed Indexed_1 InsideFill InsideColorFill" data-item-index="1" data-renderer-id="0" transform="matrix(1, 0, 0, 1, 461, 15)"></g>
    <g id="g-root-robo_1lrspm61maubr9-fill" data-item-order="0" data-item-id="robo_1lrspm61maubr9" data-item-class="Icon Stroke SceneTarget SceneStart InsideFill InsideGrayFill ColorFillGray ColorStrokeGray" data-item-index="none" data-renderer-id="0" transform="matrix(1, 0, 0, 1, 303, 86.99609375)"></g>
    <g id="g-root-tx_customer_140ilym1masvm6-fill" data-item-order="0" data-item-id="tx_customer_140ilym1masvm6" data-item-class="Label Stroke SceneTarget Indexed" data-item-index="3" data-renderer-id="0" transform="matrix(1, 0, 0, 1, 3, 171)"></g>
    <g id="g-root-5_zlbo321mauaz3-fill" data-item-order="0" data-item-id="5_zlbo321mauaz3" data-item-class="Icon Stroke SceneTarget Indexed InsideFill InsideColorFill" data-item-index="3" data-renderer-id="0" transform="matrix(1, 0, 0, 1, 169, 183)"></g>
    <g id="g-root-3_qponu61maucjk-fill" data-item-order="0" data-item-id="3_qponu61maucjk" data-item-class="Icon Stroke SceneTarget Indexed InsideFill InsideColorFill" data-item-index="2" data-renderer-id="0" transform="matrix(1, 0, 0, 1, 461, 183)"></g>
    <g id="g-root-tx_software_zkp3u61maswef-fill" data-item-order="0" data-item-id="tx_software_zkp3u61maswef" data-item-class="Label Stroke SceneTarget Indexed" data-item-index="2" data-renderer-id="0" transform="matrix(1, 0, 0, 1, 531, 183)"></g>
    <g id="g-root-4.cr-small_cr_1hbcn8u1masx70-stroke" data-item-order="-86866" data-item-id="4.cr-small_cr_1hbcn8u1masx70" data-item-class="Shape Stroke Fill ScenePart Indexed" data-item-index="4" data-renderer-id="0" transform="matrix(1, 0, 0, 1, 158.04299926757812, 3)">
      <g id="4.cr-small_cr_1hbcn8u1masx70-stroke" fill="none" stroke-linecap="round" stroke-linejoin="round" stroke-miterlimit="1.5" stroke="#17b0e3" stroke-width="2" transform="matrix(1, 0, 0, 1, -2, -2)">
        <g xmlns="http://www.w3.org/2000/svg" transform="translate(12, 12)">
          <path d="M0 36a36 36 0 1 0 72 0a36 36 0 1 0 -72 0"></path>
        </g>
      </g>
    </g>
    <g id="g-root-3.cr-small_cr_1hbcn8u1masx6z-stroke" data-item-order="-86864" data-item-id="3.cr-small_cr_1hbcn8u1masx6z" data-item-class="Shape Stroke Fill ScenePart Indexed" data-item-index="3" data-renderer-id="0" transform="matrix(1, 0, 0, 1, 158.04299926757812, 171)">
      <g id="3.cr-small_cr_1hbcn8u1masx6z-stroke" fill="none" stroke-linecap="round" stroke-linejoin="round" stroke-miterlimit="1.5" stroke="#e15e5a" stroke-width="2" transform="matrix(1, 0, 0, 1, -2, -2)">
        <g xmlns="http://www.w3.org/2000/svg" transform="translate(12, 12)">
          <path d="M0 36a36 36 0 1 0 72 0a36 36 0 1 0 -72 0"></path>
        </g>
      </g>
    </g>
    <g id="g-root-2.cr-small_cr_1q6znhq1maswea-stroke" data-item-order="-86862" data-item-id="2.cr-small_cr_1q6znhq1maswea" data-item-class="Shape Stroke Fill ScenePart Indexed" data-item-index="2" data-renderer-id="0" transform="matrix(1, 0, 0, 1, 448, 171)">
      <g id="2.cr-small_cr_1q6znhq1maswea-stroke" fill="none" stroke-linecap="round" stroke-linejoin="round" stroke-miterlimit="1.5" stroke="#3bc482" stroke-width="2" transform="matrix(1, 0, 0, 1, -2, -2)">
        <g xmlns="http://www.w3.org/2000/svg" transform="translate(12, 12)">
          <path d="M0 36a36 36 0 1 0 72 0a36 36 0 1 0 -72 0"></path>
        </g>
      </g>
    </g>
    <g id="g-root-1.cr-small_cr_1umt5m61masvm1-stroke" data-item-order="-86860" data-item-id="1.cr-small_cr_1umt5m61masvm1" data-item-class="Shape Stroke Fill ScenePart Indexed Indexed_1" data-item-index="1" data-renderer-id="0" transform="matrix(1, 0, 0, 1, 447.95599365234375, 3)">
      <g id="1.cr-small_cr_1umt5m61masvm1-stroke" fill="none" stroke-linecap="round" stroke-linejoin="round" stroke-miterlimit="1.5" stroke="#e3cd09" stroke-width="2" transform="matrix(1, 0, 0, 1, -2, -2)">
        <g xmlns="http://www.w3.org/2000/svg" transform="translate(12, 12)">
          <path d="M0 36a36 36 0 1 0 72 0a36 36 0 1 0 -72 0"></path>
        </g>
      </g>
    </g>
    <g id="g-root-0.Vector_sy_w4oe1masy6n-stroke" data-item-order="-86858" data-item-id="0.Vector_sy_w4oe1masy6n" data-item-class="ScenePart Indexed_0 Fill Stroke ColorFillGray ColorStrokeGray" data-item-index="0" data-renderer-id="0" transform="matrix(1, 0, 0, 1, 267, 50.99609375)">
      <g id="0.Vector_sy_w4oe1masy6n-stroke" fill="none" stroke-linecap="round" stroke-linejoin="round" stroke-miterlimit="1.5" stroke="#bbbbbb" stroke-width="2" transform="matrix(1, 0, 0, 1, -2, -2.996002197265625)">
        <g xmlns="http://www.w3.org/2000/svg" transform="translate(-288, -239)">
          <path d="M444 323.996C444 284.232 411.765 251.996 372 251.996V251.996C332.236 251.996 300 284.232 300 323.996V323.996C300 363.761 332.236 395.996 372 395.996V395.996C411.764 395.996 444 363.761 444 323.996V323.996Z"></path>
        </g>
      </g>
    </g>
    <g id="g-root-0.Union_sy_1umt5m61masvm0-stroke" data-item-order="-86856" data-item-id="0.Union_sy_1umt5m61masvm0" data-item-class="ScenePart Indexed_0 Fill Stroke ColorFillGray ColorStrokeGray" data-item-index="0" data-renderer-id="0" transform="matrix(1, 0, 0, 1, 241.9849853515625, 51)">
      <g id="0.Union_sy_1umt5m61masvm0-stroke" fill="none" stroke-linecap="round" stroke-linejoin="round" stroke-miterlimit="1.5" stroke="#bbbbbb" stroke-width="2" transform="matrix(1, 0, 0, 1, -2.9849853515625, -2)">
        <g xmlns="http://www.w3.org/2000/svg" transform="translate(-262, -240)">
          <path d="M444 324C444 312.936 441.504 302.454 437.045 293.088L459.879 279.905L463.468 286.119L469.116 267.972L450.575 263.789L454.127 269.942L431.284 283.131C418.295 264.324 396.587 252 372 252C347.445 252 325.76 264.292 312.765 283.059L289.991 269.911L293.579 263.696L275.039 267.878L280.687 286.026L284.239 279.873L306.992 293.01C302.51 302.396 300 312.905 300 324C300 335.051 302.49 345.521 306.939 354.879L284.221 367.996L280.633 361.781L274.985 379.929L293.526 384.111L289.973 377.958L312.695 364.84C325.683 383.663 347.401 396 372 396C396.605 396 418.327 383.658 431.313 364.828L454.109 377.989L450.521 384.204L469.062 380.022L463.414 361.874L459.861 368.027L437.067 354.867C441.512 345.512 444 335.046 444 324Z"></path>
        </g>
      </g>
    </g>
    <g id="g-root-tx_dataanal_1cvj54e1masxz9-stroke" data-item-order="0" data-item-id="tx_dataanal_1cvj54e1masxz9" data-item-class="Label Stroke SceneTarget Indexed" data-item-index="4" data-renderer-id="0" transform="matrix(1, 0, 0, 1, -9, 15)">
      <g id="tx_dataanal_1cvj54e1masxz9-stroke" fill="none" stroke-linecap="square" stroke-linejoin="miter" stroke-miterlimit="4" stroke="#484848" stroke-width="1" transform="matrix(1, 0, 0, 1, 55, 1)">
        <g xmlns="http://www.w3.org/2000/svg" transform="translate(-45, 9)">
          <path d="M57.813542 18.1453L62.762212 4.97268L63.350082 4.97266L68.313702 18.1453M59.630962 14.2942H66.489602 M72.288914 8.77967L72.289174 18.1279M79.123464 18.1279V12.0738C79.123464 11.3619 79.219194 8.79026 76.836104 8.58694C75.078064 8.43694 73.389024 9.56164 72.612684 10.9562 M89.031284 3.92761L87.784044 5.55454M84.017634 10.2457C84.381994 9.28012 85.798344 8.56665 87.138364 8.56665C88.991604 8.56665 90.493954 9.8797 90.493954 11.4994L90.499704 12.957V15.5711C90.499704 16.614 90.475134 17.3527 90.776504 18.2784M90.120354 12.957H87.392384C84.888984 12.957 83.588734 14.3433 83.588734 15.8374C83.588734 17.3315 84.826844 18.3408 86.442514 18.3408C88.424744 18.3408 90.050584 16.8882 90.451154 15.7324 M95.455622 4.125V18.1264 M100.548445 4.97076H100.572375M100.532215 8.80402V18.1446 M111.617832 10.3814C111.322102 9.4042 110.167792 8.58374 108.557702 8.58374C106.669982 8.58374 105.450312 9.44691 105.358662 10.7511C105.253622 12.2457 106.487732 12.8218 108.418232 13.3386C110.111842 13.7969 112.055252 14.2772 111.900962 16.1222C111.801592 17.3105 110.824822 18.3458 108.468102 18.3458C106.562172 18.3458 105.484792 17.5302 105.150432 16.4244 M122.917459 17.2181C121.943669 18.1548 120.918969 18.3386 119.733509 18.3386C117.664739 18.3386 115.801499 17.0276 115.801499 13.4561C115.801499 9.88449 117.610889 8.57349 119.679659 8.57349C121.748439 8.57349 123.351789 9.62966 123.351789 13.2012H116.132269 M140.399764 18.1243V4.12329M140.040014 16.7727C139.178014 17.8707 138.079704 18.3402 136.770144 18.3402C134.588814 18.3402 132.937484 17.0292 132.937484 13.4576C132.937484 9.88607 134.694474 8.57507 136.875794 8.57507C138.145404 8.57507 139.354964 9.11426 140.040014 10.1748 M151.897455 17.2181C150.923665 18.1548 149.898965 18.3386 148.713505 18.3386C146.644735 18.3386 144.781495 17.0276 144.781495 13.4561C144.781495 9.88449 146.590885 8.57349 148.659655 8.57349C150.728435 8.57349 152.331785 9.62966 152.331785 13.2012H145.112265 M100.876819 42.1804L96.867539 42.1827V28.94829C97.815459 28.94829 99.093999 28.94607 100.493999 28.94607C101.946639 28.90961 105.726899 30.17329 105.726899 35.5108C105.726899 40.8483 102.201849 42.1804 100.876819 42.1804Z M110.417628 34.2457C110.781988 33.28012 112.198338 32.56665 113.538358 32.56665C115.391598 32.56665 116.893948 33.8797 116.893948 35.4994L116.899698 36.957V39.5711C116.899698 40.614 116.875128 41.3527 117.176498 42.2784M116.520348 36.957H113.792378C111.288978 36.957 109.988728 38.3433 109.988728 39.8374C109.988728 41.3315 111.226838 42.3408 112.842508 42.3408C114.824738 42.3408 116.450578 40.8882 116.851148 39.7324 M128.729758 42.1243V28.12329M128.370008 40.7727C127.508008 41.8707 126.409698 42.3402 125.100138 42.3402C122.918808 42.3402 121.267478 41.0292 121.267478 37.4576C121.267478 33.88607 123.024468 32.57507 125.205788 32.57507C126.475398 32.57507 127.684958 33.11426 128.370008 34.1748 M141.376997 37.4569C141.376997 40.5223 139.506047 42.3403 137.198107 42.3403C134.890167 42.3403 133.019207 40.5223 133.019207 37.4569C133.019207 34.3915 134.890167 32.57349 137.198107 32.57349C139.506047 32.57349 141.376997 34.3915 141.376997 37.4569Z M151.727832 34.3814C151.432102 33.4042 150.277792 32.58374 148.667702 32.58374C146.779982 32.58374 145.560312 33.44691 145.468662 34.7511C145.363622 36.2457 146.597732 36.8218 148.528232 37.3386C150.221842 37.7969 152.165252 38.2772 152.010962 40.1222C151.911592 41.3105 150.934822 42.3458 148.578102 42.3458C146.672172 42.3458 145.594792 41.5302 145.260432 40.4244"></path>
        </g>
      </g>
    </g>
    <g id="g-root-tx_contentg_m98lgu1masxzc-stroke" data-item-order="0" data-item-id="tx_contentg_m98lgu1masxzc" data-item-class="Label Stroke SceneTarget Indexed Indexed_1" data-item-index="1" data-renderer-id="0" transform="matrix(1, 0, 0, 1, 531, -9)">
      <g id="tx_contentg_m98lgu1masxzc-stroke" fill="none" stroke-linecap="square" stroke-linejoin="miter" stroke-miterlimit="4" stroke="#484848" stroke-width="1" transform="matrix(1, 0, 0, 1, 1, 14)">
        <g xmlns="http://www.w3.org/2000/svg" transform="translate(9, -4)">
          <path d="M10.217 24.3702L13.7905 24.3361L13.7797 28.8469C12.573 30.0193 11.42606 30.3984 9.10852 30.3984C6.44357 30.3984 4.2832 28.2071 4.2832 25.5039V21.62109C4.2832 18.91792 6.44357 16.72656 9.10852 16.72656C11.11632 16.72656 12.8377 17.97044 13.5646 19.73992 M25.337461 29.2181C24.363671 30.1548 23.338971 30.3386 22.153511 30.3386C20.084741 30.3386 18.221501 29.0276 18.221501 25.4561C18.221501 21.88449 20.030891 20.57349 22.099661 20.57349C24.168441 20.57349 25.771791 21.62966 25.771791 25.2012H18.552271 M33.424801 20.60908C32.044381 20.41894 30.795991 21.31927 30.154011 22.6193M29.799381 20.77269V30.1226 M37.047629 22.2457C37.411989 21.28012 38.828339 20.56665 40.168359 20.56665C42.021599 20.56665 43.523949 21.8797 43.523949 23.4994L43.529699 24.957V27.5711C43.529699 28.614 43.505129 29.3527 43.806499 30.2784M43.150349 24.957H40.422379C37.918979 24.957 36.618729 26.3433 36.618729 27.8374C36.618729 29.3315 37.856839 30.3408 39.472509 30.3408C41.454739 30.3408 43.080579 28.8882 43.481149 27.7324 M51.14626 34.4782C51.78278 34.5791 52.67937 34.2513 52.78349 33.4032C52.88299 32.5928 52.35628 32.0199 51.58333 31.8846L51.79665 30.5043M55.12651 28.2538C54.75453 29.6492 53.18693 30.3386 51.71783 30.3386C49.58046 30.3386 47.81459 29.0276 47.81459 25.4561C47.81459 21.88449 49.68399 20.57349 51.82136 20.57349C53.32837 20.57349 54.97848 21.41043 55.21177 22.9154 M60.095511 17.3457C60.278521 16.88799 60.872071 16.37024 61.582511 16.37024C62.549901 16.37024 63.102351 17.3457 64.160001 17.3457C65.448741 17.3457 65.784271 16.37118 65.784271 16.37118M59.467631 22.2457C59.831991 21.28012 61.248341 20.56665 62.588361 20.56665C64.441601 20.56665 65.943951 21.8797 65.943951 23.4994L65.949701 24.957V27.5711C65.949701 28.614 65.925131 29.3527 66.226501 30.2784M65.570351 24.957H62.842381C60.338981 24.957 59.038731 26.3433 59.038731 27.8374C59.038731 29.3315 60.276841 30.3408 61.892511 30.3408C63.874741 30.3408 65.500581 28.8882 65.901151 27.7324 M78.566999 25.4569C78.566999 28.5223 76.696049 30.3403 74.388109 30.3403C72.080169 30.3403 70.209209 28.5223 70.209209 25.4569C70.209209 22.3915 72.080169 20.57349 74.388109 20.57349C76.696049 20.57349 78.566999 22.3915 78.566999 25.4569Z M95.407457 29.2181C94.433667 30.1548 93.408967 30.3386 92.223507 30.3386C90.154737 30.3386 88.291497 29.0276 88.291497 25.4561C88.291497 21.88449 90.100887 20.57349 92.169657 20.57349C94.238437 20.57349 95.841787 21.62966 95.841787 25.2012H88.622267 M4.74121 54.1308V40.94395L10.01962 40.92822C11.11845 40.96678 13.503 41.74944 13.503 44.57165C13.503 47.3939 11.11845 48.2536 10.01962 48.3307L5.26909 48.3449 M24.26746 53.2181C23.29367 54.1548 22.26897 54.3386 21.08351 54.3386C19.01474 54.3386 17.1515 53.0276 17.1515 49.4561C17.1515 45.88449 18.96089 44.57349 21.02966 44.57349C23.09844 44.57349 24.70179 45.62966 24.70179 49.2012H17.48227 M32.354799 44.60908C30.974379 44.41894 29.725989 45.31927 29.084009 46.6193M28.729379 44.77269V54.1226 M42.01783 46.3814C41.7221 45.4042 40.56779 44.58374 38.9577 44.58374C37.06998 44.58374 35.85031 45.44691 35.75866 46.7511C35.65362 48.2457 36.88773 48.8218 38.81823 49.3386C40.51184 49.7969 42.45525 50.2772 42.30096 52.1222C42.20159 53.3105 41.22482 54.3458 38.8681 54.3458C36.96217 54.3458 35.88479 53.5302 35.55043 52.4244 M54.467001 49.4569C54.467001 52.5223 52.596051 54.3403 50.288111 54.3403C47.980171 54.3403 46.109211 52.5223 46.109211 49.4569C46.109211 46.3915 47.980171 44.57349 50.288111 44.57349C52.596051 44.57349 54.467001 46.3915 54.467001 49.4569Z M58.658909 44.77967L58.659169 54.1279M65.493459 54.1279V48.0738C65.493459 47.3619 65.589189 44.79026 63.206099 44.58694C61.448059 44.43694 59.759019 45.56164 58.982679 46.9562 M70.387629 46.2457C70.751989 45.28012 72.168339 44.56665 73.508359 44.56665C75.361599 44.56665 76.863949 45.8797 76.863949 47.4994L76.869699 48.957V51.5711C76.869699 52.614 76.845129 53.3527 77.146499 54.2784M76.490349 48.957H73.762379C71.258979 48.957 69.958729 50.3433 69.958729 51.8374C69.958729 53.3315 71.196839 54.3408 72.812509 54.3408C74.794739 54.3408 76.420579 52.8882 76.821149 51.7324 M81.83562 40.125V54.1264 M86.928443 40.97076H86.952373M86.912213 44.80402V54.1446 M91.318957 44.78027H97.996147V44.93551L91.233937 53.9042V54.1284L98.289017 54.1283 M102.357638 46.2457C102.721998 45.28012 104.138348 44.56665 105.478368 44.56665C107.331608 44.56665 108.833958 45.8797 108.833958 47.4994L108.839708 48.957V51.5711C108.839708 52.614 108.815138 53.3527 109.116508 54.2784M108.460358 48.957H105.732388C103.228988 48.957 101.928738 50.3433 101.928738 51.8374C101.928738 53.3315 103.166848 54.3408 104.782518 54.3408C106.764748 54.3408 108.390588 52.8882 108.791158 51.7324 M116.456269 58.4782C117.092789 58.5791 117.989379 58.2513 118.093499 57.4032C118.192999 56.5928 117.666289 56.0199 116.893339 55.8846L117.106659 54.5043M120.436519 52.2538C120.064539 53.6492 118.496939 54.3386 117.027839 54.3386C114.890469 54.3386 113.124599 53.0276 113.124599 49.4561C113.124599 45.88449 114.993999 44.57349 117.131369 44.57349C118.638379 44.57349 120.288489 45.41043 120.521779 46.9154 M125.405516 41.3457C125.588526 40.88799 126.182076 40.37024 126.892516 40.37024C127.859906 40.37024 128.412356 41.3457 129.470006 41.3457C130.758746 41.3457 131.094276 40.37118 131.094276 40.37118M124.777636 46.2457C125.141996 45.28012 126.558346 44.56665 127.898366 44.56665C129.751606 44.56665 131.253956 45.8797 131.253956 47.4994L131.259706 48.957V51.5711C131.259706 52.614 131.235136 53.3527 131.536506 54.2784M130.880356 48.957H128.152386C125.648986 48.957 124.348736 50.3433 124.348736 51.8374C124.348736 53.3315 125.586846 54.3408 127.202516 54.3408C129.184746 54.3408 130.810586 52.8882 131.211156 51.7324 M143.877012 49.4569C143.877012 52.5223 142.006062 54.3403 139.698122 54.3403C137.390182 54.3403 135.519222 52.5223 135.519222 49.4569C135.519222 46.3915 137.390182 44.57349 139.698122 44.57349C142.006062 44.57349 143.877012 46.3915 143.877012 49.4569Z M11.37976 78.1243V64.12329M11.02001 76.7727C10.15801 77.8707 9.0597 78.3402 7.75014 78.3402C5.56881 78.3402 3.91748 77.0292 3.91748 73.4576C3.91748 69.88607 5.67447 68.57507 7.85579 68.57507C9.1254 68.57507 10.33496 69.11426 11.02001 70.1748 M22.87746 77.2181C21.90367 78.1548 20.87897 78.3386 19.69351 78.3386C17.62474 78.3386 15.7615 77.0276 15.7615 73.4561C15.7615 69.88449 17.57089 68.57349 19.63966 68.57349C21.70844 68.57349 23.31179 69.62966 23.31179 73.2012H16.09227 M42.6172 75.1299C41.9564 77.0338 40.16758 78.3984 38.0646 78.3984C35.39965 78.3984 33.23928 76.2071 33.23928 73.5039V69.62109C33.23928 66.91792 35.39965 64.72656 38.0646 64.72656C40.16758 64.72656 41.9564 66.09117 42.6172 67.99505 M54.857 73.4569C54.857 76.5223 52.98605 78.3403 50.67811 78.3403C48.37017 78.3403 46.49921 76.5223 46.49921 73.4569C46.49921 70.3915 48.37017 68.57349 50.67811 68.57349C52.98605 68.57349 54.857 70.3915 54.857 73.4569Z M59.048908 68.77967L59.049168 78.1279M65.883458 78.1279V72.0738C65.883458 71.3619 65.979188 68.79026 63.596098 68.58694C61.838058 68.43694 60.149018 69.56164 59.372678 70.9562 M73.629319 78.3258C72.219659 78.4655 71.361749 77.7322 71.361749 76.3869V66.08093M73.511659 68.642H71.748249M69.251557 68.642H70.985439 M84.187456 77.2181C83.213666 78.1548 82.188966 78.3386 81.003506 78.3386C78.934736 78.3386 77.071496 77.0276 77.071496 73.4561C77.071496 69.88449 78.880886 68.57349 80.949656 68.57349C83.018436 68.57349 84.621786 69.62966 84.621786 73.2012H77.402266 M93.633163 63.92761L92.385933 65.55454M88.642073 68.7666L88.642073 74.8207C88.642073 75.5325 88.547073 78.0958 90.929433 78.3075C93.019663 78.4933 94.293093 77.6528 94.995463 76.4701M95.476623 78.1148L95.476363 68.7666 M107.25975 78.1243V64.12329M106.9 76.7727C106.038 77.8707 104.93969 78.3402 103.63013 78.3402C101.4488 78.3402 99.79747 77.0292 99.79747 73.4576C99.79747 69.88607 101.55446 68.57507 103.73578 68.57507C105.00539 68.57507 106.21495 69.11426 106.9 70.1748 M119.906988 73.4569C119.906988 76.5223 118.036038 78.3403 115.728098 78.3403C113.420158 78.3403 111.549198 76.5223 111.549198 73.4569C111.549198 70.3915 113.420158 68.57349 115.728098 68.57349C118.036038 68.57349 119.906988 70.3915 119.906988 73.4569Z"></path>
        </g>
      </g>
    </g>
    <g id="g-root-line_1cw5pda1maucjy-stroke" data-item-order="0" data-item-id="line_1cw5pda1maucjy" data-item-class="Icon Stroke SceneTarget Indexed InsideFill InsideColorFill" data-item-index="4" data-renderer-id="0" transform="matrix(1, 0, 0, 1, 169, 15)">
      <g id="line_1cw5pda1maucjy-stroke" fill="none" stroke-linecap="round" stroke-linejoin="round" stroke-miterlimit="1.5" stroke="#17b0e3" stroke-width="1" transform="matrix(2, 0, 0, 2, -14, -8)">
        <g xmlns="http://www.w3.org/2000/svg" transform="translate(12, 9)">
          <path d="M1.504 3.5h21s1 0 1 1v15s0 1 -1 1 h-21s-1 0 -1 -1v-15s0 -1 1 -1M4.5,15.5l2.571-4.285a.5.5,0,0,1,.858,0L10.142,14.9a.5.5,0,0,0,.813.063l1.665-2a.5.5,0,0,1,.768,0l1.655,1.986a.5.5,0,0,0,.818-.072L19.5,8.5"></path>
        </g>
      </g>
    </g>
    <g id="g-root-play_huo4oe1maua6h-stroke" data-item-order="0" data-item-id="play_huo4oe1maua6h" data-item-class="Icon Stroke SceneTarget Indexed Indexed_1 InsideFill InsideColorFill" data-item-index="1" data-renderer-id="0" transform="matrix(1, 0, 0, 1, 461, 15)">
      <g id="play_huo4oe1maua6h-stroke" fill="none" stroke-linecap="round" stroke-linejoin="round" stroke-miterlimit="1.5" stroke="#e3cd09" stroke-width="1" transform="matrix(2, 0, 0, 2, -14, -12)">
        <g xmlns="http://www.w3.org/2000/svg" transform="translate(12, 11)">
          <path d="M12,5.5C12,3.621,16.854,2.089,22.492,2A.5.5,0,0,1,23,2.5V18a.5.5,0,0,1-.492.5C16.863,18.587,12,20.119,12,22c0-1.879-4.863-3.411-10.508-3.5A.5.5,0,0,1,1,18V2.5A.5.5,0,0,1,1.508,2C7.145,2.089,12,3.621,12,5.5ZM12 5.498L12 21.873M9.5,7.5A23.408,23.408,0,0,0,3,6.258M14.5,7.5A23.408,23.408,0,0,1,21,6.258M9.5,11.758A23.408,23.408,0,0,0,3,10.518M9.5,16A23.408,23.408,0,0,0,3,14.758M14.5,11.758a23.416,23.416,0,0,1,6.5-1.24M14.5,16a23.416,23.416,0,0,1,6.5-1.24"></path>
        </g>
      </g>
    </g>
    <g id="g-root-robo_1lrspm61maubr9-stroke" data-item-order="0" data-item-id="robo_1lrspm61maubr9" data-item-class="Icon Stroke SceneTarget SceneStart InsideFill InsideGrayFill ColorFillGray ColorStrokeGray" data-item-index="none" data-renderer-id="0" transform="matrix(1, 0, 0, 1, 303, 86.99609375)">
      <g id="robo_1lrspm61maubr9-stroke" fill="none" stroke-linecap="round" stroke-linejoin="round" stroke-miterlimit="1.5" stroke="#bbbbbb" stroke-width="0.667" transform="matrix(3, 0, 0, 3, -26, -26)">
        <g xmlns="http://www.w3.org/2000/svg" transform="translate(12, 12)">
          <path d="M6 0.5h12s1.5 0 1.5 1.5v6s0 1.5 -1.5 1.5 h-12s-1.5 0 -1.5 -1.5v-6s0 -1.5 1.5 -1.5M6.5 5a1.5 1.5 0 1 0 3 0a1.5 1.5 0 1 0 -3 0M14.5 5a1.5 1.5 0 1 0 3 0a1.5 1.5 0 1 0 -3 0M10.5 11.5L13.5 11.5M10.5 13.5L13.5 13.5M15.34,15.5H8.66a3.66,3.66,0,0,0-3.58,4.43l.47,3.17a.49.49,0,0,0,.49.4H18a.49.49,0,0,0,.49-.4l.47-3.17A3.66,3.66,0,0,0,15.34,15.5ZM19,18.78l1.71-1.61A3.64,3.64,0,0,0,22,13.5L22,13.31M23,9.5a2.5,2.5,0,0,1-2,4,2.49,2.49,0,0,1-2-1M5,18.78,3.31,17.17A3.64,3.64,0,0,1,2,13.5l0-.2M1,9.5a2.5,2.5,0,0,0,2,4,2.49,2.49,0,0,0,2-1M16,23.5V19a.5.5,0,0,0-.5-.5h-7A.5.5,0,0,0,8,19v4.5"></path>
        </g>
      </g>
    </g>
    <g id="g-root-tx_customer_140ilym1masvm6-stroke" data-item-order="0" data-item-id="tx_customer_140ilym1masvm6" data-item-class="Label Stroke SceneTarget Indexed" data-item-index="3" data-renderer-id="0" transform="matrix(1, 0, 0, 1, 3, 171)">
      <g id="tx_customer_140ilym1masvm6-stroke" fill="none" stroke-linecap="square" stroke-linejoin="miter" stroke-miterlimit="4" stroke="#484848" stroke-width="1" transform="matrix(1, 0, 0, 1, 21, 14)">
        <g xmlns="http://www.w3.org/2000/svg" transform="translate(-11, -4)">
          <path d="M23.263547 30.1453L28.212217 16.97268L28.800087 16.97266L33.763707 30.1453M25.080967 26.2942H31.939607 M40.709328 30.3258C39.299668 30.4655 38.441758 29.7322 38.441758 28.3869V18.08093M40.591668 20.642H38.828258M36.331566 20.642H38.065448 M51.267465 29.2181C50.293675 30.1548 49.268975 30.3386 48.083515 30.3386C46.014745 30.3386 44.151505 29.0276 44.151505 25.4561C44.151505 21.88449 45.960895 20.57349 48.029665 20.57349C50.098445 20.57349 51.701795 21.62966 51.701795 25.2012H44.482275 M55.748917 20.77967L55.749177 30.1279M62.583467 30.1279V24.0738C62.583467 23.3619 62.679197 20.79026 60.296107 20.58694C58.538067 20.43694 56.849027 21.56164 56.072687 22.9562 M74.359771 30.1243V16.12329M74.000021 28.7727C73.138021 29.8707 72.039711 30.3402 70.730151 30.3402C68.548821 30.3402 66.897491 29.0292 66.897491 25.4576C66.897491 21.88607 68.654481 20.57507 70.835801 20.57507C72.105411 20.57507 73.314971 21.11426 74.000021 22.1748 M79.388449 16.97076H79.412379M79.372219 20.80402V30.1446 M84.319703 20.81417L84.319973 30.1624M91.154253 30.1624L91.143383 23.4697C91.078933 22.5262 90.712003 21.07848 88.837783 20.64916C86.898093 20.20484 85.418293 21.24827 84.681883 22.5949M97.989313 30.1624V24.1083C97.989313 23.3964 98.103913 21.20604 95.672913 20.64916C93.643813 20.18437 92.109513 21.34748 91.409123 22.7827 M109.417467 29.2181C108.443677 30.1548 107.418977 30.3386 106.233517 30.3386C104.164747 30.3386 102.301507 29.0276 102.301507 25.4561C102.301507 21.88449 104.110897 20.57349 106.179667 20.57349C108.248447 20.57349 109.851797 21.62966 109.851797 25.2012H102.632277 M113.898914 20.77967L113.899174 30.1279M120.733464 30.1279V24.0738C120.733464 23.3619 120.829194 20.79026 118.446104 20.58694C116.688064 20.43694 114.999024 21.56164 114.222684 22.9562 M128.479325 30.3258C127.069665 30.4655 126.211755 29.7322 126.211755 28.3869V18.08093M128.361665 20.642H126.598255M124.101563 20.642H125.835445 M140.18701 25.4569C140.18701 28.5223 138.31606 30.3403 136.00812 30.3403C133.70018 30.3403 131.82922 28.5223 131.82922 25.4569C131.82922 22.3915 133.70018 20.57349 136.00812 20.57349C138.31606 20.57349 140.18701 22.3915 140.18701 25.4569Z M50.487635 46.2457C50.851995 45.28012 52.268345 44.56665 53.608365 44.56665C55.461605 44.56665 56.963955 45.8797 56.963955 47.4994L56.969705 48.957V51.5711C56.969705 52.614 56.945135 53.3527 57.246505 54.2784M56.590355 48.957H53.862385C51.358985 48.957 50.058735 50.3433 50.058735 51.8374C50.058735 53.3315 51.296845 54.3408 52.912515 54.3408C54.894745 54.3408 56.520585 52.8882 56.921155 51.7324 M69.597006 49.4569C69.597006 52.5223 67.726056 54.3403 65.418116 54.3403C63.110176 54.3403 61.239216 52.5223 61.239216 49.4569C61.239216 46.3915 63.110176 44.57349 65.418116 44.57349C67.726056 44.57349 69.597006 46.3915 69.597006 49.4569Z M89.047204 51.1299C88.386404 53.0338 86.597584 54.3984 84.494604 54.3984C81.829654 54.3984 79.669284 52.2071 79.669284 49.5039V45.62109C79.669284 42.91792 81.829654 40.72656 84.494604 40.72656C86.597584 40.72656 88.386404 42.09117 89.047204 43.99505 M93.625621 40.125V54.1264 M98.718444 40.97076H98.742374M98.702214 44.80402V54.1446 M110.27746 53.2181C109.30367 54.1548 108.27897 54.3386 107.09351 54.3386C105.02474 54.3386 103.1615 53.0276 103.1615 49.4561C103.1615 45.88449 104.97089 44.57349 107.03966 44.57349C109.10844 44.57349 110.71179 45.62966 110.71179 49.2012H103.49227 M114.758915 44.77967L114.759175 54.1279M121.593465 54.1279V48.0738C121.593465 47.3619 121.689195 44.79026 119.306105 44.58694C117.548065 44.43694 115.859025 45.56164 115.082685 46.9562 M129.339325 54.3258C127.929665 54.4655 127.071755 53.7322 127.071755 52.3869V42.08093M129.221665 44.642H127.458255M124.961563 44.642H126.695445 M139.897455 53.2181C138.923665 54.1548 137.898965 54.3386 136.713505 54.3386C134.644735 54.3386 132.781495 53.0276 132.781495 49.4561C132.781495 45.88449 134.590885 44.57349 136.659655 44.57349C138.728435 44.57349 140.331785 45.62966 140.331785 49.2012H133.112265"></path>
        </g>
      </g>
    </g>
    <g id="g-root-5_zlbo321mauaz3-stroke" data-item-order="0" data-item-id="5_zlbo321mauaz3" data-item-class="Icon Stroke SceneTarget Indexed InsideFill InsideColorFill" data-item-index="3" data-renderer-id="0" transform="matrix(1, 0, 0, 1, 169, 183)">
      <g id="5_zlbo321mauaz3-stroke" fill="none" stroke-linecap="round" stroke-linejoin="round" stroke-miterlimit="1.5" stroke="#e15e5a" stroke-width="0.583" transform="matrix(3.4285714626312256, 0, 0, 3.4285714626312256, -31.14285659790039, -31.14285659790039)">
        <g xmlns="http://www.w3.org/2000/svg" transform="translate(12, 12)">
          <path d="M3.5 7.5h1s1 0 1 1v4s0 1 -1 1 h-1s-1 0 -1 -1v-4s0 -1 1 -1M9.5 7.5h1s1 0 1 1v4s0 1 -1 1 h-1s-1 0 -1 -1v-4s0 -1 1 -1M.5,9.5V7a6.5,6.5,0,0,1,13,0V9.5"></path>
        </g>
      </g>
    </g>
    <g id="g-root-3_qponu61maucjk-stroke" data-item-order="0" data-item-id="3_qponu61maucjk" data-item-class="Icon Stroke SceneTarget Indexed InsideFill InsideColorFill" data-item-index="2" data-renderer-id="0" transform="matrix(1, 0, 0, 1, 461, 183)">
      <g id="3_qponu61maucjk-stroke" fill="none" stroke-linecap="round" stroke-linejoin="round" stroke-miterlimit="1.5" stroke="#3bc482" stroke-width="1" transform="matrix(2, 0, 0, 2, -14, -8)">
        <g xmlns="http://www.w3.org/2000/svg" transform="translate(12, 9)">
          <path d="M2.5 3.004h19s2 0 2 2v14s0 2 -2 2 h-19s-2 0 -2 -2v-14s0 -2 2 -2M0.5 8.004L23.5 8.004M4,5.254a.25.25,0,1,1-.25.25A.25.25,0,0,1,4,5.254M7,5.254a.25.25,0,1,1-.25.25A.25.25,0,0,1,7,5.254M10,5.254a.25.25,0,1,1-.25.25.25.25,0,0,1,.25-.25"></path>
        </g>
      </g>
    </g>
    <g id="g-root-tx_software_zkp3u61maswef-stroke" data-item-order="0" data-item-id="tx_software_zkp3u61maswef" data-item-class="Label Stroke SceneTarget Indexed" data-item-index="2" data-renderer-id="0" transform="matrix(1, 0, 0, 1, 531, 183)">
      <g id="tx_software_zkp3u61maswef-stroke" fill="none" stroke-linecap="square" stroke-linejoin="miter" stroke-miterlimit="4" stroke="#484848" stroke-width="1" transform="matrix(1, 0, 0, 1, 1, 2)">
        <g xmlns="http://www.w3.org/2000/svg" transform="translate(9, 8)">
          <path d="M8.73682 18.1804L4.72754 18.1827V4.94829C5.67546 4.94829 6.954 4.94607 8.354 4.94607C9.80664 4.90961 13.5869 6.17329 13.5869 11.5108C13.5869 16.8483 10.06185 18.1804 8.73682 18.1804Z M24.80746 17.2181C23.83367 18.1548 22.80897 18.3386 21.62351 18.3386C19.55474 18.3386 17.6915 17.0276 17.6915 13.4561C17.6915 9.88449 19.50089 8.57349 21.56966 8.57349C23.63844 8.57349 25.24179 9.62966 25.24179 13.2012H18.02227 M35.44783 10.3814C35.1521 9.4042 33.99779 8.58374 32.3877 8.58374C30.49998 8.58374 29.28031 9.44691 29.18866 10.7511C29.08362 12.2457 30.31773 12.8218 32.24823 13.3386C33.94184 13.7969 35.88525 14.2772 35.73096 16.1222C35.63159 17.3105 34.65482 18.3458 32.2981 18.3458C30.39217 18.3458 29.31479 17.5302 28.98043 16.4244 M46.747461 17.2181C45.773671 18.1548 44.748971 18.3386 43.563511 18.3386C41.494741 18.3386 39.631501 17.0276 39.631501 13.4561C39.631501 9.88449 41.440891 8.57349 43.509661 8.57349C45.578441 8.57349 47.181791 9.62966 47.181791 13.2012H39.962271 M51.228912 8.77967L51.229172 18.1279M58.063462 18.1279V12.0738C58.063462 11.3619 58.159192 8.79026 55.776102 8.58694C54.018062 8.43694 52.329022 9.56164 51.552682 10.9562 M68.992763 8.69055L65.623303 18.119L65.422063 18.1189L62.017743 8.69055 M80.787001 13.4569C80.787001 16.5223 78.916051 18.3403 76.608111 18.3403C74.300171 18.3403 72.429211 16.5223 72.429211 13.4569C72.429211 10.3915 74.300171 8.57349 76.608111 8.57349C78.916051 8.57349 80.787001 10.3915 80.787001 13.4569Z M85.115618 4.125V18.1264 M96.182762 8.69055L92.813302 18.119L92.612062 18.1189L89.207742 8.69055 M100.358443 4.97076H100.382373M100.342213 8.80402V18.1446 M105.289689 8.81417L105.289959 18.1624M112.124239 18.1624L112.113369 11.4697C112.048919 10.5262 111.681989 9.07848 109.807769 8.64916C107.868079 8.20484 106.388279 9.24827 105.651869 10.5949M118.959299 18.1624V12.1083C118.959299 11.3964 119.073899 9.20604 116.642899 8.64916C114.613799 8.18437 113.079499 9.34748 112.379109 10.7827 M130.387461 17.2181C129.413671 18.1548 128.388971 18.3386 127.203511 18.3386C125.134741 18.3386 123.271501 17.0276 123.271501 13.4561C123.271501 9.88449 125.080891 8.57349 127.149661 8.57349C129.218441 8.57349 130.821791 9.62966 130.821791 13.2012H123.602271 M134.868915 8.77967L134.869175 18.1279M141.703465 18.1279V12.0738C141.703465 11.3619 141.799195 8.79026 139.416105 8.58694C137.658065 8.43694 135.969025 9.56164 135.192685 10.9562 M149.449326 18.3258C148.039666 18.4655 147.181756 17.7322 147.181756 16.3869V6.08093M149.331666 8.642H147.568256M145.071564 8.642H146.805446 M161.157011 13.4569C161.157011 16.5223 159.286061 18.3403 156.978121 18.3403C154.670181 18.3403 152.799221 16.5223 152.799221 13.4569C152.799221 10.3915 154.670181 8.57349 156.978121 8.57349C159.286061 8.57349 161.157011 10.3915 161.157011 13.4569Z M11.37976 42.1243V28.12329M11.02001 40.7727C10.15801 41.8707 9.0597 42.3402 7.75014 42.3402C5.56881 42.3402 3.91748 41.0292 3.91748 37.4576C3.91748 33.88607 5.67447 32.57507 7.85579 32.57507C9.1254 32.57507 10.33496 33.11426 11.02001 34.1748 M22.87746 41.2181C21.90367 42.1548 20.87897 42.3386 19.69351 42.3386C17.62474 42.3386 15.7615 41.0276 15.7615 37.4561C15.7615 33.88449 17.57089 32.57349 19.63966 32.57349C21.70844 32.57349 23.31179 33.62966 23.31179 37.2012H16.09227 M41.5761 31.45723C41.1448 29.89331 39.52508 28.73169 37.43644 28.73169C34.98763 28.73169 33.28654 29.93098 33.28654 31.75431C33.28654 33.72412 34.75121 34.6852 37.2555 35.406C39.4525 36.0451 41.6895 36.8125 41.6895 39.2879C41.6895 40.9509 40.3774 42.3458 37.32019 42.3458C34.84777 42.3458 33.26744 41.1057 32.90261 39.4828 M53.647001 37.4569C53.647001 40.5223 51.776051 42.3403 49.468111 42.3403C47.160171 42.3403 45.289211 40.5223 45.289211 37.4569C45.289211 34.3915 47.160171 32.57349 49.468111 32.57349C51.776051 32.57349 53.647001 34.3915 53.647001 37.4569Z M61.954309 27.92621C61.786359 27.90765 61.504619 27.9071 61.377489 27.9071C59.797579 27.9071 58.799909 29.03454 58.799909 30.42529V42.1291M61.224769 32.6639H59.135979M56.947669 32.6639H58.473859 M67.889321 42.3258C66.479661 42.4655 65.621751 41.7322 65.621751 40.3869V30.08093M67.771661 32.642H66.008251M63.511559 32.642H65.245441 M70.998248 32.6897L73.712948 42.1193L74.091468 42.1193L77.033288 32.78229H77.467638L80.474098 42.1193H80.824098L83.541398 32.6897 M87.67763 34.2457C88.04199 33.28012 89.45834 32.56665 90.79836 32.56665C92.6516 32.56665 94.15395 33.8797 94.15395 35.4994L94.1597 36.957V39.5711C94.1597 40.614 94.13513 41.3527 94.4365 42.2784M93.78035 36.957H91.05238C88.54898 36.957 87.24873 38.3433 87.24873 39.8374C87.24873 41.3315 88.48684 42.3408 90.10251 42.3408C92.08474 42.3408 93.71058 40.8882 94.11115 39.7324 M102.594801 32.60908C101.214381 32.41894 99.965991 33.31927 99.324011 34.6193M98.969381 32.77269V42.1226 M112.747461 41.2181C111.773671 42.1548 110.748971 42.3386 109.563511 42.3386C107.494741 42.3386 105.631501 41.0276 105.631501 37.4561C105.631501 33.88449 107.440891 32.57349 109.509661 32.57349C111.578441 32.57349 113.181791 33.62966 113.181791 37.2012H105.962271"></path>
        </g>
      </g>
    </g>
  </g>
</svg>