<svg width="710" height="434" viewBox="0 0 710 434" style="fill:none;stroke:none;fill-rule:evenodd;clip-rule:evenodd;stroke-linecap:round;stroke-linejoin:round;stroke-miterlimit:1.5;" version="1.1"
  xmlns="http://www.w3.org/2000/svg"
  xmlns:xlink="http://www.w3.org/1999/xlink">
  <g id="blend" style="mix-blend-mode:multiply">
    <g id="g-root-8.Vector_sy_dj75rx1p2outq-fill" data-item-order="-153600" data-item-id="8.Vector_sy_dj75rx1p2outq" data-item-class="ScenePart Indexed Fill Stroke" data-item-index="8" data-renderer-id="0" transform="matrix(1, 0, 0, 1, 245.86199951171875, -0.748992919921875)">
      <g id="8.Vector_sy_dj75rx1p2outq-fill" stroke="none" fill="#fee7f5" transform="matrix(1, 0, 0, 1, -2.86199951171875, -2.251007080078125)">
        <g xmlns="http://www.w3.org/2000/svg" transform="translate(-254, -116)">
          <path d="M343.242 221.163L336.675 238.999L319.42 231.031L326.05 228.285L316.053 204.15C299.146 208.188 281.334 199.468 274.47 182.896C266.862 164.527 275.584 143.468 293.953 135.86C312.322 128.251 333.381 136.974 340.99 155.343C347.844 171.891 341.444 190.623 326.676 199.737L336.678 223.882L343.242 221.163Z"></path>
        </g>
      </g>
    </g>
    <g id="g-root-7.Vector_sy_meu60t1p2ou11-fill" data-item-order="-153598" data-item-id="7.Vector_sy_meu60t1p2ou11" data-item-class="ScenePart Indexed Fill Stroke" data-item-index="7" data-renderer-id="0" transform="matrix(1, 0, 0, 1, 155.13699340820312, 89.97601318359375)">
      <g id="7.Vector_sy_meu60t1p2ou11-fill" stroke="none" fill="#ffe7e6" transform="matrix(1, 0, 0, 1, -2.136993408203125, -2.9759979248046875)">
        <g xmlns="http://www.w3.org/2000/svg" transform="translate(-164, -206)">
          <path d="M278.917 271.534L286.885 288.789L269.049 295.356L271.796 288.726L247.661 278.729C238.561 293.54 219.8 299.968 203.229 293.104C184.86 285.495 176.137 264.436 183.746 246.067C191.354 227.699 212.413 218.976 230.782 226.584C247.33 233.439 256.05 251.21 252.052 268.097L276.198 278.098L278.917 271.534Z"></path>
        </g>
      </g>
    </g>
    <g id="g-root-6.Vector_sy_quno591p2ot8s-fill" data-item-order="-153596" data-item-id="6.Vector_sy_quno591p2ot8s" data-item-class="ScenePart Indexed Fill Stroke" data-item-index="6" data-renderer-id="0" transform="matrix(1, 0, 0, 1, 154.94000244140625, 219.1629638671875)">
      <g id="6.Vector_sy_quno591p2ot8s-fill" stroke="none" fill="#fef2e6" transform="matrix(1, 0, 0, 1, -2.94000244140625, -2.162994384765625)">
        <g xmlns="http://www.w3.org/2000/svg" transform="translate(-163, -336)">
          <path d="M278.778 376.573L286.747 359.318L268.911 352.751L271.657 359.381L247.464 369.402C238.365 354.591 219.604 348.163 203.032 355.027C184.663 362.636 175.94 383.695 183.549 402.064C191.158 420.432 212.216 429.155 230.585 421.547C247.134 414.692 255.853 396.921 251.856 380.035L276.059 370.009L278.778 376.573Z"></path>
        </g>
      </g>
    </g>
    <g id="g-root-5.Vector_sy_quno591p2ot8r-fill" data-item-order="-153594" data-item-id="5.Vector_sy_quno591p2ot8r" data-item-class="ScenePart Indexed Fill Stroke" data-item-index="5" data-renderer-id="0" transform="matrix(1, 0, 0, 1, 245.86199951171875, 280.27001953125)">
      <g id="5.Vector_sy_quno591p2ot8r-fill" stroke="none" fill="#f5fbe9" transform="matrix(1, 0, 0, 1, -2.86199951171875, -2.269989013671875)">
        <g xmlns="http://www.w3.org/2000/svg" transform="translate(-254, -397)">
          <path d="M343.266 427.106L336.699 409.27L319.444 417.239L326.074 419.985L316.053 444.178C299.146 440.139 281.334 448.86 274.47 465.432C266.862 483.8 275.584 504.859 293.953 512.468C312.322 520.076 333.381 511.354 340.989 492.985C347.844 476.436 341.444 457.704 326.676 448.591L336.702 424.387L343.266 427.106Z"></path>
        </g>
      </g>
    </g>
    <g id="g-root-4.Vector_sy_zpo7b11p2ovlu-fill" data-item-order="-153592" data-item-id="4.Vector_sy_zpo7b11p2ovlu" data-item-class="ScenePart Indexed Fill Stroke" data-item-index="4" data-renderer-id="0" transform="matrix(1, 0, 0, 1, 375.04901123046875, 280.27001953125)">
      <g id="4.Vector_sy_zpo7b11p2ovlu-fill" stroke="none" fill="#e6f9ff" transform="matrix(1, 0, 0, 1, -2.04901123046875, -2.269989013671875)">
        <g xmlns="http://www.w3.org/2000/svg" transform="translate(-384, -397)">
          <path d="M424.459 417.239L407.203 409.27L400.637 427.106L407.267 424.36L417.288 448.553C402.477 457.652 396.049 476.413 402.913 492.985C410.522 511.354 431.581 520.076 449.949 512.468C468.318 504.859 477.041 483.8 469.432 465.431C462.578 448.883 444.806 440.163 427.92 444.161L417.895 419.958L424.459 417.239Z"></path>
        </g>
      </g>
    </g>
    <g id="g-root-3.Vector_sy_zpo7b11p2ovlt-fill" data-item-order="-153590" data-item-id="3.Vector_sy_zpo7b11p2ovlt" data-item-class="ScenePart Indexed Fill Stroke" data-item-index="3" data-renderer-id="0" transform="matrix(1, 0, 0, 1, 436.156005859375, 219.1729736328125)">
      <g id="3.Vector_sy_zpo7b11p2ovlt-fill" stroke="none" fill="#e9fbf3" transform="matrix(1, 0, 0, 1, -2.156005859375, -2.173004150390625)">
        <g xmlns="http://www.w3.org/2000/svg" transform="translate(-445, -336)">
          <path d="M474.992 352.751L457.156 359.318L465.125 376.573L467.871 369.943L492.064 379.964C488.025 396.871 496.746 414.682 513.317 421.547C531.686 429.155 552.745 420.432 560.354 402.064C567.962 383.695 559.239 362.636 540.871 355.027C524.322 348.173 505.59 354.573 496.477 369.34L472.273 359.315L474.992 352.751Z"></path>
        </g>
      </g>
    </g>
    <g id="g-root-2.Vector_sy_145hpfh1p2outk-fill" data-item-order="-153588" data-item-id="2.Vector_sy_145hpfh1p2outk" data-item-class="ScenePart Indexed Fill Stroke ColorFillGray ColorStrokeGray" data-item-index="2" data-renderer-id="0" transform="matrix(1, 0, 0, 1, 436.0169677734375, 89.97601318359375)">
      <g id="2.Vector_sy_145hpfh1p2outk-fill" stroke="none" fill="#fafafa" transform="matrix(1, 0, 0, 1, -2.016998291015625, -2.9759979248046875)">
        <g xmlns="http://www.w3.org/2000/svg" transform="translate(-445, -206)">
          <path d="M474.853 295.356L457.017 288.789L464.986 271.534L467.732 278.164L491.867 268.167C487.828 251.26 496.549 233.449 513.121 226.584C531.49 218.976 552.548 227.699 560.157 246.067C567.766 264.436 559.043 285.495 540.674 293.104C524.125 299.958 505.393 293.558 496.28 278.791L472.134 288.792L474.853 295.356Z"></path>
        </g>
      </g>
    </g>
    <g id="g-root-1.Vector_sy_18lb7jx1p2ou1b-fill" data-item-order="-153586" data-item-id="1.Vector_sy_18lb7jx1p2ou1b" data-item-class="ScenePart Indexed Indexed_1 Fill Stroke" data-item-index="1" data-renderer-id="0" transform="matrix(1, 0, 0, 1, 375.04901123046875, -0.748992919921875)">
      <g id="1.Vector_sy_18lb7jx1p2ou1b-fill" stroke="none" fill="#fffce6" transform="matrix(1, 0, 0, 1, -2.04901123046875, -2.251007080078125)">
        <g xmlns="http://www.w3.org/2000/svg" transform="translate(-384, -116)">
          <path d="M424.483 231.031L407.227 239L400.661 221.163L407.291 223.91L417.288 199.775C402.477 190.675 396.049 171.914 402.913 155.343C410.522 136.974 431.58 128.251 449.949 135.86C468.318 143.468 477.041 164.527 469.432 182.896C462.578 199.445 444.806 208.164 427.92 204.166L417.919 228.312L424.483 231.031Z"></path>
        </g>
      </g>
    </g>
    <g id="g-root-0.cr-big_cr_1hgy7st1p2ot8m-fill" data-item-order="-153584" data-item-id="0.cr-big_cr_1hgy7st1p2ot8m" data-item-class="Shape Stroke Fill ScenePart Indexed_0 ColorFillGray ColorStrokeGray" data-item-index="0" data-renderer-id="0" transform="matrix(1, 0, 0, 1, 279, 122.99600219726562)">
      <g id="0.cr-big_cr_1hgy7st1p2ot8m-fill" stroke="none" fill="#fafafa" transform="matrix(1, 0, 0, 1, -2, -2)">
        <g xmlns="http://www.w3.org/2000/svg" transform="translate(12, 12)">
          <path d="M0 72a72 72 0 1 0 144 0a72 72 0 1 0 -144 0"></path>
        </g>
      </g>
    </g>
    <g id="g-root-thri_1hbyi9p1p26k1t-fill" data-item-order="0" data-item-id="thri_1hbyi9p1p26k1t" data-item-class="Icon Stroke SceneTarget Indexed Indexed_1 InsideFill InsideColorFill" data-item-index="1" data-renderer-id="0" transform="matrix(1, 0, 0, 1, 391.31201171875, 15.785003662109375)"></g>
    <g id="g-root-tx_usagetyp_4o6mm51p2ot8g-fill" data-item-order="0" data-item-id="tx_usagetyp_4o6mm51p2ot8g" data-item-class="Label Stroke SceneTarget Indexed" data-item-index="7" data-renderer-id="0" transform="matrix(1, 0, 0, 1, 15, 111)"></g>
    <g id="g-root-1_1ha330d1p26l1f-fill" data-item-order="0" data-item-id="1_1ha330d1p26l1f" data-item-class="Icon Stroke SceneTarget Indexed InsideFill InsideColorFill" data-item-index="7" data-renderer-id="0" transform="matrix(1, 0, 0, 1, 170.23300170898438, 106.05300903320312)"></g>
    <g id="g-root-1_1umsjjx1p26lmo-fill" data-item-order="0" data-item-id="1_1umsjjx1p26lmo" data-item-class="Icon Stroke SceneTarget Indexed InsideFill InsideGrayFill ColorFillGray ColorStrokeGray" data-item-index="2" data-renderer-id="0" transform="matrix(1, 0, 0, 1, 482.23199462890625, 106.70498657226562)"></g>
    <g id="g-root-tx_suddenem_qvwmbh1p2ovf1-fill" data-item-order="0" data-item-id="tx_suddenem_qvwmbh1p2ovf1" data-item-class="Label Stroke SceneTarget Indexed" data-item-index="2" data-renderer-id="0" transform="matrix(1, 0, 0, 1, 555, 99)"></g>
    <g id="g-root-1_95962l1p256o1-fill" data-item-order="0" data-item-id="1_95962l1p256o1" data-item-class="Icon Stroke SceneTarget SceneEnd InsideFill InsideGrayFill ColorFillGray ColorStrokeGray" data-item-index="none" data-renderer-id="0" transform="matrix(1, 0, 0, 1, 315, 158.99600219726562)"></g>
    <g id="g-root-clif_1uuwpod1p2581u-fill" data-item-order="0" data-item-id="clif_1uuwpod1p2581u" data-item-class="Icon Stroke SceneTarget Indexed InsideFill InsideColorFill" data-item-index="8" data-renderer-id="0" transform="matrix(1, 0, 0, 1, 262.59100341796875, 15.785003662109375)"></g>
    <g id="g-root-tx_currente_mg34711p2ow7a-fill" data-item-order="0" data-item-id="tx_currente_mg34711p2ow7a" data-item-class="Label Stroke SceneTarget Indexed Indexed_1" data-item-index="1" data-renderer-id="0" transform="matrix(1, 0, 0, 1, 459, -9)"></g>
    <g id="g-root-tx_organiza_1utnocd1p2otu1-fill" data-item-order="0" data-item-id="tx_organiza_1utnocd1p2otu1" data-item-class="Label Stroke SceneTarget Indexed" data-item-index="6" data-renderer-id="0" transform="matrix(1, 0, 0, 1, -9, 243)"></g>
    <g id="g-root-buil_13ymkn11p26mmc-fill" data-item-order="0" data-item-id="buil_13ymkn11p26mmc" data-item-class="Icon Stroke SceneTarget Indexed InsideFill InsideColorFill" data-item-index="6" data-renderer-id="0" transform="matrix(1, 0, 0, 1, 171.80902099609375, 235.2869873046875)"></g>
    <g id="g-root-robo_1hzp91p26l1j-fill" data-item-order="0" data-item-id="robo_1hzp91p26l1j" data-item-class="Icon Stroke SceneTarget Indexed InsideFill InsideColorFill" data-item-index="3" data-renderer-id="0" transform="matrix(1, 0, 0, 1, 483.80804443359375, 235.9400634765625)"></g>
    <g id="g-root-tx_definiti_147d4ot1p2otu4-fill" data-item-order="0" data-item-id="tx_definiti_147d4ot1p2otu4" data-item-class="Label Stroke SceneTarget Indexed" data-item-index="3" data-renderer-id="0" transform="matrix(1, 0, 0, 1, 555, 231)"></g>
    <g id="g-root-tx_roleofll_1d2dnul1p2ow77-fill" data-item-order="0" data-item-id="tx_roleofll_1d2dnul1p2ow77" data-item-class="Label Stroke SceneTarget Indexed" data-item-index="4" data-renderer-id="0" transform="matrix(1, 0, 0, 1, 459, 351)"></g>
    <g id="g-root-chec_qnsjct1p26l1h-fill" data-item-order="0" data-item-id="chec_qnsjct1p26l1h" data-item-class="Icon Stroke SceneTarget Indexed InsideFill InsideColorFill" data-item-index="5" data-renderer-id="0" transform="matrix(1, 0, 0, 1, 262.7300109863281, 326.2080078125)"></g>
    <g id="g-root-4_hs5j3x1p26lu6-fill" data-item-order="0" data-item-id="4_hs5j3x1p26lu6" data-item-class="Icon Stroke SceneTarget Indexed InsideFill InsideColorFill" data-item-index="4" data-renderer-id="0" transform="matrix(1, 0, 0, 1, 391.1729736328125, 326.2080078125)"></g>
    <g id="g-root-tx_reasonsf_1hi75z11p2ovey-fill" data-item-order="0" data-item-id="tx_reasonsf_1hi75z11p2ovey" data-item-class="Label Stroke SceneTarget Indexed" data-item-index="5" data-renderer-id="0" transform="matrix(1, 0, 0, 1, 111, 351)"></g>
    <g id="g-root-tx_associat_dj75rx1p2outr-fill" data-item-order="0" data-item-id="tx_associat_dj75rx1p2outr" data-item-class="Label Stroke SceneTarget Indexed" data-item-index="8" data-renderer-id="0" transform="matrix(1, 0, 0, 1, 123, -9)"></g>
    <g id="g-root-8.Vector_sy_dj75rx1p2outq-stroke" data-item-order="-153600" data-item-id="8.Vector_sy_dj75rx1p2outq" data-item-class="ScenePart Indexed Fill Stroke" data-item-index="8" data-renderer-id="0" transform="matrix(1, 0, 0, 1, 245.86199951171875, -0.748992919921875)">
      <g id="8.Vector_sy_dj75rx1p2outq-stroke" fill="none" stroke-linecap="round" stroke-linejoin="round" stroke-miterlimit="1.5" stroke="#da5da8" stroke-width="2" transform="matrix(1, 0, 0, 1, -2.86199951171875, -2.251007080078125)">
        <g xmlns="http://www.w3.org/2000/svg" transform="translate(-254, -116)">
          <path d="M343.242 221.163L336.675 238.999L319.42 231.031L326.05 228.285L316.053 204.15C299.146 208.188 281.334 199.468 274.47 182.896C266.862 164.527 275.584 143.468 293.953 135.86C312.322 128.251 333.381 136.974 340.99 155.343C347.844 171.891 341.444 190.623 326.676 199.737L336.678 223.882L343.242 221.163Z"></path>
        </g>
      </g>
    </g>
    <g id="g-root-7.Vector_sy_meu60t1p2ou11-stroke" data-item-order="-153598" data-item-id="7.Vector_sy_meu60t1p2ou11" data-item-class="ScenePart Indexed Fill Stroke" data-item-index="7" data-renderer-id="0" transform="matrix(1, 0, 0, 1, 155.13699340820312, 89.97601318359375)">
      <g id="7.Vector_sy_meu60t1p2ou11-stroke" fill="none" stroke-linecap="round" stroke-linejoin="round" stroke-miterlimit="1.5" stroke="#e15e5a" stroke-width="2" transform="matrix(1, 0, 0, 1, -2.136993408203125, -2.9759979248046875)">
        <g xmlns="http://www.w3.org/2000/svg" transform="translate(-164, -206)">
          <path d="M278.917 271.534L286.885 288.789L269.049 295.356L271.796 288.726L247.661 278.729C238.561 293.54 219.8 299.968 203.229 293.104C184.86 285.495 176.137 264.436 183.746 246.067C191.354 227.699 212.413 218.976 230.782 226.584C247.33 233.439 256.05 251.21 252.052 268.097L276.198 278.098L278.917 271.534Z"></path>
        </g>
      </g>
    </g>
    <g id="g-root-6.Vector_sy_quno591p2ot8s-stroke" data-item-order="-153596" data-item-id="6.Vector_sy_quno591p2ot8s" data-item-class="ScenePart Indexed Fill Stroke" data-item-index="6" data-renderer-id="0" transform="matrix(1, 0, 0, 1, 154.94000244140625, 219.1629638671875)">
      <g id="6.Vector_sy_quno591p2ot8s-stroke" fill="none" stroke-linecap="round" stroke-linejoin="round" stroke-miterlimit="1.5" stroke="#dd8433" stroke-width="2" transform="matrix(1, 0, 0, 1, -2.94000244140625, -2.162994384765625)">
        <g xmlns="http://www.w3.org/2000/svg" transform="translate(-163, -336)">
          <path d="M278.778 376.573L286.747 359.318L268.911 352.751L271.657 359.381L247.464 369.402C238.365 354.591 219.604 348.163 203.032 355.027C184.663 362.636 175.94 383.695 183.549 402.064C191.158 420.432 212.216 429.155 230.585 421.547C247.134 414.692 255.853 396.921 251.856 380.035L276.059 370.009L278.778 376.573Z"></path>
        </g>
      </g>
    </g>
    <g id="g-root-5.Vector_sy_quno591p2ot8r-stroke" data-item-order="-153594" data-item-id="5.Vector_sy_quno591p2ot8r" data-item-class="ScenePart Indexed Fill Stroke" data-item-index="5" data-renderer-id="0" transform="matrix(1, 0, 0, 1, 245.86199951171875, 280.27001953125)">
      <g id="5.Vector_sy_quno591p2ot8r-stroke" fill="none" stroke-linecap="round" stroke-linejoin="round" stroke-miterlimit="1.5" stroke="#93c131" stroke-width="2" transform="matrix(1, 0, 0, 1, -2.86199951171875, -2.269989013671875)">
        <g xmlns="http://www.w3.org/2000/svg" transform="translate(-254, -397)">
          <path d="M343.266 427.106L336.699 409.27L319.444 417.239L326.074 419.985L316.053 444.178C299.146 440.139 281.334 448.86 274.47 465.432C266.862 483.8 275.584 504.859 293.953 512.468C312.322 520.076 333.381 511.354 340.989 492.985C347.844 476.436 341.444 457.704 326.676 448.591L336.702 424.387L343.266 427.106Z"></path>
        </g>
      </g>
    </g>
    <g id="g-root-4.Vector_sy_zpo7b11p2ovlu-stroke" data-item-order="-153592" data-item-id="4.Vector_sy_zpo7b11p2ovlu" data-item-class="ScenePart Indexed Fill Stroke" data-item-index="4" data-renderer-id="0" transform="matrix(1, 0, 0, 1, 375.04901123046875, 280.27001953125)">
      <g id="4.Vector_sy_zpo7b11p2ovlu-stroke" fill="none" stroke-linecap="round" stroke-linejoin="round" stroke-miterlimit="1.5" stroke="#17b0e3" stroke-width="2" transform="matrix(1, 0, 0, 1, -2.04901123046875, -2.269989013671875)">
        <g xmlns="http://www.w3.org/2000/svg" transform="translate(-384, -397)">
          <path d="M424.459 417.239L407.203 409.27L400.637 427.106L407.267 424.36L417.288 448.553C402.477 457.652 396.049 476.413 402.913 492.985C410.522 511.354 431.581 520.076 449.949 512.468C468.318 504.859 477.041 483.8 469.432 465.431C462.578 448.883 444.806 440.163 427.92 444.161L417.895 419.958L424.459 417.239Z"></path>
        </g>
      </g>
    </g>
    <g id="g-root-3.Vector_sy_zpo7b11p2ovlt-stroke" data-item-order="-153590" data-item-id="3.Vector_sy_zpo7b11p2ovlt" data-item-class="ScenePart Indexed Fill Stroke" data-item-index="3" data-renderer-id="0" transform="matrix(1, 0, 0, 1, 436.156005859375, 219.1729736328125)">
      <g id="3.Vector_sy_zpo7b11p2ovlt-stroke" fill="none" stroke-linecap="round" stroke-linejoin="round" stroke-miterlimit="1.5" stroke="#3bc482" stroke-width="2" transform="matrix(1, 0, 0, 1, -2.156005859375, -2.173004150390625)">
        <g xmlns="http://www.w3.org/2000/svg" transform="translate(-445, -336)">
          <path d="M474.992 352.751L457.156 359.318L465.125 376.573L467.871 369.943L492.064 379.964C488.025 396.871 496.746 414.682 513.317 421.547C531.686 429.155 552.745 420.432 560.354 402.064C567.962 383.695 559.239 362.636 540.871 355.027C524.322 348.173 505.59 354.573 496.477 369.34L472.273 359.315L474.992 352.751Z"></path>
        </g>
      </g>
    </g>
    <g id="g-root-2.Vector_sy_145hpfh1p2outk-stroke" data-item-order="-153588" data-item-id="2.Vector_sy_145hpfh1p2outk" data-item-class="ScenePart Indexed Fill Stroke ColorFillGray ColorStrokeGray" data-item-index="2" data-renderer-id="0" transform="matrix(1, 0, 0, 1, 436.0169677734375, 89.97601318359375)">
      <g id="2.Vector_sy_145hpfh1p2outk-stroke" fill="none" stroke-linecap="round" stroke-linejoin="round" stroke-miterlimit="1.5" stroke="#bbbbbb" stroke-width="2" transform="matrix(1, 0, 0, 1, -2.016998291015625, -2.9759979248046875)">
        <g xmlns="http://www.w3.org/2000/svg" transform="translate(-445, -206)">
          <path d="M474.853 295.356L457.017 288.789L464.986 271.534L467.732 278.164L491.867 268.167C487.828 251.26 496.549 233.449 513.121 226.584C531.49 218.976 552.548 227.699 560.157 246.067C567.766 264.436 559.043 285.495 540.674 293.104C524.125 299.958 505.393 293.558 496.28 278.791L472.134 288.792L474.853 295.356Z"></path>
        </g>
      </g>
    </g>
    <g id="g-root-1.Vector_sy_18lb7jx1p2ou1b-stroke" data-item-order="-153586" data-item-id="1.Vector_sy_18lb7jx1p2ou1b" data-item-class="ScenePart Indexed Indexed_1 Fill Stroke" data-item-index="1" data-renderer-id="0" transform="matrix(1, 0, 0, 1, 375.04901123046875, -0.748992919921875)">
      <g id="1.Vector_sy_18lb7jx1p2ou1b-stroke" fill="none" stroke-linecap="round" stroke-linejoin="round" stroke-miterlimit="1.5" stroke="#e3cd09" stroke-width="2" transform="matrix(1, 0, 0, 1, -2.04901123046875, -2.251007080078125)">
        <g xmlns="http://www.w3.org/2000/svg" transform="translate(-384, -116)">
          <path d="M424.483 231.031L407.227 239L400.661 221.163L407.291 223.91L417.288 199.775C402.477 190.675 396.049 171.914 402.913 155.343C410.522 136.974 431.58 128.251 449.949 135.86C468.318 143.468 477.041 164.527 469.432 182.896C462.578 199.445 444.806 208.164 427.92 204.166L417.919 228.312L424.483 231.031Z"></path>
        </g>
      </g>
    </g>
    <g id="g-root-0.cr-big_cr_1hgy7st1p2ot8m-stroke" data-item-order="-153584" data-item-id="0.cr-big_cr_1hgy7st1p2ot8m" data-item-class="Shape Stroke Fill ScenePart Indexed_0 ColorFillGray ColorStrokeGray" data-item-index="0" data-renderer-id="0" transform="matrix(1, 0, 0, 1, 279, 122.99600219726562)">
      <g id="0.cr-big_cr_1hgy7st1p2ot8m-stroke" fill="none" stroke-linecap="round" stroke-linejoin="round" stroke-miterlimit="1.5" stroke="#bbbbbb" stroke-width="2" transform="matrix(1, 0, 0, 1, -2, -2)">
        <g xmlns="http://www.w3.org/2000/svg" transform="translate(12, 12)">
          <path d="M0 72a72 72 0 1 0 144 0a72 72 0 1 0 -144 0"></path>
        </g>
      </g>
    </g>
    <g id="g-root-thri_1hbyi9p1p26k1t-stroke" data-item-order="0" data-item-id="thri_1hbyi9p1p26k1t" data-item-class="Icon Stroke SceneTarget Indexed Indexed_1 InsideFill InsideColorFill" data-item-index="1" data-renderer-id="0" transform="matrix(1, 0, 0, 1, 391.31201171875, 15.785003662109375)">
      <g id="thri_1hbyi9p1p26k1t-stroke" fill="none" stroke-linecap="round" stroke-linejoin="round" stroke-miterlimit="1.5" stroke="#e3cd09" stroke-width="1" transform="matrix(2, 0, 0, 2, -14, -14)">
        <g xmlns="http://www.w3.org/2000/svg" transform="translate(12, 12)">
          <path d="M0.500 12.000 A11.500 11.500 0 1 0 23.500 12.000 A11.500 11.500 0 1 0 0.500 12.000 ZM15.873,15.5a1,1,0,0,1,.97,1.249,5,5,0,0,1-9.686,0,1,1,0,0,1,.97-1.249ZM18.8,10.108a2.359,2.359,0,0,0-4,0M9.5,10.108a2.359,2.359,0,0,0-4,0"></path>
        </g>
      </g>
    </g>
    <g id="g-root-tx_usagetyp_4o6mm51p2ot8g-stroke" data-item-order="0" data-item-id="tx_usagetyp_4o6mm51p2ot8g" data-item-class="Label Stroke SceneTarget Indexed" data-item-index="7" data-renderer-id="0" transform="matrix(1, 0, 0, 1, 15, 111)">
      <g id="tx_usagetyp_4o6mm51p2ot8g-stroke" fill="none" stroke-linecap="square" stroke-linejoin="miter" stroke-miterlimit="4" stroke="#484848" stroke-width="1" transform="matrix(1, 0, 0, 1, 5, 2)">
        <g xmlns="http://www.w3.org/2000/svg" transform="translate(5, 8)">
          <path d="M17.593206 4.94531C14.330266 4.94531 11.067276 4.95044 7.804286 4.95044M12.689636 18.1241V5.45566 M21.528445 4.97076H21.552375M21.512215 8.80402V18.1446 M26.432925 8.77398V22.3934M26.798805 10.1239C27.681815 9.02711 28.863115 8.55811 30.172015 8.55811C32.353345 8.55811 33.931995 9.90408 33.931995 13.4756C33.931995 17.0472 32.247695 18.3232 30.066365 18.3232C28.795145 18.3232 27.509345 17.7827 26.798805 16.7195 M46.007006 13.4569C46.007006 16.5223 44.136056 18.3403 41.828116 18.3403C39.520176 18.3403 37.649216 16.5223 37.649216 13.4569C37.649216 10.3915 39.520176 8.57349 41.828116 8.57349C44.136056 8.57349 46.007006 10.3915 46.007006 13.4569Z M56.357837 10.3814C56.062107 9.4042 54.907797 8.58374 53.297707 8.58374C51.409987 8.58374 50.190317 9.44691 50.098667 10.7511C49.993627 12.2457 51.227737 12.8218 53.158237 13.3386C54.851847 13.7969 56.795257 14.2772 56.640967 16.1222C56.541597 17.3105 55.564827 18.3458 53.208107 18.3458C51.302177 18.3458 50.224797 17.5302 49.890437 16.4244 M74.009765 18.1243V4.12329M73.650015 16.7727C72.788015 17.8707 71.689705 18.3402 70.380145 18.3402C68.198815 18.3402 66.547485 17.0292 66.547485 13.4576C66.547485 9.88607 68.304475 8.57507 70.485795 8.57507C71.755405 8.57507 72.964965 9.11426 73.650015 10.1748 M85.507471 17.2181C84.533681 18.1548 83.508981 18.3386 82.323521 18.3386C80.254751 18.3386 78.391511 17.0276 78.391511 13.4561C78.391511 9.88449 80.200901 8.57349 82.269671 8.57349C84.338451 8.57349 85.941801 9.62966 85.941801 13.2012H78.722281 M96.009418 4.94702V14.4784C96.009418 16.6108 97.988988 18.3395 100.430898 18.3395C102.872818 18.3395 104.852408 16.6108 104.852408 14.4784V4.94702 M115.737835 10.3814C115.442105 9.4042 114.287795 8.58374 112.677705 8.58374C110.789985 8.58374 109.570315 9.44691 109.478665 10.7511C109.373625 12.2457 110.607735 12.8218 112.538235 13.3386C114.231845 13.7969 116.175255 14.2772 116.020965 16.1222C115.921595 17.3105 114.944825 18.3458 112.588105 18.3458C110.682175 18.3458 109.604795 17.5302 109.270435 16.4244 M128.187002 13.4569C128.187002 16.5223 126.316052 18.3403 124.008112 18.3403C121.700172 18.3403 119.829212 16.5223 119.829212 13.4569C119.829212 10.3915 121.700172 8.57349 124.008112 8.57349C126.316052 8.57349 128.187002 10.3915 128.187002 13.4569Z"></path>
        </g>
      </g>
    </g>
    <g id="g-root-1_1ha330d1p26l1f-stroke" data-item-order="0" data-item-id="1_1ha330d1p26l1f" data-item-class="Icon Stroke SceneTarget Indexed InsideFill InsideColorFill" data-item-index="7" data-renderer-id="0" transform="matrix(1, 0, 0, 1, 170.23300170898438, 106.05300903320312)">
      <g id="1_1ha330d1p26l1f-stroke" fill="none" stroke-linecap="round" stroke-linejoin="round" stroke-miterlimit="1.5" stroke="#e15e5a" stroke-width="1" transform="matrix(2, 0, 0, 2, -14, -10)">
        <g xmlns="http://www.w3.org/2000/svg" transform="translate(12, 10)">
          <path d="M.5 6h23v16H.5Zm8 0V4a2.005 2.005 0 0 1 2-2h3a2.005 2.005 0 0 1 2 2v2M16.766 14.408a.5.5 0 0 1-.012-.769l.606-.519a.5.5 0 0 1 .325-.12h1.3a.5.5 0 0 0 .4-.8 2.98 2.98 0 0 0-5.2.8H9.816A2.989 2.989 0 0 0 7 11a3.078 3.078 0 0 0-2.319 1.182.5.5 0 0 0 .386.818h1.248a.5.5 0 0 1 .325.12l.606.519a.5.5 0 0 1-.012.769l-.6.481a.5.5 0 0 1-.31.111H5.067a.5.5 0 0 0-.386.818A3.078 3.078 0 0 0 7 17a2.989 2.989 0 0 0 2.816-2h4.368a2.979 2.979 0 0 0 5.2.8.5.5 0 0 0-.4-.8h-1.308a.5.5 0 0 1-.313-.111Z"></path>
        </g>
      </g>
    </g>
    <g id="g-root-1_1umsjjx1p26lmo-stroke" data-item-order="0" data-item-id="1_1umsjjx1p26lmo" data-item-class="Icon Stroke SceneTarget Indexed InsideFill InsideGrayFill ColorFillGray ColorStrokeGray" data-item-index="2" data-renderer-id="0" transform="matrix(1, 0, 0, 1, 482.23199462890625, 106.70498657226562)">
      <g id="1_1umsjjx1p26lmo-stroke" fill="none" stroke-linecap="round" stroke-linejoin="round" stroke-miterlimit="1.5" stroke="#bbbbbb" stroke-width="0.583" transform="matrix(3.42857027053833, 0, 0, 3.42857027053833, -27.71427345275879, -31.14284324645996)">
        <g xmlns="http://www.w3.org/2000/svg" transform="translate(11, 12)">
          <path d="M4.25.5,2,5.81a.5.5,0,0,0,.46.69H5.25l-2,7,8.59-8.14a.5.5,0,0,0-.34-.86H7.75l2-4Z"></path>
        </g>
      </g>
    </g>
    <g id="g-root-tx_suddenem_qvwmbh1p2ovf1-stroke" data-item-order="0" data-item-id="tx_suddenem_qvwmbh1p2ovf1" data-item-class="Label Stroke SceneTarget Indexed" data-item-index="2" data-renderer-id="0" transform="matrix(1, 0, 0, 1, 555, 99)">
      <g id="tx_suddenem_qvwmbh1p2ovf1-stroke" fill="none" stroke-linecap="square" stroke-linejoin="miter" stroke-miterlimit="4" stroke="#484848" stroke-width="1" transform="matrix(1, 0, 0, 1, 1, 2)">
        <g xmlns="http://www.w3.org/2000/svg" transform="translate(9, 8)">
          <path d="M3.62354 18.1453L8.57221 4.97268L9.16008 4.97266L14.1237 18.1453M5.44096 14.2942H12.2996 M24.25276 8.69055L20.8833 18.119L20.68206 18.1189L17.27774 8.69055 M28.367629 10.2457C28.731989 9.28012 30.148339 8.56665 31.488359 8.56665C33.341599 8.56665 34.843949 9.8797 34.843949 11.4994L34.849699 12.957V15.5711C34.849699 16.614 34.825129 17.3527 35.126499 18.2784M34.470349 12.957H31.742379C29.238979 12.957 27.938729 14.3433 27.938729 15.8374C27.938729 17.3315 29.176839 18.3408 30.792509 18.3408C32.774739 18.3408 34.400579 16.8882 34.801149 15.7324 M39.678909 8.77967L39.679169 18.1279M46.513459 18.1279V12.0738C46.513459 11.3619 46.609189 8.79026 44.226099 8.58694C42.468059 8.43694 40.779019 9.56164 40.002679 10.9562 M54.07626 22.4782C54.71278 22.5791 55.60937 22.2513 55.71349 21.4032C55.81299 20.5928 55.28628 20.0199 54.51333 19.8846L54.72665 18.5043M58.05651 16.2538C57.68453 17.6492 56.11693 18.3386 54.64783 18.3386C52.51046 18.3386 50.74459 17.0276 50.74459 13.4561C50.74459 9.88449 52.61399 8.57349 54.75136 8.57349C56.25837 8.57349 57.90848 9.41043 58.14177 10.9154 M70.077002 13.4569C70.077002 16.5223 68.206052 18.3403 65.898112 18.3403C63.590172 18.3403 61.719212 16.5223 61.719212 13.4569C61.719212 10.3915 63.590172 8.57349 65.898112 8.57349C68.206052 8.57349 70.077002 10.3915 70.077002 13.4569Z M4.72498 42.1329V28.94524L9.52125 28.92993C10.59098 28.96747 12.9124 29.72941 12.9124 32.47691C12.9124 35.2244 10.59099 36.0614 9.52125 36.1365L5.27444 36.15M13.1387 42.2494L10.02804 36.5145 M22.43128 27.92761L21.18404 29.55454M17.41763 34.2457C17.78199 33.28012 19.19834 32.56665 20.53836 32.56665C22.3916 32.56665 23.89395 33.8797 23.89395 35.4994L23.8997 36.957V39.5711C23.8997 40.614 23.87513 41.3527 24.1765 42.2784M23.52035 36.957H20.79238C18.28898 36.957 16.98873 38.3433 16.98873 39.8374C16.98873 41.3315 18.22684 42.3408 19.84251 42.3408C21.82474 42.3408 23.45058 40.8882 23.85115 39.7324 M28.71292 32.77398V46.3934M29.0788 34.1239C29.96181 33.02711 31.14311 32.55811 32.45201 32.55811C34.63334 32.55811 36.21199 33.90408 36.21199 37.4756C36.21199 41.0472 34.52769 42.3232 32.34636 42.3232C31.07514 42.3232 29.78934 41.7827 29.0788 40.7195 M40.668441 28.97076H40.692371M40.652211 32.80402V42.1446 M52.579761 42.1243V28.12329M52.220011 40.7727C51.358011 41.8707 50.259701 42.3402 48.950141 42.3402C46.768811 42.3402 45.117481 41.0292 45.117481 37.4576C45.117481 33.88607 46.874471 32.57507 49.055791 32.57507C50.325401 32.57507 51.534961 33.11426 52.220011 34.1748 M65.227003 37.4569C65.227003 40.5223 63.356053 42.3403 61.048113 42.3403C58.740173 42.3403 56.869213 40.5223 56.869213 37.4569C56.869213 34.3915 58.740173 32.57349 61.048113 32.57349C63.356053 32.57349 65.227003 34.3915 65.227003 37.4569Z"></path>
        </g>
      </g>
    </g>
    <g id="g-root-1_95962l1p256o1-stroke" data-item-order="0" data-item-id="1_95962l1p256o1" data-item-class="Icon Stroke SceneTarget SceneEnd InsideFill InsideGrayFill ColorFillGray ColorStrokeGray" data-item-index="none" data-renderer-id="0" transform="matrix(1, 0, 0, 1, 315, 158.99600219726562)">
      <g id="1_95962l1p256o1-stroke" fill="none" stroke-linecap="round" stroke-linejoin="round" stroke-miterlimit="1.5" stroke="#bbbbbb" stroke-width="0.667" transform="matrix(3, 0, 0, 3, -26, -26)">
        <g xmlns="http://www.w3.org/2000/svg" transform="translate(12, 12)">
          <path d="M9.139,4.386A2,2,0,1,0,6.5,2.5a1.991,1.991,0,0,0,.081.533C6.47,3.023,6.363,3,6.25,3A3.732,3.732,0,0,0,3.285,9.022a2.985,2.985,0,0,0,0,5.956A3.732,3.732,0,0,0,6.25,21c.113,0,.22-.023.331-.033a2,2,0,1,0,2.558-1.353M14.861,4.386A2,2,0,1,1,17.5,2.5a1.991,1.991,0,0,1-.081.533c.111-.01.218-.033.331-.033a3.732,3.732,0,0,1,2.965,6.022,2.985,2.985,0,0,1,0,5.956A3.732,3.732,0,0,1,17.75,21c-.113,0-.22-.023-.331-.033a2,2,0,1,1-2.558-1.353M10.5,2.4a3,3,0,0,1,3,0M13.5,21.6a3,3,0,0,1-3,0M9 8h6s1 0 1 1v6s0 1 -1 1 h-6s-1 0 -1 -1v-6s0 -1 1 -1M10 6L10 8M14 6L14 8M6 14L8 14M6 10L8 10M14 18L14 16M10 18L10 16M18 10L16 10M18 14L16 14"></path>
        </g>
      </g>
    </g>
    <g id="g-root-clif_1uuwpod1p2581u-stroke" data-item-order="0" data-item-id="clif_1uuwpod1p2581u" data-item-class="Icon Stroke SceneTarget Indexed InsideFill InsideColorFill" data-item-index="8" data-renderer-id="0" transform="matrix(1, 0, 0, 1, 262.59100341796875, 15.785003662109375)">
      <g id="clif_1uuwpod1p2581u-stroke" fill="none" stroke-linecap="round" stroke-linejoin="round" stroke-miterlimit="1.5" stroke="#da5da8" stroke-width="1" transform="matrix(2, 0, 0, 2, -14, -14)">
        <g xmlns="http://www.w3.org/2000/svg" transform="translate(12, 12)">
          <path d="M1.5,23.5h21A1,1,0,0,0,23.38,22L12.89,1a1,1,0,0,0-1.78,0L.62,22A1,1,0,0,0,1.5,23.5ZM13.48,8.92a1.25,1.25,0,1,1-1.25,1.25A1.26,1.26,0,0,1,13.48,8.92ZM9.29,10.92a8.35,8.35,0,0,0,3.13,2l1.28.33a10.93,10.93,0,0,1,1.22.41h0a3,3,0,0,1,1.58,1.47M7,18.18l1.1-.8a3.94,3.94,0,0,1,2-.76l1.7-.13M9.29,20.46,11.54,17a3.84,3.84,0,0,0,.52-1.17L12.81,13M4,20H6a.5.5,0,0,1,.5.5v1"></path>
        </g>
      </g>
    </g>
    <g id="g-root-tx_currente_mg34711p2ow7a-stroke" data-item-order="0" data-item-id="tx_currente_mg34711p2ow7a" data-item-class="Label Stroke SceneTarget Indexed Indexed_1" data-item-index="1" data-renderer-id="0" transform="matrix(1, 0, 0, 1, 459, -9)">
      <g id="tx_currente_mg34711p2ow7a-stroke" fill="none" stroke-linecap="square" stroke-linejoin="miter" stroke-miterlimit="4" stroke="#484848" stroke-width="1" transform="matrix(1, 0, 0, 1, 1, 2)">
        <g xmlns="http://www.w3.org/2000/svg" transform="translate(9, 8)">
          <path d="M12.2875 18.1371L4.72412 18.1423V4.94958C5.67204 4.94958 10.8458 4.95044 12.2458 4.95044M11.23356 11.2966H5.18816 M16.32891 8.77967L16.32917 18.1279M23.16346 18.1279V12.0738C23.16346 11.3619 23.25919 8.79026 20.8761 8.58694C19.11806 8.43694 17.42902 9.56164 16.65268 10.9562 M30.909319 18.3258C29.499659 18.4655 28.641749 17.7322 28.641749 16.3869V6.08093M30.791659 8.642H29.028249M26.531557 8.642H28.265439 M41.626629 18.1148L41.626369 8.7666M34.792079 8.7666L34.792079 14.8207C34.792079 15.5325 34.697079 18.0958 37.079439 18.3075C39.169669 18.4933 40.443099 17.6528 41.145469 16.4701 M52.587829 10.3814C52.292099 9.4042 51.137789 8.58374 49.527699 8.58374C47.639979 8.58374 46.420309 9.44691 46.328659 10.7511C46.223619 12.2457 47.457729 12.8218 49.388229 13.3386C51.081839 13.7969 53.025249 14.2772 52.870959 16.1222C52.771589 17.3105 51.794819 18.3458 49.438099 18.3458C47.532169 18.3458 46.454789 17.5302 46.120429 16.4244 M57.418441 4.97076H57.442371M57.402211 8.80402V18.1446 M62.447631 10.2457C62.811991 9.28012 64.228341 8.56665 65.568361 8.56665C67.421601 8.56665 68.923951 9.8797 68.923951 11.4994L68.929701 12.957V15.5711C68.929701 16.614 68.905131 17.3527 69.206501 18.2784M68.550351 12.957H65.822381C63.318981 12.957 62.018731 14.3433 62.018731 15.8374C62.018731 17.3315 63.256841 18.3408 64.872511 18.3408C66.854741 18.3408 68.480581 16.8882 68.881151 15.7324 M79.917835 10.3814C79.622105 9.4042 78.467795 8.58374 76.857705 8.58374C74.969985 8.58374 73.750315 9.44691 73.658665 10.7511C73.553625 12.2457 74.787735 12.8218 76.718235 13.3386C78.411845 13.7969 80.355255 14.2772 80.200965 16.1222C80.101595 17.3105 79.124825 18.3458 76.768105 18.3458C74.862175 18.3458 73.784795 17.5302 73.450435 16.4244 M84.589692 8.81417L84.589962 18.1624M91.424242 18.1624L91.413372 11.4697C91.348922 10.5262 90.981992 9.07848 89.107772 8.64916C87.168082 8.20484 85.688282 9.24827 84.951872 10.5949M98.259302 18.1624V12.1083C98.259302 11.3964 98.373902 9.20604 95.942902 8.64916C93.913802 8.18437 92.379502 9.34748 91.679112 10.7827 M110.837004 13.4569C110.837004 16.5223 108.966054 18.3403 106.658114 18.3403C104.350174 18.3403 102.479214 16.5223 102.479214 13.4569C102.479214 10.3915 104.350174 8.57349 106.658114 8.57349C108.966054 8.57349 110.837004 10.3915 110.837004 13.4569Z M3.62354 42.1453L8.57221 28.97268L9.16008 28.97266L14.1237 42.1453M5.44096 38.2942H12.2996 M21.06932 42.3258C19.65966 42.4655 18.80175 41.7322 18.80175 40.3869V30.08093M20.95166 32.642H19.18825M16.691558 32.642H18.42544 M31.78663 42.1148L31.78637 32.7666M24.95208 32.7666L24.95208 38.8207C24.95208 39.5325 24.85708 42.0958 27.23944 42.3075C29.32967 42.4933 30.6031 41.6528 31.30547 40.4701 M36.707629 34.2457C37.071989 33.28012 38.488339 32.56665 39.828359 32.56665C41.681599 32.56665 43.183949 33.8797 43.183949 35.4994L43.189699 36.957V39.5711C43.189699 40.614 43.165129 41.3527 43.466499 42.2784M42.810349 36.957H40.082379C37.578979 36.957 36.278729 38.3433 36.278729 39.8374C36.278729 41.3315 37.516839 42.3408 39.132509 42.3408C41.114739 42.3408 42.740579 40.8882 43.141149 39.7324 M48.155619 28.125V42.1264"></path>
        </g>
      </g>
    </g>
    <g id="g-root-tx_organiza_1utnocd1p2otu1-stroke" data-item-order="0" data-item-id="tx_organiza_1utnocd1p2otu1" data-item-class="Label Stroke SceneTarget Indexed" data-item-index="6" data-renderer-id="0" transform="matrix(1, 0, 0, 1, -9, 243)">
      <g id="tx_organiza_1utnocd1p2otu1-stroke" fill="none" stroke-linecap="square" stroke-linejoin="miter" stroke-miterlimit="4" stroke="#484848" stroke-width="1" transform="matrix(1, 0, 0, 1, 8, 2)">
        <g xmlns="http://www.w3.org/2000/svg" transform="translate(14, 8)">
          <path d="M-1.184893 4.93762V18.1269 M4.059687 8.81417L4.059957 18.1624M10.894237 18.1624L10.883367 11.4697C10.818917 10.5262 10.451987 9.07848 8.577767 8.64916C6.638077 8.20484 5.158277 9.24827 4.421867 10.5949M17.729297 18.1624V12.1083C17.729297 11.3964 17.843897 9.20604 15.412897 8.64916C13.383797 8.18437 11.849497 9.34748 11.149107 10.7827 M22.502917 8.77398V22.3934M22.868797 10.1239C23.751807 9.02711 24.933107 8.55811 26.242007 8.55811C28.423337 8.55811 30.001987 9.90408 30.001987 13.4756C30.001987 17.0472 28.317687 18.3232 26.136357 18.3232C24.865137 18.3232 23.579337 17.7827 22.868797 16.7195 M34.415618 4.125V18.1264 M45.977457 17.2181C45.003667 18.1548 43.978967 18.3386 42.793507 18.3386C40.724737 18.3386 38.861497 17.0276 38.861497 13.4561C38.861497 9.88449 40.670887 8.57349 42.739657 8.57349C44.808437 8.57349 46.411787 9.62966 46.411787 13.2012H39.192267 M50.479688 8.81417L50.479958 18.1624M57.314238 18.1624L57.303368 11.4697C57.238918 10.5262 56.871988 9.07848 54.997768 8.64916C53.058078 8.20484 51.578278 9.24827 50.841868 10.5949M64.149298 18.1624V12.1083C64.149298 11.3964 64.263898 9.20604 61.832898 8.64916C59.803798 8.18437 58.269498 9.34748 57.569108 10.7827 M75.577455 17.2181C74.603665 18.1548 73.578965 18.3386 72.393505 18.3386C70.324735 18.3386 68.461495 17.0276 68.461495 13.4561C68.461495 9.88449 70.270885 8.57349 72.339655 8.57349C74.408435 8.57349 76.011785 9.62966 76.011785 13.2012H68.792265 M80.058903 8.77967L80.059163 18.1279M86.893453 18.1279V12.0738C86.893453 11.3619 86.989183 8.79026 84.606093 8.58694C82.848053 8.43694 81.159013 9.56164 80.382673 10.9562 M94.639313 18.3258C93.229653 18.4655 92.371743 17.7322 92.371743 16.3869V6.08093M94.521653 8.642H92.758243M90.261551 8.642H91.995433 M98.667621 10.2457C99.031981 9.28012 100.448331 8.56665 101.788351 8.56665C103.641591 8.56665 105.143941 9.8797 105.143941 11.4994L105.149691 12.957V15.5711C105.149691 16.614 105.125121 17.3527 105.426491 18.2784M104.770341 12.957H102.042371C99.538971 12.957 98.238721 14.3433 98.238721 15.8374C98.238721 17.3315 99.476831 18.3408 101.092501 18.3408C103.074731 18.3408 104.700571 16.8882 105.101141 15.7324 M112.766251 22.4782C113.402771 22.5791 114.299361 22.2513 114.403481 21.4032C114.502981 20.5928 113.976271 20.0199 113.203321 19.8846L113.416641 18.5043M116.746501 16.2538C116.374521 17.6492 114.806921 18.3386 113.337821 18.3386C111.200451 18.3386 109.434581 17.0276 109.434581 13.4561C109.434581 9.88449 111.303981 8.57349 113.441351 8.57349C114.948361 8.57349 116.598471 9.41043 116.831761 10.9154 M121.715499 5.3457C121.898509 4.88799 122.492059 4.37024 123.202499 4.37024C124.169889 4.37024 124.722339 5.3457 125.779989 5.3457C127.068729 5.3457 127.404259 4.37118 127.404259 4.37118M121.087619 10.2457C121.451979 9.28012 122.868329 8.56665 124.208349 8.56665C126.061589 8.56665 127.563939 9.8797 127.563939 11.4994L127.569689 12.957V15.5711C127.569689 16.614 127.545119 17.3527 127.846489 18.2784M127.190339 12.957H124.462369C121.958969 12.957 120.658719 14.3433 120.658719 15.8374C120.658719 17.3315 121.896829 18.3408 123.512499 18.3408C125.494729 18.3408 127.120569 16.8882 127.521139 15.7324 M140.186995 13.4569C140.186995 16.5223 138.316045 18.3403 136.008105 18.3403C133.700165 18.3403 131.829205 16.5223 131.829205 13.4569C131.829205 10.3915 133.700165 8.57349 136.008105 8.57349C138.316045 8.57349 140.186995 10.3915 140.186995 13.4569Z M4.743228 35.4377C4.743228 40.1426 6.789768 42.3258 9.798418 42.3258C12.807098 42.3258 14.853498 40.1426 14.853498 35.4377C14.853498 30.73284 12.637298 28.72058 9.798418 28.72058C6.959558 28.72058 4.743228 30.73284 4.743228 35.4377Z M22.994798 32.60908C21.614378 32.41894 20.365988 33.31927 19.724008 34.6193M19.369378 32.77269V42.1226 M33.509157 32.65246V42.6545C33.509157 47.3512 28.215737 47.0007 26.780847 45.4703M33.175477 40.5732C32.495337 41.6608 31.271067 42.2139 29.985187 42.2139C27.803867 42.2139 26.046877 40.9029 26.046877 37.3313C26.046877 33.75974 27.698207 32.44873 29.879537 32.44873C31.147567 32.44873 32.452607 33.1294 33.175477 34.5024 M38.387629 34.2457C38.751989 33.28012 40.168339 32.56665 41.508359 32.56665C43.361599 32.56665 44.863949 33.8797 44.863949 35.4994L44.869699 36.957V39.5711C44.869699 40.614 44.845129 41.3527 45.146499 42.2784M44.490349 36.957H41.762379C39.258979 36.957 37.958729 38.3433 37.958729 39.8374C37.958729 41.3315 39.196839 42.3408 40.812509 42.3408C42.794739 42.3408 44.420579 40.8882 44.821149 39.7324 M49.69891 32.77967L49.69917 42.1279M56.53346 42.1279V36.0738C56.53346 35.3619 56.62919 32.79026 54.2461 32.58694C52.48806 32.43694 50.79902 33.56164 50.02268 34.9562 M61.48844 28.97076H61.51237M61.47221 32.80402V42.1446 M65.878954 32.78027H72.556144V32.93551L65.793934 41.9042V42.1284L72.849014 42.1283 M76.917628 34.2457C77.281988 33.28012 78.698338 32.56665 80.038358 32.56665C81.891598 32.56665 83.393948 33.8797 83.393948 35.4994L83.399698 36.957V39.5711C83.399698 40.614 83.375128 41.3527 83.676498 42.2784M83.020348 36.957H80.292378C77.788978 36.957 76.488728 38.3433 76.488728 39.8374C76.488728 41.3315 77.726838 42.3408 79.342508 42.3408C81.324738 42.3408 82.950578 40.8882 83.351148 39.7324 M95.041788 40.2538C94.669818 41.6492 93.102218 42.3386 91.633118 42.3386C89.495748 42.3386 87.729878 41.0276 87.729878 37.4561C87.729878 33.88449 89.599278 32.57349 91.736648 32.57349C93.243658 32.57349 94.893768 33.41043 95.127058 34.9154 M99.388442 28.97076H99.412372M99.372212 32.80402V42.1446 M112.096998 37.4569C112.096998 40.5223 110.226048 42.3403 107.918108 42.3403C105.610168 42.3403 103.739208 40.5223 103.739208 37.4569C103.739208 34.3915 105.610168 32.57349 107.918108 32.57349C110.226048 32.57349 112.096998 34.3915 112.096998 37.4569Z M116.288906 32.77967L116.289166 42.1279M123.123456 42.1279V36.0738C123.123456 35.3619 123.219186 32.79026 120.836096 32.58694C119.078056 32.43694 117.389016 33.56164 116.612676 34.9562 M128.017627 34.2457C128.381987 33.28012 129.798337 32.56665 131.138357 32.56665C132.991597 32.56665 134.493947 33.8797 134.493947 35.4994L134.499697 36.957V39.5711C134.499697 40.614 134.475127 41.3527 134.776497 42.2784M134.120347 36.957H131.392377C128.888977 36.957 127.588727 38.3433 127.588727 39.8374C127.588727 41.3315 128.826837 42.3408 130.442507 42.3408C132.424737 42.3408 134.050577 40.8882 134.451147 39.7324 M139.465617 28.125V42.1264"></path>
        </g>
      </g>
    </g>
    <g id="g-root-buil_13ymkn11p26mmc-stroke" data-item-order="0" data-item-id="buil_13ymkn11p26mmc" data-item-class="Icon Stroke SceneTarget Indexed InsideFill InsideColorFill" data-item-index="6" data-renderer-id="0" transform="matrix(1, 0, 0, 1, 171.80902099609375, 235.2869873046875)">
      <g id="buil_13ymkn11p26mmc-stroke" fill="none" stroke-linecap="round" stroke-linejoin="round" stroke-miterlimit="1.5" stroke="#dd8433" stroke-width="1" transform="matrix(2, 0, 0, 2, -14, -14)">
        <g xmlns="http://www.w3.org/2000/svg" transform="translate(12, 12)">
          <path d="M19.923 7.212a1.874 1.874 0 0 0 1.065 2.571l1.265.45a1.875 1.875 0 0 1 0 3.534l-1.265.45a1.874 1.874 0 0 0-1.065 2.571L20.5 18a1.874 1.874 0 0 1-2.5 2.5l-1.213-.576a1.874 1.874 0 0 0-2.571 1.065l-.45 1.265a1.875 1.875 0 0 1-3.534 0l-.45-1.265a1.874 1.874 0 0 0-2.571-1.065L6 20.5A1.874 1.874 0 0 1 3.5 18l.576-1.213a1.874 1.874 0 0 0-1.065-2.571l-1.265-.45a1.875 1.875 0 0 1 0-3.534l1.265-.45a1.874 1.874 0 0 0 1.066-2.57L3.5 6A1.874 1.874 0 0 1 6 3.5l1.213.576a1.874 1.874 0 0 0 2.57-1.064l.45-1.265a1.875 1.875 0 0 1 3.534 0l.45 1.265a1.874 1.874 0 0 0 2.571 1.065L18 3.5A1.874 1.874 0 0 1 20.5 6ZM12.5 16.5H8a.5.5 0 0 1-.5-.5V7.809a.5.5 0 0 1 .724-.447L12.5 9.5Zm0-6H17a.5.5 0 0 1 .5.5v5a.5.5 0 0 1-.5.5h-4.5m-5-6H10m-2.5 2H10m2.5-3V7m4 3.5V8m-4 4.5H15m-2.5 2H15"></path>
        </g>
      </g>
    </g>
    <g id="g-root-robo_1hzp91p26l1j-stroke" data-item-order="0" data-item-id="robo_1hzp91p26l1j" data-item-class="Icon Stroke SceneTarget Indexed InsideFill InsideColorFill" data-item-index="3" data-renderer-id="0" transform="matrix(1, 0, 0, 1, 483.80804443359375, 235.9400634765625)">
      <g id="robo_1hzp91p26l1j-stroke" fill="none" stroke-linecap="round" stroke-linejoin="round" stroke-miterlimit="1.5" stroke="#3bc482" stroke-width="1" transform="matrix(1.999998688697815, 0, 0, 1.999998688697815, -13.999984741210938, -13.999984741210938)">
        <g xmlns="http://www.w3.org/2000/svg" transform="translate(12, 12)">
          <path d="M6 0.5h12s1.5 0 1.5 1.5v6s0 1.5 -1.5 1.5 h-12s-1.5 0 -1.5 -1.5v-6s0 -1.5 1.5 -1.5M6.5 5a1.5 1.5 0 1 0 3 0a1.5 1.5 0 1 0 -3 0M14.5 5a1.5 1.5 0 1 0 3 0a1.5 1.5 0 1 0 -3 0M10.5 11.5L13.5 11.5M10.5 13.5L13.5 13.5M15.34,15.5H8.66a3.66,3.66,0,0,0-3.58,4.43l.47,3.17a.49.49,0,0,0,.49.4H18a.49.49,0,0,0,.49-.4l.47-3.17A3.66,3.66,0,0,0,15.34,15.5ZM19,18.78l1.71-1.61A3.64,3.64,0,0,0,22,13.5L22,13.31M23,9.5a2.5,2.5,0,0,1-2,4,2.49,2.49,0,0,1-2-1M5,18.78,3.31,17.17A3.64,3.64,0,0,1,2,13.5l0-.2M1,9.5a2.5,2.5,0,0,0,2,4,2.49,2.49,0,0,0,2-1M16,23.5V19a.5.5,0,0,0-.5-.5h-7A.5.5,0,0,0,8,19v4.5"></path>
        </g>
      </g>
    </g>
    <g id="g-root-tx_definiti_147d4ot1p2otu4-stroke" data-item-order="0" data-item-id="tx_definiti_147d4ot1p2otu4" data-item-class="Label Stroke SceneTarget Indexed" data-item-index="3" data-renderer-id="0" transform="matrix(1, 0, 0, 1, 555, 231)">
      <g id="tx_definiti_147d4ot1p2otu4-stroke" fill="none" stroke-linecap="square" stroke-linejoin="miter" stroke-miterlimit="4" stroke="#484848" stroke-width="1" transform="matrix(1, 0, 0, 1, 2, 13)">
        <g xmlns="http://www.w3.org/2000/svg" transform="translate(8, -3)">
          <path d="M8.73682 30.1804L4.72754 30.1827V16.94829C5.67546 16.94829 6.954 16.94607 8.354 16.94607C9.80664 16.90961 13.5869 18.17329 13.5869 23.5108C13.5869 28.8483 10.06185 30.1804 8.73682 30.1804Z M24.80746 29.2181C23.83367 30.1548 22.80897 30.3386 21.62351 30.3386C19.55474 30.3386 17.6915 29.0276 17.6915 25.4561C17.6915 21.88449 19.50089 20.57349 21.56966 20.57349C23.63844 20.57349 25.24179 21.62966 25.24179 25.2012H18.02227 M33.40431 15.92621C33.23636 15.90765 32.95462 15.9071 32.82749 15.9071C31.24758 15.9071 30.24991 17.03454 30.24991 18.42529V30.1291M32.67477 20.6639H30.58598M28.39767 20.6639H29.92386 M36.548438 16.97076H36.572368M36.532208 20.80402V30.1446 M41.458912 20.77967L41.459172 30.1279M48.293462 30.1279V24.0738C48.293462 23.3619 48.389192 20.79026 46.006102 20.58694C44.248062 20.43694 42.559022 21.56164 41.782682 22.9562 M53.248442 16.97076H53.272372M53.232212 20.80402V30.1446 M60.946263 34.4782C61.582783 34.5791 62.479373 34.2513 62.583493 33.4032C62.682993 32.5928 62.156283 32.0199 61.383333 31.8846L61.596653 30.5043M64.926513 28.2538C64.554533 29.6492 62.986933 30.3386 61.517833 30.3386C59.380463 30.3386 57.614593 29.0276 57.614593 25.4561C57.614593 21.88449 59.483993 20.57349 61.621363 20.57349C63.128373 20.57349 64.778483 21.41043 65.011773 22.9154 M69.895514 17.3457C70.078524 16.88799 70.672074 16.37024 71.382514 16.37024C72.349904 16.37024 72.902354 17.3457 73.960004 17.3457C75.248744 17.3457 75.584274 16.37118 75.584274 16.37118M69.267634 22.2457C69.631994 21.28012 71.048344 20.56665 72.388364 20.56665C74.241604 20.56665 75.743954 21.8797 75.743954 23.4994L75.749704 24.957V27.5711C75.749704 28.614 75.725134 29.3527 76.026504 30.2784M75.370354 24.957H72.642384C70.138984 24.957 68.838734 26.3433 68.838734 27.8374C68.838734 29.3315 70.076844 30.3408 71.692514 30.3408C73.674744 30.3408 75.300584 28.8882 75.701154 27.7324 M88.367002 25.4569C88.367002 28.5223 86.496052 30.3403 84.188112 30.3403C81.880172 30.3403 80.009212 28.5223 80.009212 25.4569C80.009212 22.3915 81.880172 20.57349 84.188112 20.57349C86.496052 20.57349 88.367002 22.3915 88.367002 25.4569Z M105.55976 30.1243V16.12329M105.20001 28.7727C104.33801 29.8707 103.2397 30.3402 101.93014 30.3402C99.74881 30.3402 98.09748 29.0292 98.09748 25.4576C98.09748 21.88607 99.85447 20.57507 102.03579 20.57507C103.3054 20.57507 104.51496 21.11426 105.20001 22.1748 M117.057459 29.2181C116.083669 30.1548 115.058969 30.3386 113.873509 30.3386C111.804739 30.3386 109.941499 29.0276 109.941499 25.4561C109.941499 21.88449 111.750889 20.57349 113.819659 20.57349C115.888439 20.57349 117.491789 21.62966 117.491789 25.2012H110.272269 M4.86511 40.93762V54.1269 M9.33354 54.1453L14.28221 40.97268L14.87008 40.97266L19.8337 54.1453M11.15096 50.2942H18.0096 M35.647 48.3702L39.2205 48.3361L39.2097 52.8469C38.003 54.0193 36.85606 54.3984 34.53852 54.3984C31.87357 54.3984 29.7132 52.2071 29.7132 49.5039V45.62109C29.7132 42.91792 31.87357 40.72656 34.53852 40.72656C36.54632 40.72656 38.2677 41.97044 38.9946 43.73992 M50.767462 53.2181C49.793672 54.1548 48.768972 54.3386 47.583512 54.3386C45.514742 54.3386 43.651502 53.0276 43.651502 49.4561C43.651502 45.88449 45.460892 44.57349 47.529662 44.57349C49.598442 44.57349 51.201792 45.62966 51.201792 49.2012H43.982272 M55.248913 44.77967L55.249173 54.1279M62.083463 54.1279V48.0738C62.083463 47.3619 62.179193 44.79026 59.796103 44.58694C58.038063 44.43694 56.349023 45.56164 55.572683 46.9562 M73.507463 53.2181C72.533673 54.1548 71.508973 54.3386 70.323513 54.3386C68.254743 54.3386 66.391503 53.0276 66.391503 49.4561C66.391503 45.88449 68.200893 44.57349 70.269663 44.57349C72.338443 44.57349 73.941793 45.62966 73.941793 49.2012H66.722273 M81.594801 44.60908C80.214381 44.41894 78.965991 45.31927 78.324011 46.6193M77.969381 44.77269V54.1226 M85.217631 46.2457C85.581991 45.28012 86.998341 44.56665 88.338361 44.56665C90.191601 44.56665 91.693951 45.8797 91.693951 47.4994L91.699701 48.957V51.5711C91.699701 52.614 91.675131 53.3527 91.976501 54.2784M91.320351 48.957H88.592381C86.088981 48.957 84.788731 50.3433 84.788731 51.8374C84.788731 53.3315 86.026841 54.3408 87.642511 54.3408C89.624741 54.3408 91.250581 52.8882 91.651151 51.7324 M99.499322 54.3258C98.089662 54.4655 97.231752 53.7322 97.231752 52.3869V42.08093M99.381662 44.642H97.618252M95.12156 44.642H96.855442 M103.588439 40.97076H103.612369M103.572209 44.80402V54.1446 M114.652755 44.69055L111.283295 54.119L111.082055 54.1189L107.677735 44.69055 M118.767627 46.2457C119.131987 45.28012 120.548337 44.56665 121.888357 44.56665C123.741597 44.56665 125.243947 45.8797 125.243947 47.4994L125.249697 48.957V51.5711C125.249697 52.614 125.225127 53.3527 125.526497 54.2784M124.870347 48.957H122.142377C119.638977 48.957 118.338727 50.3433 118.338727 51.8374C118.338727 53.3315 119.576837 54.3408 121.192507 54.3408C123.174737 54.3408 124.800577 52.8882 125.201147 51.7324"></path>
        </g>
      </g>
    </g>
    <g id="g-root-tx_roleofll_1d2dnul1p2ow77-stroke" data-item-order="0" data-item-id="tx_roleofll_1d2dnul1p2ow77" data-item-class="Label Stroke SceneTarget Indexed" data-item-index="4" data-renderer-id="0" transform="matrix(1, 0, 0, 1, 459, 351)">
      <g id="tx_roleofll_1d2dnul1p2ow77-stroke" fill="none" stroke-linecap="square" stroke-linejoin="miter" stroke-miterlimit="4" stroke="#484848" stroke-width="1" transform="matrix(1, 0, 0, 1, 2, 2)">
        <g xmlns="http://www.w3.org/2000/svg" transform="translate(8, 8)">
          <path d="M4.74121 18.1308V4.94395L10.01962 4.92822C11.11845 4.96678 13.503 5.74944 13.503 8.57165C13.503 11.3939 11.11845 12.2536 10.01962 12.3307L5.26909 12.3449 M17.73763 10.2457C18.10199 9.28012 19.51834 8.56665 20.85836 8.56665C22.7116 8.56665 24.21395 9.8797 24.21395 11.4994L24.2197 12.957V15.5711C24.2197 16.614 24.19513 17.3527 24.4965 18.2784M23.84035 12.957H21.11238C18.60898 12.957 17.30873 14.3433 17.30873 15.8374C17.30873 17.3315 18.54684 18.3408 20.16251 18.3408C22.14474 18.3408 23.77058 16.8882 24.17115 15.7324 M29.04292 8.77398V22.3934M29.4088 10.1239C30.29181 9.02711 31.47311 8.55811 32.78201 8.55811C34.96334 8.55811 36.54199 9.90408 36.54199 13.4756C36.54199 17.0472 34.85769 18.3232 32.67636 18.3232C31.40514 18.3232 30.11934 17.7827 29.4088 16.7195 M47.467462 17.2181C46.493672 18.1548 45.468972 18.3386 44.283512 18.3386C42.214742 18.3386 40.351502 17.0276 40.351502 13.4561C40.351502 9.88449 42.160892 8.57349 44.229662 8.57349C46.298442 8.57349 47.901792 9.62966 47.901792 13.2012H40.682272 M52.085624 4.125V18.1264 M69.999763 18.1243V4.12329M69.640013 16.7727C68.778013 17.8707 67.679703 18.3402 66.370143 18.3402C64.188813 18.3402 62.537483 17.0292 62.537483 13.4576C62.537483 9.88607 64.294473 8.57507 66.475793 8.57507C67.745403 8.57507 68.954963 9.11426 69.640013 10.1748 M82.647001 13.4569C82.647001 16.5223 80.776051 18.3403 78.468111 18.3403C76.160171 18.3403 74.289211 16.5223 74.289211 13.4569C74.289211 10.3915 76.160171 8.57349 78.468111 8.57349C80.776051 8.57349 82.647001 10.3915 82.647001 13.4569Z M92.997829 10.3814C92.702099 9.4042 91.547789 8.58374 89.937699 8.58374C88.049979 8.58374 86.830309 9.44691 86.738659 10.7511C86.633619 12.2457 87.867729 12.8218 89.798229 13.3386C91.491839 13.7969 93.435249 14.2772 93.280959 16.1222C93.181589 17.3105 92.204819 18.3458 89.848099 18.3458C87.942169 18.3458 86.864789 17.5302 86.530429 16.4244 M111.176727 18.1451L104.028127 18.1452L103.986427 11.2996V4.93762 M122.486724 18.1451L115.338124 18.1452L115.296424 11.2996V4.93762 M126.620952 18.1165L126.629202 4.97778H127.598052L132.901342 18.1151H133.216572L138.535692 4.97778H139.505592L139.500192 18.1165 M150.757816 10.3814C150.462086 9.4042 149.307776 8.58374 147.697686 8.58374C145.809966 8.58374 144.590296 9.44691 144.498646 10.7511C144.393606 12.2457 145.627716 12.8218 147.558216 13.3386C149.251826 13.7969 151.195236 14.2772 151.040946 16.1222C150.941576 17.3105 149.964806 18.3458 147.608086 18.3458C145.702156 18.3458 144.624776 17.5302 144.290416 16.4244"></path>
        </g>
      </g>
    </g>
    <g id="g-root-chec_qnsjct1p26l1h-stroke" data-item-order="0" data-item-id="chec_qnsjct1p26l1h" data-item-class="Icon Stroke SceneTarget Indexed InsideFill InsideColorFill" data-item-index="5" data-renderer-id="0" transform="matrix(1, 0, 0, 1, 262.7300109863281, 326.2080078125)">
      <g id="chec_qnsjct1p26l1h-stroke" fill="none" stroke-linecap="round" stroke-linejoin="round" stroke-miterlimit="1.5" stroke="#93c131" stroke-width="0.583" transform="matrix(3.4285714626312256, 0, 0, 3.4285714626312256, -24.285715103149414, -31.14285659790039)">
        <g xmlns="http://www.w3.org/2000/svg" transform="translate(10, 12)">
          <path d="M9.5,1.5H11a1,1,0,0,1,1,1v10a1,1,0,0,1-1,1H3a1,1,0,0,1-1-1V2.5a1,1,0,0,1,1-1H4.5M5.5 0.5h3s1 0 1 1v0.5s0 1 -1 1 h-3s-1 0 -1 -1v-0.5s0 -1 1 -1M4.5 8.5L6.5 10L9 6"></path>
        </g>
      </g>
    </g>
    <g id="g-root-4_hs5j3x1p26lu6-stroke" data-item-order="0" data-item-id="4_hs5j3x1p26lu6" data-item-class="Icon Stroke SceneTarget Indexed InsideFill InsideColorFill" data-item-index="4" data-renderer-id="0" transform="matrix(1, 0, 0, 1, 391.1729736328125, 326.2080078125)">
      <g id="4_hs5j3x1p26lu6-stroke" fill="none" stroke-linecap="round" stroke-linejoin="round" stroke-miterlimit="1.5" stroke="#17b0e3" stroke-width="0.583" transform="matrix(3.4285714626312256, 0, 0, 3.4285714626312256, -24.285715103149414, -31.14285659790039)">
        <g xmlns="http://www.w3.org/2000/svg" transform="translate(10, 12)">
          <path d="M2 2.5a2 2 0 1 0 4 0a2 2 0 1 0 -4 0M2 11.5a2 2 0 1 0 4 0a2 2 0 1 0 -4 0M8 7.5a2 2 0 1 0 4 0a2 2 0 1 0 -4 0M4 4.5L4 9.5M8,7.5H7a3,3,0,0,1-3-3"></path>
        </g>
      </g>
    </g>
    <g id="g-root-tx_reasonsf_1hi75z11p2ovey-stroke" data-item-order="0" data-item-id="tx_reasonsf_1hi75z11p2ovey" data-item-class="Label Stroke SceneTarget Indexed" data-item-index="5" data-renderer-id="0" transform="matrix(1, 0, 0, 1, 111, 351)">
      <g id="tx_reasonsf_1hi75z11p2ovey-stroke" fill="none" stroke-linecap="square" stroke-linejoin="miter" stroke-miterlimit="4" stroke="#484848" stroke-width="1" transform="matrix(1, 0, 0, 1, 14, 14)">
        <g xmlns="http://www.w3.org/2000/svg" transform="translate(-4, -4)">
          <path d="M16.314976 30.1329V16.94524L21.111246 16.92993C22.180976 16.96747 24.502396 17.72941 24.502396 20.47691C24.502396 23.2244 22.180986 24.0614 21.111246 24.1365L16.864436 24.15M24.728696 30.2494L21.618036 24.5145 M29.007626 22.2457C29.371986 21.28012 30.788336 20.56665 32.128356 20.56665C33.981596 20.56665 35.483946 21.8797 35.483946 23.4994L35.489696 24.957V27.5711C35.489696 28.614 35.465126 29.3527 35.766496 30.2784M35.110346 24.957H32.382376C29.878976 24.957 28.578726 26.3433 28.578726 27.8374C28.578726 29.3315 29.816836 30.3408 31.432506 30.3408C33.414736 30.3408 35.040576 28.8882 35.441146 27.7324 M39.798945 20.78027H46.476135V20.93551L39.713925 29.9042V30.1284L46.769005 30.1283 M51.369166 17.35889C51.554666 16.89499 52.156226 16.37024 52.876276 16.37024C53.856746 16.37024 54.416656 17.35889 55.488596 17.35889C56.794756 17.35889 57.134826 16.37119 57.134826 16.37119M58.501596 25.4552C58.501596 28.5206 56.630666 30.3386 54.322726 30.3386C52.014786 30.3386 50.143826 28.5206 50.143826 25.4552C50.143826 22.3898 52.014786 20.57178 54.322726 20.57178C56.630666 20.57178 58.501596 22.3898 58.501596 25.4552Z M69.347456 29.2181C68.373666 30.1548 67.348966 30.3386 66.163506 30.3386C64.094736 30.3386 62.231496 29.0276 62.231496 25.4561C62.231496 21.88449 64.040886 20.57349 66.109656 20.57349C68.178436 20.57349 69.781786 21.62966 69.781786 25.2012H62.562266 M79.987827 22.3814C79.692097 21.4042 78.537787 20.58374 76.927697 20.58374C75.039977 20.58374 73.820307 21.44691 73.728657 22.7511C73.623617 24.2457 74.857727 24.8218 76.788227 25.3386C78.481837 25.7969 80.425247 26.2772 80.270957 28.1222C80.171587 29.3105 79.194817 30.3458 76.838097 30.3458C74.932167 30.3458 73.854787 29.5302 73.520427 28.4244 M90.632915 20.77398V34.3934M90.998795 22.1239C91.881805 21.02711 93.063105 20.55811 94.372005 20.55811C96.553335 20.55811 98.131985 21.90408 98.131985 25.4756C98.131985 29.0472 96.447685 30.3232 94.266355 30.3232C92.995135 30.3232 91.709335 29.7827 90.998795 28.7195 M102.527629 22.2457C102.891989 21.28012 104.308339 20.56665 105.648359 20.56665C107.501599 20.56665 109.003949 21.8797 109.003949 23.4994L109.009699 24.957V27.5711C109.009699 28.614 108.985129 29.3527 109.286499 30.2784M108.630349 24.957H105.902379C103.398979 24.957 102.098729 26.3433 102.098729 27.8374C102.098729 29.3315 103.336839 30.3408 104.952509 30.3408C106.934739 30.3408 108.560579 28.8882 108.961149 27.7324 M117.444799 20.60908C116.064379 20.41894 114.815989 21.31927 114.174009 22.6193M113.819379 20.77269V30.1226 M121.06763 22.2457C121.43199 21.28012 122.84834 20.56665 124.18836 20.56665C126.0416 20.56665 127.54395 21.8797 127.54395 23.4994L127.5497 24.957V27.5711C127.5497 28.614 127.52513 29.3527 127.8265 30.2784M127.17035 24.957H124.44238C121.93898 24.957 120.63873 26.3433 120.63873 27.8374C120.63873 29.3315 121.87684 30.3408 123.49251 30.3408C125.47474 30.3408 127.10058 28.8882 127.50115 27.7324 M43.107638 46.2457C43.471998 45.28012 44.888348 44.56665 46.228368 44.56665C48.081608 44.56665 49.583958 45.8797 49.583958 47.4994L49.589708 48.957V51.5711C49.589708 52.614 49.565138 53.3527 49.866508 54.2784M49.210358 48.957H46.482388C43.978988 48.957 42.678738 50.3433 42.678738 51.8374C42.678738 53.3315 43.916848 54.3408 45.532518 54.3408C47.514748 54.3408 49.140588 52.8882 49.541158 51.7324 M59.663549 54.1453L64.612219 40.97268L65.200089 40.97266L70.163709 54.1453M61.480969 50.2942H68.339609 M81.13977 54.1243V40.12329M80.78002 52.7727C79.91802 53.8707 78.81971 54.3402 77.51015 54.3402C75.32882 54.3402 73.67749 53.0292 73.67749 49.4576C73.67749 45.88607 75.43448 44.57507 77.6158 44.57507C78.88541 44.57507 80.09497 45.11426 80.78002 46.1748 M93.787008 49.4569C93.787008 52.5223 91.916058 54.3403 89.608118 54.3403C87.300178 54.3403 85.429218 52.5223 85.429218 49.4569C85.429218 46.3915 87.300178 44.57349 89.608118 44.57349C91.916058 44.57349 93.787008 46.3915 93.787008 49.4569Z M100.766266 58.4782C101.402786 58.5791 102.299376 58.2513 102.403496 57.4032C102.502996 56.5928 101.976286 56.0199 101.203336 55.8846L101.416656 54.5043M104.746516 52.2538C104.374536 53.6492 102.806936 54.3386 101.337836 54.3386C99.200466 54.3386 97.434596 53.0276 97.434596 49.4561C97.434596 45.88449 99.303996 44.57349 101.441366 44.57349C102.948376 44.57349 104.598486 45.41043 104.831776 46.9154 M109.715514 41.3457C109.898524 40.88799 110.492074 40.37024 111.202514 40.37024C112.169904 40.37024 112.722354 41.3457 113.780004 41.3457C115.068744 41.3457 115.404274 40.37118 115.404274 40.37118M109.087634 46.2457C109.451994 45.28012 110.868344 44.56665 112.208364 44.56665C114.061604 44.56665 115.563954 45.8797 115.563954 47.4994L115.569704 48.957V51.5711C115.569704 52.614 115.545134 53.3527 115.846504 54.2784M115.190354 48.957H112.462384C109.958984 48.957 108.658734 50.3433 108.658734 51.8374C108.658734 53.3315 109.896844 54.3408 111.512514 54.3408C113.494744 54.3408 115.120584 52.8882 115.521154 51.7324 M128.187002 49.4569C128.187002 52.5223 126.316052 54.3403 124.008112 54.3403C121.700172 54.3403 119.829212 52.5223 119.829212 49.4569C119.829212 46.3915 121.700172 44.57349 124.008112 44.57349C126.316052 44.57349 128.187002 46.3915 128.187002 49.4569Z"></path>
        </g>
      </g>
    </g>
    <g id="g-root-tx_associat_dj75rx1p2outr-stroke" data-item-order="0" data-item-id="tx_associat_dj75rx1p2outr" data-item-class="Label Stroke SceneTarget Indexed" data-item-index="8" data-renderer-id="0" transform="matrix(1, 0, 0, 1, 123, -9)">
      <g id="tx_associat_dj75rx1p2outr-stroke" fill="none" stroke-linecap="square" stroke-linejoin="miter" stroke-miterlimit="4" stroke="#484848" stroke-width="1" transform="matrix(1, 0, 0, 1, 8, 2)">
        <g xmlns="http://www.w3.org/2000/svg" transform="translate(2, 8)">
          <path d="M58.124978 18.1329V4.94524L62.921248 4.92993C63.990978 4.96747 66.312398 5.72941 66.312398 8.47691C66.312398 11.2244 63.990988 12.0614 62.921248 12.1365L58.674438 12.15M66.538698 18.2494L63.428038 12.5145 M70.87844 4.97076H70.90237M70.86221 8.80402V18.1446 M81.947826 10.3814C81.652096 9.4042 80.497786 8.58374 78.887696 8.58374C76.999976 8.58374 75.780306 9.44691 75.688656 10.7511C75.583616 12.2457 76.817726 12.8218 78.748226 13.3386C80.441836 13.7969 82.385246 14.2772 82.230956 16.1222C82.131586 17.3105 81.154816 18.3458 78.798096 18.3458C76.892166 18.3458 75.814786 17.5302 75.480426 16.4244 M93.411791 16.2538C93.039821 17.6492 91.472221 18.3386 90.003121 18.3386C87.865751 18.3386 86.099881 17.0276 86.099881 13.4561C86.099881 9.88449 87.969281 8.57349 90.106651 8.57349C91.613661 8.57349 93.263771 9.41043 93.497061 10.9154 M105.376997 13.4569C105.376997 16.5223 103.506047 18.3403 101.198107 18.3403C98.890167 18.3403 97.019207 16.5223 97.019207 13.4569C97.019207 10.3915 98.890167 8.57349 101.198107 8.57349C103.506047 8.57349 105.376997 10.3915 105.376997 13.4569Z M115.727832 10.3814C115.432102 9.4042 114.277792 8.58374 112.667702 8.58374C110.779982 8.58374 109.560312 9.44691 109.468662 10.7511C109.363622 12.2457 110.597732 12.8218 112.528232 13.3386C114.221842 13.7969 116.165252 14.2772 116.010962 16.1222C115.911592 17.3105 114.934822 18.3458 112.578102 18.3458C110.672172 18.3458 109.594792 17.5302 109.260432 16.4244 M10.143544 42.1453L15.092214 28.97268L15.680084 28.97266L20.643704 42.1453M11.960964 38.2942H18.819604 M30.777835 34.3814C30.482105 33.4042 29.327795 32.58374 27.717705 32.58374C25.829985 32.58374 24.610315 33.44691 24.518665 34.7511C24.413625 36.2457 25.647735 36.8218 27.578235 37.3386C29.271845 37.7969 31.215255 38.2772 31.060965 40.1222C30.961595 41.3105 29.984825 42.3458 27.628105 42.3458C25.722175 42.3458 24.644795 41.5302 24.310435 40.4244 M41.587833 34.3814C41.292103 33.4042 40.137793 32.58374 38.527703 32.58374C36.639983 32.58374 35.420313 33.44691 35.328663 34.7511C35.223623 36.2457 36.457733 36.8218 38.388233 37.3386C40.081843 37.7969 42.025253 38.2772 41.870963 40.1222C41.771593 41.3105 40.794823 42.3458 38.438103 42.3458C36.532173 42.3458 35.454793 41.5302 35.120433 40.4244 M54.037004 37.4569C54.037004 40.5223 52.166054 42.3403 49.858114 42.3403C47.550174 42.3403 45.679214 40.5223 45.679214 37.4569C45.679214 34.3915 47.550174 32.57349 49.858114 32.57349C52.166054 32.57349 54.037004 34.3915 54.037004 37.4569Z M65.041796 40.2538C64.669826 41.6492 63.102226 42.3386 61.633126 42.3386C59.495756 42.3386 57.729886 41.0276 57.729886 37.4561C57.729886 33.88449 59.599286 32.57349 61.736656 32.57349C63.243666 32.57349 64.893776 33.41043 65.127066 34.9154 M69.388442 28.97076H69.412372M69.372212 32.80402V42.1446 M74.417636 34.2457C74.781996 33.28012 76.198346 32.56665 77.538366 32.56665C79.391606 32.56665 80.893956 33.8797 80.893956 35.4994L80.899706 36.957V39.5711C80.899706 40.614 80.875136 41.3527 81.176506 42.2784M80.520356 36.957H77.792386C75.288986 36.957 73.988736 38.3433 73.988736 39.8374C73.988736 41.3315 75.226846 42.3408 76.842516 42.3408C78.824746 42.3408 80.450586 40.8882 80.851156 39.7324 M92.729766 42.1243V28.12329M92.370016 40.7727C91.508016 41.8707 90.409706 42.3402 89.100146 42.3402C86.918816 42.3402 85.267486 41.0292 85.267486 37.4576C85.267486 33.88607 87.024476 32.57507 89.205796 32.57507C90.475406 32.57507 91.684966 33.11426 92.370016 34.1748 M105.377005 37.4569C105.377005 40.5223 103.506055 42.3403 101.198115 42.3403C98.890175 42.3403 97.019215 40.5223 97.019215 37.4569C97.019215 34.3915 98.890175 32.57349 101.198115 32.57349C103.506055 32.57349 105.377005 34.3915 105.377005 37.4569Z M115.727832 34.3814C115.432102 33.4042 114.277792 32.58374 112.667702 32.58374C110.779982 32.58374 109.560312 33.44691 109.468662 34.7511C109.363622 36.2457 110.597732 36.8218 112.528232 37.3386C114.221842 37.7969 116.165252 38.2772 116.010962 40.1222C115.911592 41.3105 114.934822 42.3458 112.578102 42.3458C110.672172 42.3458 109.594792 41.5302 109.260432 40.4244"></path>
        </g>
      </g>
    </g>
  </g>
</svg>