<svg width="650" height="422" viewBox="0 0 650 422" style="fill:none;stroke:none;fill-rule:evenodd;clip-rule:evenodd;stroke-linecap:round;stroke-linejoin:round;stroke-miterlimit:1.5;" version="1.1"
  xmlns="http://www.w3.org/2000/svg"
  xmlns:xlink="http://www.w3.org/1999/xlink">
  <g id="blend" style="mix-blend-mode:multiply">
    <g id="g-root-3.cu_sy_1qcm0em1mkmuq6-fill" data-item-order="-84724" data-item-id="3.cu_sy_1qcm0em1mkmuq6" data-item-class="ScenePart Indexed Fill Stroke" data-item-index="3" data-renderer-id="0" transform="matrix(1, 0, 0, 1, 350.666015625, 155.4619140625)">
      <g id="3.cu_sy_1qcm0em1mkmuq6-fill" stroke="none" fill="#f5fbe9" transform="matrix(1, 0, 0, 1, -2.665985107421875, -2.462005615234375)">
        <g xmlns="http://www.w3.org/2000/svg" transform="translate(-311, -284)">
          <path d="M 323.673 399.985C 323.845 399.933 324.016 399.882 324.188 399.83C 330.899 395.944 336.012 374.273 336.012 348.219C 336.012 322.02 330.82 300.291 324.054 296.58L 323.666 296.462C 346.432 303.306 370.681 308.415 396 312C 402.627 312 408 328.218 408 348.224C 408 368.23 402.627 384.448 396 384.448C 370.874 388.006 346.802 393.065 324.188 399.83C 324.185 399.832 324.182 399.833 324.18 399.835L 323.673 399.985Z"></path>
        </g>
      </g>
    </g>
    <g id="g-root-3.line-3_sy_1qcm0em1mkmuq7-fill" data-item-order="-84721" data-item-id="3.line-3_sy_1qcm0em1mkmuq7" data-item-class="ScenePart Indexed Stroke LeaderLine" data-item-index="3" data-renderer-id="0" transform="matrix(1, 0, 0, 1, 387, 123)"></g>
    <g id="g-root-2.cu_sy_4mbzpq1mkmwi4-fill" data-item-order="-84720" data-item-id="2.cu_sy_4mbzpq1mkmwi4" data-item-class="ScenePart Indexed Fill Stroke" data-item-index="2" data-renderer-id="0" transform="matrix(1, 0, 0, 1, 276.89599609375, 123.60791015625)">
      <g id="2.cu_sy_4mbzpq1mkmwi4-fill" stroke="none" fill="#e9fbf3" transform="matrix(1, 0, 0, 1, -2.89599609375, -2.608001708984375)">
        <g xmlns="http://www.w3.org/2000/svg" transform="translate(-237, -252)">
          <path d="M 323.674 399.984C 296.908 408.03 272.192 418.475 250.196 431.66L 250.627 431.397C 258.233 424.888 263.999 390.095 263.999 348.219C 263.999 306.2 258.159 271.317 250.514 264.979C 250.308 264.855 250.102 264.732 249.896 264.608L 250.433 264.912C 250.46 264.934 250.487 264.956 250.514 264.979C 272.428 278.073 297.032 288.455 323.667 296.462L 324.054 296.58C 330.82 300.291 336.011 322.02 336.011 348.219C 336.011 374.283 330.895 395.96 324.18 399.834L 323.674 399.984Z"></path>
        </g>
      </g>
    </g>
    <g id="g-root-2.line-2_sy_6ihla1mkmxad-fill" data-item-order="-84717" data-item-id="2.line-2_sy_6ihla1mkmxad" data-item-class="ScenePart Indexed Stroke LeaderLine" data-item-index="2" data-renderer-id="0" transform="matrix(1, 0, 0, 1, 315, 271.822998046875)"></g>
    <g id="g-root-1.cu_sy_hxsi321mkmux6-fill" data-item-order="-84716" data-item-id="1.cu_sy_hxsi321mkmux6" data-item-class="ScenePart Indexed Indexed_1 Fill Stroke" data-item-index="1" data-renderer-id="0" transform="matrix(1, 0, 0, 1, 183, 51.223876953125)">
      <g id="1.cu_sy_hxsi321mkmux6-fill" stroke="none" fill="#e6f9ff" transform="matrix(1, 0, 0, 1, -2, -2.2239990234375)">
        <g xmlns="http://www.w3.org/2000/svg" transform="translate(-144, -180)">
          <path d="M 178.094 500.17C 176.779 502.822 175.409 504.224 174 504.224C 164.059 504.224 156 434.38 156 348.224C 156 262.068 164.059 192.224 174 192.224C 175.264 192.224 176.497 193.353 177.687 195.5L 178.131 196.335C 196.15 224.508 220.601 246.995 249.895 264.608L 250.432 264.912C 258.117 271.069 263.999 306.05 263.999 348.218C 263.999 390.095 258.233 424.888 250.627 431.397L 250.195 431.659C 220.818 449.269 196.294 471.767 178.223 499.969L 178.094 500.17Z"></path>
        </g>
      </g>
    </g>
    <g id="g-root-1.line-1_sy_dhyzym1mkmvpf-fill" data-item-order="-84713" data-item-id="1.line-1_sy_dhyzym1mkmvpf" data-item-class="ScenePart Indexed Indexed_1 Stroke LeaderLine" data-item-index="1" data-renderer-id="0" transform="matrix(1, 0, 0, 1, 243, 27)"></g>
    <g id="g-root-tx_datatrai_quogi61mkmwar-fill" data-item-order="0" data-item-id="tx_datatrai_quogi61mkmwar" data-item-class="Label Stroke SceneTarget Indexed Indexed_1" data-item-index="1" data-renderer-id="0" transform="matrix(1, 0, 0, 1, 129, -9)"></g>
    <g id="g-root-tx_contentg_18lbzwu1mkmx3d-fill" data-item-order="0" data-item-id="tx_contentg_18lbzwu1mkmx3d" data-item-class="Label Stroke SceneTarget Indexed" data-item-index="3" data-renderer-id="0" transform="matrix(1, 0, 0, 1, 327, 39)"></g>
    <g id="g-root-tx_newtexts_1lwsia61mkmvig-fill" data-item-order="0" data-item-id="tx_newtexts_1lwsia61mkmvig" data-item-class="Label Stroke SceneTarget SceneEnd" data-item-index="none" data-renderer-id="0" transform="matrix(1, 0, 0, 1, 447, 147)"></g>
    <g id="g-root-tx_largevol_hz1g9a1mkmx3g-fill" data-item-order="0" data-item-id="tx_largevol_hz1g9a1mkmx3g" data-item-class="Label Stroke SceneTarget SceneStart" data-item-index="none" data-renderer-id="0" transform="matrix(1, 0, 0, 1, -9, 171)"></g>
    <g id="g-root-boxe_m7dci61mk8umj-fill" data-item-order="0" data-item-id="boxe_m7dci61mk8umj" data-item-class="Icon Stroke SceneTarget Indexed Indexed_1 InsideFill InsideColorFill" data-item-index="1" data-renderer-id="0" transform="matrix(1, 0, 0, 1, 231, 183)"></g>
    <g id="g-root-patt_1um6utq1mk8ufi-fill" data-item-order="0" data-item-id="patt_1um6utq1mk8ufi" data-item-class="Icon Stroke SceneTarget Indexed InsideFill InsideColorFill" data-item-index="2" data-renderer-id="0" transform="matrix(1, 0, 0, 1, 303, 183)"></g>
    <g id="g-root-edit_zituvi1mk8t1m-fill" data-item-order="0" data-item-id="edit_zituvi1mk8t1m" data-item-class="Icon Stroke SceneTarget Indexed InsideFill InsideColorFill" data-item-index="3" data-renderer-id="0" transform="matrix(1, 0, 0, 1, 375, 183)"></g>
    <g id="g-root-tx_patternl_vahymm1mkmvii-fill" data-item-order="0" data-item-id="tx_patternl_vahymm1mkmvii" data-item-class="Label Stroke SceneTarget Indexed" data-item-index="2" data-renderer-id="0" transform="matrix(1, 0, 0, 1, 237, 339)"></g>
    <g id="g-root-3.cu_sy_1qcm0em1mkmuq6-stroke" data-item-order="-84724" data-item-id="3.cu_sy_1qcm0em1mkmuq6" data-item-class="ScenePart Indexed Fill Stroke" data-item-index="3" data-renderer-id="0" transform="matrix(1, 0, 0, 1, 350.666015625, 155.4619140625)">
      <g id="3.cu_sy_1qcm0em1mkmuq6-stroke" fill="none" stroke-linecap="round" stroke-linejoin="round" stroke-miterlimit="1.5" stroke="#93c131" stroke-width="2" transform="matrix(1, 0, 0, 1, -2.665985107421875, -2.462005615234375)">
        <g xmlns="http://www.w3.org/2000/svg" transform="translate(-311, -284)">
          <path d="M 323.673 399.984C 346.437 393.141 370.683 388.033 396 384.448C 402.627 384.448 408 368.23 408 348.224C 408 328.218 402.627 312 396 312C 370.681 308.415 346.432 303.306 323.666 296.462L 324.054 296.58C 330.82 300.291 336.012 322.02 336.012 348.219C 336.012 374.283 330.895 395.961 324.18 399.835L 323.673 399.984Z"></path>
        </g>
      </g>
    </g>
    <g id="g-root-3.line-3_sy_1qcm0em1mkmuq7-stroke" data-item-order="-84721" data-item-id="3.line-3_sy_1qcm0em1mkmuq7" data-item-class="ScenePart Indexed Stroke LeaderLine" data-item-index="3" data-renderer-id="0" transform="matrix(1, 0, 0, 1, 387, 123)">
      <g id="3.line-3_sy_1qcm0em1mkmuq7-stroke" fill="none" stroke-linecap="round" stroke-linejoin="round" stroke-miterlimit="1.5" stroke="#484848" stroke-width="2" transform="matrix(1, 0, 0, 1, -2, -2)">
        <g xmlns="http://www.w3.org/2000/svg" transform="translate(-348, -252)">
          <path d="M 360 264L 360 305.572"></path>
        </g>
      </g>
    </g>
    <g id="g-root-2.cu_sy_4mbzpq1mkmwi4-stroke" data-item-order="-84720" data-item-id="2.cu_sy_4mbzpq1mkmwi4" data-item-class="ScenePart Indexed Fill Stroke" data-item-index="2" data-renderer-id="0" transform="matrix(1, 0, 0, 1, 276.89599609375, 123.60791015625)">
      <g id="2.cu_sy_4mbzpq1mkmwi4-stroke" fill="none" stroke-linecap="round" stroke-linejoin="round" stroke-miterlimit="1.5" stroke="#3bc482" stroke-width="2" transform="matrix(1, 0, 0, 1, -2.89599609375, -2.608001708984375)">
        <g xmlns="http://www.w3.org/2000/svg" transform="translate(-237, -252)">
          <path d="M 250.196 431.66C 272.192 418.475 296.908 408.031 323.674 399.984L 324.18 399.835C 330.895 395.961 336.011 374.283 336.011 348.219C 336.011 322.02 330.82 300.291 324.054 296.58L 323.667 296.462C 296.782 288.379 271.965 277.877 249.896 264.608L 250.433 264.912C 258.117 271.069 263.999 306.05 263.999 348.219C 263.999 390.095 258.233 424.888 250.627 431.397L 250.196 431.66Z"></path>
        </g>
      </g>
    </g>
    <g id="g-root-2.line-2_sy_6ihla1mkmxad-stroke" data-item-order="-84717" data-item-id="2.line-2_sy_6ihla1mkmxad" data-item-class="ScenePart Indexed Stroke LeaderLine" data-item-index="2" data-renderer-id="0" transform="matrix(1, 0, 0, 1, 315, 271.822998046875)">
      <g id="2.line-2_sy_6ihla1mkmxad-stroke" fill="none" stroke-linecap="round" stroke-linejoin="round" stroke-miterlimit="1.5" stroke="#484848" stroke-width="2" transform="matrix(1, 0, 0, 1, -2, -2.822998046875)">
        <g xmlns="http://www.w3.org/2000/svg" transform="translate(-276, -400)">
          <path d="M 288 412.823L 288 468"></path>
        </g>
      </g>
    </g>
    <g id="g-root-1.cu_sy_hxsi321mkmux6-stroke" data-item-order="-84716" data-item-id="1.cu_sy_hxsi321mkmux6" data-item-class="ScenePart Indexed Indexed_1 Fill Stroke" data-item-index="1" data-renderer-id="0" transform="matrix(1, 0, 0, 1, 183, 51.223876953125)">
      <g id="1.cu_sy_hxsi321mkmux6-stroke" fill="none" stroke-linecap="round" stroke-linejoin="round" stroke-miterlimit="1.5" stroke="#17b0e3" stroke-width="2" transform="matrix(1, 0, 0, 1, -2, -2.2239990234375)">
        <g xmlns="http://www.w3.org/2000/svg" transform="translate(-144, -180)">
          <path d="M 156 348.224C 156 434.381 164.059 504.224 174 504.224C 183.941 504.224 192 434.381 192 348.224C 192 262.068 183.941 192.224 174 192.224C 164.059 192.224 156 262.068 156 348.224M 176.074 503.197C 191.467 477.455 217.155 450.576 250.203 431.577C 255.865 428.322 264.001 400.571 264.001 348.234C 264.001 299.163 256.94 268.43 249.552 264.095C 214.921 243.775 191.324 216.901 176.096 193.27"></path>
        </g>
      </g>
    </g>
    <g id="g-root-1.line-1_sy_dhyzym1mkmvpf-stroke" data-item-order="-84713" data-item-id="1.line-1_sy_dhyzym1mkmvpf" data-item-class="ScenePart Indexed Indexed_1 Stroke LeaderLine" data-item-index="1" data-renderer-id="0" transform="matrix(1, 0, 0, 1, 243, 27)">
      <g id="1.line-1_sy_dhyzym1mkmvpf-stroke" fill="none" stroke-linecap="round" stroke-linejoin="round" stroke-miterlimit="1.5" stroke="#484848" stroke-width="2" transform="matrix(1, 0, 0, 1, -2, -2)">
        <g xmlns="http://www.w3.org/2000/svg" transform="translate(-204, -156)">
          <path d="M 216 168L 216 240"></path>
        </g>
      </g>
    </g>
    <g id="g-root-tx_datatrai_quogi61mkmwar-stroke" data-item-order="0" data-item-id="tx_datatrai_quogi61mkmwar" data-item-class="Label Stroke SceneTarget Indexed Indexed_1" data-item-index="1" data-renderer-id="0" transform="matrix(1, 0, 0, 1, 129, -9)">
      <g id="tx_datatrai_quogi61mkmwar-stroke" fill="none" stroke-linecap="square" stroke-linejoin="miter" stroke-miterlimit="4" stroke="#484848" stroke-width="1" transform="matrix(1, 0, 0, 1, 6, 2)">
        <g xmlns="http://www.w3.org/2000/svg" transform="translate(52, 8)">
          <path d="M-29.74681 4.94531C-33.00975 4.94531 -36.27274 4.95044 -39.53573 4.95044M-34.65038 18.1241V5.45566 M-22.38521 8.60908C-23.76563 8.41894 -25.01402 9.31927 -25.656 10.6193M-26.01063 8.77269V18.1226 M-12.23255 17.2181C-13.20634 18.1548 -14.23104 18.3386 -15.4165 18.3386C-17.48527 18.3386 -19.34851 17.0276 -19.34851 13.4561C-19.34851 9.88449 -17.53912 8.57349 -15.47035 8.57349C-13.40157 8.57349 -11.79822 9.62966 -11.79822 13.2012H-19.01774 M-7.571569 4.97076H-7.547639M-7.587799 8.80402V18.1446 M-2.661099 8.77967L-2.660839 18.1279M4.173451 18.1279V12.0738C4.173451 11.3619 4.269181 8.79026 1.886091 8.58694C0.128051 8.43694 -1.560989 9.56164 -2.337329 10.9562 M9.067622 10.2457C9.431982 9.28012 10.848332 8.56665 12.188352 8.56665C14.041592 8.56665 15.543942 9.8797 15.543942 11.4994L15.549692 12.957V15.5711C15.549692 16.614 15.525122 17.3527 15.826492 18.2784M15.170342 12.957H12.442372C9.938972 12.957 8.638722 14.3433 8.638722 15.8374C8.638722 17.3315 9.876832 18.3408 11.492502 18.3408C13.474732 18.3408 15.100572 16.8882 15.501142 15.7324 M20.399682 8.81417L20.399952 18.1624M27.234232 18.1624L27.223362 11.4697C27.158912 10.5262 26.791982 9.07848 24.917762 8.64916C22.978072 8.20484 21.498272 9.24827 20.761862 10.5949M34.069292 18.1624V12.1083C34.069292 11.3964 34.183892 9.20604 31.752892 8.64916C29.723792 8.18437 28.189492 9.34748 27.489102 10.7827 M45.49745 17.2181C44.52366 18.1548 43.49896 18.3386 42.3135 18.3386C40.24473 18.3386 38.38149 17.0276 38.38149 13.4561C38.38149 9.88449 40.19088 8.57349 42.25965 8.57349C44.32843 8.57349 45.93178 9.62966 45.93178 13.2012H38.71226 M49.978897 8.77967L49.979157 18.1279M56.813447 18.1279V12.0738C56.813447 11.3619 56.909177 8.79026 54.526087 8.58694C52.768047 8.43694 51.079007 9.56164 50.302667 10.9562 M64.559308 18.3258C63.149648 18.4655 62.291738 17.7322 62.291738 16.3869V6.08093M64.441648 8.642H62.678238M60.181546 8.642H61.915428 M76.266981 13.4569C76.266981 16.5223 74.396031 18.3403 72.088091 18.3403C69.780151 18.3403 67.909191 16.5223 67.909191 13.4569C67.909191 10.3915 69.780151 8.57349 72.088091 8.57349C74.396031 8.57349 76.266981 10.3915 76.266981 13.4569Z M93.459747 18.1243V4.12329M93.099997 16.7727C92.237997 17.8707 91.139687 18.3402 89.830127 18.3402C87.648797 18.3402 85.997467 17.0292 85.997467 13.4576C85.997467 9.88607 87.754457 8.57507 89.935777 8.57507C91.205387 8.57507 92.414947 9.11426 93.099997 10.1748 M104.957437 17.2181C103.983647 18.1548 102.958947 18.3386 101.773487 18.3386C99.704717 18.3386 97.841477 17.0276 97.841477 13.4561C97.841477 9.88449 99.650867 8.57349 101.719637 8.57349C103.788417 8.57349 105.391767 9.62966 105.391767 13.2012H98.172247 M119.796802 18.1804L115.787522 18.1827V4.94829C116.735442 4.94829 118.013982 4.94607 119.413982 4.94607C120.866622 4.90961 124.646882 6.17329 124.646882 11.5108C124.646882 16.8483 121.121832 18.1804 119.796802 18.1804Z M129.337611 10.2457C129.701971 9.28012 131.118321 8.56665 132.458341 8.56665C134.311581 8.56665 135.813931 9.8797 135.813931 11.4994L135.819681 12.957V15.5711C135.819681 16.614 135.795111 17.3527 136.096481 18.2784M135.440331 12.957H132.712361C130.208961 12.957 128.908711 14.3433 128.908711 15.8374C128.908711 17.3315 130.146821 18.3408 131.762491 18.3408C133.744721 18.3408 135.370561 16.8882 135.771131 15.7324 M147.649749 18.1243V4.12329M147.289999 16.7727C146.427999 17.8707 145.329689 18.3402 144.020129 18.3402C141.838799 18.3402 140.187469 17.0292 140.187469 13.4576C140.187469 9.88607 141.944459 8.57507 144.125779 8.57507C145.395389 8.57507 146.604949 9.11426 147.289999 10.1748 M160.296995 13.4569C160.296995 16.5223 158.426045 18.3403 156.118105 18.3403C153.810165 18.3403 151.939205 16.5223 151.939205 13.4569C151.939205 10.3915 153.810165 8.57349 156.118105 8.57349C158.426045 8.57349 160.296995 10.3915 160.296995 13.4569Z M170.647831 10.3814C170.352101 9.4042 169.197791 8.58374 167.587701 8.58374C165.699981 8.58374 164.480311 9.44691 164.388661 10.7511C164.283621 12.2457 165.517731 12.8218 167.448231 13.3386C169.141841 13.7969 171.085251 14.2772 170.930961 16.1222C170.831591 17.3105 169.854821 18.3458 167.498101 18.3458C165.592171 18.3458 164.514791 17.5302 164.180431 16.4244"></path>
        </g>
      </g>
    </g>
    <g id="g-root-tx_contentg_18lbzwu1mkmx3d-stroke" data-item-order="0" data-item-id="tx_contentg_18lbzwu1mkmx3d" data-item-class="Label Stroke SceneTarget Indexed" data-item-index="3" data-renderer-id="0" transform="matrix(1, 0, 0, 1, 327, 39)">
      <g id="tx_contentg_18lbzwu1mkmx3d-stroke" fill="none" stroke-linecap="square" stroke-linejoin="miter" stroke-miterlimit="4" stroke="#484848" stroke-width="1" transform="matrix(1, 0, 0, 1, 6, 14)">
        <g xmlns="http://www.w3.org/2000/svg" transform="translate(7, -4)">
          <path d="M11.537005 24.3702L15.110505 24.3361L15.099705 28.8469C13.893005 30.0193 12.746065 30.3984 10.428525 30.3984C7.763575 30.3984 5.603205 28.2071 5.603205 25.5039V21.62109C5.603205 18.91792 7.763575 16.72656 10.428525 16.72656C12.436325 16.72656 14.157705 17.97044 14.884605 19.73992 M26.657465 29.2181C25.683675 30.1548 24.658975 30.3386 23.473515 30.3386C21.404745 30.3386 19.541505 29.0276 19.541505 25.4561C19.541505 21.88449 21.350895 20.57349 23.419665 20.57349C25.488445 20.57349 27.091795 21.62966 27.091795 25.2012H19.872275 M34.744806 20.60908C33.364386 20.41894 32.115996 21.31927 31.474016 22.6193M31.119386 20.77269V30.1226 M38.367633 22.2457C38.731993 21.28012 40.148343 20.56665 41.488363 20.56665C43.341603 20.56665 44.843953 21.8797 44.843953 23.4994L44.849703 24.957V27.5711C44.849703 28.614 44.825133 29.3527 45.126503 30.2784M44.470353 24.957H41.742383C39.238983 24.957 37.938733 26.3433 37.938733 27.8374C37.938733 29.3315 39.176843 30.3408 40.792513 30.3408C42.774743 30.3408 44.400583 28.8882 44.801153 27.7324 M52.466263 34.4782C53.102783 34.5791 53.999373 34.2513 54.103493 33.4032C54.202993 32.5928 53.676283 32.0199 52.903333 31.8846L53.116653 30.5043M56.446513 28.2538C56.074533 29.6492 54.506933 30.3386 53.037833 30.3386C50.900463 30.3386 49.134593 29.0276 49.134593 25.4561C49.134593 21.88449 51.003993 20.57349 53.141363 20.57349C54.648373 20.57349 56.298483 21.41043 56.531773 22.9154 M61.415519 17.3457C61.598529 16.88799 62.192079 16.37024 62.902519 16.37024C63.869909 16.37024 64.422359 17.3457 65.480009 17.3457C66.768749 17.3457 67.104279 16.37118 67.104279 16.37118M60.787639 22.2457C61.151999 21.28012 62.568349 20.56665 63.908369 20.56665C65.761609 20.56665 67.263959 21.8797 67.263959 23.4994L67.269709 24.957V27.5711C67.269709 28.614 67.245139 29.3527 67.546509 30.2784M66.890359 24.957H64.162389C61.658989 24.957 60.358739 26.3433 60.358739 27.8374C60.358739 29.3315 61.596849 30.3408 63.212519 30.3408C65.194749 30.3408 66.820589 28.8882 67.221159 27.7324 M79.887007 25.4569C79.887007 28.5223 78.016057 30.3403 75.708117 30.3403C73.400177 30.3403 71.529217 28.5223 71.529217 25.4569C71.529217 22.3915 73.400177 20.57349 75.708117 20.57349C78.016057 20.57349 79.887007 22.3915 79.887007 25.4569Z M97.079765 30.1243V16.12329M96.720015 28.7727C95.858015 29.8707 94.759705 30.3402 93.450145 30.3402C91.268815 30.3402 89.617485 29.0292 89.617485 25.4576C89.617485 21.88607 91.374475 20.57507 93.555795 20.57507C94.825405 20.57507 96.034965 21.11426 96.720015 22.1748 M108.577463 29.2181C107.603673 30.1548 106.578973 30.3386 105.393513 30.3386C103.324743 30.3386 101.461503 29.0276 101.461503 25.4561C101.461503 21.88449 103.270893 20.57349 105.339663 20.57349C107.408443 20.57349 109.011793 21.62966 109.011793 25.2012H101.792273 M23.267203 51.1299C22.606403 53.0338 20.817583 54.3984 18.714603 54.3984C16.049653 54.3984 13.889283 52.2071 13.889283 49.5039V45.62109C13.889283 42.91792 16.049653 40.72656 18.714603 40.72656C20.817583 40.72656 22.606403 42.09117 23.267203 43.99505 M35.507002 49.4569C35.507002 52.5223 33.636052 54.3403 31.328112 54.3403C29.020172 54.3403 27.149212 52.5223 27.149212 49.4569C27.149212 46.3915 29.020172 44.57349 31.328112 44.57349C33.636052 44.57349 35.507002 46.3915 35.507002 49.4569Z M39.69891 44.77967L39.69917 54.1279M46.53346 54.1279V48.0738C46.53346 47.3619 46.62919 44.79026 44.2461 44.58694C42.48806 44.43694 40.79902 45.56164 40.02268 46.9562 M54.27932 54.3258C52.86966 54.4655 52.01175 53.7322 52.01175 52.3869V42.08093M54.16166 44.642H52.39825M49.901558 44.642H51.63544 M64.837465 53.2181C63.863675 54.1548 62.838975 54.3386 61.653515 54.3386C59.584745 54.3386 57.721505 53.0276 57.721505 49.4561C57.721505 45.88449 59.530895 44.57349 61.599665 44.57349C63.668445 44.57349 65.271795 45.62966 65.271795 49.2012H58.052275 M74.283172 39.92761L73.035942 41.55454M69.292082 44.7666L69.292082 50.8207C69.292082 51.5325 69.197082 54.0958 71.579442 54.3075C73.669672 54.4933 74.943102 53.6528 75.645472 52.4701M76.126632 54.1148L76.126372 44.7666 M87.909766 54.1243V40.12329M87.550016 52.7727C86.688016 53.8707 85.589706 54.3402 84.280146 54.3402C82.098816 54.3402 80.447486 53.0292 80.447486 49.4576C80.447486 45.88607 82.204476 44.57507 84.385796 44.57507C85.655406 44.57507 86.864966 45.11426 87.550016 46.1748 M100.557005 49.4569C100.557005 52.5223 98.686055 54.3403 96.378115 54.3403C94.070175 54.3403 92.199215 52.5223 92.199215 49.4569C92.199215 46.3915 94.070175 44.57349 96.378115 44.57349C98.686055 44.57349 100.557005 46.3915 100.557005 49.4569Z"></path>
        </g>
      </g>
    </g>
    <g id="g-root-tx_newtexts_1lwsia61mkmvig-stroke" data-item-order="0" data-item-id="tx_newtexts_1lwsia61mkmvig" data-item-class="Label Stroke SceneTarget SceneEnd" data-item-index="none" data-renderer-id="0" transform="matrix(1, 0, 0, 1, 447, 147)">
      <g id="tx_newtexts_1lwsia61mkmvig-stroke" fill="none" stroke-linecap="square" stroke-linejoin="miter" stroke-miterlimit="4" stroke="#484848" stroke-width="1" transform="matrix(1, 0, 0, 1, 1, 26)">
        <g xmlns="http://www.w3.org/2000/svg" transform="translate(9, -16)">
          <path d="M4.72638 42.1161L4.72412 28.97986L5.2159 28.97949L13.7699 42.1168H14.2428V28.97949 M27.187 37.4569C27.187 40.5223 25.31605 42.3403 23.00811 42.3403C20.70017 42.3403 18.82921 40.5223 18.82921 37.4569C18.82921 34.3915 20.70017 32.57349 23.00811 32.57349C25.31605 32.57349 27.187 34.3915 27.187 37.4569Z M37.53276 32.69055L34.1633 42.119L33.96206 42.1189L30.55774 32.69055 M49.327002 37.4569C49.327002 40.5223 47.456052 42.3403 45.148112 42.3403C42.840172 42.3403 40.969212 40.5223 40.969212 37.4569C40.969212 34.3915 42.840172 32.57349 45.148112 32.57349C47.456052 32.57349 49.327002 34.3915 49.327002 37.4569Z M59.677829 34.3814C59.382099 33.4042 58.227789 32.58374 56.617699 32.58374C54.729979 32.58374 53.510309 33.44691 53.418659 34.7511C53.313619 36.2457 54.547729 36.8218 56.478229 37.3386C58.171839 37.7969 60.115249 38.2772 59.960959 40.1222C59.861589 41.3105 58.884819 42.3458 56.528099 42.3458C54.622169 42.3458 53.544789 41.5302 53.210429 40.4244 M79.123197 28.94531C75.860257 28.94531 72.597267 28.95044 69.334277 28.95044M74.219627 42.1241V29.45566 M89.52746 41.2181C88.55367 42.1548 87.52897 42.3386 86.34351 42.3386C84.27474 42.3386 82.4115 41.0276 82.4115 37.4561C82.4115 33.88449 84.22089 32.57349 86.28966 32.57349C88.35844 32.57349 89.96179 33.62966 89.96179 37.2012H82.74227 M93.728157 32.61108L96.718977 37.2428M99.991097 42.3101L96.893807 37.5135M99.879627 32.61108L93.616687 42.3101 M107.409318 42.3258C105.999658 42.4655 105.141748 41.7322 105.141748 40.3869V30.08093M107.291658 32.642H105.528248M103.031556 32.642H104.765438 M119.116995 37.4569C119.116995 40.5223 117.246045 42.3403 114.938105 42.3403C112.630165 42.3403 110.759205 40.5223 110.759205 37.4569C110.759205 34.3915 112.630165 32.57349 114.938105 32.57349C117.246045 32.57349 119.116995 34.3915 119.116995 37.4569Z M129.467823 34.3814C129.172093 33.4042 128.017783 32.58374 126.407693 32.58374C124.519973 32.58374 123.300303 33.44691 123.208653 34.7511C123.103613 36.2457 124.337723 36.8218 126.268223 37.3386C127.961833 37.7969 129.905243 38.2772 129.750953 40.1222C129.651583 41.3105 128.674813 42.3458 126.318093 42.3458C124.412163 42.3458 123.334783 41.5302 123.000423 40.4244 M133.97359 41.6191C133.97359 42.6947 133.83189 43.7754 133.06787 44.8825 M4.86511 52.93762V66.1269 M10.10969 56.81417L10.10996 66.1624M16.94424 66.1624L16.93337 59.4697C16.86892 58.5262 16.50199 57.07848 14.62777 56.64916C12.68808 56.20484 11.20828 57.24827 10.47187 58.5949M23.7793 66.1624V60.1083C23.7793 59.3964 23.8939 57.20604 21.4629 56.64916C19.4338 56.18437 17.8995 57.34748 17.19911 58.7827 M28.67763 58.2457C29.04199 57.28012 30.45834 56.56665 31.79836 56.56665C33.6516 56.56665 35.15395 57.8797 35.15395 59.4994L35.1597 60.957V63.5711C35.1597 64.614 35.13513 65.3527 35.4365 66.2784M34.78035 60.957H32.05238C29.54898 60.957 28.24873 62.3433 28.24873 63.8374C28.24873 65.3315 29.48684 66.3408 31.10251 66.3408C33.08474 66.3408 34.71058 64.8882 35.11115 63.7324 M46.999161 56.65246V66.6545C46.999161 71.3512 41.705741 71.0007 40.270851 69.4703M46.665481 64.5732C45.985341 65.6608 44.761071 66.2139 43.475191 66.2139C41.293871 66.2139 39.536881 64.9029 39.536881 61.3313C39.536881 57.75974 41.188211 56.44873 43.369541 56.44873C44.637571 56.44873 45.942611 57.1294 46.665481 58.5024 M58.407461 65.2181C57.433671 66.1548 56.408971 66.3386 55.223511 66.3386C53.154741 66.3386 51.291501 65.0276 51.291501 61.4561C51.291501 57.88449 53.100891 56.57349 55.169661 56.57349C57.238441 56.57349 58.841791 57.62966 58.841791 61.2012H51.622271 M62.888912 56.77967L62.889172 66.1279M69.723462 66.1279V60.0738C69.723462 59.3619 69.819192 56.79026 67.436102 56.58694C65.678062 56.43694 63.989022 57.56164 63.212682 58.9562 M80.657833 58.3814C80.362103 57.4042 79.207793 56.58374 77.597703 56.58374C75.709983 56.58374 74.490313 57.44691 74.398663 58.7511C74.293623 60.2457 75.527733 60.8218 77.458233 61.3386C79.151843 61.7969 81.095253 62.2772 80.940963 64.1222C80.841593 65.3105 79.864823 66.3458 77.508103 66.3458C75.602173 66.3458 74.524793 65.5302 74.190433 64.4244 M85.1636 65.6191C85.1636 66.6947 85.0219 67.7754 84.25788 68.8825 M104.697198 63.1299C104.036398 65.0338 102.247578 66.3984 100.144598 66.3984C97.479648 66.3984 95.319278 64.2071 95.319278 61.5039V57.62109C95.319278 54.91792 97.479648 52.72656 100.144598 52.72656C102.247578 52.72656 104.036398 54.09117 104.697198 55.99505 M114.188625 51.92761L112.941395 53.55454M116.937895 61.4672C116.937895 64.5326 115.066895 66.3506 112.758955 66.3506C110.451015 66.3506 108.580065 64.5326 108.580065 61.4672C108.580065 58.4018 110.451015 56.58374 112.758955 56.58374C115.066895 56.58374 116.937895 58.4018 116.937895 61.4672Z M128.11975 66.1243V52.12329M127.76 64.7727C126.898 65.8707 125.79969 66.3402 124.49013 66.3402C122.3088 66.3402 120.65747 65.0292 120.65747 61.4576C120.65747 57.88607 122.41446 56.57507 124.59578 56.57507C125.86539 56.57507 127.07495 57.11426 127.76 58.1748 M133.148436 52.97076H133.172366M133.132206 56.80402V66.1446 M145.069153 56.65246V66.6545C145.069153 71.3512 139.775733 71.0007 138.340843 69.4703M144.735473 64.5732C144.055333 65.6608 142.831063 66.2139 141.545183 66.2139C139.363863 66.2139 137.606873 64.9029 137.606873 61.3313C137.606873 57.75974 139.258203 56.44873 141.439533 56.44873C142.707563 56.44873 144.012603 57.1294 144.735473 58.5024 M157.626997 61.4569C157.626997 64.5223 155.756047 66.3403 153.448107 66.3403C151.140167 66.3403 149.269207 64.5223 149.269207 61.4569C149.269207 58.3915 151.140167 56.57349 153.448107 56.57349C155.756047 56.57349 157.626997 58.3915 157.626997 61.4569Z M167.977832 58.3814C167.682102 57.4042 166.527792 56.58374 164.917702 56.58374C163.029982 56.58374 161.810312 57.44691 161.718662 58.7511C161.613622 60.2457 162.847732 60.8218 164.778232 61.3386C166.471842 61.7969 168.415252 62.2772 168.260962 64.1222C168.161592 65.3105 167.184822 66.3458 164.828102 66.3458C162.922172 66.3458 161.844792 65.5302 161.510432 64.4244 M172.4836 65.6191C172.4836 66.6947 172.3419 67.7754 171.57788 68.8825 M13.7021 76.92993L8.96442 90.1025L8.40332 90.1025L3.67993 76.92993 M19.49863 75.92761L18.2514 77.55454M17.9181 80.78027V90.1209 M29.95976 90.1243V76.12329M29.60001 88.7727C28.73801 89.8707 27.6397 90.3402 26.33014 90.3402C24.14881 90.3402 22.49748 89.0292 22.49748 85.4576C22.49748 81.88607 24.25447 80.57507 26.43579 80.57507C27.7054 80.57507 28.91496 81.11426 29.60001 82.1748 M41.45746 89.2181C40.48367 90.1548 39.45897 90.3386 38.27351 90.3386C36.20474 90.3386 34.3415 89.0276 34.3415 85.4561C34.3415 81.88449 36.15089 80.57349 38.21966 80.57349C40.28844 80.57349 41.89179 81.62966 41.89179 85.2012H34.67227 M53.737001 85.4569C53.737001 88.5223 51.866051 90.3403 49.558111 90.3403C47.250171 90.3403 45.379211 88.5223 45.379211 85.4569C45.379211 82.3915 47.250171 80.57349 49.558111 80.57349C51.866051 80.57349 53.737001 82.3915 53.737001 85.4569Z M64.087833 82.3814C63.792103 81.4042 62.637793 80.58374 61.027703 80.58374C59.139983 80.58374 57.920313 81.44691 57.828663 82.7511C57.723623 84.2457 58.957733 84.8218 60.888233 85.3386C62.581843 85.7969 64.525253 86.2772 64.370963 88.1222C64.271593 89.3105 63.294823 90.3458 60.938103 90.3458C59.032173 90.3458 57.954793 89.5302 57.620433 88.4244 M68.593601 89.6191C68.593601 90.6947 68.451901 91.7754 67.687881 92.8825 M78.113538 90.1453L83.062208 76.97268L83.650078 76.97266L88.613698 90.1453M79.930958 86.2942H86.789598 M99.396629 90.1148L99.396369 80.7666M92.562079 80.7666L92.562079 86.8207C92.562079 87.5325 92.467079 90.0958 94.849439 90.3075C96.939669 90.4933 98.213099 89.6528 98.915469 88.4701 M111.19976 90.1243V76.12329M110.84001 88.7727C109.97801 89.8707 108.8797 90.3402 107.57014 90.3402C105.38881 90.3402 103.73748 89.0292 103.73748 85.4576C103.73748 81.88607 105.49447 80.57507 107.67579 80.57507C108.9454 80.57507 110.15496 81.11426 110.84001 82.1748 M116.228438 76.97076H116.252368M116.212208 80.80402V90.1446 M128.936995 85.4569C128.936995 88.5223 127.066045 90.3403 124.758105 90.3403C122.450165 90.3403 120.579205 88.5223 120.579205 85.4569C120.579205 82.3915 122.450165 80.57349 124.758105 80.57349C127.066045 80.57349 128.936995 82.3915 128.936995 85.4569Z M139.28783 82.3814C138.9921 81.4042 137.83779 80.58374 136.2277 80.58374C134.33998 80.58374 133.12031 81.44691 133.02866 82.7511C132.92362 84.2457 134.15773 84.8218 136.08823 85.3386C137.78184 85.7969 139.72525 86.2772 139.57096 88.1222C139.47159 89.3105 138.49482 90.3458 136.1381 90.3458C134.23217 90.3458 133.15479 89.5302 132.82043 88.4244 M144.204648 89.9874H144.228578 M149.744641 89.9874H149.768571 M155.284634 89.9874H155.308564"></path>
        </g>
      </g>
    </g>
    <g id="g-root-tx_largevol_hz1g9a1mkmx3g-stroke" data-item-order="0" data-item-id="tx_largevol_hz1g9a1mkmx3g" data-item-class="Label Stroke SceneTarget SceneStart" data-item-index="none" data-renderer-id="0" transform="matrix(1, 0, 0, 1, -9, 171)">
      <g id="tx_largevol_hz1g9a1mkmx3g-stroke" fill="none" stroke-linecap="square" stroke-linejoin="miter" stroke-miterlimit="4" stroke="#484848" stroke-width="1" transform="matrix(1, 0, 0, 1, 10.762908935546875, 14)">
        <g xmlns="http://www.w3.org/2000/svg" transform="translate(-1, -4)">
          <path d="M19.774098 24.3702L23.347598 24.3361L23.336798 28.8469C22.130098 30.0193 20.983158 30.3984 18.665618 30.3984C16.000668 30.3984 13.840298 28.2071 13.840298 25.5039V21.62109C13.840298 18.91792 16.000668 16.72656 18.665618 16.72656C20.673418 16.72656 22.394798 17.97044 23.121698 19.73992 M31.8519 20.60908C30.47148 20.41894 29.22309 21.31927 28.58111 22.6193M28.22648 20.77269V30.1226 M35.474727 22.2457C35.839087 21.28012 37.255437 20.56665 38.595457 20.56665C40.448697 20.56665 41.951047 21.8797 41.951047 23.4994L41.956797 24.957V27.5711C41.956797 28.614 41.932227 29.3527 42.233597 30.2784M41.577447 24.957H38.849477C36.346077 24.957 35.045827 26.3433 35.045827 27.8374C35.045827 29.3315 36.283937 30.3408 37.899607 30.3408C39.881837 30.3408 41.507677 28.8882 41.908247 27.7324 M46.786007 20.77967L46.786267 30.1279M53.620557 30.1279V24.0738C53.620557 23.3619 53.716287 20.79026 51.333197 20.58694C49.575157 20.43694 47.886117 21.56164 47.109777 22.9562 M65.396857 30.1243V16.12329M65.037107 28.7727C64.175107 29.8707 63.076797 30.3402 61.767237 30.3402C59.585907 30.3402 57.934577 29.0292 57.934577 25.4576C57.934577 21.88607 59.691567 20.57507 61.872887 20.57507C63.142497 20.57507 64.352057 21.11426 65.037107 22.1748 M76.894556 29.2181C75.920766 30.1548 74.896066 30.3386 73.710606 30.3386C71.641836 30.3386 69.778596 29.0276 69.778596 25.4561C69.778596 21.88449 71.587986 20.57349 73.656756 20.57349C75.725536 20.57349 77.328886 21.62966 77.328886 25.2012H70.109366 M87.534923 22.3814C87.239193 21.4042 86.084883 20.58374 84.474793 20.58374C82.587073 20.58374 81.367403 21.44691 81.275753 22.7511C81.170713 24.2457 82.404823 24.8218 84.335323 25.3386C86.028933 25.7969 87.972343 26.2772 87.818053 28.1222C87.718683 29.3105 86.741913 30.3458 84.385193 30.3458C82.479263 30.3458 81.401883 29.5302 81.067523 28.4244 M107.509191 16.92993L102.771511 30.1025L102.210411 30.1025L97.487021 16.92993 M119.354094 25.4569C119.354094 28.5223 117.483144 30.3403 115.175204 30.3403C112.867264 30.3403 110.996304 28.5223 110.996304 25.4569C110.996304 22.3915 112.867264 20.57349 115.175204 20.57349C117.483144 20.57349 119.354094 22.3915 119.354094 25.4569Z M123.682711 16.125V30.1264 M135.403724 30.1148L135.403464 20.7666M128.569174 20.7666L128.569174 26.8207C128.569174 27.5325 128.474174 30.0958 130.856534 30.3075C132.946764 30.4933 134.220194 29.6528 134.922564 28.4701 M140.226777 20.81417L140.227047 30.1624M147.061327 30.1624L147.050457 23.4697C146.986007 22.5262 146.619077 21.07848 144.744857 20.64916C142.805167 20.20484 141.325367 21.24827 140.588957 22.5949M153.896387 30.1624V24.1083C153.896387 23.3964 154.010987 21.20604 151.579987 20.64916C149.550887 20.18437 148.016587 21.34748 147.316197 22.7827 M165.324549 29.2181C164.350759 30.1548 163.326059 30.3386 162.140599 30.3386C160.071829 30.3386 158.208589 29.0276 158.208589 25.4561C158.208589 21.88449 160.017979 20.57349 162.086749 20.57349C164.155529 20.57349 165.758879 21.62966 165.758879 25.2012H158.539359 M175.964924 22.3814C175.669194 21.4042 174.514884 20.58374 172.904794 20.58374C171.017074 20.58374 169.797404 21.44691 169.705754 22.7511C169.600714 24.2457 170.834824 24.8218 172.765324 25.3386C174.458934 25.7969 176.402344 26.2772 176.248054 28.1222C176.148684 29.3105 175.171914 30.3458 172.815194 30.3458C170.909264 30.3458 169.831884 29.5302 169.497524 28.4244 M98.776855 54.1243V40.12329M98.417105 52.7727C97.555105 53.8707 96.456795 54.3402 95.147235 54.3402C92.965905 54.3402 91.314575 53.0292 91.314575 49.4576C91.314575 45.88607 93.071565 44.57507 95.252885 44.57507C96.522495 44.57507 97.732055 45.11426 98.417105 46.1748 M110.274553 53.2181C109.300763 54.1548 108.276063 54.3386 107.090603 54.3386C105.021833 54.3386 103.158593 53.0276 103.158593 49.4561C103.158593 45.88449 104.967983 44.57349 107.036753 44.57349C109.105533 44.57349 110.708883 45.62966 110.708883 49.2012H103.489363 M125.11391 54.1804L121.10463 54.1827V40.94829C122.05255 40.94829 123.33109 40.94607 124.73109 40.94607C126.18373 40.90961 129.96399 42.17329 129.96399 47.5108C129.96399 52.8483 126.43894 54.1804 125.11391 54.1804Z M134.654719 46.2457C135.019079 45.28012 136.435429 44.56665 137.775449 44.56665C139.628689 44.56665 141.131039 45.8797 141.131039 47.4994L141.136789 48.957V51.5711C141.136789 52.614 141.112219 53.3527 141.413589 54.2784M140.757439 48.957H138.029469C135.526069 48.957 134.225819 50.3433 134.225819 51.8374C134.225819 53.3315 135.463929 54.3408 137.079599 54.3408C139.061829 54.3408 140.687669 52.8882 141.088239 51.7324 M152.966857 54.1243V40.12329M152.607107 52.7727C151.745107 53.8707 150.646797 54.3402 149.337237 54.3402C147.155907 54.3402 145.504577 53.0292 145.504577 49.4576C145.504577 45.88607 147.261567 44.57507 149.442887 44.57507C150.712497 44.57507 151.922057 45.11426 152.607107 46.1748 M165.614103 49.4569C165.614103 52.5223 163.743153 54.3403 161.435213 54.3403C159.127273 54.3403 157.256313 52.5223 157.256313 49.4569C157.256313 46.3915 159.127273 44.57349 161.435213 44.57349C163.743153 44.57349 165.614103 46.3915 165.614103 49.4569Z M175.964924 46.3814C175.669194 45.4042 174.514884 44.58374 172.904794 44.58374C171.017074 44.58374 169.797404 45.44691 169.705754 46.7511C169.600714 48.2457 170.834824 48.8218 172.765324 49.3386C174.458934 49.7969 176.402344 50.2772 176.248054 52.1222C176.148684 53.3105 175.171914 54.3458 172.815194 54.3458C170.909264 54.3458 169.831884 53.5302 169.497524 52.4244"></path>
        </g>
      </g>
    </g>
    <g id="g-root-boxe_m7dci61mk8umj-stroke" data-item-order="0" data-item-id="boxe_m7dci61mk8umj" data-item-class="Icon Stroke SceneTarget Indexed Indexed_1 InsideFill InsideColorFill" data-item-index="1" data-renderer-id="0" transform="matrix(1, 0, 0, 1, 231, 183)">
      <g id="boxe_m7dci61mk8umj-stroke" fill="none" stroke-linecap="round" stroke-linejoin="round" stroke-miterlimit="1.5" stroke="#17b0e3" stroke-width="1" transform="matrix(2, 0, 0, 2, -10, -14)">
        <g xmlns="http://www.w3.org/2000/svg" transform="translate(10, 12)">
          <path d="M10.251 3.000 A2.500 2.500 0 1 0 15.251 3.000 A2.500 2.500 0 1 0 10.251 3.000 ZM15.75,10.5v-3h2.663a2.837,2.837,0,0,1,2.837,2.837,2.163,2.163,0,0,1-4.1.967l-.4-.8ZM16.75 10.5L18.75 10.5M15.75,7.5h-6a1.5,1.5,0,0,0-1.382.916l-5.5,13a1.5,1.5,0,0,0,2.764,1.168L7.61,17.909l2.154.784A1.5,1.5,0,0,1,10.75,20.1V22a1.5,1.5,0,0,0,3,0V20.1a4.511,4.511,0,0,0-2.962-4.229L8.78,15.142,10.744,10.5H15.75"></path>
        </g>
      </g>
    </g>
    <g id="g-root-patt_1um6utq1mk8ufi-stroke" data-item-order="0" data-item-id="patt_1um6utq1mk8ufi" data-item-class="Icon Stroke SceneTarget Indexed InsideFill InsideColorFill" data-item-index="2" data-renderer-id="0" transform="matrix(1, 0, 0, 1, 303, 183)">
      <g id="patt_1um6utq1mk8ufi-stroke" fill="none" stroke-linecap="round" stroke-linejoin="round" stroke-miterlimit="1.5" stroke="#3bc482" stroke-width="1" transform="matrix(2, 0, 0, 2, -12, -14)">
        <g xmlns="http://www.w3.org/2000/svg" transform="translate(11, 12)">
          <path d="M22.5 21.75a1.5 1.5 0 0 1-1.5 1.5H3a1.5 1.5 0 0 1-1.5-1.5V2.25A1.5 1.5 0 0 1 3 .75h15a1.5 1.5 0 0 1 1.045.426l3 2.883a1.5 1.5 0 0 1 .455 1.073ZM8.267 10.506v7.866a.467.467 0 0 0 .466.467h6.534a.467.467 0 0 0 .466-.467v-7.866M15.733 13.306h2.334a.467.467 0 0 0 .466-.467V9.572A3.733 3.733 0 0 0 14.8 5.839h-.933a1.867 1.867 0 0 1-3.734 0H9.2a3.733 3.733 0 0 0-3.733 3.733v3.267a.467.467 0 0 0 .466.467h2.334m0-1.806h7.466m-7.466 3h7.466"></path>
        </g>
      </g>
    </g>
    <g id="g-root-edit_zituvi1mk8t1m-stroke" data-item-order="0" data-item-id="edit_zituvi1mk8t1m" data-item-class="Icon Stroke SceneTarget Indexed InsideFill InsideColorFill" data-item-index="3" data-renderer-id="0" transform="matrix(1, 0, 0, 1, 375, 183)">
      <g id="edit_zituvi1mk8t1m-stroke" fill="none" stroke-linecap="round" stroke-linejoin="round" stroke-miterlimit="1.5" stroke="#93c131" stroke-width="1" transform="matrix(2, 0, 0, 2, -14, -14)">
        <g xmlns="http://www.w3.org/2000/svg" transform="translate(12, 12)">
          <path d="M11 18.5H1.5a1 1 0 0 1-1-1v-16a1 1 0 0 1 1-1h15a1 1 0 0 1 1 1v10m-1.8 10.8-4.2 1.2 1.2-4.2 7.179-7.179a2.121 2.121 0 0 1 3 3zm3.279-9.279 3 3M12.7 19.3l3 3M6 4.5h7m-9 3h9m-9 3h9m-9 3h6.5"></path>
        </g>
      </g>
    </g>
    <g id="g-root-tx_patternl_vahymm1mkmvii-stroke" data-item-order="0" data-item-id="tx_patternl_vahymm1mkmvii" data-item-class="Label Stroke SceneTarget Indexed" data-item-index="2" data-renderer-id="0" transform="matrix(1, 0, 0, 1, 237, 339)">
      <g id="tx_patternl_vahymm1mkmvii-stroke" fill="none" stroke-linecap="square" stroke-linejoin="miter" stroke-miterlimit="4" stroke="#484848" stroke-width="1" transform="matrix(1, 0, 0, 1, 18, 14)">
        <g xmlns="http://www.w3.org/2000/svg" transform="translate(-5, -4)">
          <path d="M17.648538 30.1453L22.597208 16.97268L23.185078 16.97266L28.148698 30.1453M19.465958 26.2942H26.324598 M32.117919 20.77398V34.3934M32.483799 22.1239C33.366809 21.02711 34.548109 20.55811 35.857009 20.55811C38.038339 20.55811 39.616989 21.90408 39.616989 25.4756C39.616989 29.0472 37.932689 30.3232 35.751359 30.3232C34.480139 30.3232 33.194339 29.7827 32.483799 28.7195 M47.499799 20.60908C46.119379 20.41894 44.870989 21.31927 44.229009 22.6193M43.874379 20.77269V30.1226 M57.65246 29.2181C56.67867 30.1548 55.65397 30.3386 54.46851 30.3386C52.39974 30.3386 50.5365 29.0276 50.5365 25.4561C50.5365 21.88449 52.34589 20.57349 54.41466 20.57349C56.48344 20.57349 58.08679 21.62966 58.08679 25.2012H50.86727 M62.133911 20.77967L62.134171 30.1279M68.968461 30.1279V24.0738C68.968461 23.3619 69.064191 20.79026 66.681101 20.58694C64.923061 20.43694 63.234021 21.56164 62.457681 22.9562 M80.744765 30.1243V16.12329M80.385015 28.7727C79.523015 29.8707 78.424705 30.3402 77.115145 30.3402C74.933815 30.3402 73.282485 29.0292 73.282485 25.4576C73.282485 21.88607 75.039475 20.57507 77.220795 20.57507C78.490405 20.57507 79.699965 21.11426 80.385015 22.1748 M85.773436 16.97076H85.797366M85.757206 20.80402V30.1446 M90.163943 20.78027H96.841133V20.93551L90.078923 29.9042V30.1284L97.134003 30.1283 M101.202632 22.2457C101.566992 21.28012 102.983342 20.56665 104.323362 20.56665C106.176602 20.56665 107.678952 21.8797 107.678952 23.4994L107.684702 24.957V27.5711C107.684702 28.614 107.660132 29.3527 107.961502 30.2784M107.305352 24.957H104.577382C102.073982 24.957 100.773732 26.3433 100.773732 27.8374C100.773732 29.3315 102.011842 30.3408 103.627512 30.3408C105.609742 30.3408 107.235582 28.8882 107.636152 27.7324 M119.514755 30.1243V16.12329M119.155005 28.7727C118.293005 29.8707 117.194695 30.3402 115.885135 30.3402C113.703805 30.3402 112.052475 29.0292 112.052475 25.4576C112.052475 21.88607 113.809465 20.57507 115.990785 20.57507C117.260395 20.57507 118.469955 21.11426 119.155005 22.1748 M132.162001 25.4569C132.162001 28.5223 130.291051 30.3403 127.983111 30.3403C125.675171 30.3403 123.804211 28.5223 123.804211 25.4569C123.804211 22.3915 125.675171 20.57349 127.983111 20.57349C130.291051 20.57349 132.162001 22.3915 132.162001 25.4569Z M31.114761 54.1243V40.12329M30.755011 52.7727C29.893011 53.8707 28.794701 54.3402 27.485141 54.3402C25.303811 54.3402 23.652481 53.0292 23.652481 49.4576C23.652481 45.88607 25.409471 44.57507 27.590791 44.57507C28.860401 44.57507 30.069961 45.11426 30.755011 46.1748 M42.612459 53.2181C41.638669 54.1548 40.613969 54.3386 39.428509 54.3386C37.359739 54.3386 35.496499 53.0276 35.496499 49.4561C35.496499 45.88449 37.305889 44.57349 39.374659 44.57349C41.443439 44.57349 43.046789 45.62966 43.046789 49.2012H35.827269 M53.45621 54.1308V40.94395L58.73462 40.92822C59.83345 40.96678 62.218 41.74944 62.218 44.57165C62.218 47.3939 59.83345 48.2536 58.73462 48.3307L53.98409 48.3449 M66.452632 46.2457C66.816992 45.28012 68.233342 44.56665 69.573362 44.56665C71.426602 44.56665 72.928952 45.8797 72.928952 47.4994L72.934702 48.957V51.5711C72.934702 52.614 72.910132 53.3527 73.211502 54.2784M72.555352 48.957H69.827382C67.323982 48.957 66.023732 50.3433 66.023732 51.8374C66.023732 53.3315 67.261842 54.3408 68.877512 54.3408C70.859742 54.3408 72.485582 52.8882 72.886152 51.7324 M84.764762 54.1243V40.12329M84.405012 52.7727C83.543012 53.8707 82.444702 54.3402 81.135142 54.3402C78.953812 54.3402 77.302482 53.0292 77.302482 49.4576C77.302482 45.88607 79.059472 44.57507 81.240792 44.57507C82.510402 44.57507 83.719962 45.11426 84.405012 46.1748 M93.219801 44.60908C91.839381 44.41894 90.590991 45.31927 89.949011 46.6193M89.594381 44.77269V54.1226 M97.374171 41.35889C97.559671 40.89499 98.161231 40.37024 98.881281 40.37024C99.861751 40.37024 100.421661 41.35889 101.493601 41.35889C102.799761 41.35889 103.139831 40.37119 103.139831 40.37119M104.506601 49.4552C104.506601 52.5206 102.635671 54.3386 100.327731 54.3386C98.019791 54.3386 96.148831 52.5206 96.148831 49.4552C96.148831 46.3898 98.019791 44.57178 100.327731 44.57178C102.635671 44.57178 104.506601 46.3898 104.506601 49.4552Z M115.352457 53.2181C114.378667 54.1548 113.353967 54.3386 112.168507 54.3386C110.099737 54.3386 108.236497 53.0276 108.236497 49.4561C108.236497 45.88449 110.045887 44.57349 112.114657 44.57349C114.183437 44.57349 115.786787 45.62966 115.786787 49.2012H108.567267 M125.992824 46.3814C125.697094 45.4042 124.542784 44.58374 122.932694 44.58374C121.044974 44.58374 119.825304 45.44691 119.733654 46.7511C119.628614 48.2457 120.862724 48.8218 122.793224 49.3386C124.486834 49.7969 126.430244 50.2772 126.275954 52.1222C126.176584 53.3105 125.199814 54.3458 122.843094 54.3458C120.937164 54.3458 119.859784 53.5302 119.525424 52.4244"></path>
        </g>
      </g>
    </g>
  </g>
</svg>