<svg width="758" height="410" viewBox="0 0 758 410" style="fill:none;stroke:none;fill-rule:evenodd;clip-rule:evenodd;stroke-linecap:round;stroke-linejoin:round;stroke-miterlimit:1.5;" version="1.1"
  xmlns="http://www.w3.org/2000/svg"
  xmlns:xlink="http://www.w3.org/1999/xlink">
  <g id="blend" style="mix-blend-mode:multiply">
    <g id="g-root--1.cu_sy_1lyn53y1nyjhfl-fill" data-item-order="-102878" data-item-id="-1.cu_sy_1lyn53y1nyjhfl" data-item-class="ScenePart Fill Stroke ColorFillGray ColorStrokeGray" data-item-index="-1" data-renderer-id="0" transform="matrix(1, 0, 0, 1, 363, 3)">
      <g id="-1.cu_sy_1lyn53y1nyjhfl-fill" stroke="none" fill="none" transform="matrix(1, 0, 0, 1, -2, -2)">
        <g xmlns="http://www.w3.org/2000/svg" transform="translate(-300, -84)">
          <path d="M 367.767 480C 382.755 480 408 394.039 408 288C 408 181.961 382.755 96 367.767 96C 382.775 96.01 394.942 182.222 394.942 288C 394.942 393.778 382.775 479.99 367.767 480ZM 367.766 480C 382.775 479.99 394.941 393.778 394.941 288C 394.941 182.222 382.775 96.01 367.766 96L 353.957 96C 368.061 102.888 379.199 186.472 379.199 288C 379.199 389.528 367.383 473.112 353.279 480L 367.766 480ZM 379.2 288C 379.2 389.528 367.383 473.112 353.28 480L 352.061 480C 337.073 480 312 394.039 312 288C 312 181.961 337.073 96 352.061 96C 352.699 96 353.958 96 353.958 96C 368.061 102.888 379.2 186.472 379.2 288Z"></path>
        </g>
      </g>
    </g>
    <g id="g-root-5.cu_sy_hriyse1nykufa-fill" data-item-order="-102875" data-item-id="5.cu_sy_hriyse1nykufa" data-item-class="ScenePart Indexed Stroke" data-item-index="5" data-renderer-id="0" transform="matrix(1, 0, 0, 1, 279, 236.446044921875)"></g>
    <g id="g-root-4.cu_sy_m7cgwu1nyktn1-fill" data-item-order="-102873" data-item-id="4.cu_sy_m7cgwu1nyktn1" data-item-class="ScenePart Indexed Stroke" data-item-index="4" data-renderer-id="0" transform="matrix(1, 0, 0, 1, 279, 216.197021484375)"></g>
    <g id="g-root-3.cu_sy_vcclge1nyjhfo-fill" data-item-order="-102871" data-item-id="3.cu_sy_vcclge1nyjhfo" data-item-class="ScenePart Indexed Stroke" data-item-index="3" data-renderer-id="0" transform="matrix(1, 0, 0, 1, 279.1090087890625, 188.999755859375)"></g>
    <g id="g-root-2.cu_sy_18nt3tq1nyjfur-fill" data-item-order="-102869" data-item-id="2.cu_sy_18nt3tq1nyjfur" data-item-class="ScenePart Indexed Stroke" data-item-index="2" data-renderer-id="0" transform="matrix(1, 0, 0, 1, 279, 110.999755859375)"></g>
    <g id="g-root-1.cu_sy_1d3mly61nyjf2i-fill" data-item-order="-102867" data-item-id="1.cu_sy_1d3mly61nyjf2i" data-item-class="ScenePart Indexed Indexed_1 Stroke" data-item-index="1" data-renderer-id="0" transform="matrix(1, 0, 0, 1, 279, 27)"></g>
    <g id="g-root-tx_increase_detu3i1nykvm4-fill" data-item-order="0" data-item-id="tx_increase_detu3i1nykvm4" data-item-class="Label Stroke SceneTarget Indexed Indexed_1 ColorStrokeBlack" data-item-index="1" data-renderer-id="0" transform="matrix(1, 0, 0, 1, 39, -9)"></g>
    <g id="g-root-face_1qdu9b21nym8sj-fill" data-item-order="0" data-item-id="face_1qdu9b21nym8sj" data-item-class="Icon Stroke SceneTarget Indexed Indexed_1" data-item-index="1" data-renderer-id="0" transform="matrix(1, 0, 0, 1, 219, 3)"></g>
    <g id="g-root-tx_costredu_zlavmm1nykweb-fill" data-item-order="0" data-item-id="tx_costredu_zlavmm1nykweb" data-item-class="Label Stroke SceneTarget Indexed ColorStrokeBlack" data-item-index="2" data-renderer-id="0" transform="matrix(1, 0, 0, 1, 15, 99)"></g>
    <g id="g-root-coin_1utnrfi1nym80a-fill" data-item-order="0" data-item-id="coin_1utnrfi1nym80a" data-item-class="Icon Stroke SceneTarget Indexed" data-item-index="2" data-renderer-id="0" transform="matrix(1, 0, 0, 1, 219, 87)"></g>
    <g id="g-root-tx_improved_4hxvoe1nykv0i-fill" data-item-order="0" data-item-id="tx_improved_4hxvoe1nykv0i" data-item-class="Label Stroke SceneTarget Indexed ColorStrokeBlack" data-item-index="3" data-renderer-id="0" transform="matrix(1, 0, 0, 1, -9, 159)"></g>
    <g id="g-root-1_hz0qzi1nym8zl-fill" data-item-order="0" data-item-id="1_hz0qzi1nym8zl" data-item-class="Icon Stroke SceneTarget Indexed" data-item-index="3" data-renderer-id="0" transform="matrix(1, 0, 0, 1, 219, 171)"></g>
    <g id="g-root-grap_hx5bq61nym9za-fill" data-item-order="0" data-item-id="grap_hx5bq61nym9za" data-item-class="Icon Stroke SceneTarget SceneEnd" data-item-index="none" data-renderer-id="0" transform="matrix(1, 0, 0, 1, 543, 171)"></g>
    <g id="g-root-tx_enhanced_8vvyji1nykv7z-fill" data-item-order="0" data-item-id="tx_enhanced_8vvyji1nykv7z" data-item-class="Label Stroke SceneTarget SceneEnd ColorStrokeBlack" data-item-index="none" data-renderer-id="0" transform="matrix(1, 0, 0, 1, 603, 159)"></g>
    <g id="g-root-tx_personal_m8lf321nykvt5-fill" data-item-order="0" data-item-id="tx_personal_m8lf321nykvt5" data-item-class="Label Stroke SceneTarget Indexed ColorStrokeBlack" data-item-index="4" data-renderer-id="0" transform="matrix(1, 0, 0, 1, 51, 255)"></g>
    <g id="g-root-pick_v9us9q1nymakg-fill" data-item-order="0" data-item-id="pick_v9us9q1nymakg" data-item-class="Icon Stroke SceneTarget Indexed" data-item-index="4" data-renderer-id="0" transform="matrix(1, 0, 0, 1, 219, 255)"></g>
    <g id="g-root-tx_increase_1cuvyqm1nykvt4-fill" data-item-order="0" data-item-id="tx_increase_1cuvyqm1nykvt4" data-item-class="Label Stroke SceneTarget Indexed ColorStrokeBlack" data-item-index="5" data-renderer-id="0" transform="matrix(1, 0, 0, 1, 39, 327)"></g>
    <g id="g-root-bulb_145hsim1nym8zz-fill" data-item-order="0" data-item-id="bulb_145hsim1nym8zz" data-item-class="Icon Stroke SceneTarget Indexed" data-item-index="5" data-renderer-id="0" transform="matrix(1, 0, 0, 1, 219, 339)"></g>
    <g id="g-root--1.cu_sy_1lyn53y1nyjhfl-stroke" data-item-order="-102878" data-item-id="-1.cu_sy_1lyn53y1nyjhfl" data-item-class="ScenePart Fill Stroke ColorFillGray ColorStrokeGray" data-item-index="-1" data-renderer-id="0" transform="matrix(1, 0, 0, 1, 363, 3)">
      <g id="-1.cu_sy_1lyn53y1nyjhfl-stroke" fill="none" stroke-linecap="round" stroke-linejoin="round" stroke-miterlimit="1.5" stroke="#bbbbbb" stroke-width="2" transform="matrix(1, 0, 0, 1, -2, -2)">
        <g xmlns="http://www.w3.org/2000/svg" transform="translate(-300, -84)">
          <path d="M 367.767 480C 382.755 480 408 394.039 408 288C 408 181.961 382.755 96 367.767 96C 382.775 96.01 394.942 182.222 394.942 288C 394.942 393.778 382.775 479.99 367.767 480ZM 367.766 480C 382.775 479.99 394.941 393.778 394.941 288C 394.941 182.222 382.775 96.01 367.766 96L 353.957 96C 368.061 102.888 379.199 186.472 379.199 288C 379.199 389.528 367.383 473.112 353.279 480L 367.766 480ZM 379.2 288C 379.2 389.528 367.383 473.112 353.28 480L 352.061 480C 337.073 480 312 394.039 312 288C 312 181.961 337.073 96 352.061 96C 352.699 96 353.958 96 353.958 96C 368.061 102.888 379.2 186.472 379.2 288Z"></path>
        </g>
      </g>
    </g>
    <g id="g-root-5.cu_sy_hriyse1nykufa-stroke" data-item-order="-102875" data-item-id="5.cu_sy_hriyse1nykufa" data-item-class="ScenePart Indexed Stroke" data-item-index="5" data-renderer-id="0" transform="matrix(1, 0, 0, 1, 279, 236.446044921875)">
      <g id="5.cu_sy_hriyse1nykufa-stroke" fill="none" stroke-linecap="round" stroke-linejoin="round" stroke-miterlimit="1.5" stroke="#dd8433" stroke-width="2" transform="matrix(1, 0, 0, 1, -2, -2.446014404296875)">
        <g xmlns="http://www.w3.org/2000/svg" transform="translate(-216, -317)">
          <path d="M 492 330L 348 456L 228 456M 483.521 329.446L 491.969 329.987L 491.428 338.434"></path>
        </g>
      </g>
    </g>
    <g id="g-root-4.cu_sy_m7cgwu1nyktn1-stroke" data-item-order="-102873" data-item-id="4.cu_sy_m7cgwu1nyktn1" data-item-class="ScenePart Indexed Stroke" data-item-index="4" data-renderer-id="0" transform="matrix(1, 0, 0, 1, 279, 216.197021484375)">
      <g id="4.cu_sy_m7cgwu1nyktn1-stroke" fill="none" stroke-linecap="round" stroke-linejoin="round" stroke-miterlimit="1.5" stroke="#e3cd09" stroke-width="2" transform="matrix(1, 0, 0, 1, -2, -2.196990966796875)">
        <g xmlns="http://www.w3.org/2000/svg" transform="translate(-216, -297)">
          <path d="M 474 312L 348 372L 228 372M 466.03 309.197L 474.017 311.999L 471.216 319.986"></path>
        </g>
      </g>
    </g>
    <g id="g-root-3.cu_sy_vcclge1nyjhfo-stroke" data-item-order="-102871" data-item-id="3.cu_sy_vcclge1nyjhfo" data-item-class="ScenePart Indexed Stroke" data-item-index="3" data-renderer-id="0" transform="matrix(1, 0, 0, 1, 279.1090087890625, 188.999755859375)">
      <g id="3.cu_sy_vcclge1nyjhfo-stroke" fill="none" stroke-linecap="round" stroke-linejoin="round" stroke-miterlimit="1.5" stroke="#93c131" stroke-width="2" transform="matrix(1, 0, 0, 1, -2.1089935302734375, -2)">
        <g xmlns="http://www.w3.org/2000/svg" transform="translate(-216, -270)">
          <path d="M 468 288L 348 288L 228.109 288M 462.015 282L 468 287.985L 462.015 293.97"></path>
        </g>
      </g>
    </g>
    <g id="g-root-2.cu_sy_18nt3tq1nyjfur-stroke" data-item-order="-102869" data-item-id="2.cu_sy_18nt3tq1nyjfur" data-item-class="ScenePart Indexed Stroke" data-item-index="2" data-renderer-id="0" transform="matrix(1, 0, 0, 1, 279, 110.999755859375)">
      <g id="2.cu_sy_18nt3tq1nyjfur-stroke" fill="none" stroke-linecap="round" stroke-linejoin="round" stroke-miterlimit="1.5" stroke="#3bc482" stroke-width="2" transform="matrix(1, 0, 0, 1, -2, -2)">
        <g xmlns="http://www.w3.org/2000/svg" transform="translate(-216, -192)">
          <path d="M 474 264L 348 204L 228 204M 471.146 256.015L 473.97 263.994L 465.99 266.819"></path>
        </g>
      </g>
    </g>
    <g id="g-root-1.cu_sy_1d3mly61nyjf2i-stroke" data-item-order="-102867" data-item-id="1.cu_sy_1d3mly61nyjf2i" data-item-class="ScenePart Indexed Indexed_1 Stroke" data-item-index="1" data-renderer-id="0" transform="matrix(1, 0, 0, 1, 279, 27)">
      <g id="1.cu_sy_1d3mly61nyjf2i-stroke" fill="none" stroke-linecap="round" stroke-linejoin="round" stroke-miterlimit="1.5" stroke="#17b0e3" stroke-width="2" transform="matrix(1, 0, 0, 1, -2, -2)">
        <g xmlns="http://www.w3.org/2000/svg" transform="translate(-216, -108)">
          <path d="M 492 246L 348 120L 228 120M 491.421 237.547L 492.005 245.991L 483.56 246.575"></path>
        </g>
      </g>
    </g>
    <g id="g-root-tx_increase_detu3i1nykvm4-stroke" data-item-order="0" data-item-id="tx_increase_detu3i1nykvm4" data-item-class="Label Stroke SceneTarget Indexed Indexed_1 ColorStrokeBlack" data-item-index="1" data-renderer-id="0" transform="matrix(1, 0, 0, 1, 39, -9)">
      <g id="tx_increase_detu3i1nykvm4-stroke" fill="none" stroke-linecap="square" stroke-linejoin="miter" stroke-miterlimit="4" stroke="#484848" stroke-width="1" transform="matrix(1, 0, 0, 1, 37, 14)">
        <g xmlns="http://www.w3.org/2000/svg" transform="translate(-21, -4)">
          <path d="M46.933545 30.1453L51.882215 16.97268L52.470085 16.97266L57.433705 30.1453M48.750965 26.2942H55.609605 M68.216636 30.1148L68.216376 20.7666M61.382086 20.7666L61.382086 26.8207C61.382086 27.5325 61.287086 30.0958 63.669446 30.3075C65.759676 30.4933 67.033106 29.6528 67.735476 28.4701 M73.039697 20.81417L73.039967 30.1624M79.874247 30.1624L79.863377 23.4697C79.798927 22.5262 79.431997 21.07848 77.557777 20.64916C75.618087 20.20484 74.138287 21.24827 73.401877 22.5949M86.709307 30.1624V24.1083C86.709307 23.3964 86.823907 21.20604 84.392907 20.64916C82.363807 20.18437 80.829507 21.34748 80.129117 22.7827 M98.137461 29.2181C97.163671 30.1548 96.138971 30.3386 94.953511 30.3386C92.884741 30.3386 91.021501 29.0276 91.021501 25.4561C91.021501 21.88449 92.830891 20.57349 94.899661 20.57349C96.968441 20.57349 98.571791 21.62966 98.571791 25.2012H91.352271 M102.618915 20.77967L102.619175 30.1279M109.453465 30.1279V24.0738C109.453465 23.3619 109.549195 20.79026 107.166105 20.58694C105.408065 20.43694 103.719025 21.56164 102.942685 22.9562 M117.199326 30.3258C115.789666 30.4655 114.931756 29.7322 114.931756 28.3869V18.08093M117.081666 20.642H115.318256M112.821564 20.642H114.555446 M128.907003 25.4569C128.907003 28.5223 127.036053 30.3403 124.728113 30.3403C122.420173 30.3403 120.549213 28.5223 120.549213 25.4569C120.549213 22.3915 122.420173 20.57349 124.728113 20.57349C127.036053 20.57349 128.907003 22.3915 128.907003 25.4569Z M146.099761 30.1243V16.12329M145.740011 28.7727C144.878011 29.8707 143.779701 30.3402 142.470141 30.3402C140.288811 30.3402 138.637481 29.0292 138.637481 25.4576C138.637481 21.88607 140.394471 20.57507 142.575791 20.57507C143.845401 20.57507 145.054961 21.11426 145.740011 22.1748 M151.067637 22.2457C151.431997 21.28012 152.848347 20.56665 154.188367 20.56665C156.041607 20.56665 157.543957 21.8797 157.543957 23.4994L157.549707 24.957V27.5711C157.549707 28.614 157.525137 29.3527 157.826507 30.2784M157.170357 24.957H154.442387C151.938987 24.957 150.638737 26.3433 150.638737 27.8374C150.638737 29.3315 151.876847 30.3408 153.492517 30.3408C155.474747 30.3408 157.100587 28.8882 157.501157 27.7324 M33.471206 54.1308V40.94395L38.749616 40.92822C39.848446 40.96678 42.232996 41.74944 42.232996 44.57165C42.232996 47.3939 39.848446 48.2536 38.749616 48.3307L33.999086 48.3449 M49.954794 44.60908C48.574374 44.41894 47.325984 45.31927 46.684004 46.6193M46.329374 44.77269V54.1226 M61.256994 49.4569C61.256994 52.5223 59.386044 54.3403 57.078104 54.3403C54.770164 54.3403 52.899204 52.5223 52.899204 49.4569C52.899204 46.3915 54.770164 44.57349 57.078104 44.57349C59.386044 44.57349 61.256994 46.3915 61.256994 49.4569Z M72.449756 54.1243V40.12329M72.090006 52.7727C71.228006 53.8707 70.129696 54.3402 68.820136 54.3402C66.638806 54.3402 64.987476 53.0292 64.987476 49.4576C64.987476 45.88607 66.744466 44.57507 68.925786 44.57507C70.195396 44.57507 71.404956 45.11426 72.090006 46.1748 M84.106628 54.1148L84.106368 44.7666M77.272078 44.7666L77.272078 50.8207C77.272078 51.5325 77.177078 54.0958 79.559438 54.3075C81.649668 54.4933 82.923098 53.6528 83.625468 52.4701 M91.879319 54.3258C90.469659 54.4655 89.611749 53.7322 89.611749 52.3869V42.08093M91.761659 44.642H89.998249M87.501557 44.642H89.235439 M95.968444 40.97076H95.992374M95.952214 44.80402V54.1446 M107.03276 44.69055L103.6633 54.119L103.46206 54.1189L100.05774 44.69055 M111.208442 40.97076H111.232372M111.192212 44.80402V54.1446 M123.119765 54.1243V40.12329M122.760015 52.7727C121.898015 53.8707 120.799705 54.3402 119.490145 54.3402C117.308815 54.3402 115.657485 53.0292 115.657485 49.4576C115.657485 45.88607 117.414475 44.57507 119.595795 44.57507C120.865405 44.57507 122.074965 45.11426 122.760015 46.1748 M128.087634 46.2457C128.451994 45.28012 129.868344 44.56665 131.208364 44.56665C133.061604 44.56665 134.563954 45.8797 134.563954 47.4994L134.569704 48.957V51.5711C134.569704 52.614 134.545134 53.3527 134.846504 54.2784M134.190354 48.957H131.462384C128.958984 48.957 127.658734 50.3433 127.658734 51.8374C127.658734 53.3315 128.896844 54.3408 130.512514 54.3408C132.494744 54.3408 134.120584 52.8882 134.521154 51.7324 M146.399764 54.1243V40.12329M146.040014 52.7727C145.178014 53.8707 144.079704 54.3402 142.770144 54.3402C140.588814 54.3402 138.937484 53.0292 138.937484 49.4576C138.937484 45.88607 140.694474 44.57507 142.875794 44.57507C144.145404 44.57507 145.354964 45.11426 146.040014 46.1748 M157.897455 53.2181C156.923665 54.1548 155.898965 54.3386 154.713505 54.3386C152.644735 54.3386 150.781495 53.0276 150.781495 49.4561C150.781495 45.88449 152.590885 44.57349 154.659655 44.57349C156.728435 44.57349 158.331785 45.62966 158.331785 49.2012H151.112265"></path>
        </g>
      </g>
    </g>
    <g id="g-root-face_1qdu9b21nym8sj-stroke" data-item-order="0" data-item-id="face_1qdu9b21nym8sj" data-item-class="Icon Stroke SceneTarget Indexed Indexed_1" data-item-index="1" data-renderer-id="0" transform="matrix(1, 0, 0, 1, 219, 3)">
      <g id="face_1qdu9b21nym8sj-stroke" fill="none" stroke-linecap="round" stroke-linejoin="round" stroke-miterlimit="1.5" stroke="#17b0e3" stroke-width="0.583" transform="matrix(3.4285714626312256, 0, 0, 3.4285714626312256, -31.14285659790039, -31.14285659790039)">
        <g xmlns="http://www.w3.org/2000/svg" transform="translate(12, 12)">
          <path d="M0.5 7a6.5 6.5 0 1 0 13 0a6.5 6.5 0 1 0 -13 0M3.7,8c0.5,1.8,2.5,2.9,4.3,2.4C9.1,10,10,9.1,10.3,8M4.6 5.2a0.2 0.2 0 1 0 0.4 0a0.2 0.2 0 1 0 -0.4 0M9 5.2a0.2 0.2 0 1 0 0.4 0a0.2 0.2 0 1 0 -0.4 0"></path>
        </g>
      </g>
    </g>
    <g id="g-root-tx_costredu_zlavmm1nykweb-stroke" data-item-order="0" data-item-id="tx_costredu_zlavmm1nykweb" data-item-class="Label Stroke SceneTarget Indexed ColorStrokeBlack" data-item-index="2" data-renderer-id="0" transform="matrix(1, 0, 0, 1, 15, 99)">
      <g id="tx_costredu_zlavmm1nykweb-stroke" fill="none" stroke-linecap="square" stroke-linejoin="miter" stroke-miterlimit="4" stroke="#484848" stroke-width="1" transform="matrix(1, 0, 0, 1, 8, 2)">
        <g xmlns="http://www.w3.org/2000/svg" transform="translate(38, 8)">
          <path d="M-25.965022 18.1329V4.94524L-21.168752 4.92993C-20.099022 4.96747 -17.777602 5.72941 -17.777602 8.47691C-17.777602 11.2244 -20.099012 12.0614 -21.168752 12.1365L-25.415562 12.15M-17.551302 18.2494L-20.661962 12.5145 M-6.742542 17.2181C-7.716332 18.1548 -8.741032 18.3386 -9.926492 18.3386C-11.995262 18.3386 -13.858502 17.0276 -13.858502 13.4561C-13.858502 9.88449 -12.049112 8.57349 -9.980342 8.57349C-7.911562 8.57349 -6.308212 9.62966 -6.308212 13.2012H-13.527732 M4.739757 18.1243V4.12329M4.380007 16.7727C3.518007 17.8707 2.419697 18.3402 1.110137 18.3402C-1.071193 18.3402 -2.722523 17.0292 -2.722523 13.4576C-2.722523 9.88607 -0.965533 8.57507 1.215787 8.57507C2.485397 8.57507 3.694957 9.11426 4.380007 10.1748 M16.396629 18.1148L16.396369 8.7666M9.562079 8.7666L9.562079 14.8207C9.562079 15.5325 9.467079 18.0958 11.849439 18.3075C13.939669 18.4933 15.213099 17.6528 15.915469 16.4701 M23.98626 22.4782C24.62278 22.5791 25.51937 22.2513 25.62349 21.4032C25.72299 20.5928 25.19628 20.0199 24.42333 19.8846L24.63665 18.5043M27.96651 16.2538C27.59453 17.6492 26.02693 18.3386 24.55783 18.3386C22.42046 18.3386 20.65459 17.0276 20.65459 13.4561C20.65459 9.88449 22.52399 8.57349 24.66136 8.57349C26.16837 8.57349 27.81848 9.41043 28.05177 10.9154 M32.935508 5.3457C33.118518 4.88799 33.712068 4.37024 34.422508 4.37024C35.389898 4.37024 35.942348 5.3457 36.999998 5.3457C38.288738 5.3457 38.624268 4.37118 38.624268 4.37118M32.307628 10.2457C32.671988 9.28012 34.088338 8.56665 35.428358 8.56665C37.281598 8.56665 38.783948 9.8797 38.783948 11.4994L38.789698 12.957V15.5711C38.789698 16.614 38.765128 17.3527 39.066498 18.2784M38.410348 12.957H35.682378C33.178978 12.957 31.878728 14.3433 31.878728 15.8374C31.878728 17.3315 33.116838 18.3408 34.732508 18.3408C36.714738 18.3408 38.340578 16.8882 38.741148 15.7324 M51.406996 13.4569C51.406996 16.5223 49.536046 18.3403 47.228106 18.3403C44.920166 18.3403 43.049206 16.5223 43.049206 13.4569C43.049206 10.3915 44.920166 8.57349 47.228106 8.57349C49.536046 8.57349 51.406996 10.3915 51.406996 13.4569Z M68.599754 18.1243V4.12329M68.240004 16.7727C67.378004 17.8707 66.279694 18.3402 64.970134 18.3402C62.788804 18.3402 61.137474 17.0292 61.137474 13.4576C61.137474 9.88607 62.894464 8.57507 65.075784 8.57507C66.345394 8.57507 67.554954 9.11426 68.240004 10.1748 M80.097452 17.2181C79.123662 18.1548 78.098962 18.3386 76.913502 18.3386C74.844732 18.3386 72.981492 17.0276 72.981492 13.4561C72.981492 9.88449 74.790882 8.57349 76.859652 8.57349C78.928432 8.57349 80.531782 9.62966 80.531782 13.2012H73.312262 M99.837189 15.1299C99.176389 17.0338 97.387569 18.3984 95.284589 18.3984C92.619639 18.3984 90.459269 16.2071 90.459269 13.5039V9.62109C90.459269 6.91792 92.619639 4.72656 95.284589 4.72656C97.387569 4.72656 99.176389 6.09117 99.837189 7.99505 M111.086624 18.1148L111.086364 8.7666M104.252074 8.7666L104.252074 14.8207C104.252074 15.5325 104.157074 18.0958 106.539434 18.3075C108.629664 18.4933 109.903094 17.6528 110.605464 16.4701 M122.047825 10.3814C121.752095 9.4042 120.597785 8.58374 118.987695 8.58374C117.099975 8.58374 115.880305 9.44691 115.788655 10.7511C115.683615 12.2457 116.917725 12.8218 118.848225 13.3386C120.541835 13.7969 122.485245 14.2772 122.330955 16.1222C122.231585 17.3105 121.254815 18.3458 118.898095 18.3458C116.992165 18.3458 115.914785 17.5302 115.580425 16.4244 M129.669312 18.3258C128.259652 18.4655 127.401742 17.7322 127.401742 16.3869V6.08093M129.551652 8.642H127.788242M125.29155 8.642H127.025432 M141.376997 13.4569C141.376997 16.5223 139.506047 18.3403 137.198107 18.3403C134.890167 18.3403 133.019207 16.5223 133.019207 13.4569C133.019207 10.3915 134.890167 8.57349 137.198107 8.57349C139.506047 8.57349 141.376997 10.3915 141.376997 13.4569Z M151.727832 10.3814C151.432102 9.4042 150.277792 8.58374 148.667702 8.58374C146.779982 8.58374 145.560312 9.44691 145.468662 10.7511C145.363622 12.2457 146.597732 12.8218 148.528232 13.3386C150.221842 13.7969 152.165252 14.2772 152.010962 16.1222C151.911592 17.3105 150.934822 18.3458 148.578102 18.3458C146.672172 18.3458 145.594792 17.5302 145.260432 16.4244"></path>
        </g>
      </g>
    </g>
    <g id="g-root-coin_1utnrfi1nym80a-stroke" data-item-order="0" data-item-id="coin_1utnrfi1nym80a" data-item-class="Icon Stroke SceneTarget Indexed" data-item-index="2" data-renderer-id="0" transform="matrix(1, 0, 0, 1, 219, 87)">
      <g id="coin_1utnrfi1nym80a-stroke" fill="none" stroke-linecap="round" stroke-linejoin="round" stroke-miterlimit="1.5" stroke="#3bc482" stroke-width="1" transform="matrix(2, 0, 0, 2, -14, -14)">
        <g xmlns="http://www.w3.org/2000/svg" transform="translate(12, 12)">
          <path d="M0.504 10.455 A5 1 0 1 0 10.504 10.455 A5 1 0 1 0 0.504 10.455 ZM10.5,10.455v3c0,.553-2.238,1-5,1s-5-.447-5-1v-3M10.5,13.455v3c0,.553-2.238,1-5,1s-5-.447-5-1v-3M10.5,16.455v3c0,.553-2.238,1-5,1s-5-.447-5-1v-3M10.5,19.455v3c0,.553-2.238,1-5,1s-5-.447-5-1v-3M4.381,6.954C5.724,4.058,9.1,2,13.049,2a10.931,10.931,0,0,1,3,.42A4.878,4.878,0,0,1,18.607.564a.5.5,0,0,1,.635.482V4.005a8.155,8.155,0,0,1,2.326,3.448h.937a1,1,0,0,1,1,1v3a1,1,0,0,1-1,1h-.936a7.067,7.067,0,0,1-2.605,3.224l.808,2.191a1.548,1.548,0,1,1-2.905,1.071l-.707-1.915a10.875,10.875,0,0,1-3.11.459M17.254,6.955a.25.25,0,1,0,.25.25.25.25,0,0,0-.25-.25M8,5.955a6.172,6.172,0,0,1,4-2"></path>
        </g>
      </g>
    </g>
    <g id="g-root-tx_improved_4hxvoe1nykv0i-stroke" data-item-order="0" data-item-id="tx_improved_4hxvoe1nykv0i" data-item-class="Label Stroke SceneTarget Indexed ColorStrokeBlack" data-item-index="3" data-renderer-id="0" transform="matrix(1, 0, 0, 1, -9, 159)">
      <g id="tx_improved_4hxvoe1nykv0i-stroke" fill="none" stroke-linecap="square" stroke-linejoin="miter" stroke-miterlimit="4" stroke="#484848" stroke-width="1" transform="matrix(1, 0, 0, 1, 20, 14)">
        <g xmlns="http://www.w3.org/2000/svg" transform="translate(-4, -4)">
          <path d="M16.270938 30.1165L16.279188 16.97778H17.248038L22.551328 30.1151H22.866558L28.185678 16.97778H29.155578L29.150178 30.1165 M40.897438 29.2181C39.923648 30.1548 38.898948 30.3386 37.713488 30.3386C35.644718 30.3386 33.781478 29.0276 33.781478 25.4561C33.781478 21.88449 35.590868 20.57349 37.659638 20.57349C39.728418 20.57349 41.331768 21.62966 41.331768 25.2012H34.112248 M45.515597 16.125V30.1264 M50.418046 16.08569V30.1284M57.282076 30.1284V24.0743C57.282076 23.3625 57.378226 20.79081 54.984756 20.58749C53.231326 20.43854 51.546236 21.54664 50.759336 22.9277 M69.796976 25.4569C69.796976 28.5223 67.926026 30.3403 65.618086 30.3403C63.310146 30.3403 61.439186 28.5223 61.439186 25.4569C61.439186 22.3915 63.310146 20.57349 65.618086 20.57349C67.926026 20.57349 69.796976 22.3915 69.796976 25.4569Z M77.594778 20.60908C76.214358 20.41894 74.965968 21.31927 74.323988 22.6193M73.969358 20.77269V30.1226 M81.278418 16.97076H81.302348M81.262188 20.80402V30.1446 M86.307612 22.2457C86.671972 21.28012 88.088322 20.56665 89.428342 20.56665C91.281582 20.56665 92.783932 21.8797 92.783932 23.4994L92.789682 24.957V27.5711C92.789682 28.614 92.765112 29.3527 93.066482 30.2784M92.410332 24.957H89.682362C87.178962 24.957 85.878712 26.3433 85.878712 27.8374C85.878712 29.3315 87.116822 30.3408 88.732492 30.3408C90.714722 30.3408 92.340562 28.8882 92.741132 27.7324 M103.618893 20.77967L103.619153 30.1279M110.453443 30.1279V24.0738C110.453443 23.3619 110.549173 20.79026 108.166083 20.58694C106.408043 20.43694 104.719003 21.56164 103.942663 22.9562 M115.347613 22.2457C115.711973 21.28012 117.128323 20.56665 118.468343 20.56665C120.321583 20.56665 121.823933 21.8797 121.823933 23.4994L121.829683 24.957V27.5711C121.829683 28.614 121.805113 29.3527 122.106483 30.2784M121.450333 24.957H118.722363C116.218963 24.957 114.918713 26.3433 114.918713 27.8374C114.918713 29.3315 116.156823 30.3408 117.772493 30.3408C119.754723 30.3408 121.380563 28.8882 121.781133 27.7324 M141.453184 16.94531C138.190244 16.94531 134.927254 16.95044 131.664264 16.95044M136.549614 30.1241V17.45566 M153.006987 25.4569C153.006987 28.5223 151.136037 30.3403 148.828097 30.3403C146.520157 30.3403 144.649197 28.5223 144.649197 25.4569C144.649197 22.3915 146.520157 20.57349 148.828097 20.57349C151.136037 20.57349 153.006987 22.3915 153.006987 25.4569Z M157.219682 20.81417L157.219952 30.1624M164.054232 30.1624L164.043362 23.4697C163.978912 22.5262 163.611982 21.07848 161.737762 20.64916C159.798072 20.20484 158.318272 21.24827 157.581862 22.5949M170.889292 30.1624V24.1083C170.889292 23.3964 171.003892 21.20604 168.572892 20.64916C166.543792 20.18437 165.009492 21.34748 164.309102 22.7827 M175.787623 22.2457C176.151983 21.28012 177.568333 20.56665 178.908353 20.56665C180.761593 20.56665 182.263943 21.8797 182.263943 23.4994L182.269693 24.957V27.5711C182.269693 28.614 182.245123 29.3527 182.546493 30.2784M181.890343 24.957H179.162373C176.658973 24.957 175.358723 26.3433 175.358723 27.8374C175.358723 29.3315 176.596833 30.3408 178.212503 30.3408C180.194733 30.3408 181.820573 28.8882 182.221143 27.7324 M194.099761 30.1243V16.12329M193.740011 28.7727C192.878011 29.8707 191.779701 30.3402 190.470141 30.3402C188.288811 30.3402 186.637481 29.0292 186.637481 25.4576C186.637481 21.88607 188.394471 20.57507 190.575791 20.57507C191.845401 20.57507 193.054961 21.11426 193.740011 22.1748 M199.067637 22.2457C199.431997 21.28012 200.848347 20.56665 202.188367 20.56665C204.041607 20.56665 205.543957 21.8797 205.543957 23.4994L205.549707 24.957V27.5711C205.549707 28.614 205.525137 29.3527 205.826507 30.2784M205.170357 24.957H202.442387C199.938987 24.957 198.638737 26.3433 198.638737 27.8374C198.638737 29.3315 199.876847 30.3408 201.492517 30.3408C203.474747 30.3408 205.100587 28.8882 205.501157 27.7324 M102.68978 54.1243V40.12329M102.33003 52.7727C101.46803 53.8707 100.36972 54.3402 99.06016 54.3402C96.87883 54.3402 95.2275 53.0292 95.2275 49.4576C95.2275 45.88607 96.98449 44.57507 99.16581 44.57507C100.43542 44.57507 101.64498 45.11426 102.33003 46.1748 M114.187479 53.2181C113.213689 54.1548 112.188989 54.3386 111.003529 54.3386C108.934759 54.3386 107.071519 53.0276 107.071519 49.4561C107.071519 45.88449 108.880909 44.57349 110.949679 44.57349C113.018459 44.57349 114.621809 45.62966 114.621809 49.2012H107.402289 M129.026844 54.1804L125.017564 54.1827V40.94829C125.965484 40.94829 127.244024 40.94607 128.644024 40.94607C130.096664 40.90961 133.876924 42.17329 133.876924 47.5108C133.876924 52.8483 130.351874 54.1804 129.026844 54.1804Z M145.097483 53.2181C144.123693 54.1548 143.098993 54.3386 141.913533 54.3386C139.844763 54.3386 137.981523 53.0276 137.981523 49.4561C137.981523 45.88449 139.790913 44.57349 141.859683 44.57349C143.928463 44.57349 145.531813 45.62966 145.531813 49.2012H138.312293 M156.391802 52.2538C156.019832 53.6492 154.452232 54.3386 152.983132 54.3386C150.845762 54.3386 149.079892 53.0276 149.079892 49.4561C149.079892 45.88449 150.949292 44.57349 153.086662 44.57349C154.593672 44.57349 156.243782 45.41043 156.477072 46.9154 M160.738463 40.97076H160.762393M160.722233 44.80402V54.1446 M171.80785 46.3814C171.51212 45.4042 170.35781 44.58374 168.74772 44.58374C166.86 44.58374 165.64033 45.44691 165.54868 46.7511C165.44364 48.2457 166.67775 48.8218 168.60825 49.3386C170.30186 49.7969 172.24527 50.2772 172.09098 52.1222C171.99161 53.3105 171.01484 54.3458 168.65812 54.3458C166.75219 54.3458 165.67481 53.5302 165.34045 52.4244 M177.109187 41.35889C177.294687 40.89499 177.896247 40.37024 178.616297 40.37024C179.596767 40.37024 180.156677 41.35889 181.228617 41.35889C182.534777 41.35889 182.874847 40.37119 182.874847 40.37119M184.241617 49.4552C184.241617 52.5206 182.370687 54.3386 180.062747 54.3386C177.754807 54.3386 175.883847 52.5206 175.883847 49.4552C175.883847 46.3898 177.754807 44.57178 180.062747 44.57178C182.370687 44.57178 184.241617 46.3898 184.241617 49.4552Z M195.087458 53.2181C194.113668 54.1548 193.088968 54.3386 191.903508 54.3386C189.834738 54.3386 187.971498 53.0276 187.971498 49.4561C187.971498 45.88449 189.780888 44.57349 191.849658 44.57349C193.918438 44.57349 195.521788 45.62966 195.521788 49.2012H188.302268 M205.727832 46.3814C205.432102 45.4042 204.277792 44.58374 202.667702 44.58374C200.779982 44.58374 199.560312 45.44691 199.468662 46.7511C199.363622 48.2457 200.597732 48.8218 202.528232 49.3386C204.221842 49.7969 206.165252 50.2772 206.010962 52.1222C205.911592 53.3105 204.934822 54.3458 202.578102 54.3458C200.672172 54.3458 199.594792 53.5302 199.260432 52.4244"></path>
        </g>
      </g>
    </g>
    <g id="g-root-1_hz0qzi1nym8zl-stroke" data-item-order="0" data-item-id="1_hz0qzi1nym8zl" data-item-class="Icon Stroke SceneTarget Indexed" data-item-index="3" data-renderer-id="0" transform="matrix(1, 0, 0, 1, 219, 171)">
      <g id="1_hz0qzi1nym8zl-stroke" fill="none" stroke-linecap="round" stroke-linejoin="round" stroke-miterlimit="1.5" stroke="#93c131" stroke-width="1" transform="matrix(2, 0, 0, 2, -14, -14)">
        <g xmlns="http://www.w3.org/2000/svg" transform="translate(12, 12)">
          <path d="M21.612 0.54L21.612 4.32M19.722 2.43L23.502 2.43M18.362 5.79L18.362 8.79M16.862 7.29L19.862 7.29M22.282,6.651a6.9,6.9,0,1,1-4.646-5.508M11.643,5.726A4.288,4.288,0,0,1,15.45,3.414M0.998 14.523h3s0.5 0 0.5 0.5v7s0 0.5 -0.5 0.5 h-3s-0.5 0 -0.5 -0.5v-7s0 -0.5 0.5 -0.5M4.5,21.085c10.5,3.5,7,3.5,19-2.5a2.761,2.761,0,0,0-3-1l-4.316,1.367M4.5,15.523h3c2.353,0,4,2,4.5,2h3.5c1,0,1,2,0,2H10"></path>
        </g>
      </g>
    </g>
    <g id="g-root-grap_hx5bq61nym9za-stroke" data-item-order="0" data-item-id="grap_hx5bq61nym9za" data-item-class="Icon Stroke SceneTarget SceneEnd" data-item-index="none" data-renderer-id="0" transform="matrix(1, 0, 0, 1, 543, 171)">
      <g id="grap_hx5bq61nym9za-stroke" fill="none" stroke-linecap="round" stroke-linejoin="round" stroke-miterlimit="1.5" stroke="#b65edf" stroke-width="1" transform="matrix(2, 0, 0, 2, -14, -12)">
        <g xmlns="http://www.w3.org/2000/svg" transform="translate(12, 11)">
          <path d="M0.504 23L23.504 23M4.5,23V18.5A.5.5,0,0,0,4,18H2a.5.5,0,0,0-.5.5V23M10.5,23V13.5A.5.5,0,0,0,10,13H8a.5.5,0,0,0-.5.5V23M16.5,23V15.5A.5.5,0,0,0,16,15H14a.5.5,0,0,0-.5.5V23M22.5,23V8.5A.5.5,0,0,0,22,8H20a.5.5,0,0,0-.5.5V23M21.5,1,15.88,7.056a2,2,0,0,1-2.1.537L10.061,6.352a2,2,0,0,0-1.913.361L3,11M17.504 1L21.504 1 21.504 5"></path>
        </g>
      </g>
    </g>
    <g id="g-root-tx_enhanced_8vvyji1nykv7z-stroke" data-item-order="0" data-item-id="tx_enhanced_8vvyji1nykv7z" data-item-class="Label Stroke SceneTarget SceneEnd ColorStrokeBlack" data-item-index="none" data-renderer-id="0" transform="matrix(1, 0, 0, 1, 603, 159)">
      <g id="tx_enhanced_8vvyji1nykv7z-stroke" fill="none" stroke-linecap="square" stroke-linejoin="miter" stroke-miterlimit="4" stroke="#484848" stroke-width="1" transform="matrix(1, 0, 0, 1, 1, 2)">
        <g xmlns="http://www.w3.org/2000/svg" transform="translate(9, 8)">
          <path d="M8.73682 18.1804L4.72754 18.1827V4.94829C5.67546 4.94829 6.954 4.94607 8.354 4.94607C9.80664 4.90961 13.5869 6.17329 13.5869 11.5108C13.5869 16.8483 10.06185 18.1804 8.73682 18.1804Z M24.80746 17.2181C23.83367 18.1548 22.80897 18.3386 21.62351 18.3386C19.55474 18.3386 17.6915 17.0276 17.6915 13.4561C17.6915 9.88449 19.50089 8.57349 21.56966 8.57349C23.63844 8.57349 25.24179 9.62966 25.24179 13.2012H18.02227 M35.44783 10.3814C35.1521 9.4042 33.99779 8.58374 32.3877 8.58374C30.49998 8.58374 29.28031 9.44691 29.18866 10.7511C29.08362 12.2457 30.31773 12.8218 32.24823 13.3386C33.94184 13.7969 35.88525 14.2772 35.73096 16.1222C35.63159 17.3105 34.65482 18.3458 32.2981 18.3458C30.39217 18.3458 29.31479 17.5302 28.98043 16.4244 M46.747461 17.2181C45.773671 18.1548 44.748971 18.3386 43.563511 18.3386C41.494741 18.3386 39.631501 17.0276 39.631501 13.4561C39.631501 9.88449 41.440891 8.57349 43.509661 8.57349C45.578441 8.57349 47.181791 9.62966 47.181791 13.2012H39.962271 M51.249692 8.81417L51.249962 18.1624M58.084242 18.1624L58.073372 11.4697C58.008922 10.5262 57.641992 9.07848 55.767772 8.64916C53.828082 8.20484 52.348282 9.24827 51.611872 10.5949M64.919302 18.1624V12.1083C64.919302 11.3964 65.033902 9.20604 62.602902 8.64916C60.573802 8.18437 59.039502 9.34748 58.339112 10.7827 M69.69292 8.77398V22.3934M70.0588 10.1239C70.94181 9.02711 72.12311 8.55811 73.43201 8.55811C75.61334 8.55811 77.19199 9.90408 77.19199 13.4756C77.19199 17.0472 75.50769 18.3232 73.32636 18.3232C72.05514 18.3232 70.76934 17.7827 70.0588 16.7195 M88.117456 17.2181C87.143666 18.1548 86.118966 18.3386 84.933506 18.3386C82.864736 18.3386 81.001496 17.0276 81.001496 13.4561C81.001496 9.88449 82.810886 8.57349 84.879656 8.57349C86.948436 8.57349 88.551786 9.62966 88.551786 13.2012H81.332266 M92.598904 8.77967L92.599164 18.1279M99.433454 18.1279V12.0738C99.433454 11.3619 99.529184 8.79026 97.146094 8.58694C95.388054 8.43694 93.699014 9.56164 92.922674 10.9562 M104.198064 4.08569V18.1284M111.062094 18.1284V12.0743C111.062094 11.3625 111.158244 8.79081 108.764774 8.58749C107.011344 8.43854 105.326254 9.54664 104.539354 10.9277 M123.576994 13.4569C123.576994 16.5223 121.706044 18.3403 119.398104 18.3403C117.090164 18.3403 115.219204 16.5223 115.219204 13.4569C115.219204 10.3915 117.090164 8.57349 119.398104 8.57349C121.706044 8.57349 123.576994 10.3915 123.576994 13.4569Z M4.18323 35.4377C4.18323 40.1426 6.22977 42.3258 9.23842 42.3258C12.2471 42.3258 14.2935 40.1426 14.2935 35.4377C14.2935 30.73284 12.0773 28.72058 9.23842 28.72058C6.39956 28.72058 4.18323 30.73284 4.18323 35.4377Z M22.434801 32.60908C21.054381 32.41894 19.805991 33.31927 19.164011 34.6193M18.809381 32.77269V42.1226 M32.949159 32.65246V42.6545C32.949159 47.3512 27.655739 47.0007 26.220849 45.4703M32.615479 40.5732C31.935339 41.6608 30.711069 42.2139 29.425189 42.2139C27.243869 42.2139 25.486879 40.9029 25.486879 37.3313C25.486879 33.75974 27.138209 32.44873 29.319539 32.44873C30.587569 32.44873 31.892609 33.1294 32.615479 34.5024 M37.827632 34.2457C38.191992 33.28012 39.608342 32.56665 40.948362 32.56665C42.801602 32.56665 44.303952 33.8797 44.303952 35.4994L44.309702 36.957V39.5711C44.309702 40.614 44.285132 41.3527 44.586502 42.2784M43.930352 36.957H41.202382C38.698982 36.957 37.398732 38.3433 37.398732 39.8374C37.398732 41.3315 38.636842 42.3408 40.252512 42.3408C42.234742 42.3408 43.860582 40.8882 44.261152 39.7324 M49.138912 32.77967L49.139172 42.1279M55.973462 42.1279V36.0738C55.973462 35.3619 56.069192 32.79026 53.686102 32.58694C51.928062 32.43694 50.239022 33.56164 49.462682 34.9562 M60.928443 28.97076H60.952373M60.912213 32.80402V42.1446 M65.318953 32.78027H71.996143V32.93551L65.233933 41.9042V42.1284L72.289013 42.1283 M76.357631 34.2457C76.721991 33.28012 78.138341 32.56665 79.478361 32.56665C81.331601 32.56665 82.833951 33.8797 82.833951 35.4994L82.839701 36.957V39.5711C82.839701 40.614 82.815131 41.3527 83.116501 42.2784M82.460351 36.957H79.732381C77.228981 36.957 75.928731 38.3433 75.928731 39.8374C75.928731 41.3315 77.166841 42.3408 78.782511 42.3408C80.764741 42.3408 82.390581 40.8882 82.791151 39.7324 M94.481791 40.2538C94.109821 41.6492 92.542221 42.3386 91.073121 42.3386C88.935751 42.3386 87.169881 41.0276 87.169881 37.4561C87.169881 33.88449 89.039281 32.57349 91.176651 32.57349C92.683661 32.57349 94.333771 33.41043 94.567061 34.9154 M98.828444 28.97076H98.852374M98.812214 32.80402V42.1446 M111.537001 37.4569C111.537001 40.5223 109.666051 42.3403 107.358111 42.3403C105.050171 42.3403 103.179211 40.5223 103.179211 37.4569C103.179211 34.3915 105.050171 32.57349 107.358111 32.57349C109.666051 32.57349 111.537001 34.3915 111.537001 37.4569Z M115.728908 32.77967L115.729168 42.1279M122.563458 42.1279V36.0738C122.563458 35.3619 122.659188 32.79026 120.276098 32.58694C118.518058 32.43694 116.829018 33.56164 116.052678 34.9562 M127.457629 34.2457C127.821989 33.28012 129.238339 32.56665 130.578359 32.56665C132.431599 32.56665 133.933949 33.8797 133.933949 35.4994L133.939699 36.957V39.5711C133.939699 40.614 133.915129 41.3527 134.216499 42.2784M133.560349 36.957H130.832379C128.328979 36.957 127.028729 38.3433 127.028729 39.8374C127.028729 41.3315 128.266839 42.3408 129.882509 42.3408C131.864739 42.3408 133.490579 40.8882 133.891149 39.7324 M138.905619 28.125V42.1264 M3.62354 66.1453L8.57221 52.97268L9.16008 52.97266L14.1237 66.1453M5.44096 62.2942H12.2996 M18.09292 56.77398V70.3934M18.4588 58.1239C19.34181 57.02711 20.52311 56.55811 21.83201 56.55811C24.01334 56.55811 25.59199 57.90408 25.59199 61.4756C25.59199 65.0472 23.90769 66.3232 21.72636 66.3232C20.45514 66.3232 19.16934 65.7827 18.4588 64.7195 M33.474802 56.60908C32.094382 56.41894 30.845992 57.31927 30.204012 58.6193M29.849382 56.77269V66.1226 M37.158442 52.97076H37.182372M37.142212 56.80402V66.1446 M42.089692 56.81417L42.089962 66.1624M48.924242 66.1624L48.913372 59.4697C48.848922 58.5262 48.481992 57.07848 46.607772 56.64916C44.668082 56.20484 43.188282 57.24827 42.451872 58.5949M55.759302 66.1624V60.1083C55.759302 59.3964 55.873902 57.20604 53.442902 56.64916C51.413802 56.18437 49.879502 57.34748 49.179112 58.7827 M68.337004 61.4569C68.337004 64.5223 66.466054 66.3403 64.158114 66.3403C61.850174 66.3403 59.979214 64.5223 59.979214 61.4569C59.979214 58.3915 61.850174 56.57349 64.158114 56.57349C66.466054 56.57349 68.337004 58.3915 68.337004 61.4569Z M76.134802 56.60908C74.754382 56.41894 73.505992 57.31927 72.864012 58.6193M72.509382 56.77269V66.1226 M79.757632 58.2457C80.121992 57.28012 81.538342 56.56665 82.878362 56.56665C84.731602 56.56665 86.233952 57.8797 86.233952 59.4994L86.239702 60.957V63.5711C86.239702 64.614 86.215132 65.3527 86.516502 66.2784M85.860352 60.957H83.132382C80.628982 60.957 79.328732 62.3433 79.328732 63.8374C79.328732 65.3315 80.566842 66.3408 82.182512 66.3408C84.164742 66.3408 85.790582 64.8882 86.191152 63.7324 M98.069762 66.1243V52.12329M97.710012 64.7727C96.848012 65.8707 95.749702 66.3402 94.440142 66.3402C92.258812 66.3402 90.607482 65.0292 90.607482 61.4576C90.607482 57.88607 92.364472 56.57507 94.545792 56.57507C95.815402 56.57507 97.024962 57.11426 97.710012 58.1748 M110.717001 61.4569C110.717001 64.5223 108.846051 66.3403 106.538111 66.3403C104.230171 66.3403 102.359211 64.5223 102.359211 61.4569C102.359211 58.3915 104.230171 56.57349 106.538111 56.57349C108.846051 56.57349 110.717001 58.3915 110.717001 61.4569Z"></path>
        </g>
      </g>
    </g>
    <g id="g-root-tx_personal_m8lf321nykvt5-stroke" data-item-order="0" data-item-id="tx_personal_m8lf321nykvt5" data-item-class="Label Stroke SceneTarget Indexed ColorStrokeBlack" data-item-index="4" data-renderer-id="0" transform="matrix(1, 0, 0, 1, 51, 255)">
      <g id="tx_personal_m8lf321nykvt5-stroke" fill="none" stroke-linecap="square" stroke-linejoin="miter" stroke-miterlimit="4" stroke="#484848" stroke-width="1" transform="matrix(1, 0, 0, 1, 11, 2)">
        <g xmlns="http://www.w3.org/2000/svg" transform="translate(-1, 8)">
          <path d="M13.051192 18.1308V4.94395L18.329602 4.92822C19.428432 4.96678 21.812982 5.74944 21.812982 8.57165C21.812982 11.3939 19.428432 12.2536 18.329602 12.3307L13.579072 12.3449 M32.577442 17.2181C31.603652 18.1548 30.578952 18.3386 29.393492 18.3386C27.324722 18.3386 25.461482 17.0276 25.461482 13.4561C25.461482 9.88449 27.270872 8.57349 29.339642 8.57349C31.408422 8.57349 33.011772 9.62966 33.011772 13.2012H25.792252 M40.664781 8.60908C39.284361 8.41894 38.035971 9.31927 37.393991 10.6193M37.039361 8.77269V18.1226 M50.327812 10.3814C50.032082 9.4042 48.877772 8.58374 47.267682 8.58374C45.379962 8.58374 44.160292 9.44691 44.068642 10.7511C43.963602 12.2457 45.197712 12.8218 47.128212 13.3386C48.821822 13.7969 50.765232 14.2772 50.610942 16.1222C50.511572 17.3105 49.534802 18.3458 47.178082 18.3458C45.272152 18.3458 44.194772 17.5302 43.860412 16.4244 M62.776983 13.4569C62.776983 16.5223 60.906033 18.3403 58.598093 18.3403C56.290153 18.3403 54.419193 16.5223 54.419193 13.4569C54.419193 10.3915 56.290153 8.57349 58.598093 8.57349C60.906033 8.57349 62.776983 10.3915 62.776983 13.4569Z M66.968891 8.77967L66.969151 18.1279M73.803441 18.1279V12.0738C73.803441 11.3619 73.899171 8.79026 71.516081 8.58694C69.758041 8.43694 68.069001 9.56164 67.292661 10.9562 M78.697612 10.2457C79.061972 9.28012 80.478322 8.56665 81.818342 8.56665C83.671582 8.56665 85.173932 9.8797 85.173932 11.4994L85.179682 12.957V15.5711C85.179682 16.614 85.155112 17.3527 85.456482 18.2784M84.800332 12.957H82.072362C79.568962 12.957 78.268712 14.3433 78.268712 15.8374C78.268712 17.3315 79.506822 18.3408 81.122492 18.3408C83.104722 18.3408 84.730562 16.8882 85.131132 15.7324 M90.145602 4.125V18.1264 M95.238425 4.97076H95.262355M95.222195 8.80402V18.1446 M99.628939 8.78027H106.306129V8.93551L99.543919 17.9042V18.1284L106.598999 18.1283 M110.667621 10.2457C111.031981 9.28012 112.448331 8.56665 113.788351 8.56665C115.641591 8.56665 117.143941 9.8797 117.143941 11.4994L117.149691 12.957V15.5711C117.149691 16.614 117.125121 17.3527 117.426491 18.2784M116.770341 12.957H114.042371C111.538971 12.957 110.238721 14.3433 110.238721 15.8374C110.238721 17.3315 111.476831 18.3408 113.092501 18.3408C115.074731 18.3408 116.700571 16.8882 117.101141 15.7324 M124.766251 22.4782C125.402771 22.5791 126.299361 22.2513 126.403481 21.4032C126.502981 20.5928 125.976271 20.0199 125.203321 19.8846L125.416641 18.5043M128.746501 16.2538C128.374521 17.6492 126.806921 18.3386 125.337821 18.3386C123.200451 18.3386 121.434581 17.0276 121.434581 13.4561C121.434581 9.88449 123.303981 8.57349 125.441351 8.57349C126.948361 8.57349 128.598471 9.41043 128.831761 10.9154 M133.715506 5.3457C133.898516 4.88799 134.492066 4.37024 135.202506 4.37024C136.169896 4.37024 136.722346 5.3457 137.779996 5.3457C139.068736 5.3457 139.404266 4.37118 139.404266 4.37118M133.087626 10.2457C133.451986 9.28012 134.868336 8.56665 136.208356 8.56665C138.061596 8.56665 139.563946 9.8797 139.563946 11.4994L139.569696 12.957V15.5711C139.569696 16.614 139.545126 17.3527 139.846496 18.2784M139.190346 12.957H136.462376C133.958976 12.957 132.658726 14.3433 132.658726 15.8374C132.658726 17.3315 133.896836 18.3408 135.512506 18.3408C137.494736 18.3408 139.120576 16.8882 139.521146 15.7324 M152.186995 13.4569C152.186995 16.5223 150.316045 18.3403 148.008105 18.3403C145.700165 18.3403 143.829205 16.5223 143.829205 13.4569C143.829205 10.3915 145.700165 8.57349 148.008105 8.57349C150.316045 8.57349 152.186995 10.3915 152.186995 13.4569Z M65.77746 41.2181C64.80367 42.1548 63.77897 42.3386 62.59351 42.3386C60.52474 42.3386 58.6615 41.0276 58.6615 37.4561C58.6615 33.88449 60.47089 32.57349 62.53966 32.57349C64.60844 32.57349 66.21179 33.62966 66.21179 37.2012H58.99227 M70.279687 32.81417L70.279957 42.1624M77.114237 42.1624L77.103367 35.4697C77.038917 34.5262 76.671987 33.07848 74.797767 32.64916C72.858077 32.20484 71.378277 33.24827 70.641867 34.5949M83.949297 42.1624V36.1083C83.949297 35.3964 84.063897 33.20604 81.632897 32.64916C79.603797 32.18437 78.069497 33.34748 77.369107 34.7827 M102.637498 42.1371L95.074118 42.1423V28.94958C96.022038 28.94958 101.195798 28.95044 102.595798 28.95044M101.583558 35.2966H95.538158 M112.837833 34.3814C112.542103 33.4042 111.387793 32.58374 109.777703 32.58374C107.889983 32.58374 106.670313 33.44691 106.578663 34.7511C106.473623 36.2457 107.707733 36.8218 109.638233 37.3386C111.331843 37.7969 113.275253 38.2772 113.120963 40.1222C113.021593 41.3105 112.044823 42.3458 109.688103 42.3458C107.782173 42.3458 106.704793 41.5302 106.370433 40.4244 M124.301791 40.2538C123.929821 41.6492 122.362221 42.3386 120.893121 42.3386C118.755751 42.3386 116.989881 41.0276 116.989881 37.4561C116.989881 33.88449 118.859281 32.57349 120.996651 32.57349C122.503661 32.57349 124.153771 33.41043 124.387061 34.9154 M128.587626 34.2457C128.951986 33.28012 130.368336 32.56665 131.708356 32.56665C133.561596 32.56665 135.063946 33.8797 135.063946 35.4994L135.069696 36.957V39.5711C135.069696 40.614 135.045126 41.3527 135.346496 42.2784M134.690346 36.957H131.962376C129.458976 36.957 128.158726 38.3433 128.158726 39.8374C128.158726 41.3315 129.396836 42.3408 131.012506 42.3408C132.994736 42.3408 134.620576 40.8882 135.021146 39.7324 M140.035609 28.125V42.1264 M145.067637 34.2457C145.431997 33.28012 146.848347 32.56665 148.188367 32.56665C150.041607 32.56665 151.543957 33.8797 151.543957 35.4994L151.549707 36.957V39.5711C151.549707 40.614 151.525137 41.3527 151.826507 42.2784M151.170357 36.957H148.442387C145.938987 36.957 144.638737 38.3433 144.638737 39.8374C144.638737 41.3315 145.876847 42.3408 147.492517 42.3408C149.474747 42.3408 151.100587 40.8882 151.501157 39.7324"></path>
        </g>
      </g>
    </g>
    <g id="g-root-pick_v9us9q1nymakg-stroke" data-item-order="0" data-item-id="pick_v9us9q1nymakg" data-item-class="Icon Stroke SceneTarget Indexed" data-item-index="4" data-renderer-id="0" transform="matrix(1, 0, 0, 1, 219, 255)">
      <g id="pick_v9us9q1nymakg-stroke" fill="none" stroke-linecap="round" stroke-linejoin="round" stroke-miterlimit="1.5" stroke="#e3cd09" stroke-width="1" transform="matrix(2, 0, 0, 2, -14, -14)">
        <g xmlns="http://www.w3.org/2000/svg" transform="translate(12, 12)">
          <path d="M18.718 2.622L19.218 2.622M21.642,3.478A3.16,3.16,0,0,1,21.2,8.43M19.978,8.9a3.147,3.147,0,0,1-.5.04M17.42 19.264L17.462 19.762M17.71500015258789 22.799999237060547L17.756999969482422 23.29800033569336L18.256999969482422 23.29800033569336M20.702999114990234 23.29800033569336L21.202999114990234 23.29800033569336L21.243999481201172 22.799999237060547M21.414 20.765L21.555 19.07M21.639999389648438 18.05299949645996L21.68199920654297 17.55500030517578L22.18199920654297 17.55500030517578M23 17.55500030517578L23.5 17.55500030517578L23.5 17.05500030517578M23.5,14.48v-.371a4.023,4.023,0,0,0-2.937-3.873M19.287,10.093a4.029,4.029,0,0,0-.495.054M8.602 4.141a3.439 3.439 0 1 0 6.878 0a3.439 3.439 0 1 0 -6.878 0M7.664,13.206a4.377,4.377,0,0,1,8.753,0v3.752H14.438l-.522,6.252H10.165l-.521-6.252H7.664ZM5.282 2.622L4.782 2.622M2.358,3.478A3.16,3.16,0,0,0,2.8,8.43M4.022,8.9a3.147,3.147,0,0,0,.5.04M6.58 19.264L6.538 19.762M6.284999847412109 22.799999237060547L6.243000030517578 23.29800033569336L5.743000030517578 23.29800033569336M3.296999931335449 23.29800033569336L2.796999931335449 23.29800033569336L2.75600004196167 22.799999237060547M2.586 20.765L2.445 19.07M2.359999895095825 18.05299949645996L2.318000078201294 17.55500030517578L1.8179999589920044 17.55500030517578M1 17.55500030517578L0.5 17.55500030517578L0.5 17.05500030517578M.5,14.48v-.371a4.023,4.023,0,0,1,2.937-3.873M4.713,10.093a4.029,4.029,0,0,1,.5.054M9.574,1.747a7.819,7.819,0,0,0,5.9,2.394"></path>
        </g>
      </g>
    </g>
    <g id="g-root-tx_increase_1cuvyqm1nykvt4-stroke" data-item-order="0" data-item-id="tx_increase_1cuvyqm1nykvt4" data-item-class="Label Stroke SceneTarget Indexed ColorStrokeBlack" data-item-index="5" data-renderer-id="0" transform="matrix(1, 0, 0, 1, 39, 327)">
      <g id="tx_increase_1cuvyqm1nykvt4-stroke" fill="none" stroke-linecap="square" stroke-linejoin="miter" stroke-miterlimit="4" stroke="#484848" stroke-width="1" transform="matrix(1, 0, 0, 1, 50, 14)">
        <g xmlns="http://www.w3.org/2000/svg" transform="translate(-34, -4)">
          <path d="M46.933545 30.1453L51.882215 16.97268L52.470085 16.97266L57.433705 30.1453M48.750965 26.2942H55.609605 M68.216636 30.1148L68.216376 20.7666M61.382086 20.7666L61.382086 26.8207C61.382086 27.5325 61.287086 30.0958 63.669446 30.3075C65.759676 30.4933 67.033106 29.6528 67.735476 28.4701 M73.039697 20.81417L73.039967 30.1624M79.874247 30.1624L79.863377 23.4697C79.798927 22.5262 79.431997 21.07848 77.557777 20.64916C75.618087 20.20484 74.138287 21.24827 73.401877 22.5949M86.709307 30.1624V24.1083C86.709307 23.3964 86.823907 21.20604 84.392907 20.64916C82.363807 20.18437 80.829507 21.34748 80.129117 22.7827 M98.137461 29.2181C97.163671 30.1548 96.138971 30.3386 94.953511 30.3386C92.884741 30.3386 91.021501 29.0276 91.021501 25.4561C91.021501 21.88449 92.830891 20.57349 94.899661 20.57349C96.968441 20.57349 98.571791 21.62966 98.571791 25.2012H91.352271 M102.618915 20.77967L102.619175 30.1279M109.453465 30.1279V24.0738C109.453465 23.3619 109.549195 20.79026 107.166105 20.58694C105.408065 20.43694 103.719025 21.56164 102.942685 22.9562 M117.199326 30.3258C115.789666 30.4655 114.931756 29.7322 114.931756 28.3869V18.08093M117.081666 20.642H115.318256M112.821564 20.642H114.555446 M128.907003 25.4569C128.907003 28.5223 127.036053 30.3403 124.728113 30.3403C122.420173 30.3403 120.549213 28.5223 120.549213 25.4569C120.549213 22.3915 122.420173 20.57349 124.728113 20.57349C127.036053 20.57349 128.907003 22.3915 128.907003 25.4569Z M146.099761 30.1243V16.12329M145.740011 28.7727C144.878011 29.8707 143.779701 30.3402 142.470141 30.3402C140.288811 30.3402 138.637481 29.0292 138.637481 25.4576C138.637481 21.88607 140.394471 20.57507 142.575791 20.57507C143.845401 20.57507 145.054961 21.11426 145.740011 22.1748 M151.067637 22.2457C151.431997 21.28012 152.848347 20.56665 154.188367 20.56665C156.041607 20.56665 157.543957 21.8797 157.543957 23.4994L157.549707 24.957V27.5711C157.549707 28.614 157.525137 29.3527 157.826507 30.2784M157.170357 24.957H154.442387C151.938987 24.957 150.638737 26.3433 150.638737 27.8374C150.638737 29.3315 151.876847 30.3408 153.492517 30.3408C155.474747 30.3408 157.100587 28.8882 157.501157 27.7324 M60.837197 51.1299C60.176397 53.0338 58.387577 54.3984 56.284597 54.3984C53.619647 54.3984 51.459277 52.2071 51.459277 49.5039V45.62109C51.459277 42.91792 53.619647 40.72656 56.284597 40.72656C58.387577 40.72656 60.176397 42.09117 60.837197 43.99505 M68.884798 44.60908C67.504378 44.41894 66.255988 45.31927 65.614008 46.6193M65.259378 44.77269V54.1226 M72.568435 40.97076H72.592365M72.552205 44.80402V54.1446 M77.597628 46.2457C77.961988 45.28012 79.378338 44.56665 80.718358 44.56665C82.571598 44.56665 84.073948 45.8797 84.073948 47.4994L84.079698 48.957V51.5711C84.079698 52.614 84.055128 53.3527 84.356498 54.2784M83.700348 48.957H80.972378C78.468978 48.957 77.168728 50.3433 77.168728 51.8374C77.168728 53.3315 78.406838 54.3408 80.022508 54.3408C82.004738 54.3408 83.630578 52.8882 84.031148 51.7324 M91.879319 54.3258C90.469659 54.4655 89.611749 53.7322 89.611749 52.3869V42.08093M91.761659 44.642H89.998249M87.501557 44.642H89.235439 M95.968444 40.97076H95.992374M95.952214 44.80402V54.1446 M107.03276 44.69055L103.6633 54.119L103.46206 54.1189L100.05774 44.69055 M111.208442 40.97076H111.232372M111.192212 44.80402V54.1446 M123.119765 54.1243V40.12329M122.760015 52.7727C121.898015 53.8707 120.799705 54.3402 119.490145 54.3402C117.308815 54.3402 115.657485 53.0292 115.657485 49.4576C115.657485 45.88607 117.414475 44.57507 119.595795 44.57507C120.865405 44.57507 122.074965 45.11426 122.760015 46.1748 M128.087634 46.2457C128.451994 45.28012 129.868344 44.56665 131.208364 44.56665C133.061604 44.56665 134.563954 45.8797 134.563954 47.4994L134.569704 48.957V51.5711C134.569704 52.614 134.545134 53.3527 134.846504 54.2784M134.190354 48.957H131.462384C128.958984 48.957 127.658734 50.3433 127.658734 51.8374C127.658734 53.3315 128.896844 54.3408 130.512514 54.3408C132.494744 54.3408 134.120584 52.8882 134.521154 51.7324 M146.399764 54.1243V40.12329M146.040014 52.7727C145.178014 53.8707 144.079704 54.3402 142.770144 54.3402C140.588814 54.3402 138.937484 53.0292 138.937484 49.4576C138.937484 45.88607 140.694474 44.57507 142.875794 44.57507C144.145404 44.57507 145.354964 45.11426 146.040014 46.1748 M157.897455 53.2181C156.923665 54.1548 155.898965 54.3386 154.713505 54.3386C152.644735 54.3386 150.781495 53.0276 150.781495 49.4561C150.781495 45.88449 152.590885 44.57349 154.659655 44.57349C156.728435 44.57349 158.331785 45.62966 158.331785 49.2012H151.112265"></path>
        </g>
      </g>
    </g>
    <g id="g-root-bulb_145hsim1nym8zz-stroke" data-item-order="0" data-item-id="bulb_145hsim1nym8zz" data-item-class="Icon Stroke SceneTarget Indexed" data-item-index="5" data-renderer-id="0" transform="matrix(1, 0, 0, 1, 219, 339)">
      <g id="bulb_145hsim1nym8zz-stroke" fill="none" stroke-linecap="round" stroke-linejoin="round" stroke-miterlimit="1.5" stroke="#dd8433" stroke-width="1" transform="matrix(2, 0, 0, 2, -12, -14)">
        <g xmlns="http://www.w3.org/2000/svg" transform="translate(11, 12)">
          <path d="M12 22L12 23.5M15,17.285V20c0,1.426-1.2,2-3,2s-3-.574-3-2V17.285M12 17.197L12 13 10 11M14.5,17.5a6.336,6.336,0,0,0,4-6A6.619,6.619,0,0,0,12,5a6.619,6.619,0,0,0-6.5,6.5,6.336,6.336,0,0,0,4,6ZM9 19.5L15 19.5M12 0.5L12 2.5M1 10.5L3.291 10.5M3.5 3L5.5 5M23 10.5L20.709 10.5M20.5 3L18.5 5M12 13L14 11"></path>
        </g>
      </g>
    </g>
  </g>
</svg>