<svg width="734" height="302" viewBox="0 0 734 302" style="fill:none;stroke:none;fill-rule:evenodd;clip-rule:evenodd;stroke-linecap:round;stroke-linejoin:round;stroke-miterlimit:1.5;" version="1.1"
  xmlns="http://www.w3.org/2000/svg"
  xmlns:xlink="http://www.w3.org/1999/xlink">
  <g id="blend" style="mix-blend-mode:multiply">
    <g id="g-root--1.cu_sy_8wjb7i1pwds74-fill" data-item-order="-21595" data-item-id="-1.cu_sy_8wjb7i1pwds74" data-item-class="ScenePart Stroke" data-item-index="-1" data-renderer-id="0" transform="matrix(1, 0, 0, 1, 351.0040283203125, 63)"></g>
    <g id="g-root-3.cr-big_cr_1um6uta1pwdtkz-fill" data-item-order="-21594" data-item-id="3.cr-big_cr_1um6uta1pwdtkz" data-item-class="Shape Stroke Fill ScenePart Indexed" data-item-index="3" data-renderer-id="0" transform="matrix(1, 0, 0, 1, 327, 183)">
      <g id="3.cr-big_cr_1um6uta1pwdtkz-fill" stroke="none" fill="#e9fbf3" transform="matrix(1, 0, 0, 1, -2, -2)">
        <g xmlns="http://www.w3.org/2000/svg" transform="translate(12, 12)">
          <path d="M0 36a36 36 0 1 0 72 0a36 36 0 1 0 -72 0"></path>
        </g>
      </g>
    </g>
    <g id="g-root-2.cr-big_cr_waym1pwdszu-fill" data-item-order="-21592" data-item-id="2.cr-big_cr_waym1pwdszu" data-item-class="Shape Stroke Fill ScenePart Indexed" data-item-index="2" data-renderer-id="0" transform="matrix(1, 0, 0, 1, 327, 86.9998779296875)">
      <g id="2.cr-big_cr_waym1pwdszu-fill" stroke="none" fill="#fef2e6" transform="matrix(1, 0, 0, 1, -2, -2)">
        <g xmlns="http://www.w3.org/2000/svg" transform="translate(12, 12)">
          <path d="M0 36a36 36 0 1 0 72 0a36 36 0 1 0 -72 0"></path>
        </g>
      </g>
    </g>
    <g id="g-root-1.cr-big_cr_waym1pwdszt-fill" data-item-order="-21590" data-item-id="1.cr-big_cr_waym1pwdszt" data-item-class="Shape Stroke Fill ScenePart Indexed Indexed_1" data-item-index="1" data-renderer-id="0" transform="matrix(1, 0, 0, 1, 327, -9)">
      <g id="1.cr-big_cr_waym1pwdszt-fill" stroke="none" fill="#e6efff" transform="matrix(1, 0, 0, 1, -2, -2)">
        <g xmlns="http://www.w3.org/2000/svg" transform="translate(12, 12)">
          <path d="M0 36a36 36 0 1 0 72 0a36 36 0 1 0 -72 0"></path>
        </g>
      </g>
    </g>
    <g id="g-root-tx_1960s_1uo2a2m1pwdsle-fill" data-item-order="0" data-item-id="tx_1960s_1uo2a2m1pwdsle" data-item-class="Label Stroke SceneTarget Indexed Indexed_1" data-item-index="1" data-renderer-id="0" transform="matrix(1, 0, 0, 1, 231, 15)"></g>
    <g id="g-root-2_1q7mav21pwkume-fill" data-item-order="0" data-item-id="2_1q7mav21pwkume" data-item-class="Icon Stroke SceneTarget Indexed Indexed_1 InsideFill InsideColorFill" data-item-index="1" data-renderer-id="0" transform="matrix(1, 0, 0, 1, 339, 3)"></g>
    <g id="g-root-tx_mooresla_htf9mm1pwdssv-fill" data-item-order="0" data-item-id="tx_mooresla_htf9mm1pwdssv" data-item-class="Label Stroke SceneTarget Indexed Indexed_1" data-item-index="1" data-renderer-id="0" transform="matrix(1, 0, 0, 1, 171, 51)"></g>
    <g id="g-root-brow_4hyr9a1pwkt8l-fill" data-item-order="0" data-item-id="brow_4hyr9a1pwkt8l" data-item-class="Icon Stroke SceneTarget Indexed InsideFill InsideColorFill" data-item-index="2" data-renderer-id="0" transform="matrix(1, 0, 0, 1, 339, 98.9998779296875)"></g>
    <g id="g-root-tx_1980s_2rq7y1pwds09-fill" data-item-order="0" data-item-id="tx_1980s_2rq7y1pwds09" data-item-class="Label Stroke SceneTarget Indexed" data-item-index="2" data-renderer-id="0" transform="matrix(1, 0, 0, 1, 423, 110.9998779296875)"></g>
    <g id="g-root-tx_internet_qp29vi1pwds06-fill" data-item-order="0" data-item-id="tx_internet_qp29vi1pwds06" data-item-class="Label Stroke SceneTarget Indexed" data-item-index="2" data-renderer-id="0" transform="matrix(1, 0, 0, 1, 423, 146.9998779296875)"></g>
    <g id="g-root-tx_2000s_8xs9dq1pwdudc-fill" data-item-order="0" data-item-id="tx_2000s_8xs9dq1pwdudc" data-item-class="Label Stroke SceneTarget Indexed" data-item-index="3" data-renderer-id="0" transform="matrix(1, 0, 0, 1, 231, 206.9998779296875)"></g>
    <g id="g-root-down_hsssji1pwkutg-fill" data-item-order="0" data-item-id="down_hsssji1pwkutg" data-item-class="Icon Stroke SceneTarget Indexed InsideFill InsideColorFill" data-item-index="3" data-renderer-id="0" transform="matrix(1, 0, 0, 1, 339, 194.9998779296875)"></g>
    <g id="g-root-tx_mobilean_13zwb5q1pwdtl1-fill" data-item-order="0" data-item-id="tx_mobilean_13zwb5q1pwdtl1" data-item-class="Label Stroke SceneTarget Indexed" data-item-index="3" data-renderer-id="0" transform="matrix(1, 0, 0, 1, -9, 242.9998779296875)"></g>
    <g id="g-root--1.cu_sy_8wjb7i1pwds74-stroke" data-item-order="-21595" data-item-id="-1.cu_sy_8wjb7i1pwds74" data-item-class="ScenePart Stroke" data-item-index="-1" data-renderer-id="0" transform="matrix(1, 0, 0, 1, 351.0040283203125, 63)">
      <g id="-1.cu_sy_8wjb7i1pwds74-stroke" fill="none" stroke-linecap="round" stroke-linejoin="round" stroke-miterlimit="1.5" stroke="#484848" stroke-width="2" transform="matrix(1, 0, 0, 1, -2.003997802734375, -2)">
        <g xmlns="http://www.w3.org/2000/svg" transform="translate(-348, -144)">
          <path d="M 360.004 372L 372.012 384L 384.004 372.016M 372 384L 372 348M 372 276L 372 252M 372 180L 372 156"></path>
        </g>
      </g>
    </g>
    <g id="g-root-3.cr-big_cr_1um6uta1pwdtkz-stroke" data-item-order="-21594" data-item-id="3.cr-big_cr_1um6uta1pwdtkz" data-item-class="Shape Stroke Fill ScenePart Indexed" data-item-index="3" data-renderer-id="0" transform="matrix(1, 0, 0, 1, 327, 183)">
      <g id="3.cr-big_cr_1um6uta1pwdtkz-stroke" fill="none" stroke-linecap="round" stroke-linejoin="round" stroke-miterlimit="1.5" stroke="#3bc482" stroke-width="2" transform="matrix(1, 0, 0, 1, -2, -2)">
        <g xmlns="http://www.w3.org/2000/svg" transform="translate(12, 12)">
          <path d="M0 36a36 36 0 1 0 72 0a36 36 0 1 0 -72 0"></path>
        </g>
      </g>
    </g>
    <g id="g-root-2.cr-big_cr_waym1pwdszu-stroke" data-item-order="-21592" data-item-id="2.cr-big_cr_waym1pwdszu" data-item-class="Shape Stroke Fill ScenePart Indexed" data-item-index="2" data-renderer-id="0" transform="matrix(1, 0, 0, 1, 327, 86.9998779296875)">
      <g id="2.cr-big_cr_waym1pwdszu-stroke" fill="none" stroke-linecap="round" stroke-linejoin="round" stroke-miterlimit="1.5" stroke="#dd8433" stroke-width="2" transform="matrix(1, 0, 0, 1, -2, -2)">
        <g xmlns="http://www.w3.org/2000/svg" transform="translate(12, 12)">
          <path d="M0 36a36 36 0 1 0 72 0a36 36 0 1 0 -72 0"></path>
        </g>
      </g>
    </g>
    <g id="g-root-1.cr-big_cr_waym1pwdszt-stroke" data-item-order="-21590" data-item-id="1.cr-big_cr_waym1pwdszt" data-item-class="Shape Stroke Fill ScenePart Indexed Indexed_1" data-item-index="1" data-renderer-id="0" transform="matrix(1, 0, 0, 1, 327, -9)">
      <g id="1.cr-big_cr_waym1pwdszt-stroke" fill="none" stroke-linecap="round" stroke-linejoin="round" stroke-miterlimit="1.5" stroke="#4682e3" stroke-width="2" transform="matrix(1, 0, 0, 1, -2, -2)">
        <g xmlns="http://www.w3.org/2000/svg" transform="translate(12, 12)">
          <path d="M0 36a36 36 0 1 0 72 0a36 36 0 1 0 -72 0"></path>
        </g>
      </g>
    </g>
    <g id="g-root-tx_1960s_1uo2a2m1pwdsle-stroke" data-item-order="0" data-item-id="tx_1960s_1uo2a2m1pwdsle" data-item-class="Label Stroke SceneTarget Indexed Indexed_1" data-item-index="1" data-renderer-id="0" transform="matrix(1, 0, 0, 1, 231, 15)">
      <g id="tx_1960s_1uo2a2m1pwdsle-stroke" fill="none" stroke-linecap="square" stroke-linejoin="miter" stroke-miterlimit="4" stroke="#4682e3" stroke-width="2" transform="matrix(1, 0, 0, 1, 12, 2)">
        <g xmlns="http://www.w3.org/2000/svg" transform="translate(66, 8)">
          <path d="M-53.511239 6.37398L-50.232799 4.93164L-49.560059 4.93186L-49.559949 18.1248 M-34.907757 10.3245C-35.491237 12.1709 -36.760817 12.9347 -38.387197 13.0026C-40.651627 13.0971 -42.397397 11.3858 -42.355177 8.9567C-42.312967 6.52764 -40.807747 4.63849 -38.387197 4.74448C-35.966647 4.85047 -34.667947 6.96908 -34.671027 9.44165C-34.671027 9.44165 -34.642467 11.5922 -34.909167 12.9257C-35.224587 14.5028 -35.846817 18.1347 -40.313217 18.1347 M-29.962317 12.7875C-29.378837 10.9411 -28.109257 10.1773 -26.482887 10.1094C-24.218447 10.0148 -22.472687 11.7262 -22.514897 14.1553C-22.557117 16.5843 -24.062327 18.4735 -26.482887 18.3675C-28.903437 18.2615 -30.202127 16.1429 -30.199047 13.6703C-30.199047 13.6703 -30.227607 11.5198 -29.960907 10.1863C-29.645497 8.60918 -29.023267 4.97729 -24.556867 4.97729 M-14.731641 4.74023C-17.772761 4.74023 -18.564691 7.47075 -18.564691 10.3793V12.7055C-18.564691 15.6141 -17.772761 18.3446 -14.731641 18.3446C-11.690511 18.3446 -10.886821 15.6141 -10.886821 12.7055V10.3793C-10.886821 7.47075 -11.690511 4.74023 -14.731641 4.74023Z M-0.272171 10.3814C-0.567901 9.4042 -1.722211 8.58374 -3.332301 8.58374C-5.220021 8.58374 -6.439691 9.44691 -6.531341 10.7511C-6.636381 12.2457 -5.402271 12.8218 -3.471771 13.3386C-1.778161 13.7969 0.165249 14.2772 0.010959 16.1222C-0.088411 17.3105 -1.065181 18.3458 -3.421901 18.3458C-5.327831 18.3458 -6.405211 17.5302 -6.739571 16.4244"></path>
        </g>
      </g>
    </g>
    <g id="g-root-2_1q7mav21pwkume-stroke" data-item-order="0" data-item-id="2_1q7mav21pwkume" data-item-class="Icon Stroke SceneTarget Indexed Indexed_1 InsideFill InsideColorFill" data-item-index="1" data-renderer-id="0" transform="matrix(1, 0, 0, 1, 339, 3)">
      <g id="2_1q7mav21pwkume-stroke" fill="none" stroke-linecap="round" stroke-linejoin="round" stroke-miterlimit="1.5" stroke="#4682e3" stroke-width="1" transform="matrix(2, 0, 0, 2, -14, -12)">
        <g xmlns="http://www.w3.org/2000/svg" transform="translate(12, 11)">
          <path d="M3.5 3.5h16.998s1 0 1 1v15s0 1 -1 1 h-16.998s-1 0 -1 -1v-15s0 -1 1 -1M12 1.5L12 3.5M6.502 1.5L6.502 3.5M0.5 12L2.5 12M0.5 16.5L2.5 16.5M0.5 7.5L2.5 7.5M23.5 12L21.5 12M23.5 16.5L21.5 16.5M23.5 7.5L21.5 7.5M12 22.5L12 20.5M6.502 22.5L6.502 20.5M17.498 1.5L17.498 3.5M17.498 22.5L17.498 20.5M14.5,16h-5L13,12.911c.987-.87,1.741-1.479,1.45-2.911a2.5,2.5,0,0,0-4.95.5"></path>
        </g>
      </g>
    </g>
    <g id="g-root-tx_mooresla_htf9mm1pwdssv-stroke" data-item-order="0" data-item-id="tx_mooresla_htf9mm1pwdssv" data-item-class="Label Stroke SceneTarget Indexed Indexed_1" data-item-index="1" data-renderer-id="0" transform="matrix(1, 0, 0, 1, 171, 51)">
      <g id="tx_mooresla_htf9mm1pwdssv-stroke" fill="none" stroke-linecap="square" stroke-linejoin="miter" stroke-miterlimit="4" stroke="#484848" stroke-width="1" transform="matrix(1, 0, 0, 1, 7, 2)">
        <g xmlns="http://www.w3.org/2000/svg" transform="translate(-81, 8)">
          <path d="M100.84674 18.1451L93.69814 18.1452L93.65644 11.2996V4.93762 M111.277468 17.2181C110.303678 18.1548 109.278978 18.3386 108.093518 18.3386C106.024748 18.3386 104.161508 17.0276 104.161508 13.4561C104.161508 9.88449 105.970898 8.57349 108.039668 8.57349C110.108448 8.57349 111.711798 9.62966 111.711798 13.2012H104.492278 M115.938453 4.97076H115.962383M115.922223 8.80402V18.1446 M133.849769 18.1243V4.12329M133.490019 16.7727C132.628019 17.8707 131.529709 18.3402 130.220149 18.3402C128.038819 18.3402 126.387489 17.0292 126.387489 13.4576C126.387489 9.88607 128.144479 8.57507 130.325799 8.57507C131.595409 8.57507 132.804969 9.11426 133.490019 10.1748 M145.347467 17.2181C144.373677 18.1548 143.348977 18.3386 142.163517 18.3386C140.094747 18.3386 138.231507 17.0276 138.231507 13.4561C138.231507 9.88449 140.040897 8.57349 142.109667 8.57349C144.178447 8.57349 145.781797 9.62966 145.781797 13.2012H138.562277 M156.180972 18.1165L156.189222 4.97778H157.158072L162.461362 18.1151H162.776592L168.095712 4.97778H169.065612L169.060212 18.1165 M181.956999 13.4569C181.956999 16.5223 180.086049 18.3403 177.778109 18.3403C175.470169 18.3403 173.599209 16.5223 173.599209 13.4569C173.599209 10.3915 175.470169 8.57349 177.778109 8.57349C180.086049 8.57349 181.956999 10.3915 181.956999 13.4569Z M193.947004 13.4569C193.947004 16.5223 192.076054 18.3403 189.768114 18.3403C187.460174 18.3403 185.589214 16.5223 185.589214 13.4569C185.589214 10.3915 187.460174 8.57349 189.768114 8.57349C192.076054 8.57349 193.947004 10.3915 193.947004 13.4569Z M201.74481 8.60908C200.36439 8.41894 199.116 9.31927 198.47402 10.6193M198.11939 8.77269V18.1226 M211.897455 17.2181C210.923665 18.1548 209.898965 18.3386 208.713505 18.3386C206.644735 18.3386 204.781495 17.0276 204.781495 13.4561C204.781495 9.88449 206.590885 8.57349 208.659655 8.57349C210.728435 8.57349 212.331785 9.62966 212.331785 13.2012H205.112265"></path>
        </g>
      </g>
    </g>
    <g id="g-root-brow_4hyr9a1pwkt8l-stroke" data-item-order="0" data-item-id="brow_4hyr9a1pwkt8l" data-item-class="Icon Stroke SceneTarget Indexed InsideFill InsideColorFill" data-item-index="2" data-renderer-id="0" transform="matrix(1, 0, 0, 1, 339, 98.9998779296875)">
      <g id="brow_4hyr9a1pwkt8l-stroke" fill="none" stroke-linecap="round" stroke-linejoin="round" stroke-miterlimit="1.5" stroke="#dd8433" stroke-width="1" transform="matrix(2, 0, 0, 2, -14, -14)">
        <g xmlns="http://www.w3.org/2000/svg" transform="translate(12, 12)">
          <path d="M0.5 4.5L20.5 4.5M3.5,2.25a.25.25,0,1,0,.25.25.25.25,0,0,0-.25-.25h0M5.5,2.25a.25.25,0,1,0,.25.25.25.25,0,0,0-.25-.25h0M7.5,2.25a.25.25,0,1,0,.25.25.25.25,0,0,0-.25-.25h0M7.5,16.5h-5a2,2,0,0,1-2-2V2.5a2,2,0,0,1,2-2h16a2,2,0,0,1,2,2v6M16.5,23.5c-2-1.5-3-4.5-3-7s1-5.5,3-7M16.5,23.5c2-1.5,3-4.5,3-7s-1-5.5-3-7M10.174 13.5L22.826 13.5M10.174 19.5L22.826 19.5M9.5 16.5L23.5 16.5M9.500 16.500 A7.000 7.000 0 1 0 23.500 16.500 A7.000 7.000 0 1 0 9.500 16.500 Z"></path>
        </g>
      </g>
    </g>
    <g id="g-root-tx_1980s_2rq7y1pwds09-stroke" data-item-order="0" data-item-id="tx_1980s_2rq7y1pwds09" data-item-class="Label Stroke SceneTarget Indexed" data-item-index="2" data-renderer-id="0" transform="matrix(1, 0, 0, 1, 423, 110.9998779296875)">
      <g id="tx_1980s_2rq7y1pwds09-stroke" fill="none" stroke-linecap="square" stroke-linejoin="miter" stroke-miterlimit="4" stroke="#dd8433" stroke-width="2" transform="matrix(1, 0, 0, 1, 2, 2)">
        <g xmlns="http://www.w3.org/2000/svg" transform="translate(8, 8)">
          <path d="M4.60876 6.37398L7.8872 4.93164L8.55994 4.93186L8.56005 18.1248 M23.21224 10.3245C22.62876 12.1709 21.35918 12.9347 19.7328 13.0026C17.46837 13.0971 15.7226 11.3858 15.76482 8.9567C15.80703 6.52764 17.31225 4.63849 19.7328 4.74448C22.15335 4.85047 23.45205 6.96908 23.44897 9.44165C23.44897 9.44165 23.47753 11.5922 23.21083 12.9257C22.89541 14.5028 22.27318 18.1347 17.80678 18.1347 M35.03224 10.3245C34.44876 12.1709 33.17918 12.9347 31.5528 13.0026C29.28837 13.0971 27.5426 11.3858 27.58482 8.9567C27.62703 6.52764 29.13225 4.63849 31.5528 4.74448C33.97335 4.85047 35.27205 6.96908 35.26897 9.44165C35.26897 9.44165 35.29753 11.5922 35.03083 12.9257C34.71541 14.5028 34.09318 18.1347 29.62678 18.1347 M43.388358 4.74023C40.347238 4.74023 39.555308 7.47075 39.555308 10.3793V12.7055C39.555308 15.6141 40.347238 18.3446 43.388358 18.3446C46.429488 18.3446 47.233178 15.6141 47.233178 12.7055V10.3793C47.233178 7.47075 46.429488 4.74023 43.388358 4.74023Z M57.847828 10.3814C57.552098 9.4042 56.397788 8.58374 54.787698 8.58374C52.899978 8.58374 51.680308 9.44691 51.588658 10.7511C51.483618 12.2457 52.717728 12.8218 54.648228 13.3386C56.341838 13.7969 58.285248 14.2772 58.130958 16.1222C58.031588 17.3105 57.054818 18.3458 54.698098 18.3458C52.792168 18.3458 51.714788 17.5302 51.380428 16.4244"></path>
        </g>
      </g>
    </g>
    <g id="g-root-tx_internet_qp29vi1pwds06-stroke" data-item-order="0" data-item-id="tx_internet_qp29vi1pwds06" data-item-class="Label Stroke SceneTarget Indexed" data-item-index="2" data-renderer-id="0" transform="matrix(1, 0, 0, 1, 423, 146.9998779296875)">
      <g id="tx_internet_qp29vi1pwds06-stroke" fill="none" stroke-linecap="square" stroke-linejoin="miter" stroke-miterlimit="4" stroke="#484848" stroke-width="1" transform="matrix(1, 0, 0, 1, 2, 2)">
        <g xmlns="http://www.w3.org/2000/svg" transform="translate(8, 8)">
          <path d="M4.86511 4.93762V18.1269 M10.08891 8.77967L10.08917 18.1279M16.92346 18.1279V12.0738C16.92346 11.3619 17.01919 8.79026 14.6361 8.58694C12.87806 8.43694 11.18902 9.56164 10.41268 10.9562 M24.66932 18.3258C23.25966 18.4655 22.40175 17.7322 22.40175 16.3869V6.08093M24.55166 8.642H22.78825M20.291558 8.642H22.02544 M35.227461 17.2181C34.253671 18.1548 33.228971 18.3386 32.043511 18.3386C29.974741 18.3386 28.111501 17.0276 28.111501 13.4561C28.111501 9.88449 29.920891 8.57349 31.989661 8.57349C34.058441 8.57349 35.661791 9.62966 35.661791 13.2012H28.442271 M43.314802 8.60908C41.934382 8.41894 40.685992 9.31927 40.044012 10.6193M39.689382 8.77269V18.1226 M46.818912 8.77967L46.819172 18.1279M53.653462 18.1279V12.0738C53.653462 11.3619 53.749192 8.79026 51.366102 8.58694C49.608062 8.43694 47.919022 9.56164 47.142682 10.9562 M65.077463 17.2181C64.103673 18.1548 63.078973 18.3386 61.893513 18.3386C59.824743 18.3386 57.961503 17.0276 57.961503 13.4561C57.961503 9.88449 59.770893 8.57349 61.839663 8.57349C63.908443 8.57349 65.511793 9.62966 65.511793 13.2012H58.292273 M72.52932 18.3258C71.11966 18.4655 70.26175 17.7322 70.26175 16.3869V6.08093M72.41166 8.642H70.64825M68.151558 8.642H69.88544 M76.585878 17.9874H76.609798M76.585878 8.93494H76.609798 M87.502917 8.77398V22.3934M87.868797 10.1239C88.751807 9.02711 89.933107 8.55811 91.242007 8.55811C93.423337 8.55811 95.001987 9.90408 95.001987 13.4756C95.001987 17.0472 93.317687 18.3232 91.136357 18.3232C89.865137 18.3232 88.579337 17.7827 87.868797 16.7195 M107.076994 13.4569C107.076994 16.5223 105.206044 18.3403 102.898104 18.3403C100.590164 18.3403 98.719204 16.5223 98.719204 13.4569C98.719204 10.3915 100.590164 8.57349 102.898104 8.57349C105.206044 8.57349 107.076994 10.3915 107.076994 13.4569Z M111.262912 8.77398V22.3934M111.628792 10.1239C112.511802 9.02711 113.693102 8.55811 115.002002 8.55811C117.183332 8.55811 118.761982 9.90408 118.761982 13.4756C118.761982 17.0472 117.077682 18.3232 114.896352 18.3232C113.625132 18.3232 112.339332 17.7827 111.628792 16.7195 M129.846618 18.1148L129.846358 8.7666M123.012068 8.7666L123.012068 14.8207C123.012068 15.5325 122.917068 18.0958 125.299428 18.3075C127.389658 18.4933 128.663088 17.6528 129.365458 16.4701 M134.785609 4.125V18.1264 M139.817622 10.2457C140.181982 9.28012 141.598332 8.56665 142.938352 8.56665C144.791592 8.56665 146.293942 9.8797 146.293942 11.4994L146.299692 12.957V15.5711C146.299692 16.614 146.275122 17.3527 146.576492 18.2784M145.920342 12.957H143.192372C140.688972 12.957 139.388722 14.3433 139.388722 15.8374C139.388722 17.3315 140.626832 18.3408 142.242502 18.3408C144.224732 18.3408 145.850572 16.8882 146.251142 15.7324 M154.7348 8.60908C153.35438 8.41894 152.10599 9.31927 151.46401 10.6193M151.10938 8.77269V18.1226 M158.418441 4.97076H158.442371M158.402211 8.80402V18.1446 M162.808947 8.78027H169.486137V8.93551L162.723927 17.9042V18.1284L169.779007 18.1283 M173.847621 10.2457C174.211981 9.28012 175.628331 8.56665 176.968351 8.56665C178.821591 8.56665 180.323941 9.8797 180.323941 11.4994L180.329691 12.957V15.5711C180.329691 16.614 180.305121 17.3527 180.606491 18.2784M179.950341 12.957H177.222371C174.718971 12.957 173.418721 14.3433 173.418721 15.8374C173.418721 17.3315 174.656831 18.3408 176.272501 18.3408C178.254731 18.3408 179.880571 16.8882 180.281141 15.7324 M187.946259 22.4782C188.582779 22.5791 189.479369 22.2513 189.583489 21.4032C189.682989 20.5928 189.156279 20.0199 188.383329 19.8846L188.596649 18.5043M191.926509 16.2538C191.554529 17.6492 189.986929 18.3386 188.517829 18.3386C186.380459 18.3386 184.614589 17.0276 184.614589 13.4561C184.614589 9.88449 186.483989 8.57349 188.621359 8.57349C190.128369 8.57349 191.778479 9.41043 192.011769 10.9154 M196.895514 5.3457C197.078524 4.88799 197.672074 4.37024 198.382514 4.37024C199.349904 4.37024 199.902354 5.3457 200.960004 5.3457C202.248744 5.3457 202.584274 4.37118 202.584274 4.37118M196.267634 10.2457C196.631994 9.28012 198.048344 8.56665 199.388364 8.56665C201.241604 8.56665 202.743954 9.8797 202.743954 11.4994L202.749704 12.957V15.5711C202.749704 16.614 202.725134 17.3527 203.026504 18.2784M202.370354 12.957H199.642384C197.138984 12.957 195.838734 14.3433 195.838734 15.8374C195.838734 17.3315 197.076844 18.3408 198.692514 18.3408C200.674744 18.3408 202.300584 16.8882 202.701154 15.7324 M215.367002 13.4569C215.367002 16.5223 213.496052 18.3403 211.188112 18.3403C208.880172 18.3403 207.009212 16.5223 207.009212 13.4569C207.009212 10.3915 208.880172 8.57349 211.188112 8.57349C213.496052 8.57349 215.367002 10.3915 215.367002 13.4569Z M232.559768 18.1243V4.12329M232.200018 16.7727C231.338018 17.8707 230.239708 18.3402 228.930148 18.3402C226.748818 18.3402 225.097488 17.0292 225.097488 13.4576C225.097488 9.88607 226.854478 8.57507 229.035798 8.57507C230.305408 8.57507 231.514968 9.11426 232.200018 10.1748 M237.527644 10.2457C237.892004 9.28012 239.308354 8.56665 240.648374 8.56665C242.501614 8.56665 244.003964 9.8797 244.003964 11.4994L244.009714 12.957V15.5711C244.009714 16.614 243.985144 17.3527 244.286514 18.2784M243.630364 12.957H240.902394C238.398994 12.957 237.098744 14.3433 237.098744 15.8374C237.098744 17.3315 238.336854 18.3408 239.952524 18.3408C241.934754 18.3408 243.560594 16.8882 243.961164 15.7324 M254.038272 8.6897L256.752972 18.1193L257.131492 18.1193L260.073312 8.78229H260.507662L263.514122 18.1193H263.864122L266.581422 8.6897 M277.247492 17.2181C276.273702 18.1548 275.249002 18.3386 274.063542 18.3386C271.994772 18.3386 270.131532 17.0276 270.131532 13.4561C270.131532 9.88449 271.940922 8.57349 274.009692 8.57349C276.078472 8.57349 277.681822 9.62966 277.681822 13.2012H270.462302 M281.754577 18.1243V4.12329M282.138517 10.1378C282.827617 9.10175 284.023747 8.57507 285.278547 8.57507C287.459867 8.57507 289.216857 9.88607 289.216857 13.4576C289.216857 17.0292 287.565527 18.3402 285.384197 18.3402C284.086867 18.3402 282.996847 17.8795 282.138517 16.8033"></path>
        </g>
      </g>
    </g>
    <g id="g-root-tx_2000s_8xs9dq1pwdudc-stroke" data-item-order="0" data-item-id="tx_2000s_8xs9dq1pwdudc" data-item-class="Label Stroke SceneTarget Indexed" data-item-index="3" data-renderer-id="0" transform="matrix(1, 0, 0, 1, 231, 206.9998779296875)">
      <g id="tx_2000s_8xs9dq1pwdudc-stroke" fill="none" stroke-linecap="square" stroke-linejoin="miter" stroke-miterlimit="4" stroke="#3bc482" stroke-width="2" transform="matrix(1, 0, 0, 1, 11, 2)">
        <g xmlns="http://www.w3.org/2000/svg" transform="translate(67, 8)">
          <path d="M-54.069031 7.64093C-53.832731 5.87576 -52.227341 4.74194 -50.387641 4.74194C-48.322271 4.74194 -46.828521 5.8811 -46.683281 7.7593C-46.538051 9.6375 -47.911171 11.2712 -48.291281 11.6737C-48.671391 12.0761 -53.959411 17.8337 -53.959411 17.8337V18.1244H-45.932401 M-38.37164 4.74023C-41.41276 4.74023 -42.20469 7.47075 -42.20469 10.3793V12.7055C-42.20469 15.6141 -41.41276 18.3446 -38.37164 18.3446C-35.33051 18.3446 -34.52682 15.6141 -34.52682 12.7055V10.3793C-34.52682 7.47075 -35.33051 4.74023 -38.37164 4.74023Z M-26.551641 4.74023C-29.592761 4.74023 -30.384691 7.47075 -30.384691 10.3793V12.7055C-30.384691 15.6141 -29.592761 18.3446 -26.551641 18.3446C-23.510511 18.3446 -22.706821 15.6141 -22.706821 12.7055V10.3793C-22.706821 7.47075 -23.510511 4.74023 -26.551641 4.74023Z M-14.731641 4.74023C-17.772761 4.74023 -18.564691 7.47075 -18.564691 10.3793V12.7055C-18.564691 15.6141 -17.772761 18.3446 -14.731641 18.3446C-11.690511 18.3446 -10.886821 15.6141 -10.886821 12.7055V10.3793C-10.886821 7.47075 -11.690511 4.74023 -14.731641 4.74023Z M-0.272171 10.3814C-0.567901 9.4042 -1.722211 8.58374 -3.332301 8.58374C-5.220021 8.58374 -6.439691 9.44691 -6.531341 10.7511C-6.636381 12.2457 -5.402271 12.8218 -3.471771 13.3386C-1.778161 13.7969 0.165249 14.2772 0.010959 16.1222C-0.088411 17.3105 -1.065181 18.3458 -3.421901 18.3458C-5.327831 18.3458 -6.405211 17.5302 -6.739571 16.4244"></path>
        </g>
      </g>
    </g>
    <g id="g-root-down_hsssji1pwkutg-stroke" data-item-order="0" data-item-id="down_hsssji1pwkutg" data-item-class="Icon Stroke SceneTarget Indexed InsideFill InsideColorFill" data-item-index="3" data-renderer-id="0" transform="matrix(1, 0, 0, 1, 339, 194.9998779296875)">
      <g id="down_hsssji1pwkutg-stroke" fill="none" stroke-linecap="round" stroke-linejoin="round" stroke-miterlimit="1.5" stroke="#3bc482" stroke-width="1" transform="matrix(2, 0, 0, 2, -14, -12)">
        <g xmlns="http://www.w3.org/2000/svg" transform="translate(12, 11)">
          <path d="M20.5,13.906A4.311,4.311,0,0,0,23,9.857a4.711,4.711,0,0,0-4.954-4.635A6.706,6.706,0,0,0,12,1.5,6.605,6.605,0,0,0,5.325,7.609,3.561,3.561,0,0,0,1,11.018,3.186,3.186,0,0,0,3.5,14.3M9,11.5h6a1,1,0,0,1,1,1v9a1,1,0,0,1-1,1H9a1,1,0,0,1-1-1v-9A1,1,0,0,1,9,11.5ZM12,19.75a.25.25,0,1,0,.25.25.25.25,0,0,0-.25-.25h0M12 4L12 9.5M14.5 7L12 9.5 9.5 7"></path>
        </g>
      </g>
    </g>
    <g id="g-root-tx_mobilean_13zwb5q1pwdtl1-stroke" data-item-order="0" data-item-id="tx_mobilean_13zwb5q1pwdtl1" data-item-class="Label Stroke SceneTarget Indexed" data-item-index="3" data-renderer-id="0" transform="matrix(1, 0, 0, 1, -9, 242.9998779296875)">
      <g id="tx_mobilean_13zwb5q1pwdtl1-stroke" fill="none" stroke-linecap="square" stroke-linejoin="miter" stroke-miterlimit="4" stroke="#484848" stroke-width="1" transform="matrix(1, 0, 0, 1, 2, 1)">
        <g xmlns="http://www.w3.org/2000/svg" transform="translate(32, 9)">
          <path d="M-10.35279 15.1299C-11.01359 17.0338 -12.80241 18.3984 -14.90539 18.3984C-17.57034 18.3984 -19.73071 16.2071 -19.73071 13.5039V9.62109C-19.73071 6.91792 -17.57034 4.72656 -14.90539 4.72656C-12.80241 4.72656 -11.01359 6.09117 -10.35279 7.99505 M1.88701 13.4569C1.88701 16.5223 0.01606 18.3403 -2.29188 18.3403C-4.59982 18.3403 -6.47078 16.5223 -6.47078 13.4569C-6.47078 10.3915 -4.59982 8.57349 -2.29188 8.57349C0.01606 8.57349 1.88701 10.3915 1.88701 13.4569Z M6.099698 8.81417L6.099968 18.1624M12.934248 18.1624L12.923378 11.4697C12.858928 10.5262 12.491998 9.07848 10.617778 8.64916C8.678088 8.20484 7.198288 9.24827 6.461878 10.5949M19.769308 18.1624V12.1083C19.769308 11.3964 19.883908 9.20604 17.452908 8.64916C15.423808 8.18437 13.889508 9.34748 13.189118 10.7827 M24.542926 8.77398V22.3934M24.908806 10.1239C25.791816 9.02711 26.973116 8.55811 28.282016 8.55811C30.463346 8.55811 32.041996 9.90408 32.041996 13.4756C32.041996 17.0472 30.357696 18.3232 28.176366 18.3232C26.905146 18.3232 25.619346 17.7827 24.908806 16.7195 M43.126636 18.1148L43.126376 8.7666M36.292086 8.7666L36.292086 14.8207C36.292086 15.5325 36.197086 18.0958 38.579446 18.3075C40.669676 18.4933 41.943106 17.6528 42.645476 16.4701 M50.899323 18.3258C49.489663 18.4655 48.631753 17.7322 48.631753 16.3869V6.08093M50.781663 8.642H49.018253M46.521561 8.642H48.255443 M54.92763 10.2457C55.29199 9.28012 56.70834 8.56665 58.04836 8.56665C59.9016 8.56665 61.40395 9.8797 61.40395 11.4994L61.4097 12.957V15.5711C61.4097 16.614 61.38513 17.3527 61.6865 18.2784M61.03035 12.957H58.30238C55.79898 12.957 54.49873 14.3433 54.49873 15.8374C54.49873 17.3315 55.73684 18.3408 57.35251 18.3408C59.33474 18.3408 60.96058 16.8882 61.36115 15.7324 M69.026261 22.4782C69.662781 22.5791 70.559371 22.2513 70.663491 21.4032C70.762991 20.5928 70.236281 20.0199 69.463331 19.8846L69.676651 18.5043M73.006511 16.2538C72.634531 17.6492 71.066931 18.3386 69.597831 18.3386C67.460461 18.3386 65.694591 17.0276 65.694591 13.4561C65.694591 9.88449 67.563991 8.57349 69.701361 8.57349C71.208371 8.57349 72.858481 9.41043 73.091771 10.9154 M77.975508 5.3457C78.158518 4.88799 78.752068 4.37024 79.462508 4.37024C80.429898 4.37024 80.982348 5.3457 82.039998 5.3457C83.328738 5.3457 83.664268 4.37118 83.664268 4.37118M77.347628 10.2457C77.711988 9.28012 79.128338 8.56665 80.468358 8.56665C82.321598 8.56665 83.823948 9.8797 83.823948 11.4994L83.829698 12.957V15.5711C83.829698 16.614 83.805128 17.3527 84.106498 18.2784M83.450348 12.957H80.722378C78.218978 12.957 76.918728 14.3433 76.918728 15.8374C76.918728 17.3315 78.156838 18.3408 79.772508 18.3408C81.754738 18.3408 83.380578 16.8882 83.781148 15.7324 M96.446997 13.4569C96.446997 16.5223 94.576047 18.3403 92.268107 18.3403C89.960167 18.3403 88.089207 16.5223 88.089207 13.4569C88.089207 10.3915 89.960167 8.57349 92.268107 8.57349C94.576047 8.57349 96.446997 10.3915 96.446997 13.4569Z M106.990955 18.1165L106.999205 4.97778H107.968055L113.271345 18.1151H113.586575L118.905695 4.97778H119.875595L119.870195 18.1165 M130.018626 3.92761L128.771396 5.55454M132.767896 13.4672C132.767896 16.5326 130.896896 18.3506 128.588956 18.3506C126.281016 18.3506 124.410066 16.5326 124.410066 13.4672C124.410066 10.4018 126.281016 8.58374 128.588956 8.58374C130.896896 8.58374 132.767896 10.4018 132.767896 13.4672Z M143.102752 8.69055L139.733292 18.119L139.532052 18.1189L136.127732 8.69055 M153.747446 17.2181C152.773656 18.1548 151.748956 18.3386 150.563496 18.3386C148.494726 18.3386 146.631486 17.0276 146.631486 13.4561C146.631486 9.88449 148.440876 8.57349 150.509646 8.57349C152.578426 8.57349 154.181776 9.62966 154.181776 13.2012H146.962256 M158.365611 4.125V18.1264 M175.927454 17.2181C174.953664 18.1548 173.928964 18.3386 172.743504 18.3386C170.674734 18.3386 168.811494 17.0276 168.811494 13.4561C168.811494 9.88449 170.620884 8.57349 172.689654 8.57349C174.758434 8.57349 176.361784 9.62966 176.361784 13.2012H169.142264 M193.057459 17.2181C192.083669 18.1548 191.058969 18.3386 189.873509 18.3386C187.804739 18.3386 185.941499 17.0276 185.941499 13.4561C185.941499 9.88449 187.750889 8.57349 189.819659 8.57349C191.888439 8.57349 193.491789 9.62966 193.491789 13.2012H186.272269 M197.559694 8.81417L197.559964 18.1624M204.394244 18.1624L204.383374 11.4697C204.318924 10.5262 203.951994 9.07848 202.077774 8.64916C200.138084 8.20484 198.658284 9.24827 197.921874 10.5949M211.229304 18.1624V12.1083C211.229304 11.3964 211.343904 9.20604 208.912904 8.64916C206.883804 8.18437 205.349504 9.34748 204.649114 10.7827 M222.356385 18.1161L222.354125 4.97986L222.845905 4.97949L231.399905 18.1168H231.872805V4.97949 M243.826645 18.1148L243.826385 8.7666M236.992095 8.7666L236.992095 14.8207C236.992095 15.5325 236.897095 18.0958 239.279455 18.3075C241.369685 18.4933 242.643115 17.6528 243.345485 16.4701 M254.78276 8.69055L251.4133 18.119L251.21206 18.1189L247.80774 8.69055 M265.427454 17.2181C264.453664 18.1548 263.428964 18.3386 262.243504 18.3386C260.174734 18.3386 258.311494 17.0276 258.311494 13.4561C258.311494 9.88449 260.120884 8.57349 262.189654 8.57349C264.258434 8.57349 265.861784 9.62966 265.861784 13.2012H258.642264 M269.929689 8.81417L269.929959 18.1624M276.764239 18.1624L276.753369 11.4697C276.688919 10.5262 276.321989 9.07848 274.447769 8.64916C272.508079 8.20484 271.028279 9.24827 270.291869 10.5949M283.599299 18.1624V12.1083C283.599299 11.3964 283.713899 9.20604 281.282899 8.64916C279.253799 8.18437 277.719499 9.34748 277.019109 10.7827"></path>
        </g>
      </g>
    </g>
  </g>
</svg>