<svg class="plot-d6a7b5" fill="currentColor" font-family="system-ui, sans-serif" font-size="10" text-anchor="middle" width="830" height="500" viewBox="0 0 830 500" style="font-size: 16px;" xmlns="http://www.w3.org/2000/svg" xmlns:xlink="http://www.w3.org/1999/xlink"><style>:where(.plot-d6a7b5) {
  --plot-background: white;
  display: block;
  height: auto;
  height: intrinsic;
  max-width: 100%;
}
:where(.plot-d6a7b5 text),
:where(.plot-d6a7b5 tspan) {
  white-space: pre;
}</style><g aria-label="y-grid" aria-hidden="true" stroke="currentColor" stroke-opacity="0.1" transform="translate(0,0.5)"><line x1="65" x2="810" y1="445" y2="445"/><line x1="65" x2="810" y1="397.77777777777777" y2="397.77777777777777"/><line x1="65" x2="810" y1="350.5555555555556" y2="350.5555555555556"/><line x1="65" x2="810" y1="303.33333333333337" y2="303.33333333333337"/><line x1="65" x2="810" y1="256.11111111111114" y2="256.11111111111114"/><line x1="65" x2="810" y1="208.88888888888889" y2="208.88888888888889"/><line x1="65" x2="810" y1="161.66666666666669" y2="161.66666666666669"/><line x1="65" x2="810" y1="114.44444444444444" y2="114.44444444444444"/><line x1="65" x2="810" y1="67.22222222222224" y2="67.22222222222224"/><line x1="65" x2="810" y1="20" y2="20"/></g><g aria-label="y-axis tick" aria-hidden="true" fill="none" stroke="currentColor" transform="translate(0,0.5)"><path transform="translate(65,445)" d="M0,0L-6,0"/><path transform="translate(65,397.77777777777777)" d="M0,0L-6,0"/><path transform="translate(65,350.5555555555556)" d="M0,0L-6,0"/><path transform="translate(65,303.33333333333337)" d="M0,0L-6,0"/><path transform="translate(65,256.11111111111114)" d="M0,0L-6,0"/><path transform="translate(65,208.88888888888889)" d="M0,0L-6,0"/><path transform="translate(65,161.66666666666669)" d="M0,0L-6,0"/><path transform="translate(65,114.44444444444444)" d="M0,0L-6,0"/><path transform="translate(65,67.22222222222224)" d="M0,0L-6,0"/><path transform="translate(65,20)" d="M0,0L-6,0"/></g><g aria-label="y-axis tick label" text-anchor="end" font-variant="tabular-nums" transform="translate(-8.5,0.5)"><text y="0.32em" transform="translate(65,445)">150</text><text y="0.32em" transform="translate(65,397.77777777777777)">160</text><text y="0.32em" transform="translate(65,350.5555555555556)">170</text><text y="0.32em" transform="translate(65,303.33333333333337)">180</text><text y="0.32em" transform="translate(65,256.11111111111114)">190</text><text y="0.32em" transform="translate(65,208.88888888888889)">200</text><text y="0.32em" transform="translate(65,161.66666666666669)">210</text><text y="0.32em" transform="translate(65,114.44444444444444)">220</text><text y="0.32em" transform="translate(65,67.22222222222224)">230</text><text y="0.32em" transform="translate(65,20)">240</text></g><g aria-label="y-axis label" transform="translate(-61.5,0.5)"><text y="0.71em" transform="translate(65,232.5) rotate(-90)">Y →  Quantidade </text></g><g aria-label="x-grid" aria-hidden="true" stroke="currentColor" stroke-opacity="0.1" transform="translate(0.5,0)"><line x1="65" x2="65" y1="20" y2="445"/><line x1="158.125" x2="158.125" y1="20" y2="445"/><line x1="251.25" x2="251.25" y1="20" y2="445"/><line x1="344.375" x2="344.375" y1="20" y2="445"/><line x1="437.5" x2="437.5" y1="20" y2="445"/><line x1="530.625" x2="530.625" y1="20" y2="445"/><line x1="623.75" x2="623.75" y1="20" y2="445"/><line x1="716.875" x2="716.875" y1="20" y2="445"/><line x1="810" x2="810" y1="20" y2="445"/></g><g aria-label="x-axis tick" aria-hidden="true" fill="none" stroke="currentColor" transform="translate(0.5,0)"><path transform="translate(65,445)" d="M0,0L0,6"/><path transform="translate(158.125,445)" d="M0,0L0,6"/><path transform="translate(251.25,445)" d="M0,0L0,6"/><path transform="translate(344.375,445)" d="M0,0L0,6"/><path transform="translate(437.5,445)" d="M0,0L0,6"/><path transform="translate(530.625,445)" d="M0,0L0,6"/><path transform="translate(623.75,445)" d="M0,0L0,6"/><path transform="translate(716.875,445)" d="M0,0L0,6"/><path transform="translate(810,445)" d="M0,0L0,6"/></g><g aria-label="x-axis tick label" font-variant="tabular-nums" transform="translate(0.5,9.5)"><text y="0.71em" transform="translate(65,445)">28</text><text y="0.71em" transform="translate(158.125,445)">29</text><text y="0.71em" transform="translate(251.25,445)">30</text><text y="0.71em" transform="translate(344.375,445)">31</text><text y="0.71em" transform="translate(437.5,445)">32</text><text y="0.71em" transform="translate(530.625,445)">33</text><text y="0.71em" transform="translate(623.75,445)">34</text><text y="0.71em" transform="translate(716.875,445)">35</text><text y="0.71em" transform="translate(810,445)">36</text></g><g aria-label="x-axis label" text-anchor="start" transform="translate(-61.5,45.5)"><text transform="translate(65,445)">X →  Temperatura Máxima</text></g><g aria-label="rule" stroke="currentColor" transform="translate(0.5,0)"><line x1="65" x2="65" y1="20" y2="445"/><line x1="810" x2="810" y1="20" y2="445"/></g><g aria-label="rule" stroke="currentColor" transform="translate(0,0.5)"><line x1="65" x2="810" y1="445" y2="445"/><line x1="65" x2="810" y1="20" y2="20"/></g><g aria-label="dot" fill="white" stroke="#4472c4" stroke-width="1.5" transform="translate(0.5,0.5)"><circle cx="251.25" cy="445" r="4"/><circle cx="437.5" cy="303.33333333333337" r="4"/><circle cx="716.875" cy="114.44444444444444" r="4"/><circle cx="344.375" cy="256.11111111111114" r="4"/><circle cx="65" cy="397.77777777777777" r="4"/><circle cx="623.75" cy="161.66666666666669" r="4"/><circle cx="810" cy="20" r="4"/><circle cx="251.25" cy="208.88888888888889" r="4"/><circle cx="158.125" cy="303.33333333333337" r="4"/><circle cx="65" cy="350.5555555555556" r="4"/></g><g aria-label="line" fill="none" stroke="#ff8000" stroke-width="1.5" stroke-linejoin="round" stroke-linecap="round" stroke-dasharray="7,4" transform="translate(0.5,0.5)"><path d="M65,386.498C65,386.498,65.993,386.077,66.49,385.866C66.987,385.655,67.483,385.444,67.98,385.234C68.477,385.023,68.973,384.812,69.47,384.601C69.967,384.391,70.463,384.18,70.96,383.969C71.457,383.759,71.953,383.548,72.45,383.337C72.947,383.126,73.443,382.916,73.94,382.705C74.437,382.494,74.933,382.283,75.43,382.073C75.927,381.862,76.423,381.651,76.92,381.441C77.417,381.23,77.913,381.019,78.41,380.808C78.907,380.598,79.403,380.387,79.9,380.176C80.397,379.965,80.893,379.755,81.39,379.544C81.887,379.333,82.383,379.123,82.88,378.912C83.377,378.701,83.873,378.49,84.37,378.28C84.867,378.069,85.363,377.858,85.86,377.647C86.357,377.437,86.853,377.226,87.35,377.015C87.847,376.805,88.343,376.594,88.84,376.383C89.337,376.172,89.833,375.962,90.33,375.751C90.827,375.54,91.323,375.329,91.82,375.119C92.317,374.908,92.813,374.697,93.31,374.487C93.807,374.276,94.303,374.065,94.8,373.854C95.297,373.644,95.793,373.433,96.29,373.222C96.787,373.011,97.283,372.801,97.78,372.59C98.277,372.379,98.773,372.169,99.27,371.958C99.767,371.747,100.263,371.536,100.76,371.326C101.257,371.115,101.753,370.904,102.25,370.694C102.747,370.483,103.243,370.272,103.74,370.061C104.237,369.851,104.733,369.64,105.23,369.429C105.727,369.218,106.223,369.008,106.72,368.797C107.217,368.586,107.713,368.376,108.21,368.165C108.707,367.954,109.203,367.743,109.7,367.533C110.197,367.322,110.693,367.111,111.19,366.9C111.687,366.69,112.183,366.479,112.68,366.268C113.177,366.058,113.673,365.847,114.17,365.636C114.667,365.425,115.163,365.215,115.66,365.004C116.157,364.793,116.653,364.582,117.15,364.372C117.647,364.161,118.143,363.95,118.64,363.74C119.137,363.529,119.633,363.318,120.13,363.107C120.627,362.897,121.123,362.686,121.62,362.475C122.117,362.264,122.613,362.054,123.11,361.843C123.607,361.632,124.103,361.422,124.6,361.211C125.097,361,125.593,360.789,126.09,360.579C126.587,360.368,127.083,360.157,127.58,359.946C128.077,359.736,128.573,359.525,129.07,359.314C129.567,359.104,130.063,358.893,130.56,358.682C131.057,358.471,131.553,358.261,132.05,358.05C132.547,357.839,133.043,357.628,133.54,357.418C134.037,357.207,134.533,356.996,135.03,356.786C135.527,356.575,136.023,356.364,136.52,356.153C137.017,355.943,137.513,355.732,138.01,355.521C138.507,355.31,139.003,355.1,139.5,354.889C139.997,354.678,140.493,354.468,140.99,354.257C141.487,354.046,141.983,353.835,142.48,353.625C142.977,353.414,143.473,353.203,143.97,352.993C144.467,352.782,144.963,352.571,145.46,352.36C145.957,352.15,146.453,351.939,146.95,351.728C147.447,351.517,147.943,351.307,148.44,351.096C148.937,350.885,149.433,350.675,149.93,350.464C150.427,350.253,150.923,350.042,151.42,349.832C151.917,349.621,152.413,349.41,152.91,349.199C153.407,348.989,153.903,348.778,154.4,348.567C154.897,348.357,155.393,348.146,155.89,347.935C156.387,347.724,156.883,347.514,157.38,347.303C157.877,347.092,158.373,346.881,158.87,346.671C159.367,346.46,159.863,346.249,160.36,346.039C160.857,345.828,161.353,345.617,161.85,345.406C162.347,345.196,162.843,344.985,163.34,344.774C163.837,344.563,164.333,344.353,164.83,344.142C165.327,343.931,165.823,343.721,166.32,343.51C166.817,343.299,167.313,343.088,167.81,342.878C168.307,342.667,168.803,342.456,169.3,342.245C169.797,342.035,170.293,341.824,170.79,341.613C171.287,341.403,171.783,341.192,172.28,340.981C172.777,340.77,173.273,340.56,173.77,340.349C174.267,340.138,174.763,339.927,175.26,339.717C175.757,339.506,176.253,339.295,176.75,339.085C177.247,338.874,177.743,338.663,178.24,338.452C178.737,338.242,179.233,338.031,179.73,337.82C180.227,337.609,180.723,337.399,181.22,337.188C181.717,336.977,182.213,336.767,182.71,336.556C183.207,336.345,183.703,336.134,184.2,335.924C184.697,335.713,185.193,335.502,185.69,335.291C186.187,335.081,186.683,334.87,187.18,334.659C187.677,334.449,188.173,334.238,188.67,334.027C189.167,333.816,189.663,333.606,190.16,333.395C190.657,333.184,191.153,332.974,191.65,332.763C192.147,332.552,192.643,332.341,193.14,332.131C193.637,331.92,194.133,331.709,194.63,331.498C195.127,331.288,195.623,331.077,196.12,330.866C196.617,330.656,197.113,330.445,197.61,330.234C198.107,330.023,198.603,329.813,199.1,329.602C199.597,329.391,200.093,329.18,200.59,328.97C201.087,328.759,201.583,328.548,202.08,328.338C202.577,328.127,203.073,327.916,203.57,327.705C204.067,327.495,204.563,327.284,205.06,327.073C205.557,326.862,206.053,326.652,206.55,326.441C207.047,326.23,207.543,326.02,208.04,325.809C208.537,325.598,209.033,325.387,209.53,325.177C210.027,324.966,210.523,324.755,211.02,324.544C211.517,324.334,212.013,324.123,212.51,323.912C213.007,323.702,213.503,323.491,214,323.28C214.497,323.069,214.993,322.859,215.49,322.648C215.987,322.437,216.483,322.226,216.98,322.016C217.477,321.805,217.973,321.594,218.47,321.384C218.967,321.173,219.463,320.962,219.96,320.751C220.457,320.541,220.953,320.33,221.45,320.119C221.947,319.908,222.443,319.698,222.94,319.487C223.437,319.276,223.933,319.066,224.43,318.855C224.927,318.644,225.423,318.433,225.92,318.223C226.417,318.012,226.913,317.801,227.41,317.59C227.907,317.38,228.403,317.169,228.9,316.958C229.397,316.748,229.893,316.537,230.39,316.326C230.887,316.115,231.383,315.905,231.88,315.694C232.377,315.483,232.873,315.273,233.37,315.062C233.867,314.851,234.363,314.64,234.86,314.43C235.357,314.219,235.853,314.008,236.35,313.797C236.847,313.587,237.343,313.376,237.84,313.165C238.337,312.955,238.833,312.744,239.33,312.533C239.827,312.322,240.323,312.112,240.82,311.901C241.317,311.69,241.813,311.479,242.31,311.269C242.807,311.058,243.303,310.847,243.8,310.637C244.297,310.426,244.793,310.215,245.29,310.004C245.787,309.794,246.283,309.583,246.78,309.372C247.277,309.161,247.773,308.951,248.27,308.74C248.767,308.529,249.263,308.319,249.76,308.108C250.257,307.897,250.753,307.686,251.25,307.476C251.747,307.265,252.243,307.054,252.74,306.843C253.237,306.633,253.733,306.422,254.23,306.211C254.727,306.001,255.223,305.79,255.72,305.579C256.217,305.368,256.713,305.158,257.21,304.947C257.707,304.736,258.203,304.525,258.7,304.315C259.197,304.104,259.693,303.893,260.19,303.683C260.687,303.472,261.183,303.261,261.68,303.05C262.177,302.84,262.673,302.629,263.17,302.418C263.667,302.207,264.163,301.997,264.66,301.786C265.157,301.575,265.653,301.365,266.15,301.154C266.647,300.943,267.143,300.732,267.64,300.522C268.137,300.311,268.633,300.1,269.13,299.889C269.627,299.679,270.123,299.468,270.62,299.257C271.117,299.047,271.613,298.836,272.11,298.625C272.607,298.414,273.103,298.204,273.6,297.993C274.097,297.782,274.593,297.571,275.09,297.361C275.587,297.15,276.083,296.939,276.58,296.729C277.077,296.518,277.573,296.307,278.07,296.096C278.567,295.886,279.063,295.675,279.56,295.464C280.057,295.254,280.553,295.043,281.05,294.832C281.547,294.621,282.043,294.411,282.54,294.2C283.037,293.989,283.533,293.778,284.03,293.568C284.527,293.357,285.023,293.146,285.52,292.936C286.017,292.725,286.513,292.514,287.01,292.303C287.507,292.093,288.003,291.882,288.5,291.671C288.997,291.46,289.493,291.25,289.99,291.039C290.487,290.828,290.983,290.618,291.48,290.407C291.977,290.196,292.473,289.985,292.97,289.775C293.467,289.564,293.963,289.353,294.46,289.142C294.957,288.932,295.453,288.721,295.95,288.51C296.447,288.3,296.943,288.089,297.44,287.878C297.937,287.667,298.433,287.457,298.93,287.246C299.427,287.035,299.923,286.824,300.42,286.614C300.917,286.403,301.413,286.192,301.91,285.982C302.407,285.771,302.903,285.56,303.4,285.349C303.897,285.139,304.393,284.928,304.89,284.717C305.387,284.506,305.883,284.296,306.38,284.085C306.877,283.874,307.373,283.664,307.87,283.453C308.367,283.242,308.863,283.031,309.36,282.821C309.857,282.61,310.353,282.399,310.85,282.188C311.347,281.978,311.843,281.767,312.34,281.556C312.837,281.346,313.333,281.135,313.83,280.924C314.327,280.713,314.823,280.503,315.32,280.292C315.817,280.081,316.313,279.87,316.81,279.66C317.307,279.449,317.803,279.238,318.3,279.028C318.797,278.817,319.293,278.606,319.79,278.395C320.287,278.185,320.783,277.974,321.28,277.763C321.777,277.553,322.273,277.342,322.77,277.131C323.267,276.92,323.763,276.71,324.26,276.499C324.757,276.288,325.253,276.077,325.75,275.867C326.247,275.656,326.743,275.445,327.24,275.235C327.737,275.024,328.233,274.813,328.73,274.602C329.227,274.392,329.723,274.181,330.22,273.97C330.717,273.759,331.213,273.549,331.71,273.338C332.207,273.127,332.703,272.917,333.2,272.706C333.697,272.495,334.193,272.284,334.69,272.074C335.187,271.863,335.683,271.652,336.18,271.441C336.677,271.231,337.173,271.02,337.67,270.809C338.167,270.599,338.663,270.388,339.16,270.177C339.657,269.966,340.153,269.756,340.65,269.545C341.147,269.334,341.643,269.123,342.14,268.913C342.637,268.702,343.133,268.491,343.63,268.281C344.127,268.07,344.623,267.859,345.12,267.648C345.617,267.438,346.113,267.227,346.61,267.016C347.107,266.805,347.603,266.595,348.1,266.384C348.597,266.173,349.093,265.963,349.59,265.752C350.087,265.541,350.583,265.33,351.08,265.12C351.577,264.909,352.073,264.698,352.57,264.487C353.067,264.277,353.563,264.066,354.06,263.855C354.557,263.645,355.053,263.434,355.55,263.223C356.047,263.012,356.543,262.802,357.04,262.591C357.537,262.38,358.033,262.169,358.53,261.959C359.027,261.748,359.523,261.537,360.02,261.327C360.517,261.116,361.013,260.905,361.51,260.694C362.007,260.484,362.503,260.273,363,260.062C363.497,259.852,363.993,259.641,364.49,259.43C364.987,259.219,365.483,259.009,365.98,258.798C366.477,258.587,366.973,258.376,367.47,258.166C367.967,257.955,368.463,257.744,368.96,257.534C369.457,257.323,369.953,257.112,370.45,256.901C370.947,256.691,371.443,256.48,371.94,256.269C372.437,256.058,372.933,255.848,373.43,255.637C373.927,255.426,374.423,255.216,374.92,255.005C375.417,254.794,375.913,254.583,376.41,254.373C376.907,254.162,377.403,253.951,377.9,253.74C378.397,253.53,378.893,253.319,379.39,253.108C379.887,252.898,380.383,252.687,380.88,252.476C381.377,252.265,381.873,252.055,382.37,251.844C382.867,251.633,383.363,251.422,383.86,251.212C384.357,251.001,384.853,250.79,385.35,250.58C385.847,250.369,386.343,250.158,386.84,249.947C387.337,249.737,387.833,249.526,388.33,249.315C388.827,249.104,389.323,248.894,389.82,248.683C390.317,248.472,390.813,248.262,391.31,248.051C391.807,247.84,392.303,247.629,392.8,247.419C393.297,247.208,393.793,246.997,394.29,246.786C394.787,246.576,395.283,246.365,395.78,246.154C396.277,245.944,396.773,245.733,397.27,245.522C397.767,245.311,398.263,245.101,398.76,244.89C399.257,244.679,399.753,244.468,400.25,244.258C400.747,244.047,401.243,243.836,401.74,243.626C402.237,243.415,402.733,243.204,403.23,242.993C403.727,242.783,404.223,242.572,404.72,242.361C405.217,242.15,405.713,241.94,406.21,241.729C406.707,241.518,407.203,241.308,407.7,241.097C408.197,240.886,408.693,240.675,409.19,240.465C409.687,240.254,410.183,240.043,410.68,239.833C411.177,239.622,411.673,239.411,412.17,239.2C412.667,238.99,413.163,238.779,413.66,238.568C414.157,238.357,414.653,238.147,415.15,237.936C415.647,237.725,416.143,237.515,416.64,237.304C417.137,237.093,417.633,236.882,418.13,236.672C418.627,236.461,419.123,236.25,419.62,236.039C420.117,235.829,420.613,235.618,421.11,235.407C421.607,235.197,422.103,234.986,422.6,234.775C423.097,234.564,423.593,234.354,424.09,234.143C424.587,233.932,425.083,233.721,425.58,233.511C426.077,233.3,426.573,233.089,427.07,232.879C427.567,232.668,428.063,232.457,428.56,232.246C429.057,232.036,429.553,231.825,430.05,231.614C430.547,231.403,431.043,231.193,431.54,230.982C432.037,230.771,432.533,230.561,433.03,230.35C433.527,230.139,434.023,229.928,434.52,229.718C435.017,229.507,435.513,229.296,436.01,229.085C436.507,228.875,437.003,228.664,437.5,228.453C437.997,228.243,438.493,228.032,438.99,227.821C439.487,227.61,439.983,227.4,440.48,227.189C440.977,226.978,441.473,226.767,441.97,226.557C442.467,226.346,442.963,226.135,443.46,225.925C443.957,225.714,444.453,225.503,444.95,225.292C445.447,225.082,445.943,224.871,446.44,224.66C446.937,224.449,447.433,224.239,447.93,224.028C448.427,223.817,448.923,223.607,449.42,223.396C449.917,223.185,450.413,222.974,450.91,222.764C451.407,222.553,451.903,222.342,452.4,222.132C452.897,221.921,453.393,221.71,453.89,221.499C454.387,221.289,454.883,221.078,455.38,220.867C455.877,220.656,456.373,220.446,456.87,220.235C457.367,220.024,457.863,219.814,458.36,219.603C458.857,219.392,459.353,219.181,459.85,218.971C460.347,218.76,460.843,218.549,461.34,218.338C461.837,218.128,462.333,217.917,462.83,217.706C463.327,217.496,463.823,217.285,464.32,217.074C464.817,216.863,465.313,216.653,465.81,216.442C466.307,216.231,466.803,216.02,467.3,215.81C467.797,215.599,468.293,215.388,468.79,215.178C469.287,214.967,469.783,214.756,470.28,214.545C470.777,214.335,471.273,214.124,471.77,213.913C472.267,213.702,472.763,213.492,473.26,213.281C473.757,213.07,474.253,212.86,474.75,212.649C475.247,212.438,475.743,212.227,476.24,212.017C476.737,211.806,477.233,211.595,477.73,211.384C478.227,211.174,478.723,210.963,479.22,210.752C479.717,210.542,480.213,210.331,480.71,210.12C481.207,209.909,481.703,209.699,482.2,209.488C482.697,209.277,483.193,209.066,483.69,208.856C484.187,208.645,484.683,208.434,485.18,208.224C485.677,208.013,486.173,207.802,486.67,207.591C487.167,207.381,487.663,207.17,488.16,206.959C488.657,206.748,489.153,206.538,489.65,206.327C490.147,206.116,490.643,205.906,491.14,205.695C491.637,205.484,492.133,205.273,492.63,205.063C493.127,204.852,493.623,204.641,494.12,204.43C494.617,204.22,495.113,204.009,495.61,203.798C496.107,203.588,496.603,203.377,497.1,203.166C497.597,202.955,498.093,202.745,498.59,202.534C499.087,202.323,499.583,202.113,500.08,201.902C500.577,201.691,501.073,201.48,501.57,201.27C502.067,201.059,502.563,200.848,503.06,200.637C503.557,200.427,504.053,200.216,504.55,200.005C505.047,199.795,505.543,199.584,506.04,199.373C506.537,199.162,507.033,198.952,507.53,198.741C508.027,198.53,508.523,198.319,509.02,198.109C509.517,197.898,510.013,197.687,510.51,197.477C511.007,197.266,511.503,197.055,512,196.844C512.497,196.634,512.993,196.423,513.49,196.212C513.987,196.001,514.483,195.791,514.98,195.58C515.477,195.369,515.973,195.159,516.47,194.948C516.967,194.737,517.463,194.526,517.96,194.316C518.457,194.105,518.953,193.894,519.45,193.683C519.947,193.473,520.443,193.262,520.94,193.051C521.437,192.841,521.933,192.63,522.43,192.419C522.927,192.208,523.423,191.998,523.92,191.787C524.417,191.576,524.913,191.365,525.41,191.155C525.907,190.944,526.403,190.733,526.9,190.523C527.397,190.312,527.893,190.101,528.39,189.89C528.887,189.68,529.383,189.469,529.88,189.258C530.377,189.047,530.873,188.837,531.37,188.626C531.867,188.415,532.363,188.205,532.86,187.994C533.357,187.783,533.853,187.572,534.35,187.362C534.847,187.151,535.343,186.94,535.84,186.729C536.337,186.519,536.833,186.308,537.33,186.097C537.827,185.887,538.323,185.676,538.82,185.465C539.317,185.254,539.813,185.044,540.31,184.833C540.807,184.622,541.303,184.412,541.8,184.201C542.297,183.99,542.793,183.779,543.29,183.569C543.787,183.358,544.283,183.147,544.78,182.936C545.277,182.726,545.773,182.515,546.27,182.304C546.767,182.094,547.263,181.883,547.76,181.672C548.257,181.461,548.753,181.251,549.25,181.04C549.747,180.829,550.243,180.618,550.74,180.408C551.237,180.197,551.733,179.986,552.23,179.776C552.727,179.565,553.223,179.354,553.72,179.143C554.217,178.933,554.713,178.722,555.21,178.511C555.707,178.3,556.203,178.09,556.7,177.879C557.197,177.668,557.693,177.458,558.19,177.247C558.687,177.036,559.183,176.825,559.68,176.615C560.177,176.404,560.673,176.193,561.17,175.982C561.667,175.772,562.163,175.561,562.66,175.35C563.157,175.14,563.653,174.929,564.15,174.718C564.647,174.507,565.143,174.297,565.64,174.086C566.137,173.875,566.633,173.664,567.13,173.454C567.627,173.243,568.123,173.032,568.62,172.822C569.117,172.611,569.613,172.4,570.11,172.189C570.607,171.979,571.103,171.768,571.6,171.557C572.097,171.346,572.593,171.136,573.09,170.925C573.587,170.714,574.083,170.504,574.58,170.293C575.077,170.082,575.573,169.871,576.07,169.661C576.567,169.45,577.063,169.239,577.56,169.028C578.057,168.818,578.553,168.607,579.05,168.396C579.547,168.186,580.043,167.975,580.54,167.764C581.037,167.553,581.533,167.343,582.03,167.132C582.527,166.921,583.023,166.711,583.52,166.5C584.017,166.289,584.513,166.078,585.01,165.868C585.507,165.657,586.003,165.446,586.5,165.235C586.997,165.025,587.493,164.814,587.99,164.603C588.487,164.393,588.983,164.182,589.48,163.971C589.977,163.76,590.473,163.55,590.97,163.339C591.467,163.128,591.963,162.917,592.46,162.707C592.957,162.496,593.453,162.285,593.95,162.075C594.447,161.864,594.943,161.653,595.44,161.442C595.937,161.232,596.433,161.021,596.93,160.81C597.427,160.599,597.923,160.389,598.42,160.178C598.917,159.967,599.413,159.757,599.91,159.546C600.407,159.335,600.903,159.124,601.4,158.914C601.897,158.703,602.393,158.492,602.89,158.281C603.387,158.071,603.883,157.86,604.38,157.649C604.877,157.439,605.373,157.228,605.87,157.017C606.367,156.806,606.863,156.596,607.36,156.385C607.857,156.174,608.353,155.963,608.85,155.753C609.347,155.542,609.843,155.331,610.34,155.121C610.837,154.91,611.333,154.699,611.83,154.488C612.327,154.278,612.823,154.067,613.32,153.856C613.817,153.645,614.313,153.435,614.81,153.224C615.307,153.013,615.803,152.803,616.3,152.592C616.797,152.381,617.293,152.17,617.79,151.96C618.287,151.749,618.783,151.538,619.28,151.327C619.777,151.117,620.273,150.906,620.77,150.695C621.267,150.485,621.763,150.274,622.26,150.063C622.757,149.852,623.253,149.642,623.75,149.431C624.247,149.22,624.743,149.009,625.24,148.799C625.737,148.588,626.233,148.377,626.73,148.167C627.227,147.956,627.723,147.745,628.22,147.534C628.717,147.324,629.213,147.113,629.71,146.902C630.207,146.692,630.703,146.481,631.2,146.27C631.697,146.059,632.193,145.849,632.69,145.638C633.187,145.427,633.683,145.216,634.18,145.006C634.677,144.795,635.173,144.584,635.67,144.374C636.167,144.163,636.663,143.952,637.16,143.741C637.657,143.531,638.153,143.32,638.65,143.109C639.147,142.898,639.643,142.688,640.14,142.477C640.637,142.266,641.133,142.056,641.63,141.845C642.127,141.634,642.623,141.423,643.12,141.213C643.617,141.002,644.113,140.791,644.61,140.58C645.107,140.37,645.603,140.159,646.1,139.948C646.597,139.738,647.093,139.527,647.59,139.316C648.087,139.105,648.583,138.895,649.08,138.684C649.577,138.473,650.073,138.262,650.57,138.052C651.067,137.841,651.563,137.63,652.06,137.42C652.557,137.209,653.053,136.998,653.55,136.787C654.047,136.577,654.543,136.366,655.04,136.155C655.537,135.944,656.033,135.734,656.53,135.523C657.027,135.312,657.523,135.102,658.02,134.891C658.517,134.68,659.013,134.469,659.51,134.259C660.007,134.048,660.503,133.837,661,133.626C661.497,133.416,661.993,133.205,662.49,132.994C662.987,132.784,663.483,132.573,663.98,132.362C664.477,132.151,664.973,131.941,665.47,131.73C665.967,131.519,666.463,131.308,666.96,131.098C667.457,130.887,667.953,130.676,668.45,130.466C668.947,130.255,669.443,130.044,669.94,129.833C670.437,129.623,670.933,129.412,671.43,129.201C671.927,128.991,672.423,128.78,672.92,128.569C673.417,128.358,673.913,128.148,674.41,127.937C674.907,127.726,675.403,127.515,675.9,127.305C676.397,127.094,676.893,126.883,677.39,126.673C677.887,126.462,678.383,126.251,678.88,126.04C679.377,125.83,679.873,125.619,680.37,125.408C680.867,125.197,681.363,124.987,681.86,124.776C682.357,124.565,682.853,124.355,683.35,124.144C683.847,123.933,684.343,123.722,684.84,123.512C685.337,123.301,685.833,123.09,686.33,122.879C686.827,122.669,687.323,122.458,687.82,122.247C688.317,122.037,688.813,121.826,689.31,121.615C689.807,121.404,690.303,121.194,690.8,120.983C691.297,120.772,691.793,120.561,692.29,120.351C692.787,120.14,693.283,119.929,693.78,119.719C694.277,119.508,694.773,119.297,695.27,119.086C695.767,118.876,696.263,118.665,696.76,118.454C697.257,118.243,697.753,118.033,698.25,117.822C698.747,117.611,699.243,117.401,699.74,117.19C700.237,116.979,700.733,116.768,701.23,116.558C701.727,116.347,702.223,116.136,702.72,115.925C703.217,115.715,703.713,115.504,704.21,115.293C704.707,115.083,705.203,114.872,705.7,114.661C706.197,114.45,706.693,114.24,707.19,114.029C707.687,113.818,708.183,113.607,708.68,113.397C709.177,113.186,709.673,112.975,710.17,112.765C710.667,112.554,711.163,112.343,711.66,112.132C712.157,111.922,712.653,111.711,713.15,111.5C713.647,111.289,714.143,111.079,714.64,110.868C715.137,110.657,715.633,110.447,716.13,110.236C716.627,110.025,717.123,109.814,717.62,109.604C718.117,109.393,718.613,109.182,719.11,108.972C719.607,108.761,720.103,108.55,720.6,108.339C721.097,108.129,721.593,107.918,722.09,107.707C722.587,107.496,723.083,107.286,723.58,107.075C724.077,106.864,724.573,106.654,725.07,106.443C725.567,106.232,726.063,106.021,726.56,105.811C727.057,105.6,727.553,105.389,728.05,105.178C728.547,104.968,729.043,104.757,729.54,104.546C730.037,104.336,730.533,104.125,731.03,103.914C731.527,103.703,732.023,103.493,732.52,103.282C733.017,103.071,733.513,102.86,734.01,102.65C734.507,102.439,735.003,102.228,735.5,102.018C735.997,101.807,736.493,101.596,736.99,101.385C737.487,101.175,737.983,100.964,738.48,100.753C738.977,100.542,739.473,100.332,739.97,100.121C740.467,99.91,740.963,99.7,741.46,99.489C741.957,99.278,742.453,99.067,742.95,98.857C743.447,98.646,743.943,98.435,744.44,98.224C744.937,98.014,745.433,97.803,745.93,97.592C746.427,97.382,746.923,97.171,747.42,96.96C747.917,96.749,748.413,96.539,748.91,96.328C749.407,96.117,749.903,95.906,750.4,95.696C750.897,95.485,751.393,95.274,751.89,95.064C752.387,94.853,752.883,94.642,753.38,94.431C753.877,94.221,754.373,94.01,754.87,93.799C755.367,93.588,755.863,93.378,756.36,93.167C756.857,92.956,757.353,92.746,757.85,92.535C758.347,92.324,758.843,92.113,759.34,91.903C759.837,91.692,760.333,91.481,760.83,91.271C761.327,91.06,761.823,90.849,762.32,90.638C762.817,90.428,763.313,90.217,763.81,90.006C764.307,89.795,764.803,89.585,765.3,89.374C765.797,89.163,766.293,88.953,766.79,88.742C767.287,88.531,767.783,88.32,768.28,88.11C768.777,87.899,769.273,87.688,769.77,87.477C770.267,87.267,770.763,87.056,771.26,86.845C771.757,86.635,772.253,86.424,772.75,86.213C773.247,86.002,773.743,85.792,774.24,85.581C774.737,85.37,775.233,85.159,775.73,84.949C776.227,84.738,776.723,84.527,777.22,84.317C777.717,84.106,778.213,83.895,778.71,83.684C779.207,83.474,779.703,83.263,780.2,83.052C780.697,82.841,781.193,82.631,781.69,82.42C782.187,82.209,782.683,81.999,783.18,81.788C783.677,81.577,784.173,81.366,784.67,81.156C785.167,80.945,785.663,80.734,786.16,80.523C786.657,80.313,787.153,80.102,787.65,79.891C788.147,79.681,788.643,79.47,789.14,79.259C789.637,79.048,790.133,78.838,790.63,78.627C791.127,78.416,791.623,78.205,792.12,77.995C792.617,77.784,793.113,77.573,793.61,77.363C794.107,77.152,794.603,76.941,795.1,76.73C795.597,76.52,796.093,76.309,796.59,76.098C797.087,75.887,797.583,75.677,798.08,75.466C798.577,75.255,799.073,75.045,799.57,74.834C800.067,74.623,800.563,74.412,801.06,74.202C801.557,73.991,802.053,73.78,802.55,73.57C803.047,73.359,803.543,73.148,804.04,72.937C804.537,72.727,805.033,72.516,805.53,72.305C806.027,72.094,806.523,71.884,807.02,71.673C807.517,71.462,808.51,71.041,808.51,71.041"/></g></svg>