<?xml version="1.0" encoding="UTF-8"?>
<svg xmlns="http://www.w3.org/2000/svg" width="710" height="533.2" version="1.1" viewBox="0 0 710 533.2">
  <!-- Generator: Adobe Illustrator 28.6.0, SVG Export Plug-In . SVG Version: 1.2.0 Build 709)  -->
  <g>
    <g id="Layer_1">
      <g id="g-root-8.arrow-8_sy_18isvg1csxdl6-fill" display="none">
        <g id="_x38_.arrow-8_x5F_sy_x5F_18isvg1csxdl6-fill">
          <path d="M372.4,111.6l-80.8-64.2,6.6,23.1c-50.8,14.6-96.6,46.7-127.4,93.5l72.4-8.3,14.8,51.5c17.4-21.9,41-37,66.7-44.4l6.6,23.1,41.1-74.2h0Z" fill="#fee7f5" fill-rule="evenodd"/>
        </g>
      </g>
      <g id="g-root-7.arrow-7_sy_1hefvoxcsxcsh-fill">
        <g id="_x37_.arrow-7_x5F_sy_x5F_1hefvoxcsxcsh-fill">
          <path d="M229.8,304.2c-2.9-26.3,2-53.7,15.8-78.6l21,11.6-23.4-81.6-102.6,11.8,21,11.6c-27.4,49.5-34.5,104.8-24,156.3l45.3-57.1,46.8,26h0Z" fill="#e6f9ff" fill-rule="evenodd"/>
        </g>
      </g>
      <g id="g-root-6.arrow-6_sy_1hefvoxcsxcsg-fill" display="none">
        <g id="_x36_.arrow-6_x5F_sy_x5F_1hefvoxcsxcsg-fill">
          <path d="M227.1,407.5l51.5-14.8c-21.9-17.4-37-41-44.4-66.7l23.1-6.6-74.2-41.1-64.2,80.8,23.1-6.6c14.6,50.8,46.7,96.6,93.5,127.4l-8.3-72.4h-.1Z" fill="#f7e6fe" fill-rule="evenodd"/>
        </g>
      </g>
      <g id="g-root-5.arrow-5_sy_1lu9dtdcsxc07-fill" display="none">
        <g id="_x35_.arrow-5_x5F_sy_x5F_1lu9dtdcsxc07-fill">
          <path d="M250.5,489c49.5,27.4,104.8,34.5,156.2,24l-57.1-45.3,26-46.8c-26.3,2.9-53.7-2-78.6-15.8l11.6-21-81.6,23.4,11.8,102.6,11.6-21h0Z" fill="#ffe7e6" fill-rule="evenodd"/>
        </g>
      </g>
      <g id="g-root-4.arrow-4_sy_1qa2vxtcsxb7y-fill" display="none">
        <g id="_x34_.arrow-4_x5F_sy_x5F_1qa2vxtcsxb7y-fill">
          <path d="M478.8,423.5l-14.8-51.5c-17.4,21.9-41,37-66.7,44.4l-6.6-23.1-41.1,74.2,80.8,64.2-6.6-23.1c50.8-14.6,96.6-46.7,127.4-93.5l-72.4,8.3h0Z" fill="#fef2e6" fill-rule="evenodd"/>
        </g>
      </g>
      <g id="g-root-3.arrow-3_sy_1qa2vxtcsxb7x-fill" display="none">
        <g id="_x33_.arrow-3_x5F_sy_x5F_1qa2vxtcsxb7x-fill">
          <path d="M560.4,400.2c27.4-49.5,34.5-104.8,24-156.2l-45.3,57.1-46.8-26c2.9,26.3-2,53.7-15.8,78.6l-21-11.6,23.4,81.6,102.6-11.8-21-11.6h-.1Z" fill="#fffce6" fill-rule="evenodd"/>
        </g>
      </g>
      <g id="g-root-2.arrow-2_sy_4lu7lcsxamc-fill">
        <g id="_x32_.arrow-2_x5F_sy_x5F_4lu7lcsxamc-fill" display="none">
          <path d="M494.9,171.8l-51.5,14.8c21.9,17.4,37,41,44.4,66.7l-23.1,6.6,74.2,41.1,64.2-80.8-23.1,6.6c-14.6-50.8-46.7-96.6-93.5-127.4l8.3,72.4h.1Z" fill="#e9fbf3" fill-rule="evenodd"/>
        </g>
      </g>
      <g id="g-root-8.arrow-8_sy_18isvg1csxdl6-stroke">
        <g id="_x38_.arrow-8_x5F_sy_x5F_18isvg1csxdl6-stroke">
          <path d="M372.4,111.6l-80.8-64.2,6.6,23.1c-50.8,14.6-96.6,46.7-127.4,93.5l72.4-8.3,14.8,51.5c17.4-21.9,41-37,66.7-44.4l6.6,23.1,41.1-74.2h0Z" fill="none" stroke="#d3d3d3" stroke-linecap="round" stroke-linejoin="round" stroke-width="2"/>
        </g>
      </g>
      <g id="g-root-7.arrow-7_sy_1hefvoxcsxcsh-stroke">
        <g id="_x37_.arrow-7_x5F_sy_x5F_1hefvoxcsxcsh-stroke">
          <path d="M229.8,304.2c-2.9-26.3,2-53.7,15.8-78.6l21,11.6-23.4-81.6-102.6,11.8,21,11.6c-27.4,49.5-34.5,104.8-24,156.3l45.3-57.1,46.8,26h0Z" fill="none" stroke="#17b0e3" stroke-linecap="round" stroke-linejoin="round" stroke-width="2"/>
        </g>
      </g>
      <g id="g-root-6.arrow-6_sy_1hefvoxcsxcsg-stroke">
        <g id="_x36_.arrow-6_x5F_sy_x5F_1hefvoxcsxcsg-stroke">
          <path d="M227.1,407.5l51.5-14.8c-21.9-17.4-37-41-44.4-66.7l23.1-6.6-74.2-41.1-64.2,80.8,23.1-6.6c14.6,50.8,46.7,96.6,93.5,127.4l-8.3-72.4h-.1Z" fill="none" stroke="#d3d3d3" stroke-linecap="round" stroke-linejoin="round" stroke-width="2"/>
        </g>
      </g>
      <g id="g-root-5.arrow-5_sy_1lu9dtdcsxc07-stroke">
        <g id="_x35_.arrow-5_x5F_sy_x5F_1lu9dtdcsxc07-stroke">
          <path d="M250.5,489c49.5,27.4,104.8,34.5,156.2,24l-57.1-45.3,26-46.8c-26.3,2.9-53.7-2-78.6-15.8l11.6-21-81.6,23.4,11.8,102.6,11.6-21h0Z" fill="none" stroke="#d3d3d3" stroke-linecap="round" stroke-linejoin="round" stroke-width="2"/>
        </g>
      </g>
      <g id="g-root-4.arrow-4_sy_1qa2vxtcsxb7y-stroke">
        <g id="_x34_.arrow-4_x5F_sy_x5F_1qa2vxtcsxb7y-stroke">
          <path d="M478.8,423.5l-14.8-51.5c-17.4,21.9-41,37-66.7,44.4l-6.6-23.1-41.1,74.2,80.8,64.2-6.6-23.1c50.8-14.6,96.6-46.7,127.4-93.5l-72.4,8.3h0Z" fill="none" stroke="#d3d3d3" stroke-linecap="round" stroke-linejoin="round" stroke-width="2"/>
        </g>
      </g>
      <g id="g-root-3.arrow-3_sy_1qa2vxtcsxb7x-stroke">
        <g id="_x33_.arrow-3_x5F_sy_x5F_1qa2vxtcsxb7x-stroke">
          <path d="M560.4,400.2c27.4-49.5,34.5-104.8,24-156.2l-45.3,57.1-46.8-26c2.9,26.3-2,53.7-15.8,78.6l-21-11.6,23.4,81.6,102.6-11.8-21-11.6h-.1Z" fill="none" stroke="#d3d3d3" stroke-linecap="round" stroke-linejoin="round" stroke-width="2"/>
        </g>
      </g>
      <g id="g-root-2.arrow-2_sy_4lu7lcsxamc-stroke">
        <g id="_x32_.arrow-2_x5F_sy_x5F_4lu7lcsxamc-stroke">
          <path d="M494.9,171.8l-51.5,14.8c21.9,17.4,37,41,44.4,66.7l-23.1,6.6,74.2,41.1,64.2-80.8-23.1,6.6c-14.6-50.8-46.7-96.6-93.5-127.4l8.3,72.4h.1Z" fill="none" stroke="#d3d3d3" stroke-linecap="round" stroke-linejoin="round" stroke-width="2"/>
        </g>
      </g>
      <g id="g-root-tx_enhances_hwibshcsxdl9-stroke">
        <g id="tx_enhances_hwibshcsxdl9-stroke">
          <path d="M14.8,211.8l4.9-13.2h.6l5,13.2M16.6,207.9h6.9M29.3,202.4v13.6M29.7,203.7c.9-1.1,2.1-1.6,3.4-1.6,2.2,0,3.8,1.3,3.8,4.9s-1.7,4.8-3.9,4.8-2.6-.5-3.3-1.6M44.7,202.2c-1.4-.2-2.6.7-3.3,2M41,202.4v9.3M48.4,198.6h0M48.3,202.4v9.3M53.3,202.4v9.3M60.1,211.8v-6.7c0-.9-.4-2.4-2.3-2.8-1.9-.4-3.4.6-4.2,1.9M67,211.8v-6.1c0-.7,0-2.9-2.3-3.5-2-.5-3.6.7-4.3,2.1M79.5,207.1c0,3.1-1.9,4.9-4.2,4.9s-4.2-1.8-4.2-4.9,1.9-4.9,4.2-4.9,4.2,1.8,4.2,4.9ZM87.3,202.2c-1.4-.2-2.6.7-3.3,2M83.7,202.4v9.3M91,203.9c.4-1,1.8-1.7,3.1-1.7s3.4,1.3,3.4,2.9v4.1c0,1,0,1.8.3,2.7M97.1,206.6h-2.7c-2.5,0-3.8,1.4-3.8,2.9s1.2,2.5,2.9,2.5,3.6-1.5,4-2.6M105.9,202.2c-1.4-.2-2.6.7-3.3,2M102.2,202.4v9.3" fill="none" stroke="#17b0e3" stroke-linecap="square" stroke-width="2"/>
        </g>
      </g>
      <g id="g-root-tx_implemen_v9u9f5csxb0q-stroke">
        <g id="tx_implemen_v9u9f5csxb0q-stroke">
          <path d="M626.6,196.7c-.7,1.9-2.4,3.3-4.6,3.3s-4.8-2.2-4.8-4.9v-3.9c0-2.7,2.2-4.9,4.8-4.9s3.9,1.4,4.6,3.3M638.9,195.1c0,3.1-1.9,4.9-4.2,4.9s-4.2-1.8-4.2-4.9,1.9-4.9,4.2-4.9,4.2,1.8,4.2,4.9ZM643.1,190.4v9.3M649.9,199.7v-6.1c0-.7,0-3.3-2.3-3.5-1.8-.1-3.4,1-4.2,2.4M660.8,192c-.3-1-1.5-1.8-3.1-1.8s-3.1.9-3.2,2.2c0,1.5,1.1,2.1,3.1,2.6,1.7.5,3.6.9,3.5,2.8,0,1.2-1.1,2.2-3.4,2.2s-3-.8-3.3-1.9M668.5,199.9c-1.4.1-2.3-.6-2.3-1.9v-10.3M668.3,190.3h-1.8M664.1,190.3h1.7M676,190.2c-1.4-.2-2.6.7-3.3,2M672.3,190.4v9.3M686.3,199.7v-9.3M679.5,190.4v6.1c0,.7,0,3.3,2.3,3.5,2.1.2,3.4-.7,4.1-1.8M691.3,186.6h0M691.3,190.4v9.3M699.8,190.2c-1.4-.2-2.6.7-3.3,2M696.2,190.4v9.3M617.7,223.7v-13.2h5.3c1.1,0,3.5.8,3.5,3.6s-2.4,3.7-3.5,3.8h-4.8M630.4,217.1c0,4.7,2,6.9,5.1,6.9s5.1-2.2,5.1-6.9-2.2-6.7-5.1-6.7-5.1,2-5.1,6.7ZM654.3,220.7c-.7,1.9-2.4,3.3-4.6,3.3s-4.8-2.2-4.8-4.9v-3.9c0-2.7,2.2-4.9,4.8-4.9s3.9,1.4,4.6,3.3" fill="none" stroke="#d3d3d3" stroke-linecap="square" stroke-width="2"/>
        </g>
      </g>
      <g id="g-root-arro_7qasxct2zgs-stroke">
        <g id="arro_7qasxct2zgs-stroke">
          <path d="M170,246.1h46M178,246.1v-5c0-.6-.4-1-1-1h-4c-.6,0-1,.4-1,1v5M190,246.1v-13c0-.6-.4-1-1-1h-4c-.6,0-1,.4-1,1v13M202,246.1v-21c0-.6-.4-1-1-1h-4c-.6,0-1,.4-1,1v21M214,246.1v-29c0-.6-.4-1-1-1h-4c-.6,0-1,.4-1,1v29M175,226.1l36-24M210,210.1l1-8-8-1" fill="none" stroke="#17b0e3" stroke-linecap="round" stroke-linejoin="round" stroke-width="2"/>
        </g>
      </g>
      <g id="g-root-tx_refineso_1hgbay9csxbsw-stroke">
        <g id="tx_refineso_1hgbay9csxbsw-stroke">
          <path d="M509.7,511.8v-13.2h4.8c1.1,0,3.4.8,3.4,3.5s-2.3,3.6-3.4,3.7h-4.2M518.1,511.9l-3.1-5.7M528.9,510.8c-1,.9-2,1.1-3.2,1.1-2.1,0-3.9-1.3-3.9-4.9s1.8-4.9,3.9-4.9,3.7,1.1,3.7,4.6h-7.2M537.5,497.5h-.6c-1.6,0-2.6,1.1-2.6,2.5v11.7M536.8,502.3h-2.1M532.5,502.3h1.5M540.7,498.6h0M540.7,502.4v9.3M545.6,502.4v9.3M552.4,511.7v-6.1c0-.7,0-3.3-2.3-3.5-1.8-.1-3.4,1-4.2,2.4M557.3,503.9c.4-1,1.8-1.7,3.1-1.7s3.4,1.3,3.4,2.9v4.1c0,1,0,1.8.3,2.7M563.4,506.6h-2.7c-2.5,0-3.8,1.4-3.8,2.9s1.2,2.5,2.9,2.5,3.6-1.5,4-2.6M572.2,502.2c-1.4-.2-2.6.7-3.3,2M568.6,502.4v9.3" fill="none" stroke="#d3d3d3" stroke-linecap="square" stroke-width="2"/>
        </g>
      </g>
      <g id="g-root-idea_145hcttct2xvu-stroke">
        <g id="idea_145hcttct2xvu-stroke">
          <path d="M298,120.6h-6M301,109.6c0-3.3-2.7-5.9-6-6-3.3,0-5.9,2.7-6,6,0,2.1,1.2,4,3,5v2h6v-2c1.8-1,3-2.9,3-5ZM275.5,134.1c0,1.9,1.6,3.5,3.5,3.5s3.5-1.6,3.5-3.5-1.6-3.5-3.5-3.5-3.5,1.6-3.5,3.5ZM286,144.6c-1-3.9-4.9-6.2-8.8-5.2-2.6.7-4.6,2.7-5.2,5.2h14ZM291.5,134.1c0,1.9,1.6,3.5,3.5,3.5s3.5-1.6,3.5-3.5-1.6-3.5-3.5-3.5-3.5,1.6-3.5,3.5ZM302,144.6c-1-3.9-4.9-6.2-8.8-5.2-2.6.7-4.6,2.7-5.2,5.2h14ZM307.5,134.1c0,1.9,1.6,3.5,3.5,3.5s3.5-1.6,3.5-3.5-1.6-3.5-3.5-3.5-3.5,1.6-3.5,3.5ZM318,144.6c-1-3.9-4.9-6.2-8.8-5.2-2.6.7-4.6,2.7-5.2,5.2h14ZM295,98.6v2M302.8,101.8l-1.4,1.4M306,108.6h-2M287.2,101.8l1.4,1.4M284,108.6h2M293,124.6h4" fill="none" stroke="#d3d3d3" stroke-linecap="round" stroke-linejoin="round" stroke-width="2"/>
        </g>
      </g>
      <g id="g-root-tx_requalif_qs5c1dcsxcsk-stroke">
        <g id="tx_requalif_qs5c1dcsxcsk-stroke">
          <path d="M96.9,79.7v-13.1h.5l8.6,13.1h.5v-13.1M119.4,75.1c0,3.1-1.9,4.9-4.2,4.9s-4.2-1.8-4.2-4.9,1.9-4.9,4.2-4.9,4.2,1.8,4.2,4.9ZM129.7,70.3l-3.4,9.4h-.2l-3.4-9.4M133.9,71.9c.4-1,1.8-1.7,3.1-1.7s3.4,1.3,3.4,2.9v4.1c0,1,0,1.8.3,2.7M140,74.6h-2.7c-2.5,0-3.8,1.4-3.8,2.9s1.2,2.5,2.9,2.5,3.6-1.5,4-2.6M151.3,72c-.3-1-1.5-1.8-3.1-1.8s-3.1.9-3.2,2.2c-.1,1.5,1.1,2.1,3.1,2.6,1.7.5,3.6.9,3.5,2.8,0,1.2-1.1,2.2-3.4,2.2s-3-.8-3.3-1.9M162.2,66.6h0M162.1,70.4v9.3M174.1,79.7v-14M173.7,78.4c-.9,1.1-2,1.6-3.3,1.6-2.2,0-3.8-1.3-3.8-4.9s1.8-4.9,3.9-4.9,2.5.5,3.2,1.6M185.6,78.8c-1,.9-2,1.1-3.2,1.1-2.1,0-3.9-1.3-3.9-4.9s1.8-4.9,3.9-4.9,3.7,1.1,3.7,4.6h-7.2M190.2,66.6h0M190.2,70.4v9.3M195.3,71.9c.4-1,1.8-1.7,3.1-1.7s3.4,1.3,3.4,2.9v4.1c0,1,0,1.8.3,2.7M201.4,74.6h-2.7c-2.5,0-3.8,1.4-3.8,2.9s1.2,2.5,2.9,2.5,3.6-1.5,4-2.6M212.7,72c-.3-1-1.5-1.8-3.1-1.8s-3.1.9-3.2,2.2c-.1,1.5,1.1,2.1,3.1,2.6,1.7.5,3.6.9,3.5,2.8,0,1.2-1.1,2.2-3.4,2.2s-3-.8-3.3-1.9" fill="none" stroke="#d3d3d3" stroke-linecap="square" stroke-width="2"/>
        </g>
      </g>
      <g id="g-root-arro_4hc0wxbp1slg-stroke">
        <g id="arro_4hc0wxbp1slg-stroke">
          <path d="M173,336.6h40s2,0,2,2v28s0,2-2,2h-40s-2,0-2-2v-28s0-2,2-2M176,354.6l3.8-3.8c.8-.8,2-.8,2.8,0h0l2.4,2.4c.8.8,2,.8,2.8,0l5.6-5.6c.8-.8,2-.8,2.8,0l4.3,4.3c.8.8,2,.8,2.8,0l7.6-7.7M205,358.6h6M211,362.6h-10M193,332.6v4M193,368.6v5M193,373.6l-7,5M193,373.6l7,5" fill="none" stroke="#d3d3d3" stroke-linecap="round" stroke-linejoin="round" stroke-width="2"/>
        </g>
      </g>
      <g id="g-root-2_qvw9ptct2yh4-stroke">
        <g id="_x32__x5F_qvw9ptct2yh4-stroke">
          <path d="M506,355.6c0,12.7,10.3,23,23,23s23-10.3,23-23-10.3-23-23-23-23,10.3-23,23ZM512.6,351.1c10.7-3.3,22.1-3.3,32.7,0M512,355.6c0,9.4,7.6,17,17,17s17-7.6,17-17-7.6-17-17-17-17,7.6-17,17ZM526,355.6c0,1.7,1.3,3,3,3s3-1.3,3-3-1.3-3-3-3-3,1.3-3,3ZM512.1,356.7h.9c7.2,0,13,5.8,13,13s0,1.8-.3,2.7M532.3,372.3c-.2-.9-.3-1.8-.3-2.7,0-7.2,5.8-13,13-13s.6,0,1,0" fill="none" stroke="#d3d3d3" stroke-linecap="round" stroke-linejoin="round" stroke-width="2"/>
        </g>
      </g>
      <g id="g-root-tx_monitorp_4loai9csxc0e-stroke">
        <g id="tx_monitorp_4loai9csxc0e-stroke">
          <path d="M18.2,379.7v-13.1h1l5.3,13.1h.3l5.3-13.1h1v13.1M44,375.1c0,3.1-1.9,4.9-4.2,4.9s-4.2-1.8-4.2-4.9,1.9-4.9,4.2-4.9,4.2,1.8,4.2,4.9ZM48.2,370.4v9.3M55,379.7v-6.1c0-.7,0-3.3-2.3-3.5-1.8-.1-3.4,1-4.2,2.4M59.9,366.6h0M59.9,370.4v9.3M67.8,379.9c-1.4.1-2.3-.6-2.3-1.9v-10.3M67.7,370.3h-1.8M63.5,370.3h1.7M79.5,375.1c0,3.1-1.9,4.9-4.2,4.9s-4.2-1.8-4.2-4.9,1.9-4.9,4.2-4.9,4.2,1.8,4.2,4.9ZM87.3,370.2c-1.4-.2-2.6.7-3.3,2M83.7,370.4v9.3M91,371.9c.4-1,1.8-1.7,3.1-1.7s3.4,1.3,3.4,2.9v4.1c0,1,0,1.8.3,2.7M97.1,374.6h-2.7c-2.5,0-3.8,1.4-3.8,2.9s1.2,2.5,2.9,2.5,3.6-1.5,4-2.6M105.9,370.2c-1.4-.2-2.6.7-3.3,2M102.2,370.4v9.3" fill="none" stroke="#d3d3d3" stroke-linecap="square" stroke-width="2"/>
        </g>
      </g>
      <g id="g-root-tx_conductp_144uskxcsxddt-stroke">
        <g id="tx_conductp_144uskxcsxddt-stroke">
          <path d="M617.7,379.7v-13.2h5.3c1.1,0,3.5.8,3.5,3.6s-2.4,3.7-3.5,3.8h-4.8M630.8,366.6h0M630.8,370.4v9.3M635.8,365.7v14M648.6,375.1c0,3.1-1.9,4.9-4.2,4.9s-4.2-1.8-4.2-4.9,1.9-4.9,4.2-4.9,4.2,1.8,4.2,4.9ZM655.7,379.9c-1.4.1-2.3-.6-2.3-1.9v-10.3M655.6,370.3h-1.8M651.3,370.3h1.7M659.7,371.9c.4-1,1.8-1.7,3.1-1.7s3.4,1.3,3.4,2.9v4.1c0,1,0,1.8.3,2.7M665.9,374.6h-2.7c-2.5,0-3.8,1.4-3.8,2.9s1.2,2.5,2.9,2.5,3.6-1.5,4-2.6M674.7,370.2c-1.4-.2-2.6.7-3.3,2M671,370.4v9.3" fill="none" stroke="#d3d3d3" stroke-linecap="square" stroke-width="2"/>
        </g>
      </g>
      <g id="g-root-tx_implemen_1q6c1jl9r8ttz-stroke">
        <g id="tx_implemen_1q6c1jl9r8ttz-stroke">
          <path d="M478.6,49.1v-13.2h5.3c1.1,0,3.5.8,3.5,3.6s-2.4,3.7-3.5,3.8h-4.8M495.1,39.6c-1.4-.2-2.6.7-3.3,2M491.5,39.8v9.3M506.4,44.5c0,3.1-1.9,4.9-4.2,4.9s-4.2-1.8-4.2-4.9,1.9-4.9,4.2-4.9,4.2,1.8,4.2,4.9ZM510.7,35.9h0M510.7,39.8v11.8c0,.8-.6,2.2-2.3,1.9M522.3,48.2c-1,.9-2,1.1-3.2,1.1-2.1,0-3.9-1.3-3.9-4.9s1.8-4.9,3.9-4.9,3.7,1.1,3.7,4.6h-7.2M529.7,49.3c-1.4,0-2.3-.6-2.3-1.9v-10.3M529.6,39.6h-1.8M525.4,39.6h1.7M541.5,44.5c0,3.1-1.9,4.9-4.2,4.9s-4.2-1.8-4.2-4.9,1.9-4.9,4.2-4.9,4.2,1.8,4.2,4.9ZM486.5,62.5c-.4-1.6-2.1-2.7-4.1-2.7s-4.1,1.2-4.1,3,1.5,2.9,4,3.7c2.2.6,4.4,1.4,4.4,3.9s-1.3,3.1-4.4,3.1-4.1-1.2-4.4-2.9M497.4,72.2c-1,.9-2,1.1-3.2,1.1-2.1,0-3.9-1.3-3.9-4.9s1.8-4.9,3.9-4.9,3.7,1.1,3.7,4.6h-7.2M502,59.1v14M513.6,72.2c-1,.9-2,1.1-3.2,1.1-2.1,0-3.9-1.3-3.9-4.9s1.8-4.9,3.9-4.9,3.7,1.1,3.7,4.6h-7.2M524.9,71.3c-.4,1.4-1.9,2.1-3.4,2.1s-3.9-1.3-3.9-4.9,1.9-4.9,4-4.9,3.2.8,3.4,2.3M529.2,60h0M529.2,63.8v9.3M541.9,68.5c0,3.1-1.9,4.9-4.2,4.9s-4.2-1.8-4.2-4.9,1.9-4.9,4.2-4.9,4.2,1.8,4.2,4.9ZM546.1,63.8v9.3M552.9,73.1v-6.1c0-.7,0-3.3-2.3-3.5-1.8-.2-3.4,1-4.2,2.4M557.8,65.2c.4-1,1.8-1.7,3.1-1.7s3.4,1.3,3.4,2.9v4.1c0,1,0,1.8.3,2.7M563.9,68h-2.7c-2.5,0-3.8,1.4-3.8,2.9s1.2,2.5,2.9,2.5,3.6-1.5,4-2.6M576.2,73.1v-14M575.8,71.8c-.9,1.1-2,1.6-3.3,1.6-2.2,0-3.8-1.3-3.8-4.9s1.8-4.9,3.9-4.9,2.5.5,3.2,1.6M588.8,68.5c0,3.1-1.9,4.9-4.2,4.9s-4.2-1.8-4.2-4.9,1.9-4.9,4.2-4.9,4.2,1.8,4.2,4.9Z" fill="none" stroke="#d3d3d3" stroke-linecap="square" stroke-width="2"/>
        </g>
      </g>
      <g id="g-root-expa_18mjt4hct2z9q-stroke">
        <g id="expa_18mjt4hct2z9q-stroke">
          <path d="M278,434.6h40v40h-40v-40ZM296,456.6l16-16M302,440.6h10v10M274,460.6c-1.1,0-2,.9-2,2M272,466.6v2M286,460.6h-2M280,480.6h-2M286,480.6h-2M274,480.6c-1.1,0-2-.9-2-2M272,474.6v-2M290,460.6c1.1,0,2,.9,2,2M292,466.6v2M290,480.6c1.1,0,2-.9,2-2" fill="none" stroke="#d3d3d3" stroke-linecap="round" stroke-linejoin="round" stroke-width="2"/>
        </g>
      </g>
      <g id="g-root-incr_147cs35ct2ww7-stroke">
        <g id="incr_147cs35ct2ww7-stroke">
          <path d="M468,470.6l-5-6.9v-9.1c0-3.6-5.2-7.7-9-11M458,458.6l-5.4-5.5c-.8-.8-2.2-.8-3,0s-.8,2.2,0,3l5.3,6.5v3c0,2,3.1,5,3.1,5M449,464.6h-25c-1.1,0-2-.9-2-2v-36c0-1.1.9-2,2-2h28c1.1,0,2,.9,2,2v27.8M440,430.6h6v6M446,430.6l-17,16M430,451.6v7M436,446.6v12M442,442.6v16" fill="none" stroke="#d3d3d3" stroke-linecap="round" stroke-linejoin="round" stroke-width="2"/>
        </g>
      </g>
      <g id="g-root-tx_scalesol_1lw4t2pcsxb0n-stroke">
        <g id="tx_scalesol_1lw4t2pcsxb0n-stroke">
          <path d="M156.5,511.8h-7.6v-13.2h7.5M155.5,504.9h-6M166.7,504c-.3-1-1.5-1.8-3.1-1.8s-3.1.9-3.2,2.2c-.1,1.5,1.1,2.1,3.1,2.6,1.7.5,3.6.9,3.5,2.8,0,1.2-1.1,2.2-3.4,2.2s-3-.8-3.3-1.9M178.2,509.9c-.4,1.4-1.9,2.1-3.4,2.1s-3.9-1.3-3.9-4.9,1.9-4.9,4-4.9,3.2.8,3.4,2.3M182.5,503.9c.4-1,1.8-1.7,3.1-1.7s3.4,1.3,3.4,2.9v4.1c0,1,0,1.8.3,2.7M188.6,506.6h-2.7c-2.5,0-3.8,1.4-3.8,2.9s1.2,2.5,2.9,2.5,3.6-1.5,4-2.6M193.9,497.7v14M199,503.9c.4-1,1.8-1.7,3.1-1.7s3.4,1.3,3.4,2.9v4.1c0,1,0,1.8.3,2.7M205.1,506.6h-2.7c-2.5,0-3.8,1.4-3.8,2.9s1.2,2.5,2.9,2.5,3.6-1.5,4-2.6M213.9,502.2c-1.4-.2-2.6.7-3.3,2M210.2,502.4v9.3" fill="none" stroke="#d3d3d3" stroke-linecap="square" stroke-width="2"/>
        </g>
      </g>
      <g id="g-root-docu_1up9txdaut72l-stroke">
        <g id="docu_1up9txdaut72l-stroke">
          <path d="M467.4,58.9l-42,42.3c-.8.8-2.1.8-2.9,0l-42-42.3c-.8-.8-.8-2.1,0-2.9l11.3-11.4c.8-.8,2-.8,2.8,0l19,18.8V9.5c0-1.1.9-2.1,2.1-2.1h16.4c1.1,0,2.1.9,2.1,2.1v53.8l19-18.8c.8-.8,2.1-.7,2.8,0l11.3,11.4c.8.8.8,2.1,0,2.9h.1Z" fill="none" stroke="#d3d3d3" stroke-linecap="round" stroke-linejoin="round" stroke-width="2"/>
        </g>
      </g>
      <g id="g-root-writ_958qb5ct2xoh-stroke">
        <g id="writ_958qb5ct2xoh-stroke">
          <path d="M526,244.6h-18c-1.1,0-2-.9-2-2v-40c0-1.1.9-2,2-2h23.2c.5,0,1,.2,1.4.6l6.8,6.8c.4.4.6.9.6,1.4v16.2M530,200.6v8c0,1.1.9,2,2,2h8M512,212.6h8v8h-8v-8ZM512,226.6h8v8h-8v-8ZM520,216.6h4c1.1,0,2,.9,2,2v10c0,1.1-.9,2-2,2h-4M533,222.6h-6M537.4,244.6l-7,2,2-7,14.3-14.3c.4-.4,1-.4,1.4,0l3.6,3.6c.4.4.4,1,0,1.4h0l-14.3,14.3ZM543.4,228.6l5,5M532.4,239.6l5,5" fill="none" stroke="#d3d3d3" stroke-linecap="round" stroke-linejoin="round" stroke-width="2"/>
        </g>
      </g>
    </g>
  </g>
</svg>