<svg width="522" height="541" viewBox="0 0 522 541" style="fill:none;stroke:none;fill-rule:evenodd;clip-rule:evenodd;stroke-linecap:round;stroke-linejoin:round;stroke-miterlimit:1.5;" version="1.1" xmlns="http://www.w3.org/2000/svg" xmlns:xlink="http://www.w3.org/1999/xlink"><g id="blend" style="mix-blend-mode:multiply"><g id="g-root-ro_24zvy51h5hq-fill" data-item-order="-12193" data-item-id="ro_24zvy51h5hq" data-item-class="Shape Stroke Fill" data-item-index="none" data-renderer-id="0" transform="matrix(1, 0, 0, 1, 190.933349609375, 451)"><g id="ro_24zvy51h5hq-fill" stroke="none" fill="#fef2e6" transform="matrix(1, 0, 0, 1, -2, -2)"><g xmlns="http://www.w3.org/2000/svg" transform="translate(12, 12)"><path d="M12 -0 h 132.13 s12 0 12 12 v 54.09 s0 12 -12 12 h -132.13 s -12 0 -12 -12 v -54.09 s0 -12 12 -12"></path></g></g></g><g id="g-root-ro_1haq372514iz3-fill" data-item-order="-12096" data-item-id="ro_1haq372514iz3" data-item-class="Shape Stroke Fill" data-item-index="none" data-renderer-id="0" transform="matrix(1, 0, 0, 1, 185, -9)"><g id="ro_1haq372514iz3-fill" stroke="none" fill="#e6f9ff" transform="matrix(1, 0, 0, 1, -2, -2)"><g xmlns="http://www.w3.org/2000/svg" transform="translate(12, 12)"><path d="M12 0 h 144 s12 0 12 12 v 48 s0 12 -12 12 h -144 s -12 0 -12 -12 v -48 s0 -12 12 -12"></path></g></g></g><g id="g-root-ro_qu0rfj6p93bg-fill" data-item-order="-12096" data-item-id="ro_qu0rfj6p93bg" data-item-class="Shape Stroke Fill" data-item-index="none" data-renderer-id="0" transform="matrix(1, 0, 0, 1, 185, 338.659912109375)"><g id="ro_qu0rfj6p93bg-fill" stroke="none" fill="#f5fbe9" transform="matrix(1, 0, 0, 1, -2, -2)"><g xmlns="http://www.w3.org/2000/svg" transform="translate(12, 12)"><path d="M12 0 h 144 s12 0 12 12 v 48 s0 12 -12 12 h -144 s -12 0 -12 -12 v -48 s0 -12 12 -12"></path></g></g></g><g id="g-root-ro_91irhq51mscp-fill" data-item-order="-11232" data-item-id="ro_91irhq51mscp" data-item-class="Shape Stroke Fill" data-item-index="none" data-renderer-id="0" transform="matrix(1, 0, 0, 1, 191, 230.65673828125)"><g id="ro_91irhq51mscp-fill" stroke="none" fill="#ebe6ff" transform="matrix(1, 0, 0, 1, -2, -2)"><g xmlns="http://www.w3.org/2000/svg" transform="translate(12, 12)"><path d="M12 0 h 132 s12 0 12 12 v 48 s0 12 -12 12 h -132 s -12 0 -12 -12 v -48 s0 -12 12 -12"></path></g></g></g><g id="g-root-ro_1usfcfi5179ql-fill" data-item-order="-10368" data-item-id="ro_1usfcfi5179ql" data-item-class="Shape Stroke Fill" data-item-index="none" data-renderer-id="0" transform="matrix(1, 0, 0, 1, -9, 119)"><g id="ro_1usfcfi5179ql-fill" stroke="none" fill="#e6f9ff" transform="matrix(1, 0, 0, 1, -2, -2)"><g xmlns="http://www.w3.org/2000/svg" transform="translate(12, 12)"><path d="M12 0 h 168 s12 0 12 12 v 30 s0 12 -12 12 h -168 s -12 0 -12 -12 v -30 s0 -12 12 -12"></path></g></g></g><g id="g-root-ro_qssv5a51a3ur-fill" data-item-order="-9072" data-item-id="ro_qssv5a51a3ur" data-item-class="Shape Stroke Fill" data-item-index="none" data-renderer-id="0" transform="matrix(1, 0, 0, 1, 191, 119)"><g id="ro_qssv5a51a3ur-fill" stroke="none" fill="#e6f9ff" transform="matrix(1, 0, 0, 1, -2, -2)"><g xmlns="http://www.w3.org/2000/svg" transform="translate(12, 12)"><path d="M12 0 h 144 s12 0 12 12 v 30 s0 12 -12 12 h -144 s -12 0 -12 -12 v -30 s0 -12 12 -12"></path></g></g></g><g id="g-root-ro_dhccry51cw7d-fill" data-item-order="-7776" data-item-id="ro_dhccry51cw7d" data-item-class="Shape Stroke Fill" data-item-index="none" data-renderer-id="0" transform="matrix(1, 0, 0, 1, 367, 119)"><g id="ro_dhccry51cw7d-fill" stroke="none" fill="#e6f9ff" transform="matrix(1, 0, 0, 1, -2, -2)"><g xmlns="http://www.w3.org/2000/svg" transform="translate(12, 12)"><path d="M12 0 h 120 s12 0 12 12 v 30 s0 12 -12 12 h -120 s -12 0 -12 -12 v -30 s0 -12 12 -12"></path></g></g></g><g id="g-root-cog_4mbtm6517cas-fill" data-item-order="0" data-item-id="cog_4mbtm6517cas" data-item-class="Icon Stroke" data-item-index="none" data-renderer-id="0" transform="matrix(1, 0, 0, 1, 3, 131)"></g><g id="g-root-tx_implemen_925bqm517bij-fill" data-item-order="0" data-item-id="tx_implemen_925bqm517bij" data-item-class="Label Stroke" data-item-index="none" data-renderer-id="0" transform="matrix(1, 0, 0, 1, 39, 134)"></g><g id="g-root-hand_v8md9q51a32i-fill" data-item-order="0" data-item-id="hand_v8md9q51a32i" data-item-class="Icon Stroke" data-item-index="none" data-renderer-id="0" transform="matrix(1, 0, 0, 1, 203, 131)"></g><g id="g-root-tx_remodel_18jgejy51a4nd-fill" data-item-order="0" data-item-id="tx_remodel_18jgejy51a4nd" data-item-class="Label Stroke" data-item-index="none" data-renderer-id="0" transform="matrix(1, 0, 0, 1, 239, 134)"></g><g id="g-root-on_mccvxq51cykg-fill" data-item-order="0" data-item-id="on_mccvxq51cykg" data-item-class="Icon Stroke" data-item-index="none" data-renderer-id="0" transform="matrix(1, 0, 0, 1, 379, 131)"></g><g id="g-root-tx_adoptmet_ddli9a51h3ws-fill" data-item-order="0" data-item-id="tx_adoptmet_ddli9a51h3ws" data-item-class="Label Stroke" data-item-index="none" data-renderer-id="0" transform="matrix(1, 0, 0, 1, 238.93328857421875, 463)"></g><g id="g-root-chec_hx5rqm51mrk0-fill" data-item-order="0" data-item-id="chec_hx5rqm51mrk0" data-item-class="Icon Stroke" data-item-index="none" data-renderer-id="0" transform="matrix(1, 0, 0, 1, 203, 251.65673828125)"></g><g id="g-root-tx_establis_143mt9q51mrkf-fill" data-item-order="0" data-item-id="tx_establis_143mt9q51mrkf" data-item-class="Label Stroke" data-item-index="none" data-renderer-id="0" transform="matrix(1, 0, 0, 1, 239, 242.65673828125)"></g><g id="g-root-choo_hu1knj82x6o3-fill" data-item-order="0" data-item-id="choo_hu1knj82x6o3" data-item-class="Icon Stroke" data-item-index="none" data-renderer-id="0" transform="matrix(1, 0, 0, 1, 197, 359.659912109375)"></g><g id="g-root-tx_establis_qu0rfj6p93bh-fill" data-item-order="0" data-item-id="tx_establis_qu0rfj6p93bh" data-item-class="Label Stroke" data-item-index="none" data-renderer-id="0" transform="matrix(1, 0, 0, 1, 233, 350.659912109375)"></g><g id="g-root-tx_grouppro_hrjl4e514idh-fill" data-item-order="0" data-item-id="tx_grouppro_hrjl4e514idh" data-item-class="Label Stroke" data-item-index="none" data-renderer-id="0" transform="matrix(1, 0, 0, 1, 233, 3)"></g><g id="g-root-bars_8xs04u51h4p1-fill" data-item-order="0" data-item-id="bars_8xs04u51h4p1" data-item-class="Icon Stroke" data-item-index="none" data-renderer-id="0" transform="matrix(1, 0, 0, 1, 202.933349609375, 472)"></g><g id="g-root-user_4gpju6514gsm-fill" data-item-order="0" data-item-id="user_4gpju6514gsm" data-item-class="Icon Stroke" data-item-index="none" data-renderer-id="0" transform="matrix(1, 0, 0, 1, 197, 12)"></g><g id="g-root-tx_invent_qs6e2651cxs7-fill" data-item-order="0" data-item-id="tx_invent_qs6e2651cxs7" data-item-class="Label Stroke" data-item-index="none" data-renderer-id="0" transform="matrix(1, 0, 0, 1, 415, 134)"></g><g id="g-root-ro_24zvy51h5hq-stroke" data-item-order="-12193" data-item-id="ro_24zvy51h5hq" data-item-class="Shape Stroke Fill" data-item-index="none" data-renderer-id="0" transform="matrix(1, 0, 0, 1, 190.933349609375, 451)"><g id="ro_24zvy51h5hq-stroke" fill="none" stroke-linecap="round" stroke-linejoin="round" stroke-miterlimit="1.5" stroke="#dd8433" stroke-width="2" transform="matrix(1, 0, 0, 1, -2, -2)"><g xmlns="http://www.w3.org/2000/svg" transform="translate(12, 12)"><path d="M12 -0 h 132.13 s12 0 12 12 v 54.09 s0 12 -12 12 h -132.13 s -12 0 -12 -12 v -54.09 s0 -12 12 -12"></path></g></g></g><g id="g-root-ro_1haq372514iz3-stroke" data-item-order="-12096" data-item-id="ro_1haq372514iz3" data-item-class="Shape Stroke Fill" data-item-index="none" data-renderer-id="0" transform="matrix(1, 0, 0, 1, 185, -9)"><g id="ro_1haq372514iz3-stroke" fill="none" stroke-linecap="round" stroke-linejoin="round" stroke-miterlimit="1.5" stroke="#17b0e3" stroke-width="2" transform="matrix(1, 0, 0, 1, -2, -2)"><g xmlns="http://www.w3.org/2000/svg" transform="translate(12, 12)"><path d="M12 0 h 144 s12 0 12 12 v 48 s0 12 -12 12 h -144 s -12 0 -12 -12 v -48 s0 -12 12 -12"></path></g></g></g><g id="g-root-ro_qu0rfj6p93bg-stroke" data-item-order="-12096" data-item-id="ro_qu0rfj6p93bg" data-item-class="Shape Stroke Fill" data-item-index="none" data-renderer-id="0" transform="matrix(1, 0, 0, 1, 185, 338.659912109375)"><g id="ro_qu0rfj6p93bg-stroke" fill="none" stroke-linecap="round" stroke-linejoin="round" stroke-miterlimit="1.5" stroke="#93c131" stroke-width="2" transform="matrix(1, 0, 0, 1, -2, -2)"><g xmlns="http://www.w3.org/2000/svg" transform="translate(12, 12)"><path d="M12 0 h 144 s12 0 12 12 v 48 s0 12 -12 12 h -144 s -12 0 -12 -12 v -48 s0 -12 12 -12"></path></g></g></g><g id="g-root-ro_91irhq51mscp-stroke" data-item-order="-11232" data-item-id="ro_91irhq51mscp" data-item-class="Shape Stroke Fill" data-item-index="none" data-renderer-id="0" transform="matrix(1, 0, 0, 1, 191, 230.65673828125)"><g id="ro_91irhq51mscp-stroke" fill="none" stroke-linecap="round" stroke-linejoin="round" stroke-miterlimit="1.5" stroke="#795ee3" stroke-width="2" transform="matrix(1, 0, 0, 1, -2, -2)"><g xmlns="http://www.w3.org/2000/svg" transform="translate(12, 12)"><path d="M12 0 h 132 s12 0 12 12 v 48 s0 12 -12 12 h -132 s -12 0 -12 -12 v -48 s0 -12 12 -12"></path></g></g></g><g id="g-root-ro_1usfcfi5179ql-stroke" data-item-order="-10368" data-item-id="ro_1usfcfi5179ql" data-item-class="Shape Stroke Fill" data-item-index="none" data-renderer-id="0" transform="matrix(1, 0, 0, 1, -9, 119)"><g id="ro_1usfcfi5179ql-stroke" fill="none" stroke-linecap="round" stroke-linejoin="round" stroke-miterlimit="1.5" stroke="#17b0e3" stroke-width="2" transform="matrix(1, 0, 0, 1, -2, -2)"><g xmlns="http://www.w3.org/2000/svg" transform="translate(12, 12)"><path d="M12 0 h 168 s12 0 12 12 v 30 s0 12 -12 12 h -168 s -12 0 -12 -12 v -30 s0 -12 12 -12"></path></g></g></g><g id="g-root-ro_qssv5a51a3ur-stroke" data-item-order="-9072" data-item-id="ro_qssv5a51a3ur" data-item-class="Shape Stroke Fill" data-item-index="none" data-renderer-id="0" transform="matrix(1, 0, 0, 1, 191, 119)"><g id="ro_qssv5a51a3ur-stroke" fill="none" stroke-linecap="round" stroke-linejoin="round" stroke-miterlimit="1.5" stroke="#17b0e3" stroke-width="2" transform="matrix(1, 0, 0, 1, -2, -2)"><g xmlns="http://www.w3.org/2000/svg" transform="translate(12, 12)"><path d="M12 0 h 144 s12 0 12 12 v 30 s0 12 -12 12 h -144 s -12 0 -12 -12 v -30 s0 -12 12 -12"></path></g></g></g><g id="g-root-ro_dhccry51cw7d-stroke" data-item-order="-7776" data-item-id="ro_dhccry51cw7d" data-item-class="Shape Stroke Fill" data-item-index="none" data-renderer-id="0" transform="matrix(1, 0, 0, 1, 367, 119)"><g id="ro_dhccry51cw7d-stroke" fill="none" stroke-linecap="round" stroke-linejoin="round" stroke-miterlimit="1.5" stroke="#17b0e3" stroke-width="2" transform="matrix(1, 0, 0, 1, -2, -2)"><g xmlns="http://www.w3.org/2000/svg" transform="translate(12, 12)"><path d="M12 0 h 120 s12 0 12 12 v 30 s0 12 -12 12 h -120 s -12 0 -12 -12 v -30 s0 -12 12 -12"></path></g></g></g><g id="g-root-cog_4mbtm6517cas-stroke" data-item-order="0" data-item-id="cog_4mbtm6517cas" data-item-class="Icon Stroke" data-item-index="none" data-renderer-id="0" transform="matrix(1, 0, 0, 1, 3, 131)"><g id="cog_4mbtm6517cas-stroke" fill="none" stroke-linecap="round" stroke-linejoin="round" stroke-miterlimit="1.5" stroke="#17b0e3" stroke-width="1.6" transform="matrix(1.25, 0, 0, 1.25, -5, -5)"><g xmlns="http://www.w3.org/2000/svg" transform="translate(12, 12)"><path d="M17.619 5.501 A1.437 1.437 0 1 0 20.493 5.501 A1.437 1.437 0 1 0 17.619 5.501 ZM20,1.2l.328,1.076a.736.736,0,0,0,.869.5l1.091-.253a.992.992,0,0,1,.944,1.644L22.468,5a.74.74,0,0,0,0,1.008l.763.824a.992.992,0,0,1-.944,1.643L21.2,8.219a.736.736,0,0,0-.869.5L20,9.8a.985.985,0,0,1-1.887,0l-.328-1.076a.736.736,0,0,0-.869-.5l-1.091.253a.992.992,0,0,1-.944-1.643l.763-.824a.74.74,0,0,0,0-1.008l-.763-.823a.992.992,0,0,1,.944-1.644l1.091.253a.736.736,0,0,0,.869-.5L18.112,1.2A.985.985,0,0,1,20,1.2ZM7.031,9.626a1.3,1.3,0,0,0,1.938,0L9.6,8.932a1.306,1.306,0,0,1,2.274.942l-.048.934a1.307,1.307,0,0,0,1.371,1.371l.934-.048a1.306,1.306,0,0,1,.942,2.274l-.694.627a1.3,1.3,0,0,0,0,1.938l.694.627a1.306,1.306,0,0,1-.942,2.274l-.934-.048a1.307,1.307,0,0,0-1.371,1.371l.048.934A1.306,1.306,0,0,1,9.6,23.07l-.627-.694a1.3,1.3,0,0,0-1.938,0L6.4,23.07a1.306,1.306,0,0,1-2.274-.942l.048-.934a1.307,1.307,0,0,0-1.371-1.371l-.934.048A1.306,1.306,0,0,1,.931,17.6l.694-.627a1.3,1.3,0,0,0,0-1.938l-.694-.627a1.306,1.306,0,0,1,.942-2.274l.934.048a1.307,1.307,0,0,0,1.371-1.371L4.13,9.874A1.306,1.306,0,0,1,6.4,8.932ZM4.500 16.001 A3.500 3.500 0 1 0 11.500 16.001 A3.500 3.500 0 1 0 4.500 16.001 Z"></path></g></g></g><g id="g-root-tx_implemen_925bqm517bij-stroke" data-item-order="0" data-item-id="tx_implemen_925bqm517bij" data-item-class="Label Stroke" data-item-index="none" data-renderer-id="0" transform="matrix(1, 0, 0, 1, 39, 134)"><g id="tx_implemen_925bqm517bij-stroke" fill="none" stroke-linecap="square" stroke-linejoin="miter" stroke-miterlimit="4" stroke="#17b0e3" stroke-width="2" transform="matrix(1, 0, 0, 1, 2, 2)"><g xmlns="http://www.w3.org/2000/svg" transform="translate(8, 8)"><path d="M4.86511 4.93762V18.1269 M10.10969 8.81417L10.10996 18.1624M16.94424 18.1624L16.93337 11.4697C16.86892 10.5262 16.50199 9.07848 14.62777 8.64916C12.68808 8.20484 11.20828 9.24827 10.47187 10.5949M23.7793 18.1624V12.1083C23.7793 11.3964 23.8939 9.20604 21.4629 8.64916C19.4338 8.18437 17.8995 9.34748 17.19911 10.7827 M28.55292 8.77398V22.3934M28.9188 10.1239C29.80181 9.02711 30.98311 8.55811 32.29201 8.55811C34.47334 8.55811 36.05199 9.90408 36.05199 13.4756C36.05199 17.0472 34.36769 18.3232 32.18636 18.3232C30.91514 18.3232 29.62934 17.7827 28.9188 16.7195 M40.465621 4.125V18.1264 M52.02746 17.2181C51.05367 18.1548 50.02897 18.3386 48.84351 18.3386C46.77474 18.3386 44.9115 17.0276 44.9115 13.4561C44.9115 9.88449 46.72089 8.57349 48.78966 8.57349C50.85844 8.57349 52.46179 9.62966 52.46179 13.2012H45.24227 M56.529691 8.81417L56.529961 18.1624M63.364241 18.1624L63.353371 11.4697C63.288921 10.5262 62.921991 9.07848 61.047771 8.64916C59.108081 8.20484 57.628281 9.24827 56.891871 10.5949M70.199301 18.1624V12.1083C70.199301 11.3964 70.313901 9.20604 67.882901 8.64916C65.853801 8.18437 64.319501 9.34748 63.619111 10.7827 M81.627458 17.2181C80.653668 18.1548 79.628968 18.3386 78.443508 18.3386C76.374738 18.3386 74.511498 17.0276 74.511498 13.4561C74.511498 9.88449 76.320888 8.57349 78.389658 8.57349C80.458438 8.57349 82.061788 9.62966 82.061788 13.2012H74.842268 M86.108906 8.77967L86.109166 18.1279M92.943456 18.1279V12.0738C92.943456 11.3619 93.039186 8.79026 90.656096 8.58694C88.898056 8.43694 87.209016 9.56164 86.432676 10.9562 M100.689316 18.3258C99.279656 18.4655 98.421746 17.7322 98.421746 16.3869V6.08093M100.571656 8.642H98.808246M96.311554 8.642H98.045436 M104.717624 10.2457C105.081984 9.28012 106.498334 8.56665 107.838354 8.56665C109.691594 8.56665 111.193944 9.8797 111.193944 11.4994L111.199694 12.957V15.5711C111.199694 16.614 111.175124 17.3527 111.476494 18.2784M110.820344 12.957H108.092374C105.588974 12.957 104.288724 14.3433 104.288724 15.8374C104.288724 17.3315 105.526834 18.3408 107.142504 18.3408C109.124734 18.3408 110.750574 16.8882 111.151144 15.7324 M119.634794 8.60908C118.254374 8.41894 117.005984 9.31927 116.364004 10.6193M116.009374 8.77269V18.1226"></path></g></g></g><g id="g-root-hand_v8md9q51a32i-stroke" data-item-order="0" data-item-id="hand_v8md9q51a32i" data-item-class="Icon Stroke" data-item-index="none" data-renderer-id="0" transform="matrix(1, 0, 0, 1, 203, 131)"><g id="hand_v8md9q51a32i-stroke" fill="none" stroke-linecap="round" stroke-linejoin="round" stroke-miterlimit="1.5" stroke="#17b0e3" stroke-width="0.933" transform="matrix(2.142857074737549, 0, 0, 2.142857074737549, -13.571428298950195, -15.714284896850586)"><g xmlns="http://www.w3.org/2000/svg" transform="translate(11, 12)"><path d="M1 10L4 9L5.5 6.5M5.5 13.5L6.5 13L12 13L12.5 8L7 8M11,.5v2a1,1,0,0,1-2,0V.5a3,3,0,0,0-.25,5.56V8h2.5V6.06A3,3,0,0,0,11,.5Z"></path></g></g></g><path id="cu_deugfi51h633" d="M25 25 L 25 39 L 25 53 L 110 53 L 195 53 L 195 67 L 195 81 M187,71q2,2.5,4,5q4,5,4,5q0,0,4,-5q2,-2.5,4,-5" transform="translate(254, 48)" style="fill:none;stroke-linecap:round;stroke-linejoin:round;stroke-miterlimit:1.5;stroke:#484848;stroke-width:2.06"></path><g id="g-root-tx_remodel_18jgejy51a4nd-stroke" data-item-order="0" data-item-id="tx_remodel_18jgejy51a4nd" data-item-class="Label Stroke" data-item-index="none" data-renderer-id="0" transform="matrix(1, 0, 0, 1, 239, 134)"><g id="tx_remodel_18jgejy51a4nd-stroke" fill="none" stroke-linecap="square" stroke-linejoin="miter" stroke-miterlimit="4" stroke="#17b0e3" stroke-width="2" transform="matrix(1, 0, 0, 1, 2, 2)"><g xmlns="http://www.w3.org/2000/svg" transform="translate(8, 8)"><path d="M4.72498 18.1329V4.94524L9.52125 4.92993C10.59098 4.96747 12.9124 5.72941 12.9124 8.47691C12.9124 11.2244 10.59099 12.0614 9.52125 12.1365L5.27444 12.15M13.1387 18.2494L10.02804 12.5145 M23.94746 17.2181C22.97367 18.1548 21.94897 18.3386 20.76351 18.3386C18.69474 18.3386 16.8315 17.0276 16.8315 13.4561C16.8315 9.88449 18.64089 8.57349 20.70966 8.57349C22.77844 8.57349 24.38179 9.62966 24.38179 13.2012H17.16227 M28.449689 8.81417L28.449959 18.1624M35.284239 18.1624L35.273369 11.4697C35.208919 10.5262 34.841989 9.07848 32.967769 8.64916C31.028079 8.20484 29.548279 9.24827 28.811869 10.5949M42.119299 18.1624V12.1083C42.119299 11.3964 42.233899 9.20604 39.802899 8.64916C37.773799 8.18437 36.239499 9.34748 35.539109 10.7827 M54.696997 13.4569C54.696997 16.5223 52.826047 18.3403 50.518107 18.3403C48.210167 18.3403 46.339207 16.5223 46.339207 13.4569C46.339207 10.3915 48.210167 8.57349 50.518107 8.57349C52.826047 8.57349 54.696997 10.3915 54.696997 13.4569Z M65.889755 18.1243V4.12329M65.530005 16.7727C64.668005 17.8707 63.569695 18.3402 62.260135 18.3402C60.078805 18.3402 58.427475 17.0292 58.427475 13.4576C58.427475 9.88607 60.184465 8.57507 62.365785 8.57507C63.635395 8.57507 64.844955 9.11426 65.530005 10.1748 M77.387453 17.2181C76.413663 18.1548 75.388963 18.3386 74.203503 18.3386C72.134733 18.3386 70.271493 17.0276 70.271493 13.4561C70.271493 9.88449 72.080883 8.57349 74.149653 8.57349C76.218433 8.57349 77.821783 9.62966 77.821783 13.2012H70.602263 M82.00561 4.125V18.1264 M87.037623 10.2457C87.401983 9.28012 88.818333 8.56665 90.158353 8.56665C92.011593 8.56665 93.513943 9.8797 93.513943 11.4994L93.519693 12.957V15.5711C93.519693 16.614 93.495123 17.3527 93.796493 18.2784M93.140343 12.957H90.412373C87.908973 12.957 86.608723 14.3433 86.608723 15.8374C86.608723 17.3315 87.846833 18.3408 89.462503 18.3408C91.444733 18.3408 93.070573 16.8882 93.471143 15.7324 M101.954794 8.60908C100.574374 8.41894 99.325984 9.31927 98.684004 10.6193M98.329374 8.77269V18.1226"></path></g></g></g><g id="g-root-on_mccvxq51cykg-stroke" data-item-order="0" data-item-id="on_mccvxq51cykg" data-item-class="Icon Stroke" data-item-index="none" data-renderer-id="0" transform="matrix(1, 0, 0, 1, 379, 131)"><g id="on_mccvxq51cykg-stroke" fill="none" stroke-linecap="round" stroke-linejoin="round" stroke-miterlimit="1.5" stroke="#17b0e3" stroke-width="0.933" transform="matrix(2.142857074737549, 0, 0, 2.142857074737549, -15.714284896850586, -15.714284896850586)"><g xmlns="http://www.w3.org/2000/svg" transform="translate(12, 12)"><path d="M10.5,8a3.5,3.5,0,1,0-5.06,3.12v1.72a.39.39,0,0,0,.39.38H8.17a.39.39,0,0,0,.39-.38V11.09A3.5,3.5,0,0,0,10.5,8ZM7 0.81L7 2.31M11 2.24L9.94 3.31M13.28 5.34L11.78 5.34M3 2.24L4.06 3.31M0.72 5.34L2.22 5.34"></path></g></g></g><g id="g-root-tx_adoptmet_ddli9a51h3ws-stroke" data-item-order="0" data-item-id="tx_adoptmet_ddli9a51h3ws" data-item-class="Label Stroke" data-item-index="none" data-renderer-id="0" transform="matrix(1, 0, 0, 1, 238.93328857421875, 463)"><g id="tx_adoptmet_ddli9a51h3ws-stroke" fill="none" stroke-linecap="square" stroke-linejoin="miter" stroke-miterlimit="4" stroke="#dd8433" stroke-width="2" transform="matrix(1, 0, 0, 1, 2, 1)"><g xmlns="http://www.w3.org/2000/svg" transform="translate(8, 9)"><path d="M8.73682 18.1804L4.72754 18.1827V4.94829C5.67546 4.94829 6.954 4.94607 8.354 4.94607C9.80664 4.90961 13.5869 6.17329 13.5869 11.5108C13.5869 16.8483 10.06185 18.1804 8.73682 18.1804Z M24.80746 17.2181C23.83367 18.1548 22.80897 18.3386 21.62351 18.3386C19.55474 18.3386 17.6915 17.0276 17.6915 13.4561C17.6915 9.88449 19.50089 8.57349 21.56966 8.57349C23.63844 8.57349 25.24179 9.62966 25.24179 13.2012H18.02227 M33.40431 3.92621C33.23636 3.90765 32.95462 3.9071 32.82749 3.9071C31.24758 3.9071 30.24991 5.03454 30.24991 6.42529V18.1291M32.67477 8.6639H30.58598M28.39767 8.6639H29.92386 M36.548438 4.97076H36.572368M36.532208 8.80402V18.1446 M41.458912 8.77967L41.459172 18.1279M48.293462 18.1279V12.0738C48.293462 11.3619 48.389192 8.79026 46.006102 8.58694C44.248062 8.43694 42.559022 9.56164 41.782682 10.9562 M53.248442 4.97076H53.272372M53.232212 8.80402V18.1446 M61.764803 8.60908C60.384383 8.41894 59.135993 9.31927 58.494013 10.6193M58.139383 8.77269V18.1226 M4.73096 42.1165L4.73921 28.97778H5.70806L11.01135 42.1151H11.32658L16.6457 28.97778H17.6156L17.6102 42.1165 M27.6672 27.92761L26.41997 29.55454M29.35746 41.2181C28.38367 42.1548 27.35897 42.3386 26.17351 42.3386C24.10474 42.3386 22.2415 41.0276 22.2415 37.4561C22.2415 33.88449 24.05089 32.57349 26.11966 32.57349C28.18844 32.57349 29.79179 33.62966 29.79179 37.2012H22.57227 M36.82932 42.3258C35.41966 42.4655 34.56175 41.7322 34.56175 40.3869V30.08093M36.71166 32.642H34.94825M32.451558 32.642H34.18544 M44.344801 32.60908C42.964381 32.41894 41.715991 33.31927 41.074011 34.6193M40.719381 32.77269V42.1226 M48.028441 28.97076H48.052371M48.012211 32.80402V42.1446 M59.751791 40.2538C59.379821 41.6492 57.812221 42.3386 56.343121 42.3386C54.205751 42.3386 52.439881 41.0276 52.439881 37.4561C52.439881 33.88449 54.309281 32.57349 56.446651 32.57349C57.953661 32.57349 59.603771 33.41043 59.837061 34.9154 M64.037631 34.2457C64.401991 33.28012 65.818341 32.56665 67.158361 32.56665C69.011601 32.56665 70.513951 33.8797 70.513951 35.4994L70.519701 36.957V39.5711C70.519701 40.614 70.495131 41.3527 70.796501 42.2784M70.140351 36.957H67.412381C64.908981 36.957 63.608731 38.3433 63.608731 39.8374C63.608731 41.3315 64.846841 42.3408 66.462511 42.3408C68.444741 42.3408 70.070581 40.8882 70.471151 39.7324 M81.507831 34.3814C81.212101 33.4042 80.057791 32.58374 78.447701 32.58374C76.559981 32.58374 75.340311 33.44691 75.248661 34.7511C75.143621 36.2457 76.377731 36.8218 78.308231 37.3386C80.001841 37.7969 81.945251 38.2772 81.790961 40.1222C81.691591 41.3105 80.714821 42.3458 78.358101 42.3458C76.452171 42.3458 75.374791 41.5302 75.040431 40.4244"></path></g></g></g><path id="cu_8znfe651h3pl" d="M25 25 L 25 39 L 25 53 L 116 53 L 207 53 L 207 67.1 L 207 81.1 M199,71.1q2,2.5,4,5q4,5,4,5q0,-0,4,-5q2,-2.5,4,-5" transform="translate(72, 158)" style="fill:none;stroke-linecap:round;stroke-linejoin:round;stroke-miterlimit:1.5;stroke:#484848;stroke-width:2.06"></path><path id="cu_8znfe651h3po" d="M33 25 L 33 53.8 L 33 82.7 M25,72.7q2,2.5,4,5q4,5,4,5q0,-0,4,-5q2,-2.5,4,-5" transform="translate(246, 158)" style="fill:none;stroke-linecap:round;stroke-linejoin:round;stroke-miterlimit:1.5;stroke:#484848;stroke-width:2.06"></path><path id="cu_4jtx9q51h4hy" d="M203 25 L 203 39 L 203 53 L 118 53 L 33 53 L 33 67.1 L 33 81.1 M25,71.1q2,2.5,4,5q4,5,4,5q0,-0,4,-5q2,-2.5,4,-5" transform="translate(246, 158)" style="fill:none;stroke-linecap:round;stroke-linejoin:round;stroke-miterlimit:1.5;stroke:#484848;stroke-width:2.06"></path><path id="cu_deugfi51h631" d="M33 25 L 33 53 L 33 81 M25,71q2,2.5,4,5q4,5,4,5q0,0,4,-5q2,-2.5,4,-5" transform="translate(246, 48)" style="fill:none;stroke-linecap:round;stroke-linejoin:round;stroke-miterlimit:1.5;stroke:#484848;stroke-width:2.06"></path><g id="g-root-chec_hx5rqm51mrk0-stroke" data-item-order="0" data-item-id="chec_hx5rqm51mrk0" data-item-class="Icon Stroke" data-item-index="none" data-renderer-id="0" transform="matrix(1, 0, 0, 1, 203, 251.65673828125)"><g id="chec_hx5rqm51mrk0-stroke" fill="none" stroke-linecap="round" stroke-linejoin="round" stroke-miterlimit="1.5" stroke="#795ee3" stroke-width="0.933" transform="matrix(2.142857074737549, 0, 0, 2.142857074737549, -11.428570747375488, -15.714284896850586)"><g xmlns="http://www.w3.org/2000/svg" transform="translate(10, 12)"><path d="M9.5,1.5H11a1,1,0,0,1,1,1v10a1,1,0,0,1-1,1H3a1,1,0,0,1-1-1V2.5a1,1,0,0,1,1-1H4.5M5.5 0.5h3s1 0 1 1v0.5s0 1 -1 1 h-3s-1 0 -1 -1v-0.5s0 -1 1 -1M4.5 8.5L6.5 10L9 6"></path></g></g></g><g id="g-root-tx_establis_143mt9q51mrkf-stroke" data-item-order="0" data-item-id="tx_establis_143mt9q51mrkf" data-item-class="Label Stroke" data-item-index="none" data-renderer-id="0" transform="matrix(1, 0, 0, 1, 239, 242.65673828125)"><g id="tx_establis_143mt9q51mrkf-stroke" fill="none" stroke-linecap="square" stroke-linejoin="miter" stroke-miterlimit="4" stroke="#795ee3" stroke-width="2" transform="matrix(1, 0, 0, 1, 2, 1)"><g xmlns="http://www.w3.org/2000/svg" transform="translate(8, 9)"><path d="M8.73682 18.1804L4.72754 18.1827V4.94829C5.67546 4.94829 6.954 4.94607 8.354 4.94607C9.80664 4.90961 13.5869 6.17329 13.5869 11.5108C13.5869 16.8483 10.06185 18.1804 8.73682 18.1804Z M24.80746 17.2181C23.83367 18.1548 22.80897 18.3386 21.62351 18.3386C19.55474 18.3386 17.6915 17.0276 17.6915 13.4561C17.6915 9.88449 19.50089 8.57349 21.56966 8.57349C23.63844 8.57349 25.24179 9.62966 25.24179 13.2012H18.02227 M33.40431 3.92621C33.23636 3.90765 32.95462 3.9071 32.82749 3.9071C31.24758 3.9071 30.24991 5.03454 30.24991 6.42529V18.1291M32.67477 8.6639H30.58598M28.39767 8.6639H29.92386 M36.548438 4.97076H36.572368M36.532208 8.80402V18.1446 M41.458912 8.77967L41.459172 18.1279M48.293462 18.1279V12.0738C48.293462 11.3619 48.389192 8.79026 46.006102 8.58694C44.248062 8.43694 42.559022 9.56164 41.782682 10.9562 M53.248442 4.97076H53.272372M53.232212 8.80402V18.1446 M61.764803 8.60908C60.384383 8.41894 59.135993 9.31927 58.494013 10.6193M58.139383 8.77269V18.1226 M13.6372 39.1299C12.9764 41.0338 11.18758 42.3984 9.0846 42.3984C6.41965 42.3984 4.25928 40.2071 4.25928 37.5039V33.62109C4.25928 30.91792 6.41965 28.72656 9.0846 28.72656C11.18758 28.72656 12.9764 30.09117 13.6372 31.99505 M21.6848 32.60908C20.30438 32.41894 19.05599 33.31927 18.41401 34.6193M18.05938 32.77269V42.1226 M25.368439 28.97076H25.392369M25.352209 32.80402V42.1446 M33.24932 42.3258C31.83966 42.4655 30.98175 41.7322 30.98175 40.3869V30.08093M33.13166 32.642H31.36825M28.871558 32.642H30.60544 M42.117199 27.92761L40.869969 29.55454M43.807459 41.2181C42.833669 42.1548 41.808969 42.3386 40.623509 42.3386C38.554739 42.3386 36.691499 41.0276 36.691499 37.4561C36.691499 33.88449 38.500889 32.57349 40.569659 32.57349C42.638439 32.57349 44.241789 33.62966 44.241789 37.2012H37.022269 M51.9148 32.60908C50.53438 32.41894 49.28599 33.31927 48.64401 34.6193M48.28938 32.77269V42.1226 M55.598441 28.97076H55.622371M55.582211 32.80402V42.1446 M68.307001 37.4569C68.307001 40.5223 66.436051 42.3403 64.128111 42.3403C61.820171 42.3403 59.949211 40.5223 59.949211 37.4569C59.949211 34.3915 61.820171 32.57349 64.128111 32.57349C66.436051 32.57349 68.307001 34.3915 68.307001 37.4569Z M78.657833 34.3814C78.362103 33.4042 77.207793 32.58374 75.597703 32.58374C73.709983 32.58374 72.490313 33.44691 72.398663 34.7511C72.293623 36.2457 73.527733 36.8218 75.458233 37.3386C77.151843 37.7969 79.095253 38.2772 78.940963 40.1222C78.841593 41.3105 77.864823 42.3458 75.508103 42.3458C73.602173 42.3458 72.524793 41.5302 72.190433 40.4244"></path></g></g></g><path id="cn_1q6ckji6zjwuf" d="M33 25 L 33 43 L 33 61 M25,51q2,2.5,4,5q4,5,4,5q0,0,4,-5q2,-2.5,4,-5" transform="translate(246, 287.65673828125)" style="fill:none;stroke-linecap:round;stroke-linejoin:round;stroke-miterlimit:1.5;stroke:#484848;stroke-width:2.06"></path><path id="cu_mahgoe51h5aa" d="M215 25 L 215 39 L 215 53 L 124 53 L 33 53 L 33 67 L 33 81 M25,71q2,2.5,4,5q4,5,4,5q0,0,4,-5q2,-2.5,4,-5" transform="translate(64, 48)" style="fill:none;stroke-linecap:round;stroke-linejoin:round;stroke-miterlimit:1.5;stroke:#484848;stroke-width:2.06"></path><g id="g-root-choo_hu1knj82x6o3-stroke" data-item-order="0" data-item-id="choo_hu1knj82x6o3" data-item-class="Icon Stroke" data-item-index="none" data-renderer-id="0" transform="matrix(1, 0, 0, 1, 197, 359.659912109375)"><g id="choo_hu1knj82x6o3-stroke" fill="none" stroke-linecap="round" stroke-linejoin="round" stroke-miterlimit="1.5" stroke="#93c131" stroke-width="1.6" transform="matrix(1.25, 0, 0, 1.25, -5, -5)"><g xmlns="http://www.w3.org/2000/svg" transform="translate(12, 12)"><path d="M0 0m11.5 23.5-2.653-3.577a1.5 1.5 0 1 1 2.307-1.918l2.346 2.822V11a1.5 1.5 0 0 1 3 0v6.5h3a4 4 0 0 1 4 4v2M11.5 15.5h-4V1.71a.5.5 0 0 1 .668-.471l6 2.142a.5.5 0 0 1 .332.471V7.5m-1-4.5V.5m-6 5h3m-10 3h3m-3 3h3m4-3H12M9.5 15.5V12a.5.5 0 0 1 .5-.5h1.5m-4-6H1a.5.5 0 0 0-.5.5v9a.5.5 0 0 0 .5.5h6.5"></path></g></g></g><g id="g-root-tx_establis_qu0rfj6p93bh-stroke" data-item-order="0" data-item-id="tx_establis_qu0rfj6p93bh" data-item-class="Label Stroke" data-item-index="none" data-renderer-id="0" transform="matrix(1, 0, 0, 1, 233, 350.659912109375)"><g id="tx_establis_qu0rfj6p93bh-stroke" fill="none" stroke-linecap="square" stroke-linejoin="miter" stroke-miterlimit="4" stroke="#93c131" stroke-width="2" transform="matrix(1, 0, 0, 1, 1, 2)"><g xmlns="http://www.w3.org/2000/svg" transform="translate(9, 8)"><path d="M12.5961 7.45723C12.1648 5.89331 10.54508 4.73169 8.45644 4.73169C6.00763 4.73169 4.30654 5.93098 4.30654 7.75431C4.30654 9.72412 5.77121 10.6852 8.2755 11.406C10.4725 12.0451 12.7095 12.8125 12.7095 15.2879C12.7095 16.9509 11.3974 18.3458 8.34019 18.3458C5.86777 18.3458 4.28744 17.1057 3.92261 15.4828 M23.51746 17.2181C22.54367 18.1548 21.51897 18.3386 20.33351 18.3386C18.26474 18.3386 16.4015 17.0276 16.4015 13.4561C16.4015 9.88449 18.21089 8.57349 20.27966 8.57349C22.34844 8.57349 23.95179 9.62966 23.95179 13.2012H16.73227 M28.135619 4.125V18.1264 M39.697458 17.2181C38.723668 18.1548 37.698968 18.3386 36.513508 18.3386C34.444738 18.3386 32.581498 17.0276 32.581498 13.4561C32.581498 9.88449 34.390888 8.57349 36.459658 8.57349C38.528438 8.57349 40.131788 9.62966 40.131788 13.2012H32.912268 M50.991789 16.2538C50.619819 17.6492 49.052219 18.3386 47.583119 18.3386C45.445749 18.3386 43.679879 17.0276 43.679879 13.4561C43.679879 9.88449 45.549279 8.57349 47.686649 8.57349C49.193659 8.57349 50.843769 9.41043 51.077059 10.9154 M55.338439 4.97076H55.362369M55.322209 8.80402V18.1446 M68.046999 13.4569C68.046999 16.5223 66.176049 18.3403 63.868109 18.3403C61.560169 18.3403 59.689209 16.5223 59.689209 13.4569C59.689209 10.3915 61.560169 8.57349 63.868109 8.57349C66.176049 8.57349 68.046999 10.3915 68.046999 13.4569Z M72.238911 8.77967L72.239171 18.1279M79.073461 18.1279V12.0738C79.073461 11.3619 79.169191 8.79026 76.786101 8.58694C75.028061 8.43694 73.339021 9.56164 72.562681 10.9562 M83.967631 10.2457C84.331991 9.28012 85.748341 8.56665 87.088361 8.56665C88.941601 8.56665 90.443951 9.8797 90.443951 11.4994L90.449701 12.957V15.5711C90.449701 16.614 90.425131 17.3527 90.726501 18.2784M90.070351 12.957H87.342381C84.838981 12.957 83.538731 14.3433 83.538731 15.8374C83.538731 17.3315 84.776841 18.3408 86.392511 18.3408C88.374741 18.3408 90.000581 16.8882 90.401151 15.7324 M98.884802 8.60908C97.504382 8.41894 96.255992 9.31927 95.614012 10.6193M95.259382 8.77269V18.1226 M4.74121 42.1308V28.94395L10.01962 28.92822C11.11845 28.96678 13.503 29.74944 13.503 32.57165C13.503 35.3939 11.11845 36.2536 10.01962 36.3307L5.26909 36.3449 M21.2248 32.60908C19.84438 32.41894 18.59599 33.31927 17.95401 34.6193M17.59938 32.77269V42.1226 M32.527 37.4569C32.527 40.5223 30.65605 42.3403 28.34811 42.3403C26.04017 42.3403 24.16921 40.5223 24.16921 37.4569C24.16921 34.3915 26.04017 32.57349 28.34811 32.57349C30.65605 32.57349 32.527 34.3915 32.527 37.4569Z M36.78812 28.94873H36.81546M36.80259 32.78199V44.5428C36.80259 45.3511 36.18085 46.7396 34.534824 46.4548 M48.417459 41.2181C47.443669 42.1548 46.418969 42.3386 45.233509 42.3386C43.164739 42.3386 41.301499 41.0276 41.301499 37.4561C41.301499 33.88449 43.110889 32.57349 45.179659 32.57349C47.248439 32.57349 48.851789 33.62966 48.851789 37.2012H41.632269 M55.86932 42.3258C54.45966 42.4655 53.60175 41.7322 53.60175 40.3869V30.08093M55.75166 32.642H53.98825M51.491558 32.642H53.22544 M67.577002 37.4569C67.577002 40.5223 65.706052 42.3403 63.398112 42.3403C61.090172 42.3403 59.219212 40.5223 59.219212 37.4569C59.219212 34.3915 61.090172 32.57349 63.398112 32.57349C65.706052 32.57349 67.577002 34.3915 67.577002 37.4569Z M77.927829 34.3814C77.632099 33.4042 76.477789 32.58374 74.867699 32.58374C72.979979 32.58374 71.760309 33.44691 71.668659 34.7511C71.563619 36.2457 72.797729 36.8218 74.728229 37.3386C76.421839 37.7969 78.365249 38.2772 78.210959 40.1222C78.111589 41.3105 77.134819 42.3458 74.778099 42.3458C72.872169 42.3458 71.794789 41.5302 71.460429 40.4244"></path></g></g></g><path id="cn_qu0rfj6p93bi" d="M33 25 L 33 45.2 L 33 65.3 M25,55.3q2,2.5,4,5q4,5,4,5q0,0,4,-5q2,-2.5,4,-5" transform="translate(246, 395.659912109375)" style="fill:none;stroke-linecap:round;stroke-linejoin:round;stroke-miterlimit:1.5;stroke:#484848;stroke-width:2.06"></path><g id="g-root-tx_grouppro_hrjl4e514idh-stroke" data-item-order="0" data-item-id="tx_grouppro_hrjl4e514idh" data-item-class="Label Stroke" data-item-index="none" data-renderer-id="0" transform="matrix(1, 0, 0, 1, 233, 3)"><g id="tx_grouppro_hrjl4e514idh-stroke" fill="none" stroke-linecap="square" stroke-linejoin="miter" stroke-miterlimit="4" stroke="#17b0e3" stroke-width="2" transform="matrix(1, 0, 0, 1, 1, 2)"><g xmlns="http://www.w3.org/2000/svg" transform="translate(9, 8)"><path d="M3.62354 18.1453L8.57221 4.97268L9.16008 4.97266L14.1237 18.1453M5.44096 14.2942H12.2996 M25.10916 8.65246V18.6545C25.10916 23.3512 19.81574 23.0007 18.38085 21.4703M24.77548 16.5732C24.09534 17.6608 22.87107 18.2139 21.58519 18.2139C19.40387 18.2139 17.64688 16.9029 17.64688 13.3313C17.64688 9.75974 19.29821 8.44873 21.47954 8.44873C22.74757 8.44873 24.05261 9.1294 24.77548 10.5024 M33.474802 8.60908C32.094382 8.41894 30.845992 9.31927 30.204012 10.6193M29.849382 8.77269V18.1226 M43.786632 18.1148L43.786372 8.7666M36.952082 8.7666L36.952082 14.8207C36.952082 15.5325 36.857082 18.0958 39.239442 18.3075C41.329672 18.4933 42.603102 17.6528 43.305472 16.4701 M48.582923 8.77398V22.3934M48.948803 10.1239C49.831813 9.02711 51.013113 8.55811 52.322013 8.55811C54.503343 8.55811 56.081993 9.90408 56.081993 13.4756C56.081993 17.0472 54.397693 18.3232 52.216363 18.3232C50.945143 18.3232 49.659343 17.7827 48.948803 16.7195 M60.477633 10.2457C60.841993 9.28012 62.258343 8.56665 63.598363 8.56665C65.451603 8.56665 66.953953 9.8797 66.953953 11.4994L66.959703 12.957V15.5711C66.959703 16.614 66.935133 17.3527 67.236503 18.2784M66.580353 12.957H63.852383C61.348983 12.957 60.048733 14.3433 60.048733 15.8374C60.048733 17.3315 61.286843 18.3408 62.902513 18.3408C64.884743 18.3408 66.510583 16.8882 66.911153 15.7324 M75.394804 8.60908C74.014384 8.41894 72.765994 9.31927 72.124014 10.6193M71.769384 8.77269V18.1226 M4.74121 42.1308V28.94395L10.01962 28.92822C11.11845 28.96678 13.503 29.74944 13.503 32.57165C13.503 35.3939 11.11845 36.2536 10.01962 36.3307L5.26909 36.3449 M21.2248 32.60908C19.84438 32.41894 18.59599 33.31927 17.95401 34.6193M17.59938 32.77269V42.1226 M32.527 37.4569C32.527 40.5223 30.65605 42.3403 28.34811 42.3403C26.04017 42.3403 24.16921 40.5223 24.16921 37.4569C24.16921 34.3915 26.04017 32.57349 28.34811 32.57349C30.65605 32.57349 32.527 34.3915 32.527 37.4569Z M36.71292 32.77398V46.3934M37.0788 34.1239C37.96181 33.02711 39.14311 32.55811 40.45201 32.55811C42.63334 32.55811 44.21199 33.90408 44.21199 37.4756C44.21199 41.0472 42.52769 42.3232 40.34636 42.3232C39.07514 42.3232 37.78934 41.7827 37.0788 40.7195 M56.287001 37.4569C56.287001 40.5223 54.416051 42.3403 52.108111 42.3403C49.800171 42.3403 47.929211 40.5223 47.929211 37.4569C47.929211 34.3915 49.800171 32.57349 52.108111 32.57349C54.416051 32.57349 56.287001 34.3915 56.287001 37.4569Z M66.637828 34.3814C66.342098 33.4042 65.187788 32.58374 63.577698 32.58374C61.689978 32.58374 60.470308 33.44691 60.378658 34.7511C60.273618 36.2457 61.507728 36.8218 63.438228 37.3386C65.131838 37.7969 67.075248 38.2772 66.920958 40.1222C66.821588 41.3105 65.844818 42.3458 63.488098 42.3458C61.582168 42.3458 60.504788 41.5302 60.170428 40.4244 M74.259316 42.3258C72.849656 42.4655 71.991746 41.7322 71.991746 40.3869V30.08093M74.141656 32.642H72.378246M69.881554 32.642H71.615436 M78.287623 34.2457C78.651983 33.28012 80.068333 32.56665 81.408353 32.56665C83.261593 32.56665 84.763943 33.8797 84.763943 35.4994L84.769693 36.957V39.5711C84.769693 40.614 84.745123 41.3527 85.046493 42.2784M84.390343 36.957H81.662373C79.158973 36.957 77.858723 38.3433 77.858723 39.8374C77.858723 41.3315 79.096833 42.3408 80.712503 42.3408C82.694733 42.3408 84.320573 40.8882 84.721143 39.7324 M95.757824 34.3814C95.462094 33.4042 94.307784 32.58374 92.697694 32.58374C90.809974 32.58374 89.590304 33.44691 89.498654 34.7511C89.393614 36.2457 90.627724 36.8218 92.558224 37.3386C94.251834 37.7969 96.195244 38.2772 96.040954 40.1222C95.941584 41.3105 94.964814 42.3458 92.608094 42.3458C90.702164 42.3458 89.624784 41.5302 89.290424 40.4244"></path></g></g></g><g id="g-root-bars_8xs04u51h4p1-stroke" data-item-order="0" data-item-id="bars_8xs04u51h4p1" data-item-class="Icon Stroke" data-item-index="none" data-renderer-id="0" transform="matrix(1, 0, 0, 1, 202.933349609375, 472)"><g id="bars_8xs04u51h4p1-stroke" fill="none" stroke-linecap="round" stroke-linejoin="round" stroke-miterlimit="1.5" stroke="#dd8433" stroke-width="1.6" transform="matrix(1.25, 0, 0, 1.25, -5, 0)"><g xmlns="http://www.w3.org/2000/svg" transform="translate(12, 8)"><path d="M0.441 19.5L23.441 19.5M4.441,19.5V15a.5.5,0,0,0-.5-.5h-2a.5.5,0,0,0-.5.5v4.5M10.441,19.5V10a.5.5,0,0,0-.5-.5h-2a.5.5,0,0,0-.5.5v9.5M16.441,19.5V12a.5.5,0,0,0-.5-.5h-2a.5.5,0,0,0-.5.5v7.5M22.441,19.5V5a.5.5,0,0,0-.5-.5h-2a.5.5,0,0,0-.5.5V19.5"></path></g></g></g><g id="g-root-user_4gpju6514gsm-stroke" data-item-order="0" data-item-id="user_4gpju6514gsm" data-item-class="Icon Stroke" data-item-index="none" data-renderer-id="0" transform="matrix(1, 0, 0, 1, 197, 12)"><g id="user_4gpju6514gsm-stroke" fill="none" stroke-linecap="round" stroke-linejoin="round" stroke-miterlimit="1.5" stroke="#17b0e3" stroke-width="1.6" transform="matrix(1.25, 0, 0, 1.25, -5, -5)"><g xmlns="http://www.w3.org/2000/svg" transform="translate(12, 12)"><path d="M11.500 18.250 A2.250 2.250 0 1 0 16.000 18.250 A2.250 2.250 0 1 0 11.500 18.250 ZM19.000 21.250 A2.250 2.250 0 1 0 23.500 21.250 A2.250 2.250 0 1 0 19.000 21.250 ZM19.000 13.750 A2.250 2.250 0 1 0 23.500 13.750 A2.250 2.250 0 1 0 19.000 13.750 ZM15.675 17.095L19.325 14.905M15.838 19.085L19.162 20.415M4.5 8.5L14 8.5M4.5 11.5L10.5 11.5M4.5 5.5L11.5 5.5M4.5 14.5L8.5 14.5M4.5 17.5L8.5 17.5M11.5,23.5H1.5a1,1,0,0,1-1-1V1.5a1,1,0,0,1,1-1H14.793A1,1,0,0,1,15.5.793L19.207,4.5a1,1,0,0,1,.293.707V8.5"></path></g></g></g><g id="g-root-tx_invent_qs6e2651cxs7-stroke" data-item-order="0" data-item-id="tx_invent_qs6e2651cxs7" data-item-class="Label Stroke" data-item-index="none" data-renderer-id="0" transform="matrix(1, 0, 0, 1, 415, 134)"><g id="tx_invent_qs6e2651cxs7-stroke" fill="none" stroke-linecap="square" stroke-linejoin="miter" stroke-miterlimit="4" stroke="#17b0e3" stroke-width="2" transform="matrix(1, 0, 0, 1, 2, 2)"><g xmlns="http://www.w3.org/2000/svg" transform="translate(8, 8)"><path d="M4.86511 4.93762V18.1269 M10.08891 8.77967L10.08917 18.1279M16.92346 18.1279V12.0738C16.92346 11.3619 17.01919 8.79026 14.6361 8.58694C12.87806 8.43694 11.18902 9.56164 10.41268 10.9562 M27.85276 8.69055L24.4833 18.119L24.28206 18.1189L20.87774 8.69055 M38.497459 17.2181C37.523669 18.1548 36.498969 18.3386 35.313509 18.3386C33.244739 18.3386 31.381499 17.0276 31.381499 13.4561C31.381499 9.88449 33.190889 8.57349 35.259659 8.57349C37.328439 8.57349 38.931789 9.62966 38.931789 13.2012H31.712269 M42.978908 8.77967L42.979168 18.1279M49.813458 18.1279V12.0738C49.813458 11.3619 49.909188 8.79026 47.526098 8.58694C45.768058 8.43694 44.079018 9.56164 43.302678 10.9562 M57.559319 18.3258C56.149659 18.4655 55.291749 17.7322 55.291749 16.3869V6.08093M57.441659 8.642H55.678249M53.181557 8.642H54.915439 M61.58763 10.2457C61.95199 9.28012 63.36834 8.56665 64.70836 8.56665C66.5616 8.56665 68.06395 9.8797 68.06395 11.4994L68.0697 12.957V15.5711C68.0697 16.614 68.04513 17.3527 68.3465 18.2784M67.69035 12.957H64.96238C62.45898 12.957 61.15873 14.3433 61.15873 15.8374C61.15873 17.3315 62.39684 18.3408 64.01251 18.3408C65.99474 18.3408 67.62058 16.8882 68.02115 15.7324 M76.504804 8.60908C75.124384 8.41894 73.875994 9.31927 73.234014 10.6193M72.879384 8.77269V18.1226"></path></g></g></g></g></svg>