<svg width="489" height="183" viewBox="0 0 489 183" style="fill:none;stroke:none;fill-rule:evenodd;clip-rule:evenodd;stroke-linecap:round;stroke-linejoin:round;stroke-miterlimit:1.5;" version="1.1" xmlns="http://www.w3.org/2000/svg" xmlns:xlink="http://www.w3.org/1999/xlink"><g id="blend" style="mix-blend-mode:multiply"><g id="g-root-4.head_sy_18kowu55v38qt-fill" data-item-order="-11515" data-item-id="4.head_sy_18kowu55v38qt" data-item-class="ScenePart Indexed Stroke ColorFillGray ColorStrokeGray" data-item-index="3" data-renderer-id="0" transform="matrix(1, 0, 0, 1, 460, 146.9959716796875)"></g><g id="g-root-4.cu-smallCircle_sy_v98egt5v3abr-fill" data-item-order="-11513" data-item-id="4.cu-smallCircle_sy_v98egt5v3abr" data-item-class="ScenePart Indexed Stroke ColorFillGray ColorStrokeGray" data-item-index="3" data-renderer-id="0" transform="matrix(1, 0, 0, 1, 397, 156)"></g><g id="g-root-3.s3_sy_1czvuql8372td-fill" data-item-order="-11511" data-item-id="3.s3_sy_1czvuql8372td" data-item-class="ScenePart Indexed Stroke ColorFillGray ColorStrokeGray" data-item-index="3" data-renderer-id="0" transform="matrix(1, 0, 0, 1, 403, 159)"></g><g id="g-root-2.s4_sy_1lviy4d5v3abl-fill" data-item-order="-11509" data-item-id="2.s4_sy_1lviy4d5v3abl" data-item-class="ScenePart Indexed Stroke ColorFillGray ColorStrokeGray" data-item-index="2" data-renderer-id="0" transform="matrix(1, 0, 0, 1, 235, 159)"></g><g id="g-root-2.cu-smallCircle_sy_1lviy4d5v3abm-fill" data-item-order="-11507" data-item-id="2.cu-smallCircle_sy_1lviy4d5v3abm" data-item-class="ScenePart Indexed Stroke ColorFillGray ColorStrokeGray" data-item-index="2" data-renderer-id="0" transform="matrix(1, 0, 0, 1, 229, 156)"></g><g id="g-root-1.cu-smallCircle_sy_1qbcg8t5v39jc-fill" data-item-order="-11505" data-item-id="1.cu-smallCircle_sy_1qbcg8t5v39jc" data-item-class="ScenePart Indexed Indexed_1 Stroke ColorFillGray ColorStrokeGray" data-item-index="1" data-renderer-id="0" transform="matrix(1, 0, 0, 1, 61, 156)"></g><g id="g-root-1.s5_sy_4l2fjx5v3bba-fill" data-item-order="-11503" data-item-id="1.s5_sy_4l2fjx5v3bba" data-item-class="ScenePart Indexed Indexed_1 Stroke ColorFillGray ColorStrokeGray" data-item-index="1" data-renderer-id="0" transform="matrix(1, 0, 0, 1, 67, 159)"></g><g id="g-root-1.s6_sy_1ur5yd95v38r3-fill" data-item-order="-11501" data-item-id="1.s6_sy_1ur5yd95v38r3" data-item-class="ScenePart Indexed Indexed_1 Stroke ColorFillGray ColorStrokeGray" data-item-index="1" data-renderer-id="0" transform="matrix(1, 0, 0, 1, -8, 158.9959716796875)"></g><g id="g-root-tx_immerset_1d1rd4t5v3a4q-fill" data-item-order="0" data-item-id="tx_immerset_1d1rd4t5v3a4q" data-item-class="Label Stroke SceneTarget Indexed" data-item-index="2" data-renderer-id="0" transform="matrix(1, 0, 0, 1, 160, -9)"></g><g id="g-root-tx_formamul_hznbct5v3awz-fill" data-item-order="0" data-item-id="tx_formamul_hznbct5v3awz" data-item-class="Label Stroke SceneTarget Indexed Indexed_1" data-item-index="1" data-renderer-id="0" transform="matrix(1, 0, 0, 1, -8, 15)"></g><g id="g-root-tx_generate_v98egt5v3abs-fill" data-item-order="0" data-item-id="tx_generate_v98egt5v3abs" data-item-class="Label Stroke SceneTarget Indexed" data-item-index="3" data-renderer-id="0" transform="matrix(1, 0, 0, 1, 322, 15)"></g><g id="g-root-1_4hy24d5v62h6-fill" data-item-order="0" data-item-id="1_4hy24d5v62h6" data-item-class="Icon Stroke SceneTarget Indexed Indexed_1" data-item-index="1" data-renderer-id="0" transform="matrix(1, 0, 0, 1, 40, 99)"></g><g id="g-root-codi_qof3nh5v639d-fill" data-item-order="0" data-item-id="codi_qof3nh5v639d" data-item-class="Icon Stroke SceneTarget Indexed" data-item-index="2" data-renderer-id="0" transform="matrix(1, 0, 0, 1, 208, 99)"></g><g id="g-root-on_zqaurh5v4pvr-fill" data-item-order="0" data-item-id="on_zqaurh5v4pvr" data-item-class="Icon Stroke SceneTarget Indexed" data-item-index="3" data-renderer-id="0" transform="matrix(1, 0, 0, 1, 376, 99)"></g><g id="g-root-4.head_sy_18kowu55v38qt-stroke" data-item-order="-11515" data-item-id="4.head_sy_18kowu55v38qt" data-item-class="ScenePart Indexed Stroke ColorFillGray ColorStrokeGray" data-item-index="3" data-renderer-id="0" transform="matrix(1, 0, 0, 1, 460, 146.9959716796875)"><g id="4.head_sy_18kowu55v38qt-stroke" fill="none" stroke-linecap="round" stroke-linejoin="round" stroke-miterlimit="1.5" stroke="#bbbbbb" stroke-width="4" transform="matrix(1, 0, 0, 1, -2, -2.9959716796875)"><g xmlns="http://www.w3.org/2000/svg" transform="translate(-612, -239)"><path d="M 624 276 C 627.5 271.6 631.7 267.7 636 264 C 631.6 260.4 627.2 256.6 624 252"></path><path d="M624 275.996L636 263.988L624.016 251.996"></path></g></g></g><g id="g-root-4.cu-smallCircle_sy_v98egt5v3abr-stroke" data-item-order="-11513" data-item-id="4.cu-smallCircle_sy_v98egt5v3abr" data-item-class="ScenePart Indexed Stroke ColorFillGray ColorStrokeGray" data-item-index="3" data-renderer-id="0" transform="matrix(1, 0, 0, 1, 397, 156)"><g id="4.cu-smallCircle_sy_v98egt5v3abr-stroke" fill="none" stroke-linecap="round" stroke-linejoin="round" stroke-miterlimit="1.5" stroke="#bbbbbb" stroke-width="4" transform="matrix(1, 0, 0, 1, -2, -2)"><g xmlns="http://www.w3.org/2000/svg" transform="translate(-549, -249)"><path d="M 564 267 C 565.6 267.2 566.9 265.6 567 264 C 567.1 262.3 565.6 261.3 564 261 C 562.4 260.7 560.5 262.4 561 264 C 561.5 265.6 562.3 267.1 564 267"></path><path d="M564 267C565.657 267 567 265.657 567 264C567 262.343 565.657 261 564 261C562.343 261 561 262.343 561 264C561 265.657 562.343 267 564 267Z"></path></g></g></g><g id="g-root-3.s3_sy_1czvuql8372td-stroke" data-item-order="-11511" data-item-id="3.s3_sy_1czvuql8372td" data-item-class="ScenePart Indexed Stroke ColorFillGray ColorStrokeGray" data-item-index="3" data-renderer-id="0" transform="matrix(1, 0, 0, 1, 403, 159)"><g id="3.s3_sy_1czvuql8372td-stroke" fill="none" stroke-linecap="round" stroke-linejoin="round" stroke-miterlimit="1.5" stroke="#bbbbbb" stroke-width="4" transform="matrix(1, 0, 0, 1, -2, -2)"><g xmlns="http://www.w3.org/2000/svg" transform="translate(-555, -252)"><path d="M 567 264 C 567 264 631.9 264.2 635 264"></path><path d="M567 264C567 264 631.885 264 635 264"></path></g></g></g><g id="g-root-2.s4_sy_1lviy4d5v3abl-stroke" data-item-order="-11509" data-item-id="2.s4_sy_1lviy4d5v3abl" data-item-class="ScenePart Indexed Stroke ColorFillGray ColorStrokeGray" data-item-index="2" data-renderer-id="0" transform="matrix(1, 0, 0, 1, 235, 159)"><g id="2.s4_sy_1lviy4d5v3abl-stroke" fill="none" stroke-linecap="round" stroke-linejoin="round" stroke-miterlimit="1.5" stroke="#bbbbbb" stroke-width="4" transform="matrix(1, 0, 0, 1, -2, -2)"><g xmlns="http://www.w3.org/2000/svg" transform="translate(-387, -252)"><path d="M 399 264 C 426.6 265.9 454.4 263.5 482 264 C 508.3 264.5 534.7 264.7 561 264"></path><path d="M399 264H561"></path></g></g></g><g id="g-root-2.cu-smallCircle_sy_1lviy4d5v3abm-stroke" data-item-order="-11507" data-item-id="2.cu-smallCircle_sy_1lviy4d5v3abm" data-item-class="ScenePart Indexed Stroke ColorFillGray ColorStrokeGray" data-item-index="2" data-renderer-id="0" transform="matrix(1, 0, 0, 1, 229, 156)"><g id="2.cu-smallCircle_sy_1lviy4d5v3abm-stroke" fill="none" stroke-linecap="round" stroke-linejoin="round" stroke-miterlimit="1.5" stroke="#bbbbbb" stroke-width="4" transform="matrix(1, 0, 0, 1, -2, -2)"><g xmlns="http://www.w3.org/2000/svg" transform="translate(-381, -249)"><path d="M 396 267 C 397.6 266.6 399 265.7 399 264 C 399 262.3 397.6 261.3 396 261 C 394.4 260.7 393.3 262.4 393 264 C 392.7 265.6 394.3 267.1 396 267"></path><path d="M396 267C397.657 267 399 265.657 399 264C399 262.343 397.657 261 396 261C394.343 261 393 262.343 393 264C393 265.657 394.343 267 396 267Z"></path></g></g></g><g id="g-root-1.cu-smallCircle_sy_1qbcg8t5v39jc-stroke" data-item-order="-11505" data-item-id="1.cu-smallCircle_sy_1qbcg8t5v39jc" data-item-class="ScenePart Indexed Indexed_1 Stroke ColorFillGray ColorStrokeGray" data-item-index="1" data-renderer-id="0" transform="matrix(1, 0, 0, 1, 61, 156)"><g id="1.cu-smallCircle_sy_1qbcg8t5v39jc-stroke" fill="none" stroke-linecap="round" stroke-linejoin="round" stroke-miterlimit="1.5" stroke="#bbbbbb" stroke-width="4" transform="matrix(1, 0, 0, 1, -2, -2)"><g xmlns="http://www.w3.org/2000/svg" transform="translate(-213, -249)"><path d="M 228 267 C 229.6 267.2 230.7 265.6 231 264 C 231.3 262.4 229.6 261.3 228 261 C 226.4 260.7 224.5 262.4 225 264 C 225.5 265.6 226.3 267 228 267"></path><path d="M228 267C229.657 267 231 265.657 231 264C231 262.343 229.657 261 228 261C226.343 261 225 262.343 225 264C225 265.657 226.343 267 228 267Z"></path></g></g></g><g id="g-root-1.s5_sy_4l2fjx5v3bba-stroke" data-item-order="-11503" data-item-id="1.s5_sy_4l2fjx5v3bba" data-item-class="ScenePart Indexed Indexed_1 Stroke ColorFillGray ColorStrokeGray" data-item-index="1" data-renderer-id="0" transform="matrix(1, 0, 0, 1, 67, 159)"><g id="1.s5_sy_4l2fjx5v3bba-stroke" fill="none" stroke-linecap="round" stroke-linejoin="round" stroke-miterlimit="1.5" stroke="#bbbbbb" stroke-width="4" transform="matrix(1, 0, 0, 1, -2, -2)"><g xmlns="http://www.w3.org/2000/svg" transform="translate(-219, -252)"><path d="M 231 264 C 244.8 265.9 258.8 263.5 272.7 264 C 287.3 264.5 302 263.4 316.6 264 C 330.5 264.6 344.5 262.4 358.3 264 C 369.8 265.4 381.5 263 393 264"></path><path d="M231 264H393"></path></g></g></g><g id="g-root-1.s6_sy_1ur5yd95v38r3-stroke" data-item-order="-11501" data-item-id="1.s6_sy_1ur5yd95v38r3" data-item-class="ScenePart Indexed Indexed_1 Stroke ColorFillGray ColorStrokeGray" data-item-index="1" data-renderer-id="0" transform="matrix(1, 0, 0, 1, -8, 158.9959716796875)"><g id="1.s6_sy_1ur5yd95v38r3-stroke" fill="none" stroke-linecap="round" stroke-linejoin="round" stroke-miterlimit="1.5" stroke="#bbbbbb" stroke-width="4" transform="matrix(1, 0, 0, 1, -2, -2.9959716796875)"><g xmlns="http://www.w3.org/2000/svg" transform="translate(-144, -251)"><path d="M 156 264 C 156 264 221.9 263.4 225 264"></path><path d="M156 263.996C156 263.996 221.837 263.996 224.998 263.996"></path></g></g></g><g id="g-root-tx_immerset_1d1rd4t5v3a4q-stroke" data-item-order="0" data-item-id="tx_immerset_1d1rd4t5v3a4q" data-item-class="Label Stroke SceneTarget Indexed" data-item-index="2" data-renderer-id="0" transform="matrix(1, 0, 0, 1, 160, -9)"><g id="tx_immerset_1d1rd4t5v3a4q-stroke" fill="none" stroke-linecap="square" stroke-linejoin="miter" stroke-miterlimit="4" stroke="#795ee3" stroke-width="2" transform="matrix(1, 0, 0, 1, 3, 2)"><g xmlns="http://www.w3.org/2000/svg" transform="translate(1, 8)"><path d="M24.745111 4.93762V18.1269 M29.98969 8.81417L29.98996 18.1624M36.82424 18.1624L36.81337 11.4697C36.74892 10.5262 36.38199 9.07848 34.50777 8.64916C32.56808 8.20484 31.08828 9.24827 30.35187 10.5949M43.6593 18.1624V12.1083C43.6593 11.3964 43.7739 9.20604 41.3429 8.64916C39.3138 8.18437 37.7795 9.34748 37.07911 10.7827 M55.087461 17.2181C54.113671 18.1548 53.088971 18.3386 51.903511 18.3386C49.834741 18.3386 47.971501 17.0276 47.971501 13.4561C47.971501 9.88449 49.780891 8.57349 51.849661 8.57349C53.918441 8.57349 55.521791 9.62966 55.521791 13.2012H48.302271 M63.174802 8.60908C61.794382 8.41894 60.545992 9.31927 59.904012 10.6193M59.549382 8.77269V18.1226 M72.837833 10.3814C72.542103 9.4042 71.387793 8.58374 69.777703 8.58374C67.889983 8.58374 66.670313 9.44691 66.578663 10.7511C66.473623 12.2457 67.707733 12.8218 69.638233 13.3386C71.331843 13.7969 73.275253 14.2772 73.120963 16.1222C73.021593 17.3105 72.044823 18.3458 69.688103 18.3458C67.782173 18.3458 66.704793 17.5302 66.370433 16.4244 M78.235511 5.3457C78.418521 4.88799 79.012071 4.37024 79.722511 4.37024C80.689901 4.37024 81.242351 5.3457 82.300001 5.3457C83.588741 5.3457 83.924271 4.37118 83.924271 4.37118M77.607631 10.2457C77.971991 9.28012 79.388341 8.56665 80.728361 8.56665C82.581601 8.56665 84.083951 9.8797 84.083951 11.4994L84.089701 12.957V15.5711C84.089701 16.614 84.065131 17.3527 84.366501 18.2784M83.710351 12.957H80.982381C78.478981 12.957 77.178731 14.3433 77.178731 15.8374C77.178731 17.3315 78.416841 18.3408 80.032511 18.3408C82.014741 18.3408 83.640581 16.8882 84.041151 15.7324 M96.706999 13.4569C96.706999 16.5223 94.836049 18.3403 92.528109 18.3403C90.220169 18.3403 88.349209 16.5223 88.349209 13.4569C88.349209 10.3915 90.220169 8.57349 92.528109 8.57349C94.836049 8.57349 96.706999 10.3915 96.706999 13.4569Z M113.547464 17.2181C112.573674 18.1548 111.548974 18.3386 110.363514 18.3386C108.294744 18.3386 106.431504 17.0276 106.431504 13.4561C106.431504 9.88449 108.240894 8.57349 110.309664 8.57349C112.378444 8.57349 113.981794 9.62966 113.981794 13.2012H106.762274 M118.049684 8.81417L118.049954 18.1624M124.884234 18.1624L124.873364 11.4697C124.808914 10.5262 124.441984 9.07848 122.567764 8.64916C120.628074 8.20484 119.148274 9.24827 118.411864 10.5949M131.719294 18.1624V12.1083C131.719294 11.3964 131.833894 9.20604 129.402894 8.64916C127.373794 8.18437 125.839494 9.34748 125.139104 10.7827 M24.5822 39.1299C23.9214 41.0338 22.13258 42.3984 20.0296 42.3984C17.36465 42.3984 15.20428 40.2071 15.20428 37.5039V33.62109C15.20428 30.91792 17.36465 28.72656 20.0296 28.72656C22.13258 28.72656 23.9214 30.09117 24.5822 31.99505 M29.14263 34.2457C29.50699 33.28012 30.92334 32.56665 32.26336 32.56665C34.1166 32.56665 35.61895 33.8797 35.61895 35.4994L35.6247 36.957V39.5711C35.6247 40.614 35.60013 41.3527 35.9015 42.2784M35.24535 36.957H32.51738C30.01398 36.957 28.71373 38.3433 28.71373 39.8374C28.71373 41.3315 29.95184 42.3408 31.56751 42.3408C33.54974 42.3408 35.17558 40.8882 35.57615 39.7324 M46.612831 34.3814C46.317101 33.4042 45.162791 32.58374 43.552701 32.58374C41.664981 32.58374 40.445311 33.44691 40.353661 34.7511C40.248621 36.2457 41.482731 36.8218 43.413231 37.3386C45.106841 37.7969 47.050251 38.2772 46.895961 40.1222C46.796591 41.3105 45.819821 42.3458 43.463101 42.3458C41.557171 42.3458 40.479791 41.5302 40.145431 40.4244 M59.062002 37.4569C59.062002 40.5223 57.191052 42.3403 54.883112 42.3403C52.575172 42.3403 50.704212 40.5223 50.704212 37.4569C50.704212 34.3915 52.575172 32.57349 54.883112 32.57349C57.191052 32.57349 59.062002 34.3915 59.062002 37.4569Z M69.41283 34.3814C69.1171 33.4042 67.96279 32.58374 66.3527 32.58374C64.46498 32.58374 63.24531 33.44691 63.15366 34.7511C63.04862 36.2457 64.28273 36.8218 66.21323 37.3386C67.90684 37.7969 69.85025 38.2772 69.69596 40.1222C69.59659 41.3105 68.61982 42.3458 66.2631 42.3458C64.35717 42.3458 63.27979 41.5302 62.94543 40.4244 M87.064765 42.1243V28.12329M86.705015 40.7727C85.843015 41.8707 84.744705 42.3402 83.435145 42.3402C81.253815 42.3402 79.602485 41.0292 79.602485 37.4576C79.602485 33.88607 81.359475 32.57507 83.540795 32.57507C84.810405 32.57507 86.019965 33.11426 86.705015 34.1748 M98.562464 41.2181C97.588674 42.1548 96.563974 42.3386 95.378514 42.3386C93.309744 42.3386 91.446504 41.0276 91.446504 37.4561C91.446504 33.88449 93.255894 32.57349 95.324664 32.57349C97.393444 32.57349 98.996794 33.62966 98.996794 37.2012H91.777274 M109.064411 28.94702V38.4784C109.064411 40.6108 111.043981 42.3395 113.485891 42.3395C115.927811 42.3395 117.907401 40.6108 117.907401 38.4784V28.94702 M128.792827 34.3814C128.497097 33.4042 127.342787 32.58374 125.732697 32.58374C123.844977 32.58374 122.625307 33.44691 122.533657 34.7511C122.428617 36.2457 123.662727 36.8218 125.593227 37.3386C127.286837 37.7969 129.230247 38.2772 129.075957 40.1222C128.976587 41.3105 127.999817 42.3458 125.643097 42.3458C123.737167 42.3458 122.659787 41.5302 122.325427 40.4244 M141.242002 37.4569C141.242002 40.5223 139.371052 42.3403 137.063112 42.3403C134.755172 42.3403 132.884212 40.5223 132.884212 37.4569C132.884212 34.3915 134.755172 32.57349 137.063112 32.57349C139.371052 32.57349 141.242002 34.3915 141.242002 37.4569Z M19.102457 65.2181C18.128667 66.1548 17.103967 66.3386 15.918507 66.3386C13.849737 66.3386 11.986497 65.0276 11.986497 61.4561C11.986497 57.88449 13.795887 56.57349 15.864657 56.57349C17.933437 56.57349 19.536787 57.62966 19.536787 61.2012H12.317267 M37.319498 52.94531C35.919498 52.94531 30.859088 52.95044 29.911178 52.95044V66.1241M36.286958 59.2975H30.348028 M47.842459 65.2181C46.868669 66.1548 45.843969 66.3386 44.658509 66.3386C42.589739 66.3386 40.726499 65.0276 40.726499 61.4561C40.726499 57.88449 42.535889 56.57349 44.604659 56.57349C46.673439 56.57349 48.276789 57.62966 48.276789 61.2012H41.057269 M55.9298 56.60908C54.54938 56.41894 53.30099 57.31927 52.65901 58.6193M52.30438 56.77269V66.1226 M63.0398 56.60908C61.65938 56.41894 60.41099 57.31927 59.76901 58.6193M59.41438 56.77269V66.1226 M66.662631 58.2457C67.026991 57.28012 68.443341 56.56665 69.783361 56.56665C71.636601 56.56665 73.138951 57.8797 73.138951 59.4994L73.144701 60.957V63.5711C73.144701 64.614 73.120131 65.3527 73.421501 66.2784M72.765351 60.957H70.037381C67.533981 60.957 66.233731 62.3433 66.233731 63.8374C66.233731 65.3315 67.471841 66.3408 69.087511 66.3408C71.069741 66.3408 72.695581 64.8882 73.096151 63.7324 M77.994691 56.81417L77.994961 66.1624M84.829241 66.1624L84.818371 59.4697C84.753921 58.5262 84.386991 57.07848 82.512771 56.64916C80.573081 56.20484 79.093281 57.24827 78.356871 58.5949M91.664301 66.1624V60.1083C91.664301 59.3964 91.778901 57.20604 89.347901 56.64916C87.318801 56.18437 85.784501 57.34748 85.084111 58.7827 M103.092462 65.2181C102.118672 66.1548 101.093972 66.3386 99.908512 66.3386C97.839742 66.3386 95.976502 65.0276 95.976502 61.4561C95.976502 57.88449 97.785892 56.57349 99.854662 56.57349C101.923442 56.57349 103.526792 57.62966 103.526792 61.2012H96.307272 M107.57391 56.77967L107.57417 66.1279M114.40846 66.1279V60.0738C114.40846 59.3619 114.50419 56.79026 112.1211 56.58694C110.36306 56.43694 108.67402 57.56164 107.89768 58.9562 M122.15432 66.3258C120.74466 66.4655 119.88675 65.7322 119.88675 64.3869V54.08093M122.03666 56.642H120.27325M117.776558 56.642H119.51044 M126.182628 58.2457C126.546988 57.28012 127.963338 56.56665 129.303358 56.56665C131.156598 56.56665 132.658948 57.8797 132.658948 59.4994L132.664698 60.957V63.5711C132.664698 64.614 132.640128 65.3527 132.941498 66.2784M132.285348 60.957H129.557378C127.053978 60.957 125.753728 62.3433 125.753728 63.8374C125.753728 65.3315 126.991838 66.3408 128.607508 66.3408C130.589738 66.3408 132.215578 64.8882 132.616148 63.7324 M143.65282 58.3814C143.35709 57.4042 142.20278 56.58374 140.59269 56.58374C138.70497 56.58374 137.4853 57.44691 137.39365 58.7511C137.28861 60.2457 138.52272 60.8218 140.45322 61.3386C142.14683 61.7969 144.09024 62.2772 143.93595 64.1222C143.83658 65.3105 142.85981 66.3458 140.50309 66.3458C138.59716 66.3458 137.51978 65.5302 137.18542 64.4244 M63.174758 90.1243V76.12329M62.815008 88.7727C61.953008 89.8707 60.854698 90.3402 59.545138 90.3402C57.363808 90.3402 55.712478 89.0292 55.712478 85.4576C55.712478 81.88607 57.469468 80.57507 59.650788 80.57507C60.920398 80.57507 62.129958 81.11426 62.815008 82.1748 M74.672457 89.2181C73.698667 90.1548 72.673967 90.3386 71.488507 90.3386C69.419737 90.3386 67.556497 89.0276 67.556497 85.4561C67.556497 81.88449 69.365887 80.57349 71.434657 80.57349C73.503437 80.57349 75.106787 81.62966 75.106787 85.2012H67.887267 M85.640104 76.93762V90.1269 M90.108541 90.1453L95.057211 76.97268L95.645081 76.97266L100.608701 90.1453M91.925961 86.2942H98.784601"></path></g></g></g><g id="g-root-tx_formamul_hznbct5v3awz-stroke" data-item-order="0" data-item-id="tx_formamul_hznbct5v3awz" data-item-class="Label Stroke SceneTarget Indexed Indexed_1" data-item-index="1" data-renderer-id="0" transform="matrix(1, 0, 0, 1, -8, 15)"><g id="tx_formamul_hznbct5v3awz-stroke" fill="none" stroke-linecap="square" stroke-linejoin="miter" stroke-miterlimit="4" stroke="#4682e3" stroke-width="2" transform="matrix(1, 0, 0, 1, 1, 2)"><g xmlns="http://www.w3.org/2000/svg" transform="translate(9, 8)"><path d="M15.338233 11.4377C15.338233 16.1426 17.384773 18.3258 20.393423 18.3258C23.402103 18.3258 25.448503 16.1426 25.448503 11.4377C25.448503 6.73284 23.232303 4.72058 20.393423 4.72058C17.554563 4.72058 15.338233 6.73284 15.338233 11.4377Z M33.589803 8.60908C32.209383 8.41894 30.960993 9.31927 30.319013 10.6193M29.964383 8.77269V18.1226 M44.104164 8.65246V18.6545C44.104164 23.3512 38.810744 23.0007 37.375854 21.4703M43.770484 16.5732C43.090344 17.6608 41.866074 18.2139 40.580194 18.2139C38.398874 18.2139 36.641884 16.9029 36.641884 13.3313C36.641884 9.75974 38.293214 8.44873 40.474544 8.44873C41.742574 8.44873 43.047614 9.1294 43.770484 10.5024 M48.982634 10.2457C49.346994 9.28012 50.763344 8.56665 52.103364 8.56665C53.956604 8.56665 55.458954 9.8797 55.458954 11.4994L55.464704 12.957V15.5711C55.464704 16.614 55.440134 17.3527 55.741504 18.2784M55.085354 12.957H52.357384C49.853984 12.957 48.553734 14.3433 48.553734 15.8374C48.553734 17.3315 49.791844 18.3408 51.407514 18.3408C53.389744 18.3408 55.015584 16.8882 55.416154 15.7324 M60.293915 8.77967L60.294175 18.1279M67.128465 18.1279V12.0738C67.128465 11.3619 67.224195 8.79026 64.841105 8.58694C63.083065 8.43694 61.394025 9.56164 60.617685 10.9562 M72.083449 4.97076H72.107379M72.067219 8.80402V18.1446 M76.473955 8.78027H83.151145V8.93551L76.388935 17.9042V18.1284L83.444015 18.1283 M87.512629 10.2457C87.876989 9.28012 89.293339 8.56665 90.633359 8.56665C92.486599 8.56665 93.988949 9.8797 93.988949 11.4994L93.994699 12.957V15.5711C93.994699 16.614 93.970129 17.3527 94.271499 18.2784M93.615349 12.957H90.887379C88.383979 12.957 87.083729 14.3433 87.083729 15.8374C87.083729 17.3315 88.321839 18.3408 89.937509 18.3408C91.919739 18.3408 93.545579 16.8882 93.946149 15.7324 M101.611267 22.4782C102.247787 22.5791 103.144377 22.2513 103.248497 21.4032C103.347997 20.5928 102.821287 20.0199 102.048337 19.8846L102.261657 18.5043M105.591517 16.2538C105.219537 17.6492 103.651937 18.3386 102.182837 18.3386C100.045467 18.3386 98.279597 17.0276 98.279597 13.4561C98.279597 9.88449 100.148997 8.57349 102.286367 8.57349C103.793377 8.57349 105.443487 9.41043 105.676777 10.9154 M110.560508 5.3457C110.743518 4.88799 111.337068 4.37024 112.047508 4.37024C113.014898 4.37024 113.567348 5.3457 114.624998 5.3457C115.913738 5.3457 116.249268 4.37118 116.249268 4.37118M109.932628 10.2457C110.296988 9.28012 111.713338 8.56665 113.053358 8.56665C114.906598 8.56665 116.408948 9.8797 116.408948 11.4994L116.414698 12.957V15.5711C116.414698 16.614 116.390128 17.3527 116.691498 18.2784M116.035348 12.957H113.307378C110.803978 12.957 109.503728 14.3433 109.503728 15.8374C109.503728 17.3315 110.741838 18.3408 112.357508 18.3408C114.339738 18.3408 115.965578 16.8882 116.366148 15.7324 M129.031996 13.4569C129.031996 16.5223 127.161046 18.3403 124.853106 18.3403C122.545166 18.3403 120.674206 16.5223 120.674206 13.4569C120.674206 10.3915 122.545166 8.57349 124.853106 8.57349C127.161046 8.57349 129.031996 10.3915 129.031996 13.4569Z M11.374755 42.1243V28.12329M11.015005 40.7727C10.153005 41.8707 9.054695 42.3402 7.745135 42.3402C5.563805 42.3402 3.912475 41.0292 3.912475 37.4576C3.912475 33.88607 5.669465 32.57507 7.850785 32.57507C9.120395 32.57507 10.329955 33.11426 11.015005 34.1748 M22.872455 41.2181C21.898665 42.1548 20.873965 42.3386 19.688505 42.3386C17.619735 42.3386 15.756495 41.0276 15.756495 37.4561C15.756495 33.88449 17.565885 32.57349 19.634655 32.57349C21.703435 32.57349 23.306785 33.62966 23.306785 37.2012H16.087265 M40.161625 42.1148L40.161365 32.7666M33.327075 32.7666L33.327075 38.8207C33.327075 39.5325 33.232075 42.0958 35.614435 42.3075C37.704665 42.4933 38.978095 41.6528 39.680465 40.4701 M44.984685 32.81417L44.984955 42.1624M51.819235 42.1624L51.808365 35.4697C51.743915 34.5262 51.376985 33.07848 49.502765 32.64916C47.563075 32.20484 46.083275 33.24827 45.346865 34.5949M58.654295 42.1624V36.1083C58.654295 35.3964 58.768895 33.20604 56.337895 32.64916C54.308795 32.18437 52.774495 33.34748 52.074105 34.7827 M63.552623 34.2457C63.916983 33.28012 65.333333 32.56665 66.673353 32.56665C68.526593 32.56665 70.028943 33.8797 70.028943 35.4994L70.034693 36.957V39.5711C70.034693 40.614 70.010123 41.3527 70.311493 42.2784M69.655343 36.957H66.927373C64.423973 36.957 63.123723 38.3433 63.123723 39.8374C63.123723 41.3315 64.361833 42.3408 65.977503 42.3408C67.959733 42.3408 69.585573 40.8882 69.986143 39.7324 M88.772493 42.1371L81.209113 42.1423V28.94958C82.157033 28.94958 87.330793 28.95044 88.730793 28.95044M87.718553 35.2966H81.673153 M99.8353 32.77398V46.3934M99.41421 34.0566C98.53747 33.0079 97.37803 32.55811 96.09621 32.55811C93.91488 32.55811 92.33624 33.90408 92.33624 37.4756C92.33624 41.0472 94.02054 42.3232 96.20186 42.3232C97.44082 42.3232 98.69363 41.8098 99.41421 40.7995 M111.591621 42.1148L111.591361 32.7666M104.757071 32.7666L104.757071 38.8207C104.757071 39.5325 104.662071 42.0958 107.044431 42.3075C109.134661 42.4933 110.408091 41.6528 111.110461 40.4701 M116.573432 28.97076H116.597362M116.557202 32.80402V42.1446 M121.477916 32.77398V46.3934M121.843796 34.1239C122.726806 33.02711 123.908106 32.55811 125.217006 32.55811C127.398336 32.55811 128.976986 33.90408 128.976986 37.4756C128.976986 41.0472 127.292686 42.3232 125.111356 42.3232C123.840136 42.3232 122.554336 41.7827 121.843796 40.7195 M139.90246 41.2181C138.92867 42.1548 137.90397 42.3386 136.71851 42.3386C134.64974 42.3386 132.7865 41.0276 132.7865 37.4561C132.7865 33.88449 134.59589 32.57349 136.66466 32.57349C138.73344 32.57349 140.33679 33.62966 140.33679 37.2012H133.11727 M8.025958 66.1165L8.034208 52.97778H9.003058L14.306348 66.1151H14.621578L19.940698 52.97778H20.910598L20.905198 66.1165 M32.811628 66.1148L32.811368 56.7666M25.977078 56.7666L25.977078 62.8207C25.977078 63.5325 25.882078 66.0958 28.264438 66.3075C30.354668 66.4933 31.628098 65.6528 32.330468 64.4701 M37.750617 52.125V66.1264 M45.634316 66.3258C44.224656 66.4655 43.366746 65.7322 43.366746 64.3869V54.08093M45.516656 56.642H43.753246M41.256554 56.642H42.990436 M49.723437 52.97076H49.747367M49.707207 56.80402V66.1446 M58.749307 51.92621C58.581357 51.90765 58.299617 51.9071 58.172487 51.9071C56.592577 51.9071 55.594907 53.03454 55.594907 54.42529V66.1291M58.019767 56.6639H55.930977M53.742667 56.6639H55.268857 M68.521629 66.1148L68.521369 56.7666M61.687079 56.7666L61.687079 62.8207C61.687079 63.5325 61.592079 66.0958 63.974439 66.3075C66.064669 66.4933 67.338099 65.6528 68.040469 64.4701 M73.32391 56.77967L73.32417 66.1279M80.15846 66.1279V60.0738C80.15846 59.3619 80.25419 56.79026 77.8711 56.58694C76.11306 56.43694 74.42402 57.56164 73.64768 58.9562 M91.74679 64.2538C91.37482 65.6492 89.80722 66.3386 88.33812 66.3386C86.20075 66.3386 84.43488 65.0276 84.43488 61.4561C84.43488 57.88449 86.30428 56.57349 88.44165 56.57349C89.94866 56.57349 91.59877 57.41043 91.83206 58.9154 M96.093444 52.97076H96.117374M96.077214 56.80402V66.1446 M108.802 61.4569C108.802 64.5223 106.93105 66.3403 104.62311 66.3403C102.31517 66.3403 100.44421 64.5223 100.44421 61.4569C100.44421 58.3915 102.31517 56.57349 104.62311 56.57349C106.93105 56.57349 108.802 58.3915 108.802 61.4569Z M112.993908 56.77967L112.994168 66.1279M119.828458 66.1279V60.0738C119.828458 59.3619 119.924188 56.79026 117.541098 56.58694C115.783058 56.43694 114.094018 57.56164 113.317678 58.9562 M124.722628 58.2457C125.086988 57.28012 126.503338 56.56665 127.843358 56.56665C129.696598 56.56665 131.198948 57.8797 131.198948 59.4994L131.204698 60.957V63.5711C131.204698 64.614 131.180128 65.3527 131.481498 66.2784M130.825348 60.957H128.097378C125.593978 60.957 124.293728 62.3433 124.293728 63.8374C124.293728 65.3315 125.531838 66.3408 127.147508 66.3408C129.129738 66.3408 130.755578 64.8882 131.156148 63.7324 M136.170619 52.125V66.1264"></path></g></g></g><g id="g-root-tx_generate_v98egt5v3abs-stroke" data-item-order="0" data-item-id="tx_generate_v98egt5v3abs" data-item-class="Label Stroke SceneTarget Indexed" data-item-index="3" data-renderer-id="0" transform="matrix(1, 0, 0, 1, 322, 15)"><g id="tx_generate_v98egt5v3abs-stroke" fill="none" stroke-linecap="square" stroke-linejoin="miter" stroke-miterlimit="4" stroke="#dd8433" stroke-width="2" transform="matrix(1, 0, 0, 1, 6, 2)"><g xmlns="http://www.w3.org/2000/svg" transform="translate(4, 8)"><path d="M32.537004 12.3702L36.110504 12.3361L36.099704 16.8469C34.893004 18.0193 33.746064 18.3984 31.428524 18.3984C28.763574 18.3984 26.603204 16.2071 26.603204 13.5039V9.62109C26.603204 6.91792 28.763574 4.72656 31.428524 4.72656C33.436324 4.72656 35.157704 5.97044 35.884604 7.73992 M47.657465 17.2181C46.683675 18.1548 45.658975 18.3386 44.473515 18.3386C42.404745 18.3386 40.541505 17.0276 40.541505 13.4561C40.541505 9.88449 42.350895 8.57349 44.419665 8.57349C46.488445 8.57349 48.091795 9.62966 48.091795 13.2012H40.872275 M55.744802 8.60908C54.364382 8.41894 53.115992 9.31927 52.474012 10.6193M52.119382 8.77269V18.1226 M59.367633 10.2457C59.731993 9.28012 61.148343 8.56665 62.488363 8.56665C64.341603 8.56665 65.843953 9.8797 65.843953 11.4994L65.849703 12.957V15.5711C65.849703 16.614 65.825133 17.3527 66.126503 18.2784M65.470353 12.957H62.742383C60.238983 12.957 58.938733 14.3433 58.938733 15.8374C58.938733 17.3315 60.176843 18.3408 61.792513 18.3408C63.774743 18.3408 65.400583 16.8882 65.801153 15.7324 M73.466263 22.4782C74.102783 22.5791 74.999373 22.2513 75.103493 21.4032C75.202993 20.5928 74.676283 20.0199 73.903333 19.8846L74.116653 18.5043M77.446513 16.2538C77.074533 17.6492 75.506933 18.3386 74.037833 18.3386C71.900463 18.3386 70.134593 17.0276 70.134593 13.4561C70.134593 9.88449 72.003993 8.57349 74.141363 8.57349C75.648373 8.57349 77.298483 9.41043 77.531773 10.9154 M82.415519 5.3457C82.598529 4.88799 83.192079 4.37024 83.902519 4.37024C84.869909 4.37024 85.422359 5.3457 86.480009 5.3457C87.768749 5.3457 88.104279 4.37118 88.104279 4.37118M81.787639 10.2457C82.151999 9.28012 83.568349 8.56665 84.908369 8.56665C86.761609 8.56665 88.263959 9.8797 88.263959 11.4994L88.269709 12.957V15.5711C88.269709 16.614 88.245139 17.3527 88.546509 18.2784M87.890359 12.957H85.162389C82.658989 12.957 81.358739 14.3433 81.358739 15.8374C81.358739 17.3315 82.596849 18.3408 84.212519 18.3408C86.194749 18.3408 87.820589 16.8882 88.221159 15.7324 M100.887007 13.4569C100.887007 16.5223 99.016057 18.3403 96.708117 18.3403C94.400177 18.3403 92.529217 16.5223 92.529217 13.4569C92.529217 10.3915 94.400177 8.57349 96.708117 8.57349C99.016057 8.57349 100.887007 10.3915 100.887007 13.4569Z M118.079757 18.1243V4.12329M117.720007 16.7727C116.858007 17.8707 115.759697 18.3402 114.450137 18.3402C112.268807 18.3402 110.617477 17.0292 110.617477 13.4576C110.617477 9.88607 112.374467 8.57507 114.555787 8.57507C115.825397 8.57507 117.034957 9.11426 117.720007 10.1748 M129.577463 17.2181C128.603673 18.1548 127.578973 18.3386 126.393513 18.3386C124.324743 18.3386 122.461503 17.0276 122.461503 13.4561C122.461503 9.88449 124.270893 8.57349 126.339663 8.57349C128.408443 8.57349 130.011793 9.62966 130.011793 13.2012H122.792273 M8.780103 28.93762V42.1269 M21.004753 42.1243V28.12329M20.645003 40.7727C19.783003 41.8707 18.684693 42.3402 17.375133 42.3402C15.193803 42.3402 13.542473 41.0292 13.542473 37.4576C13.542473 33.88607 15.299463 32.57507 17.480783 32.57507C18.750393 32.57507 19.959953 33.11426 20.645003 34.1748 M32.502455 41.2181C31.528665 42.1548 30.503965 42.3386 29.318505 42.3386C27.249735 42.3386 25.386495 41.0276 25.386495 37.4561C25.386495 33.88449 27.195885 32.57349 29.264655 32.57349C31.333435 32.57349 32.936785 33.62966 32.936785 37.2012H25.717265 M37.163436 28.97076H37.187366M37.147206 32.80402V42.1446 M42.192626 34.2457C42.556986 33.28012 43.973336 32.56665 45.313356 32.56665C47.166596 32.56665 48.668946 33.8797 48.668946 35.4994L48.674696 36.957V39.5711C48.674696 40.614 48.650126 41.3527 48.951496 42.2784M48.295346 36.957H45.567376C43.063976 36.957 41.763726 38.3433 41.763726 39.8374C41.763726 41.3315 43.001836 42.3408 44.617506 42.3408C46.599736 42.3408 48.225576 40.8882 48.626146 39.7324 M59.662826 34.3814C59.367096 33.4042 58.212786 32.58374 56.602696 32.58374C54.714976 32.58374 53.495306 33.44691 53.403656 34.7511C53.298616 36.2457 54.532726 36.8218 56.463226 37.3386C58.156836 37.7969 60.100246 38.2772 59.945956 40.1222C59.846586 41.3105 58.869816 42.3458 56.513096 42.3458C54.607166 42.3458 53.529786 41.5302 53.195426 40.4244 M70.307918 32.77398V46.3934M70.673798 34.1239C71.556808 33.02711 72.738108 32.55811 74.047008 32.55811C76.228338 32.55811 77.806988 33.90408 77.806988 37.4756C77.806988 41.0472 76.122688 42.3232 73.941358 42.3232C72.670138 42.3232 71.384338 41.7827 70.673798 40.7195 M82.202632 34.2457C82.566992 33.28012 83.983342 32.56665 85.323362 32.56665C87.176602 32.56665 88.678952 33.8797 88.678952 35.4994L88.684702 36.957V39.5711C88.684702 40.614 88.660132 41.3527 88.961502 42.2784M88.305352 36.957H85.577382C83.073982 36.957 81.773732 38.3433 81.773732 39.8374C81.773732 41.3315 83.011842 42.3408 84.627512 42.3408C86.609742 42.3408 88.235582 40.8882 88.636152 39.7324 M97.119802 32.60908C95.739382 32.41894 94.490992 33.31927 93.849012 34.6193M93.494382 32.77269V42.1226 M100.742633 34.2457C101.106993 33.28012 102.523343 32.56665 103.863363 32.56665C105.716603 32.56665 107.218953 33.8797 107.218953 35.4994L107.224703 36.957V39.5711C107.224703 40.614 107.200133 41.3527 107.501503 42.2784M106.845353 36.957H104.117383C101.613983 36.957 100.313733 38.3433 100.313733 39.8374C100.313733 41.3315 101.551843 42.3408 103.167513 42.3408C105.149743 42.3408 106.775583 40.8882 107.176153 39.7324 M124.861633 42.1148L124.861373 32.7666M118.027083 32.7666L118.027083 38.8207C118.027083 39.5325 117.932083 42.0958 120.314443 42.3075C122.404673 42.4933 123.678103 41.6528 124.380473 40.4701 M135.822834 34.3814C135.527104 33.4042 134.372794 32.58374 132.762704 32.58374C130.874984 32.58374 129.655314 33.44691 129.563664 34.7511C129.458624 36.2457 130.692734 36.8218 132.623234 37.3386C134.316844 37.7969 136.260254 38.2772 136.105964 40.1222C136.006594 41.3105 135.029824 42.3458 132.673104 42.3458C130.767174 42.3458 129.689794 41.5302 129.355434 40.4244 M148.272001 37.4569C148.272001 40.5223 146.401051 42.3403 144.093111 42.3403C141.785171 42.3403 139.914211 40.5223 139.914211 37.4569C139.914211 34.3915 141.785171 32.57349 144.093111 32.57349C146.401051 32.57349 148.272001 34.3915 148.272001 37.4569Z M63.174758 66.1243V52.12329M62.815008 64.7727C61.953008 65.8707 60.854698 66.3402 59.545138 66.3402C57.363808 66.3402 55.712478 65.0292 55.712478 61.4576C55.712478 57.88607 57.469468 56.57507 59.650788 56.57507C60.920398 56.57507 62.129958 57.11426 62.815008 58.1748 M74.672457 65.2181C73.698667 66.1548 72.673967 66.3386 71.488507 66.3386C69.419737 66.3386 67.556497 65.0276 67.556497 61.4561C67.556497 57.88449 69.365887 56.57349 71.434657 56.57349C73.503437 56.57349 75.106787 57.62966 75.106787 61.2012H67.887267 M85.640104 52.93762V66.1269 M90.108541 66.1453L95.057211 52.97268L95.645081 52.97266L100.608701 66.1453M91.925961 62.2942H98.784601"></path></g></g></g><g id="g-root-1_4hy24d5v62h6-stroke" data-item-order="0" data-item-id="1_4hy24d5v62h6" data-item-class="Icon Stroke SceneTarget Indexed Indexed_1" data-item-index="1" data-renderer-id="0" transform="matrix(1, 0, 0, 1, 40, 99)"><g id="1_4hy24d5v62h6-stroke" fill="none" stroke-linecap="round" stroke-linejoin="round" stroke-miterlimit="1.5" stroke="#4682e3" stroke-width="1" transform="matrix(2, 0, 0, 2, -12, -12)"><g xmlns="http://www.w3.org/2000/svg" transform="translate(11, 11)"><path d="M 3.4 14.4 C 3.2 15.7 4.4 16.3 5.6 16.7 C 6.8 17.1 8.2 15.6 7.9 14.4 C 7.5 13.2 6.8 12.3 5.6 12.2 C 4.4 12.2 3.4 13.2 3.4 14.4 M 9.3 20.4 C 8.7 18.9 7.3 18.1 5.6 17.8 C 4 17.5 2.8 18.9 1.9 20.3 M 15.9 14.4 C 16.3 15.6 17 17.1 18.2 16.7 C 19.3 16.2 20.5 15.7 20.4 14.4 C 20.3 13.2 19.4 12.1 18.2 12.2 C 16.9 12.3 16.2 13.2 15.9 14.4 M 21.7 20.1 C 21.6 18.7 19.9 18.2 18.6 17.8 C 18.2 17.7 17.8 17.8 17.5 17.9 M 1 22.3 C 8.3 22.5 15.9 20.6 23 22.3 M 18.9 22.3 C 16.8 22 14.6 22.6 12.4 22.3 C 12.5 21 12.1 19.6 11.6 18.4 C 11.5 18.3 11.6 18.1 11.7 18 C 11.7 17.9 11.9 17.8 12.1 17.8 C 13.7 17.7 15.4 17.7 17.1 17.8 C 17.6 17.8 18.1 18.1 18.1 18.6 C 18.1 19.9 18.4 21.2 18.9 22.3 M 11.5 1.7 C 11.8 3 11.7 4.4 11.5 5.7 M 9.5 8.7 C 9.7 7.7 9.9 6.7 10 5.7 C 11 5.5 12 5.5 13 5.7 C 13.2 6.7 13.2 7.7 13.5 8.7 C 12.2 8.5 10.8 8.8 9.5 8.7 M 14.7 20.1 C 14.6 20.3 14.9 20.4 15.1 20.4 C 15.3 20.5 15.5 20.3 15.4 20.1 C 15.4 19.9 15.3 19.7 15.1 19.7 C 14.9 19.6 14.6 19.9 14.7 20.1 M 16.6 12.9 C 17.7 13.8 19 14.9 20.4 14.4 M 7.2 12.9 C 6.1 13.9 4.7 14.9 3.4 14.4"></path><path d="M3.3609999999999998 14.448a2.247 2.247 0 1 0 4.494 0a2.247 2.247 0 1 0 -4.494 0M9.309,20.419a3.933,3.933,0,0,0-7.374-.074M15.931000000000001 14.448a2.247 2.247 0 1 0 4.494 0a2.247 2.247 0 1 0 -4.494 0M21.729,20.06a4,4,0,0,0-3.173-2.226,4.154,4.154,0,0,0-1.058.052M1 22.311L23 22.311M18.924,22.311H12.438l-.864-3.892a.5.5,0,0,1,.488-.608h5.06a1,1,0,0,1,.976.783ZM11.5 1.689L11.5 5.689M9.5 8.689000129699707L10 5.689000129699707L13 5.689000129699707L13.5 8.689000129699707L9.5 8.689000129699707ZM14.694 20.061a0.375 0.375 0 1 0 0.75 0a0.375 0.375 0 1 0 -0.75 0M16.575,12.875a4.908,4.908,0,0,0,3.85,1.573M7.211,12.875a4.908,4.908,0,0,1-3.85,1.573"></path></g></g></g><g id="g-root-codi_qof3nh5v639d-stroke" data-item-order="0" data-item-id="codi_qof3nh5v639d" data-item-class="Icon Stroke SceneTarget Indexed" data-item-index="2" data-renderer-id="0" transform="matrix(1, 0, 0, 1, 208, 99)"><g id="codi_qof3nh5v639d-stroke" fill="none" stroke-linecap="round" stroke-linejoin="round" stroke-miterlimit="1.5" stroke="#795ee3" stroke-width="1" transform="matrix(2, 0, 0, 2, -14, -14)"><g xmlns="http://www.w3.org/2000/svg" transform="translate(12, 12)"><path d="M 15.5 6.8 C 15.7 6.8 15.9 6.8 16 6.8 C 16.3 6.8 16.6 7 16.6 7.3 C 16.4 8.5 16.5 9.7 16.6 11 M 15.5 11 C 16.2 11.1 16.9 10.8 17.6 11 M 21.1 0.5 C 21.3 0.5 21.4 0.6 21.6 0.5 C 21.9 0.4 22.1 0.7 22.1 1 C 22 2.2 22.4 3.5 22.1 4.7 M 21.1 4.7 C 21.8 4.6 22.5 4.6 23.2 4.7 M 21.1 13.1 C 21.2 13.1 21.4 13 21.6 13.1 C 21.9 13.2 22 13.3 22.1 13.6 C 22.5 14.8 22.3 16 22.1 17.2 M 21.1 17.2 C 21.8 17.1 22.5 17 23.2 17.2 M 23.4 9.6 C 23.3 10.4 22.8 10.9 22.1 11 C 21.4 11 21 10.4 20.8 9.6 C 20.7 9.1 21 8.6 20.8 8.1 C 20.6 7.4 21.4 6.8 22.1 6.8 C 22.8 6.8 23.5 7.4 23.4 8.1 C 23.3 8.6 23.5 9.1 23.4 9.6 M 17.9 15.9 C 18.1 16.6 17.3 17.3 16.6 17.2 C 15.8 17.1 15.4 16.6 15.3 15.9 C 15.1 15.4 15.4 14.9 15.3 14.4 C 15.1 13.7 15.8 13.1 16.6 13.1 C 17.3 13.1 17.7 13.7 17.9 14.4 C 17.9 14.9 17.9 15.4 17.9 15.9 M 21.1 19.3 C 21.3 19.4 21.4 19.3 21.6 19.3 C 21.9 19.3 22 19.6 22.1 19.8 C 22.5 21 22.1 22.3 22.1 23.5 M 21.1 23.5 C 21.8 23.5 22.5 23.7 23.2 23.5 M 17.9 22.2 C 17.9 22.9 17.3 23.5 16.6 23.5 C 15.8 23.5 15.2 22.9 15.3 22.2 C 15.3 21.7 15.2 21.1 15.3 20.6 C 15.3 19.9 15.9 19.5 16.6 19.3 C 17.2 19.1 17.6 20 17.9 20.6 C 18.1 21.1 17.7 21.7 17.9 22.2 M 17.9 3.5 C 18 4.2 17.2 4.5 16.6 4.8 C 15.9 5 15.4 4.2 15.3 3.5 C 15.2 2.9 15.2 2.4 15.3 1.9 C 15.3 1.2 15.9 0.3 16.6 0.6 C 17.2 0.8 17.9 1.2 17.9 1.9 C 17.8 2.4 17.8 2.9 17.9 3.5 M 9.6 17.3 C 10.1 15.6 8.1 13.8 6.3 14 M 9.2 4.4 C 10.1 3.9 10.8 3 10.5 2.1 C 10.2 1.1 9.4 0.7 8.4 0.5 C 7.4 0.3 6.5 1.5 6.6 2.5 C 6.6 2.7 6.6 2.9 6.7 3 C 6.6 3 6.4 3 6.3 3 C 5 2.6 3.5 3.8 3 5.1 C 2.4 6.4 2.5 7.9 3.4 9 C 1.8 8.8 0.7 10.4 0.6 12 C 0.5 13.6 1.8 15.1 3.4 15 C 2.9 16.3 2.1 17.8 3 18.9 C 3.8 20.1 4.9 20.7 6.3 21 C 6.4 21 6.6 21 6.7 21 C 6.6 22.1 7.1 22.8 8 23.4 C 8.9 24.1 10.2 23.2 10.5 22.1 C 10.7 21.1 10.2 20.1 9.2 19.6 M 6.2 10 C 8 9.5 9.5 8.6 9.6 6.8 M 10.6 2.4 C 10.9 2 11.6 1.9 12.1 2 M 10.5 22.1 C 10.9 22.5 11.5 22.7 12.1 22.5 M 12.1 7 C 12.3 10.5 11.8 14 12.1 17.5"></path><path d="M15.513,6.784h.521a.521.521,0,0,1,.521.521v3.647M15.513 10.952L17.597 10.952M21.079.489H21.6a.521.521,0,0,1,.521.521V4.657M21.079 4.657L23.163 4.657M21.079,13.078H21.6a.521.521,0,0,1,.521.521v3.647M21.079 17.246L23.163 17.246M23.424,9.649a1.3,1.3,0,1,1-2.605,0V8.086a1.3,1.3,0,0,1,2.605,0ZM17.857,15.944a1.3,1.3,0,0,1-2.6,0V14.381a1.3,1.3,0,1,1,2.6,0ZM21.079,19.321H21.6a.521.521,0,0,1,.521.521v3.647M21.079 23.489L23.163 23.489M17.857,22.187a1.3,1.3,0,0,1-2.6,0V20.624a1.3,1.3,0,1,1,2.6,0ZM17.857,3.451a1.3,1.3,0,0,1-2.6,0V1.887a1.3,1.3,0,0,1,2.6,0ZM9.553,17.261a3.25,3.25,0,0,0-3.25-3.25c-.052,0-.1.013-.153.015M9.215,4.4A2,2,0,1,0,6.576,2.511a2,2,0,0,0,.081.533c-.111-.01-.218-.033-.331-.033A3.732,3.732,0,0,0,3.361,9.033a2.985,2.985,0,0,0,0,5.956,3.732,3.732,0,0,0,2.965,6.022c.113,0,.22-.024.331-.034a2,2,0,1,0,2.558-1.352M6.15,10c.052,0,.1.015.153.015a3.25,3.25,0,0,0,3.25-3.25M10.574,2.414a2.978,2.978,0,0,1,1.5-.4M10.485,22.108a3.325,3.325,0,0,0,1.591.4M12.076 7.011L12.076 17.511"></path></g></g></g><g id="g-root-on_zqaurh5v4pvr-stroke" data-item-order="0" data-item-id="on_zqaurh5v4pvr" data-item-class="Icon Stroke SceneTarget Indexed" data-item-index="3" data-renderer-id="0" transform="matrix(1, 0, 0, 1, 376, 99)"><g id="on_zqaurh5v4pvr-stroke" fill="none" stroke-linecap="round" stroke-linejoin="round" stroke-miterlimit="1.5" stroke="#dd8433" stroke-width="0.583" transform="matrix(3.4285714626312256, 0, 0, 3.4285714626312256, -31.14285659790039, -31.14285659790039)"><g xmlns="http://www.w3.org/2000/svg" transform="translate(12, 12)"><path d="M 10.5 8 C 9.9 6.4 9.2 4.9 7.5 4.5 C 5.9 4.2 3.7 5.2 3.7 6.9 C 3.7 8.6 3.9 10.3 5.4 11.1 C 5.5 11.7 5.5 12.3 5.4 12.8 C 5.4 13.1 5.6 13.2 5.8 13.2 C 6.6 13.2 7.4 13.2 8.2 13.2 C 8.4 13.2 8.5 13.1 8.6 12.8 C 8.6 12.3 8.5 11.7 8.6 11.1 C 9.8 10.6 10.7 9.3 10.5 8 M 7 0.8 C 7.1 1.3 7.1 1.8 7 2.3 M 11 2.2 C 10.6 2.5 10.3 3 9.9 3.3 M 13.3 5.3 C 12.8 5.4 12.3 5.3 11.8 5.3 M 3 2.2 C 3.3 2.6 3.6 3.1 4.1 3.3 M 0.7 5.3 C 1.2 5.2 1.7 5.3 2.2 5.3"></path><path d="M10.5,8a3.5,3.5,0,1,0-5.06,3.12v1.72a.39.39,0,0,0,.39.38H8.17a.39.39,0,0,0,.39-.38V11.09A3.5,3.5,0,0,0,10.5,8ZM7 0.81L7 2.31M11 2.24L9.94 3.31M13.28 5.34L11.78 5.34M3 2.24L4.06 3.31M0.72 5.34L2.22 5.34"></path></g></g></g></g></svg>