<svg width="788" height="447" viewBox="0 0 788 447" style="fill:none;stroke:none;fill-rule:evenodd;clip-rule:evenodd;stroke-linecap:round;stroke-linejoin:round;stroke-miterlimit:1.5;" version="1.1" xmlns="http://www.w3.org/2000/svg" xmlns:xlink="http://www.w3.org/1999/xlink"><g id="blend" style="mix-blend-mode:multiply"><g id="g-root-1.Vector_sy_1haqccz1nocu80-fill" data-item-order="-238262" data-item-id="1.Vector_sy_1haqccz1nocu80" data-item-class="ScenePart Indexed Indexed_1 Fill Stroke" data-item-index="1" data-renderer-id="0" transform="matrix(1, 0, 0, 1, 51.6356201171875, 356.0257568359375)"><g id="1.Vector_sy_1haqccz1nocu80-fill" stroke="none" fill="#f5fbe9" transform="matrix(1, 0, 0, 1, -2, -2)"><g xmlns="http://www.w3.org/2000/svg" transform="translate(-293, -480)"><path d="M438.5 492H401H368C366.343 492 365 493.343 365 495C365 496.657 366.343 498 368 498H371V516H338C336.343 516 335 517.343 335 519C335 520.657 336.343 522 338 522H341V540H308C306.343 540 305 541.343 305 543C305 544.657 306.343 546 308 546H311V564H348.5L438.5 492Z"></path></g></g></g><g id="g-root-2.Vector_sy_18f3c431nocv0p-fill" data-item-order="-238260" data-item-id="2.Vector_sy_18f3c431nocv0p" data-item-class="ScenePart Indexed Fill Stroke" data-item-index="2" data-renderer-id="0" transform="matrix(1, 0, 0, 1, 142.6356201171875, 284.0257568359375)"><g id="2.Vector_sy_18f3c431nocv0p-fill" stroke="none" fill="#fef2e6" transform="matrix(1, 0, 0, 1, -2, -2)"><g xmlns="http://www.w3.org/2000/svg" transform="translate(-384, -408)"><path d="M529.5 420H492H459C457.343 420 456 421.343 456 423C456 424.657 457.343 426 459 426H462V444H429C427.343 444 426 445.343 426 447C426 448.657 427.343 450 429 450H432V468H399C397.343 468 396 469.343 396 471C396 472.657 397.343 474 399 474H402V492H439.5L529.5 420Z"></path></g></g></g><g id="g-root-4.Vector_sy_13zwb2r1nocsn7-fill" data-item-order="-238258" data-item-id="4.Vector_sy_13zwb2r1nocsn7" data-item-class="ScenePart Indexed Fill Stroke" data-item-index="3" data-renderer-id="0" transform="matrix(1, 0, 0, 1, 232.6356201171875, 212.0257568359375)"><g id="4.Vector_sy_13zwb2r1nocsn7-fill" stroke="none" fill="#fee7f5" transform="matrix(1, 0, 0, 1, -2, -2)"><g xmlns="http://www.w3.org/2000/svg" transform="translate(-474, -336)"><path d="M619.5 348H582H549C547.343 348 546 349.343 546 351C546 352.657 547.343 354 549 354H552V372H519C517.343 372 516 373.343 516 375C516 376.657 517.343 378 519 378H522V396H489C487.343 396 486 397.343 486 399C486 400.657 487.343 402 489 402H492V420H529.5L619.5 348Z"></path></g></g></g><g id="g-root-5.Vector_sy_v49atv1noctfw-fill" data-item-order="-238256" data-item-id="5.Vector_sy_v49atv1noctfw" data-item-class="ScenePart Indexed Fill Stroke" data-item-index="4" data-renderer-id="0" transform="matrix(1, 0, 0, 1, 322.6356201171875, 140.0257568359375)"><g id="5.Vector_sy_v49atv1noctfw-fill" stroke="none" fill="#f7e6fe" transform="matrix(1, 0, 0, 1, -2, -2)"><g xmlns="http://www.w3.org/2000/svg" transform="translate(-564, -264)"><path d="M709.5 276H672H639C637.343 276 636 277.343 636 279C636 280.657 637.343 282 639 282H642V300H609C607.343 300 606 301.343 606 303C606 304.657 607.343 306 609 306H612V324H579C577.343 324 576 325.343 576 327C576 328.657 577.343 330 579 330H582V348H619.5L709.5 276Z"></path></g></g></g><g id="g-root-6.Vector_sy_qofspf1nocu85-fill" data-item-order="-238254" data-item-id="6.Vector_sy_qofspf1nocu85" data-item-class="ScenePart Indexed Fill Stroke" data-item-index="5" data-renderer-id="0" transform="matrix(1, 0, 0, 1, 412.6356201171875, 68.0257568359375)"><g id="6.Vector_sy_qofspf1nocu85-fill" stroke="none" fill="#e6efff" transform="matrix(1, 0, 0, 1, -2, -2)"><g xmlns="http://www.w3.org/2000/svg" transform="translate(-654, -192)"><path d="M762 204H799.5L709.5 276H672V258H669C667.343 258 666 256.657 666 255C666 253.343 667.343 252 669 252H702V234H699C697.343 234 696 232.657 696 231C696 229.343 697.343 228 699 228H732V210H729C727.343 210 726 208.657 726 207C726 205.343 727.343 204 729 204H762Z"></path></g></g></g><g id="g-root-6.Vector_sy_1qdv1ow1ti4aob-fill" data-item-order="-238252" data-item-id="6.Vector_sy_1qdv1ow1ti4aob" data-item-class="ScenePart Indexed Fill Stroke" data-item-index="6" data-renderer-id="0" transform="matrix(1, 0, 0, 1, 502.6356201171875, -3.9742431640625)"><g id="6.Vector_sy_1qdv1ow1ti4aob-fill" stroke="none" fill="#e9fbf3" transform="matrix(1, 0, 0, 1, -2, -2)"><g xmlns="http://www.w3.org/2000/svg" transform="translate(-744, -120)"><path d="M852 138V162L799.5 204H762V186H759C757.343 186 756 184.657 756 183C756 181.343 757.343 180 759 180H792V162H789C787.343 162 786 160.657 786 159C786 157.343 787.343 156 789 156H822V138H819C817.343 138 816 136.657 816 135C816 133.343 817.343 132 819 132H852V138Z"></path></g></g></g><g id="g-root-4_18hjx1v1nycgsm-fill" data-item-order="0" data-item-id="4_18hjx1v1nycgsm" data-item-class="Icon Stroke" data-item-index="none" data-renderer-id="0" transform="matrix(1, 0, 0, 1, 496.161376953125, 105.525146484375)"></g><g id="g-root-tx_understa_1ha3s681so2qkl-fill" data-item-order="0" data-item-id="tx_understa_1ha3s681so2qkl" data-item-class="Label Stroke" data-item-index="none" data-renderer-id="0" transform="matrix(1, 0, 0, 1, 549, 105.525146484375)"></g><g id="g-root-tx_prioriti_hx5lcgb56sqz-fill" data-item-order="0" data-item-id="tx_prioriti_hx5lcgb56sqz" data-item-class="Label Stroke" data-item-index="none" data-renderer-id="0" transform="matrix(1, 0, 0, 1, 247, 133.2791748046875)"></g><g id="g-root-tx_implemen_hsssgj1nocv0u-fill" data-item-order="0" data-item-id="tx_implemen_hsssgj1nocv0u" data-item-class="Label Stroke" data-item-index="none" data-renderer-id="0" transform="matrix(1, 0, 0, 1, 313, 63.5843505859375)"></g><g id="g-root-choo_v6pvrn1nycf7r-fill" data-item-order="0" data-item-id="choo_v6pvrn1nycf7r" data-item-class="Icon Stroke" data-item-index="none" data-renderer-id="0" transform="matrix(1, 0, 0, 1, 416.152587890625, 171.525146484375)"></g><g id="g-root-tx_understa_142e7hc1ruccg3-fill" data-item-order="0" data-item-id="tx_understa_142e7hc1ruccg3" data-item-class="Label Stroke" data-item-index="none" data-renderer-id="0" transform="matrix(1, 0, 0, 1, 469.72998046875, 171.525146484375)"></g><g id="g-root-tx_ideateso_2591v1nocu88-fill" data-item-order="0" data-item-id="tx_ideateso_2591v1nocu88" data-item-class="Label Stroke" data-item-index="none" data-renderer-id="0" transform="matrix(1, 0, 0, 1, 181, 208.6778564453125)"></g><g id="g-root-tx_understa_4g2jk01q6n7yh-fill" data-item-order="0" data-item-id="tx_understa_4g2jk01q6n7yh" data-item-class="Label Stroke" data-item-index="none" data-renderer-id="0" transform="matrix(1, 0, 0, 1, 625, 45.525146484375)"></g><g id="g-root-stra_hx4snn1nycfsz-fill" data-item-order="0" data-item-id="stra_hx4snn1nycfsz" data-item-class="Icon Stroke" data-item-index="none" data-renderer-id="0" transform="matrix(1, 0, 0, 1, 320.0340576171875, 244.17724609375)"></g><g id="g-root-tx_understa_diki801ru9kp5-fill" data-item-order="0" data-item-id="tx_understa_diki801ru9kp5" data-item-class="Label Stroke" data-item-index="none" data-renderer-id="0" transform="matrix(1, 0, 0, 1, 376.161376953125, 244.17724609375)"></g><g id="g-root-tx_understa_1hclrmb1noct8i-fill" data-item-order="0" data-item-id="tx_understa_1hclrmb1noct8i" data-item-class="Label Stroke" data-item-index="none" data-renderer-id="0" transform="matrix(1, 0, 0, 1, 80.74533081054688, 279.7030029296875)"></g><g id="g-root-1_4hy8741s46c5d-fill" data-item-order="0" data-item-id="1_4hy8741s46c5d" data-item-class="Icon Stroke" data-item-index="none" data-renderer-id="0" transform="matrix(1, 0, 0, 1, 582.5000610351562, 39.025146484375)"></g><g id="g-root-tx_definepo_1hbctgg1ruf56y-fill" data-item-order="0" data-item-id="tx_definepo_1hbctgg1ruf56y" data-item-class="Label Stroke" data-item-index="none" data-renderer-id="0" transform="matrix(1, 0, 0, 1, 199, 375.525146484375)"></g><g id="g-root-tx_understa_1lsf3fk1t8abre-fill" data-item-order="0" data-item-id="tx_understa_1lsf3fk1t8abre" data-item-class="Label Stroke" data-item-index="none" data-renderer-id="0" transform="matrix(1, 0, 0, 1, 280.1500244140625, 312.465087890625)"></g><g id="g-root-tx_definepo_18gyrdf1nocu17-fill" data-item-order="0" data-item-id="tx_definepo_18gyrdf1nocu17" data-item-class="Label Stroke" data-item-index="none" data-renderer-id="0" transform="matrix(1, 0, 0, 1, -9, 339.525146484375)"></g><g id="g-root-tx_implemen_vbq15c1raejv1-fill" data-item-order="0" data-item-id="tx_implemen_vbq15c1raejv1" data-item-class="Label Stroke" data-item-index="none" data-renderer-id="0" transform="matrix(1, 0, 0, 1, 413.254638671875, -9)"></g><g id="g-root-robo_hv9deb1nycgso-fill" data-item-order="0" data-item-id="robo_hv9deb1nycgso" data-item-class="Icon Stroke" data-item-index="none" data-renderer-id="0" transform="matrix(1, 0, 0, 1, 145, 381.525146484375)"></g><g id="g-root-codi_znsc2b1nycglm-fill" data-item-order="0" data-item-id="codi_znsc2b1nycglm" data-item-class="Icon Stroke" data-item-index="none" data-renderer-id="0" transform="matrix(1, 0, 0, 1, 234.89797973632812, 315.423095703125)"></g><g id="g-root-1.Vector_sy_1haqccz1nocu80-stroke" data-item-order="-238262" data-item-id="1.Vector_sy_1haqccz1nocu80" data-item-class="ScenePart Indexed Indexed_1 Fill Stroke" data-item-index="1" data-renderer-id="0" transform="matrix(1, 0, 0, 1, 51.6356201171875, 356.0257568359375)"><g id="1.Vector_sy_1haqccz1nocu80-stroke" fill="none" stroke-linecap="round" stroke-linejoin="round" stroke-miterlimit="1.5" stroke="#93c131" stroke-width="2" transform="matrix(1, 0, 0, 1, -2, -2)"><g xmlns="http://www.w3.org/2000/svg" transform="translate(-293, -480)"><path d="M438.5 492H401H368C366.343 492 365 493.343 365 495C365 496.657 366.343 498 368 498H371V516H338C336.343 516 335 517.343 335 519C335 520.657 336.343 522 338 522H341V540H308C306.343 540 305 541.343 305 543C305 544.657 306.343 546 308 546H311V564H348.5L438.5 492Z"></path></g></g></g><g id="g-root-2.Vector_sy_18f3c431nocv0p-stroke" data-item-order="-238260" data-item-id="2.Vector_sy_18f3c431nocv0p" data-item-class="ScenePart Indexed Fill Stroke" data-item-index="2" data-renderer-id="0" transform="matrix(1, 0, 0, 1, 142.6356201171875, 284.0257568359375)"><g id="2.Vector_sy_18f3c431nocv0p-stroke" fill="none" stroke-linecap="round" stroke-linejoin="round" stroke-miterlimit="1.5" stroke="#dd8433" stroke-width="2" transform="matrix(1, 0, 0, 1, -2, -2)"><g xmlns="http://www.w3.org/2000/svg" transform="translate(-384, -408)"><path d="M529.5 420H492H459C457.343 420 456 421.343 456 423C456 424.657 457.343 426 459 426H462V444H429C427.343 444 426 445.343 426 447C426 448.657 427.343 450 429 450H432V468H399C397.343 468 396 469.343 396 471C396 472.657 397.343 474 399 474H402V492H439.5L529.5 420Z"></path></g></g></g><g id="g-root-4.Vector_sy_13zwb2r1nocsn7-stroke" data-item-order="-238258" data-item-id="4.Vector_sy_13zwb2r1nocsn7" data-item-class="ScenePart Indexed Fill Stroke" data-item-index="3" data-renderer-id="0" transform="matrix(1, 0, 0, 1, 232.6356201171875, 212.0257568359375)"><g id="4.Vector_sy_13zwb2r1nocsn7-stroke" fill="none" stroke-linecap="round" stroke-linejoin="round" stroke-miterlimit="1.5" stroke="#da5da8" stroke-width="2" transform="matrix(1, 0, 0, 1, -2, -2)"><g xmlns="http://www.w3.org/2000/svg" transform="translate(-474, -336)"><path d="M619.5 348H582H549C547.343 348 546 349.343 546 351C546 352.657 547.343 354 549 354H552V372H519C517.343 372 516 373.343 516 375C516 376.657 517.343 378 519 378H522V396H489C487.343 396 486 397.343 486 399C486 400.657 487.343 402 489 402H492V420H529.5L619.5 348Z"></path></g></g></g><g id="g-root-5.Vector_sy_v49atv1noctfw-stroke" data-item-order="-238256" data-item-id="5.Vector_sy_v49atv1noctfw" data-item-class="ScenePart Indexed Fill Stroke" data-item-index="4" data-renderer-id="0" transform="matrix(1, 0, 0, 1, 322.6356201171875, 140.0257568359375)"><g id="5.Vector_sy_v49atv1noctfw-stroke" fill="none" stroke-linecap="round" stroke-linejoin="round" stroke-miterlimit="1.5" stroke="#b65edf" stroke-width="2" transform="matrix(1, 0, 0, 1, -2, -2)"><g xmlns="http://www.w3.org/2000/svg" transform="translate(-564, -264)"><path d="M709.5 276H672H639C637.343 276 636 277.343 636 279C636 280.657 637.343 282 639 282H642V300H609C607.343 300 606 301.343 606 303C606 304.657 607.343 306 609 306H612V324H579C577.343 324 576 325.343 576 327C576 328.657 577.343 330 579 330H582V348H619.5L709.5 276Z"></path></g></g></g><g id="g-root-6.Vector_sy_qofspf1nocu85-stroke" data-item-order="-238254" data-item-id="6.Vector_sy_qofspf1nocu85" data-item-class="ScenePart Indexed Fill Stroke" data-item-index="5" data-renderer-id="0" transform="matrix(1, 0, 0, 1, 412.6356201171875, 68.0257568359375)"><g id="6.Vector_sy_qofspf1nocu85-stroke" fill="none" stroke-linecap="round" stroke-linejoin="round" stroke-miterlimit="1.5" stroke="#4682e3" stroke-width="2" transform="matrix(1, 0, 0, 1, -2, -2)"><g xmlns="http://www.w3.org/2000/svg" transform="translate(-654, -192)"><path d="M762 204H799.5L709.5 276H672V258H669C667.343 258 666 256.657 666 255C666 253.343 667.343 252 669 252H702V234H699C697.343 234 696 232.657 696 231C696 229.343 697.343 228 699 228H732V210H729C727.343 210 726 208.657 726 207C726 205.343 727.343 204 729 204H762Z"></path></g></g></g><g id="g-root-6.Vector_sy_1qdv1ow1ti4aob-stroke" data-item-order="-238252" data-item-id="6.Vector_sy_1qdv1ow1ti4aob" data-item-class="ScenePart Indexed Fill Stroke" data-item-index="6" data-renderer-id="0" transform="matrix(1, 0, 0, 1, 502.6356201171875, -3.9742431640625)"><g id="6.Vector_sy_1qdv1ow1ti4aob-stroke" fill="none" stroke-linecap="round" stroke-linejoin="round" stroke-miterlimit="1.5" stroke="#3bc482" stroke-width="2" transform="matrix(1, 0, 0, 1, -2, -2)"><g xmlns="http://www.w3.org/2000/svg" transform="translate(-744, -120)"><path d="M852 138V162L799.5 204H762V186H759C757.343 186 756 184.657 756 183C756 181.343 757.343 180 759 180H792V162H789C787.343 162 786 160.657 786 159C786 157.343 787.343 156 789 156H822V138H819C817.343 138 816 136.657 816 135C816 133.343 817.343 132 819 132H852V138Z"></path></g></g></g><g id="g-root-4_18hjx1v1nycgsm-stroke" data-item-order="0" data-item-id="4_18hjx1v1nycgsm" data-item-class="Icon Stroke" data-item-index="none" data-renderer-id="0" transform="matrix(1, 0, 0, 1, 496.161376953125, 105.525146484375)"><g id="4_18hjx1v1nycgsm-stroke" fill="none" stroke-linecap="round" stroke-linejoin="round" stroke-miterlimit="1.5" stroke="#4682e3" stroke-width="1" transform="matrix(2, 0, 0, 2, -14, -4)"><g xmlns="http://www.w3.org/2000/svg" transform="translate(12, 7)"><path d="M5.414,5.5l4.666,5.793a1,1,0,0,1,0,1.414L5.414,18.5M23.207,11.293a1,1,0,0,1,0,1.414l-5,5.5a1,1,0,0,1-.707.293H11.918l5.793-5.793a1,1,0,0,0,0-1.414L11.918,5.5H17.5a1,1,0,0,1,.707.293ZM9.5 5.5L5.414 5.5M9.5 18.5L5.414 18.5M3 5.5L0.5 5.5M3 18.5L0.5 18.5"></path></g></g></g><g id="g-root-tx_understa_1ha3s681so2qkl-stroke" data-item-order="0" data-item-id="tx_understa_1ha3s681so2qkl" data-item-class="Label Stroke" data-item-index="none" data-renderer-id="0" transform="matrix(1, 0, 0, 1, 549, 105.525146484375)"><g id="tx_understa_1ha3s681so2qkl-stroke" fill="none" stroke-linecap="square" stroke-linejoin="miter" stroke-miterlimit="4" stroke="#4682e3" stroke-width="2" transform="matrix(1, 0, 0, 1, 5, 7)"><g xmlns="http://www.w3.org/2000/svg" transform="translate(9, 9)"><path d="M7.052615 13.6353L4.045655 13.637025V3.711218C4.756595 3.711218 5.7155 3.709553 6.7655 3.709553C7.85498 3.682207 10.690175 4.629967 10.690175 8.6331C10.690175 12.636225 8.046388 13.6353 7.052615 13.6353Z M19.105595 12.913575C18.375253 13.6161 17.606728 13.75395 16.717633 13.75395C15.166055 13.75395 13.768625 12.7707 13.768625 10.092075C13.768625 7.413368 15.125668 6.430118 16.677245 6.430118C18.22883 6.430118 19.431343 7.222245 19.431343 9.9009H14.016703 M27.085871 7.78605C26.864074 7.05315 25.998341 6.437805 24.790774 6.437805C23.374984 6.437805 22.460231 7.085183 22.391494 8.063325C22.312714 9.184275 23.238296 9.61635 24.686171 10.00395C25.956379 10.347675 27.413936 10.7079 27.298219 12.09165C27.223691 12.982875 26.491114 13.75935 24.723574 13.75935C23.294126 13.75935 22.486091 13.14765 22.235321 12.3183 M35.560594 12.913575C34.830252 13.6161 34.061727 13.75395 33.172632 13.75395C31.621054 13.75395 30.223624 12.7707 30.223624 10.092075C30.223624 7.413368 31.580667 6.430118 33.132244 6.430118C34.683829 6.430118 35.886342 7.222245 35.886342 9.9009H30.471702 M38.921679 6.584753L38.921874 13.595925M44.047592 13.595925V9.05535C44.047592 8.521425 44.119389 6.592695 42.332072 6.440205C41.013542 6.327705 39.746762 7.17123 39.164507 8.21715 M52.244567 6.517913L49.717472 13.58925L49.566542 13.589175L47.013302 6.517913 M61.090247 10.092675C61.090247 12.391725 59.687034 13.755225 57.956079 13.755225C56.225124 13.755225 54.821904 12.391725 54.821904 10.092675C54.821904 7.793625 56.225124 6.430118 57.956079 6.430118C59.687034 6.430118 61.090247 7.793625 61.090247 10.092675Z M64.336712 3.09375V13.5948 M72.637065 6.517913L70.10997 13.58925L69.95904 13.589175L67.4058 6.517913 M75.768828 3.72807H75.786776M75.756656 6.603015V13.60845 M79.467263 6.610628L79.467466 13.6218M84.593176 13.6218L84.585023 8.602275C84.536686 7.89465 84.261488 6.80886 82.855823 6.48687C81.401056 6.15363 80.291206 6.936203 79.738898 7.946175M89.719471 13.6218V9.081225C89.719471 8.5473 89.805421 6.90453 87.982171 6.48687C86.460346 6.138277 85.309621 7.01061 84.784328 8.087025 M98.290592 12.913575C97.560249 13.6161 96.791724 13.75395 95.902629 13.75395C94.351052 13.75395 92.953622 12.7707 92.953622 10.092075C92.953622 7.413368 94.310664 6.430118 95.862242 6.430118C97.413827 6.430118 98.616339 7.222245 98.616339 9.9009H93.201699 M101.651675 6.584753L101.65187 13.595925M106.777588 13.595925V9.05535C106.777588 8.521425 106.849385 6.592695 105.062068 6.440205C103.743538 6.327705 102.476758 7.17123 101.894503 8.21715 M112.586979 13.74435C111.529734 13.849125 110.886302 13.29915 110.886302 12.290175V4.560698M112.498734 6.4815H111.176177M109.303658 6.4815H110.604069 M121.367735 10.092675C121.367735 12.391725 119.964523 13.755225 118.233568 13.755225C116.502613 13.755225 115.099393 12.391725 115.099393 10.092675C115.099393 7.793625 116.502613 6.430118 118.233568 6.430118C119.964523 6.430118 121.367735 7.793625 121.367735 10.092675Z M133.998081 12.913575C133.267738 13.6161 132.499213 13.75395 131.610118 13.75395C130.058541 13.75395 128.661111 12.7707 128.661111 10.092075C128.661111 7.413368 130.018153 6.430118 131.569731 6.430118C133.121316 6.430118 134.323828 7.222245 134.323828 9.9009H128.909188 M3.91883 21.72807H3.936778M3.906657 24.603015V31.60845 M7.617268 24.610628L7.61747 31.6218M12.74318 31.6218L12.735028 26.602275C12.68669 25.89465 12.411493 24.80886 11.005828 24.48687C9.55106 24.15363 8.44121 24.936203 7.888903 25.946175M17.869475 31.6218V27.081225C17.869475 26.5473 17.955425 24.90453 16.132175 24.48687C14.61035 24.138278 13.459625 25.01061 12.934333 26.087025 M21.449688 24.580485V34.79505M21.724098 25.592925C22.386356 24.770333 23.272331 24.418583 24.254006 24.418583C25.890003 24.418583 27.073991 25.42806 27.073991 28.1067C27.073991 30.7854 25.810766 31.7424 24.174768 31.7424C23.221353 31.7424 22.257003 31.337025 21.724098 30.539625 M30.384213 21.09375V31.5948 M34.158219 25.684275C34.431489 24.96009 35.493751 24.424988 36.498766 24.424988C37.888696 24.424988 39.015459 25.409775 39.015459 26.62455L39.019771 27.71775V29.678325C39.019771 30.4605 39.001344 31.014525 39.227371 31.7088M38.735259 27.71775H36.689281C34.811731 27.71775 33.836544 28.757475 33.836544 29.87805C33.836544 30.998625 34.765126 31.7556 35.976879 31.7556C37.463551 31.7556 38.682931 30.66615 38.983359 29.7993 M42.641681 24.584753L42.641876 31.595925M47.767593 31.595925V27.05535C47.767593 26.521425 47.839391 24.592695 46.052073 24.440205C44.733543 24.327705 43.466763 25.17123 42.884508 26.21715 M53.576989 31.74435C52.519744 31.849125 51.876311 31.29915 51.876311 30.290175V22.560698M53.488744 24.4815H52.166186M50.293667 24.4815H51.594079 M56.598221 25.684275C56.871491 24.96009 57.933753 24.424988 58.938768 24.424988C60.328698 24.424988 61.455461 25.409775 61.455461 26.62455L61.459773 27.71775V29.678325C61.459773 30.4605 61.441346 31.014525 61.667373 31.7088M61.175261 27.71775H59.129283C57.251733 27.71775 56.276546 28.757475 56.276546 29.87805C56.276546 30.998625 57.205128 31.7556 58.416881 31.7556C59.903553 31.7556 61.122933 30.66615 61.423361 29.7993 M67.172196 34.85865C67.649586 34.934325 68.322028 34.688475 68.400118 34.0524C68.474743 33.4446 68.079711 33.014925 67.499998 32.91345L67.659988 31.878225M70.157383 30.19035C69.878398 31.2369 68.702698 31.75395 67.600873 31.75395C65.997846 31.75395 64.673443 30.7707 64.673443 28.092075C64.673443 25.413368 66.075493 24.430118 67.678521 24.430118C68.808778 24.430118 70.046361 25.057823 70.221328 26.18655 M73.884133 22.009275C74.021391 21.665993 74.466553 21.27768 74.999383 21.27768C75.724926 21.27768 76.139263 22.009275 76.932501 22.009275C77.899056 22.009275 78.150703 21.278385 78.150703 21.278385M73.413223 25.684275C73.686493 24.96009 74.748756 24.424988 75.753771 24.424988C77.143701 24.424988 78.270463 25.409775 78.270463 26.62455L78.274776 27.71775V29.678325C78.274776 30.4605 78.256348 31.014525 78.482376 31.7088M77.990263 27.71775H75.944286C74.066736 27.71775 73.091548 28.757475 73.091548 29.87805C73.091548 30.998625 74.020131 31.7556 75.231883 31.7556C76.718556 31.7556 77.937936 30.66615 78.238363 29.7993 M87.737753 28.092675C87.737753 30.391725 86.334541 31.755225 84.603586 31.755225C82.872631 31.755225 81.469411 30.391725 81.469411 28.092675C81.469411 25.793625 82.872631 24.430118 84.603586 24.430118C86.334541 24.430118 87.737753 25.793625 87.737753 28.092675Z M100.632324 31.593225V21.092467M100.362511 30.579525C99.716011 31.403025 98.892279 31.75515 97.910109 31.75515C96.274111 31.75515 95.035614 30.7719 95.035614 28.0932C95.035614 25.414553 96.353356 24.431303 97.989346 24.431303C98.941554 24.431303 99.848724 24.835695 100.362511 25.6311 M110.117751 28.092675C110.117751 30.391725 108.714538 31.755225 106.983583 31.755225C105.252628 31.755225 103.849408 30.391725 103.849408 28.092675C103.849408 25.793625 105.252628 24.430118 106.983583 24.430118C108.714538 24.430118 110.117751 25.793625 110.117751 28.092675Z M117.880873 25.78605C117.659076 25.05315 116.793343 24.437805 115.585776 24.437805C114.169986 24.437805 113.255233 25.085183 113.186496 26.063325C113.107716 27.184275 114.033298 27.61635 115.481173 28.00395C116.751381 28.347675 118.208938 28.7079 118.093221 30.09165C118.018693 30.982875 117.286116 31.75935 115.518576 31.75935C114.089128 31.75935 113.281093 31.14765 113.030323 30.3183 M125.864689 24.580485V34.79505M126.139099 25.592925C126.801357 24.770333 127.687332 24.418583 128.669007 24.418583C130.305004 24.418583 131.488992 25.42806 131.488992 28.1067C131.488992 30.7854 130.225767 31.7424 128.589769 31.7424C127.636354 31.7424 126.672004 31.337025 126.139099 30.539625 M137.401106 24.45681C136.365791 24.314205 135.429499 24.989453 134.948014 25.964475M134.682041 24.579518V31.59195 M145.87776 28.092675C145.87776 30.391725 144.474548 31.755225 142.743593 31.755225C141.012638 31.755225 139.609418 30.391725 139.609418 28.092675C139.609418 25.793625 141.012638 24.430118 142.743593 24.430118C144.474548 24.430118 145.87776 25.793625 145.87776 28.092675Z M149.073608 21.711548H149.094113M149.084461 24.586493V33.4071C149.084461 34.013325 148.618156 35.0547 147.383636 34.8411 M157.795619 30.913575C157.065277 31.6161 156.296752 31.75395 155.407657 31.75395C153.856079 31.75395 152.458649 30.7707 152.458649 28.092075C152.458649 25.413368 153.815692 24.430118 155.367269 24.430118C156.918854 24.430118 158.121367 25.222245 158.121367 27.9009H152.706727 M163.384518 31.74435C162.327273 31.849125 161.683841 31.29915 161.683841 30.290175V22.560698M163.296273 24.4815H161.973716M160.101197 24.4815H161.401608 M172.165282 28.092675C172.165282 30.391725 170.762069 31.755225 169.031114 31.755225C167.300159 31.755225 165.896939 30.391725 165.896939 28.092675C165.896939 25.793625 167.300159 24.430118 169.031114 24.430118C170.762069 24.430118 172.165282 25.793625 172.165282 28.092675Z M179.928397 25.78605C179.706599 25.05315 178.840867 24.437805 177.633299 24.437805C176.217509 24.437805 175.302757 25.085183 175.234019 26.063325C175.155239 27.184275 176.080822 27.61635 177.528697 28.00395C178.798904 28.347675 180.256462 28.7079 180.140744 30.09165C180.066217 30.982875 179.333639 31.75935 177.566099 31.75935C176.136652 31.75935 175.328617 31.14765 175.077847 30.3183"></path></g></g></g><g id="g-root-tx_prioriti_hx5lcgb56sqz-stroke" data-item-order="0" data-item-id="tx_prioriti_hx5lcgb56sqz" data-item-class="Label Stroke" data-item-index="none" data-renderer-id="0" transform="matrix(1, 0, 0, 1, 247, 133.2791748046875)"><g id="tx_prioriti_hx5lcgb56sqz-stroke" fill="none" stroke-linecap="square" stroke-linejoin="miter" stroke-miterlimit="4" stroke="#b65edf" stroke-width="2" transform="matrix(1, 0, 0, 1, 7, 2)"><g xmlns="http://www.w3.org/2000/svg" transform="translate(15, 8)"><path d="M6.586098 7.45723C6.154798 5.89331 4.535078 4.73169 2.446438 4.73169C-0.002372 4.73169 -1.703462 5.93098 -1.703462 7.75431C-1.703462 9.72412 -0.238792 10.6852 2.265498 11.406C4.462498 12.0451 6.699498 12.8125 6.699498 15.2879C6.699498 16.9509 5.387398 18.3458 2.330188 18.3458C-0.142232 18.3458 -1.722562 17.1057 -2.087392 15.4828 M17.507458 17.2181C16.533668 18.1548 15.508968 18.3386 14.323508 18.3386C12.254738 18.3386 10.391498 17.0276 10.391498 13.4561C10.391498 9.88449 12.200888 8.57349 14.269658 8.57349C16.338438 8.57349 17.941788 9.62966 17.941788 13.2012H10.722268 M22.125617 4.125V18.1264 M33.687456 17.2181C32.713666 18.1548 31.688966 18.3386 30.503506 18.3386C28.434736 18.3386 26.571496 17.0276 26.571496 13.4561C26.571496 9.88449 28.380886 8.57349 30.449656 8.57349C32.518436 8.57349 34.121786 9.62966 34.121786 13.2012H26.902266 M44.981787 16.2538C44.609817 17.6492 43.042217 18.3386 41.573117 18.3386C39.435747 18.3386 37.669877 17.0276 37.669877 13.4561C37.669877 9.88449 39.539277 8.57349 41.676647 8.57349C43.183657 8.57349 44.833767 9.41043 45.067057 10.9154 M49.328437 4.97076H49.352367M49.312207 8.80402V18.1446 M62.036997 13.4569C62.036997 16.5223 60.166047 18.3403 57.858107 18.3403C55.550167 18.3403 53.679207 16.5223 53.679207 13.4569C53.679207 10.3915 55.550167 8.57349 57.858107 8.57349C60.166047 8.57349 62.036997 10.3915 62.036997 13.4569Z M66.228908 8.77967L66.229168 18.1279M73.063458 18.1279V12.0738C73.063458 11.3619 73.159188 8.79026 70.776098 8.58694C69.018058 8.43694 67.329018 9.56164 66.552678 10.9562 M77.957629 10.2457C78.321989 9.28012 79.738339 8.56665 81.078359 8.56665C82.931599 8.56665 84.433949 9.8797 84.433949 11.4994L84.439699 12.957V15.5711C84.439699 16.614 84.415129 17.3527 84.716499 18.2784M84.060349 12.957H81.332379C78.828979 12.957 77.528729 14.3433 77.528729 15.8374C77.528729 17.3315 78.766839 18.3408 80.382509 18.3408C82.364739 18.3408 83.990579 16.8882 84.391149 15.7324 M92.874799 8.60908C91.494379 8.41894 90.245989 9.31927 89.604009 10.6193M89.249379 8.77269V18.1226"></path></g></g></g><g id="g-root-tx_implemen_hsssgj1nocv0u-stroke" data-item-order="0" data-item-id="tx_implemen_hsssgj1nocv0u" data-item-class="Label Stroke" data-item-index="none" data-renderer-id="0" transform="matrix(1, 0, 0, 1, 313, 63.5843505859375)"><g id="tx_implemen_hsssgj1nocv0u-stroke" fill="none" stroke-linecap="square" stroke-linejoin="miter" stroke-miterlimit="4" stroke="#4682e3" stroke-width="2" transform="matrix(1, 0, 0, 1, 12, 2)"><g xmlns="http://www.w3.org/2000/svg" transform="translate(-2, 8)"><path d="M14.105115 4.93762V18.1269 M19.349695 8.81417L19.349965 18.1624M26.184245 18.1624L26.173375 11.4697C26.108925 10.5262 25.741995 9.07848 23.867775 8.64916C21.928085 8.20484 20.448285 9.24827 19.711875 10.5949M33.019305 18.1624V12.1083C33.019305 11.3964 33.133905 9.20604 30.702905 8.64916C28.673805 8.18437 27.139505 9.34748 26.439115 10.7827 M37.792926 8.77398V22.3934M38.158806 10.1239C39.041816 9.02711 40.223116 8.55811 41.532016 8.55811C43.713346 8.55811 45.291996 9.90408 45.291996 13.4756C45.291996 17.0472 43.607696 18.3232 41.426366 18.3232C40.155146 18.3232 38.869346 17.7827 38.158806 16.7195 M49.705626 4.125V18.1264 M61.267465 17.2181C60.293675 18.1548 59.268975 18.3386 58.083515 18.3386C56.014745 18.3386 54.151505 17.0276 54.151505 13.4561C54.151505 9.88449 55.960895 8.57349 58.029665 8.57349C60.098445 8.57349 61.701795 9.62966 61.701795 13.2012H54.482275 M65.769697 8.81417L65.769967 18.1624M72.604247 18.1624L72.593377 11.4697C72.528927 10.5262 72.161997 9.07848 70.287777 8.64916C68.348087 8.20484 66.868287 9.24827 66.131877 10.5949M79.439307 18.1624V12.1083C79.439307 11.3964 79.553907 9.20604 77.122907 8.64916C75.093807 8.18437 73.559507 9.34748 72.859117 10.7827 M90.867464 17.2181C89.893674 18.1548 88.868974 18.3386 87.683514 18.3386C85.614744 18.3386 83.751504 17.0276 83.751504 13.4561C83.751504 9.88449 85.560894 8.57349 87.629664 8.57349C89.698444 8.57349 91.301794 9.62966 91.301794 13.2012H84.082274 M95.348911 8.77967L95.349171 18.1279M102.183461 18.1279V12.0738C102.183461 11.3619 102.279191 8.79026 99.896101 8.58694C98.138061 8.43694 96.449021 9.56164 95.672681 10.9562 M109.929322 18.3258C108.519662 18.4655 107.661752 17.7322 107.661752 16.3869V6.08093M109.811662 8.642H108.048252M105.55156 8.642H107.285442 M113.957629 10.2457C114.321989 9.28012 115.738339 8.56665 117.078359 8.56665C118.931599 8.56665 120.433949 9.8797 120.433949 11.4994L120.439699 12.957V15.5711C120.439699 16.614 120.415129 17.3527 120.716499 18.2784M120.060349 12.957H117.332379C114.828979 12.957 113.528729 14.3433 113.528729 15.8374C113.528729 17.3315 114.766839 18.3408 116.382509 18.3408C118.364739 18.3408 119.990579 16.8882 120.391149 15.7324 M128.874799 8.60908C127.494379 8.41894 126.245989 9.31927 125.604009 10.6193M125.249379 8.77269V18.1226"></path></g></g></g><g id="g-root-choo_v6pvrn1nycf7r-stroke" data-item-order="0" data-item-id="choo_v6pvrn1nycf7r" data-item-class="Icon Stroke" data-item-index="none" data-renderer-id="0" transform="matrix(1, 0, 0, 1, 416.152587890625, 171.525146484375)"><g id="choo_v6pvrn1nycf7r-stroke" fill="none" stroke-linecap="round" stroke-linejoin="round" stroke-miterlimit="1.5" stroke="#b65edf" stroke-width="1" transform="matrix(2, 0, 0, 2, -14, -14)"><g xmlns="http://www.w3.org/2000/svg" transform="translate(12, 12)"><path d="M0 0m11.5 23.5-2.653-3.577a1.5 1.5 0 1 1 2.307-1.918l2.346 2.822V11a1.5 1.5 0 0 1 3 0v6.5h3a4 4 0 0 1 4 4v2M11.5 15.5h-4V1.71a.5.5 0 0 1 .668-.471l6 2.142a.5.5 0 0 1 .332.471V7.5m-1-4.5V.5m-6 5h3m-10 3h3m-3 3h3m4-3H12M9.5 15.5V12a.5.5 0 0 1 .5-.5h1.5m-4-6H1a.5.5 0 0 0-.5.5v9a.5.5 0 0 0 .5.5h6.5"></path></g></g></g><g id="g-root-tx_understa_142e7hc1ruccg3-stroke" data-item-order="0" data-item-id="tx_understa_142e7hc1ruccg3" data-item-class="Label Stroke" data-item-index="none" data-renderer-id="0" transform="matrix(1, 0, 0, 1, 469.72998046875, 171.525146484375)"><g id="tx_understa_142e7hc1ruccg3-stroke" fill="none" stroke-linecap="square" stroke-linejoin="miter" stroke-miterlimit="4" stroke="#b65edf" stroke-width="2" transform="matrix(1, 0, 0, 1, 5, 6)"><g xmlns="http://www.w3.org/2000/svg" transform="translate(9, 10)"><path d="M10.7279 11.347425C10.2323 12.77535 8.890685 13.7988 7.31345 13.7988C5.314738 13.7988 3.69446 12.155325 3.69446 10.127925V7.215818C3.69446 5.18844 5.314738 3.54492 7.31345 3.54492C8.890685 3.54492 10.2323 4.568378 10.7279 5.996288 M16.7636 6.45681C15.728285 6.314205 14.791992 6.989453 14.310507 7.964475M14.044535 6.579518V13.59195 M19.52633 3.72807H19.544278M19.514158 6.603015V13.60845 M25.436989 13.74435C24.379744 13.849125 23.736312 13.29915 23.736312 12.290175V4.560698M25.348744 6.4815H24.026187M22.153668 6.4815H23.454079 M32.087899 2.945708L31.152477 4.165905M33.355594 12.913575C32.625252 13.6161 31.856727 13.75395 30.967632 13.75395C29.416054 13.75395 28.018624 12.7707 28.018624 10.092075C28.018624 7.413368 29.375667 6.430118 30.927244 6.430118C32.478829 6.430118 33.681342 7.222245 33.681342 9.9009H28.266702 M39.436098 6.45681C38.400783 6.314205 37.464491 6.989453 36.983006 7.964475M36.717033 6.579518V13.59195 M42.198829 3.72807H42.216776M42.186656 6.603015V13.60845 M51.73025 10.092675C51.73025 12.391725 50.327037 13.755225 48.596082 13.755225C46.865127 13.755225 45.461907 12.391725 45.461907 10.092675C45.461907 7.793625 46.865127 6.430118 48.596082 6.430118C50.327037 6.430118 51.73025 7.793625 51.73025 10.092675Z M59.493373 7.78605C59.271575 7.05315 58.405843 6.437805 57.198275 6.437805C55.782485 6.437805 54.867733 7.085183 54.798995 8.063325C54.720215 9.184275 55.645798 9.61635 57.093673 10.00395C58.36388 10.347675 59.821438 10.7079 59.70572 12.09165C59.631193 12.982875 58.898615 13.75935 57.131075 13.75935C55.701628 13.75935 54.893593 13.14765 54.642823 12.3183 M67.477192 6.580485V16.79505M67.751602 7.592925C68.41386 6.770333 69.299835 6.418582 70.28151 6.418582C71.917507 6.418582 73.101495 7.42806 73.101495 10.1067C73.101495 12.7854 71.83827 13.7424 70.202272 13.7424C69.248857 13.7424 68.284507 13.337025 67.751602 12.539625 M76.398224 7.684275C76.671494 6.96009 77.733757 6.424987 78.738772 6.424987C80.128702 6.424987 81.255464 7.409775 81.255464 8.62455L81.259777 9.71775V11.678325C81.259777 12.4605 81.241349 13.014525 81.467377 13.7088M80.975264 9.71775H78.929287C77.051737 9.71775 76.076549 10.757475 76.076549 11.87805C76.076549 12.998625 77.005132 13.7556 78.216884 13.7556C79.703557 13.7556 80.922937 12.66615 81.223364 11.7993 M87.586104 6.45681C86.550789 6.314205 85.614496 6.989453 85.133011 7.964475M84.867039 6.579518V13.59195 M90.303223 7.684275C90.576493 6.96009 91.638755 6.424987 92.64377 6.424987C94.0337 6.424987 95.160463 7.409775 95.160463 8.62455L95.164775 9.71775V11.678325C95.164775 12.4605 95.146348 13.014525 95.372375 13.7088M94.880263 9.71775H92.834285C90.956735 9.71775 89.981548 10.757475 89.981548 11.87805C89.981548 12.998625 90.91013 13.7556 92.121883 13.7556C93.608555 13.7556 94.827935 12.66615 95.128363 11.7993 M107.905875 7.78605C107.684077 7.05315 106.818345 6.437805 105.610777 6.437805C104.194987 6.437805 103.280235 7.085183 103.211497 8.063325C103.132717 9.184275 104.0583 9.61635 105.506175 10.00395C106.776382 10.347675 108.23394 10.7079 108.118222 12.09165C108.043695 12.982875 107.311117 13.75935 105.543577 13.75935C104.11413 13.75935 103.306095 13.14765 103.055325 12.3183 M116.380596 12.913575C115.650253 13.6161 114.881728 13.75395 113.992633 13.75395C112.441056 13.75395 111.043626 12.7707 111.043626 10.092075C111.043626 7.413368 112.400668 6.430118 113.952246 6.430118C115.503831 6.430118 116.706343 7.222245 116.706343 9.9009H111.291703 M119.844219 3.09375V13.5948 M128.515598 12.913575C127.785255 13.6161 127.01673 13.75395 126.127635 13.75395C124.576058 13.75395 123.178628 12.7707 123.178628 10.092075C123.178628 7.413368 124.53567 6.430118 126.087248 6.430118C127.638833 6.430118 128.841345 7.222245 128.841345 9.9009H123.426705 M133.967194 16.85865C134.444584 16.934325 135.117026 16.688475 135.195116 16.0524C135.269741 15.4446 134.874709 15.014925 134.294996 14.91345L134.454986 13.878225M136.952381 12.19035C136.673396 13.2369 135.497696 13.75395 134.395871 13.75395C132.792844 13.75395 131.468441 12.7707 131.468441 10.092075C131.468441 7.413368 132.870491 6.430118 134.473519 6.430118C135.603776 6.430118 136.841359 7.057823 137.016326 8.18655 M140.679124 4.009275C140.816381 3.665993 141.261544 3.27768 141.794374 3.27768C142.519916 3.27768 142.934254 4.009275 143.727491 4.009275C144.694046 4.009275 144.945694 3.278385 144.945694 3.278385M140.208214 7.684275C140.481484 6.96009 141.543746 6.424987 142.548761 6.424987C143.938691 6.424987 145.065454 7.409775 145.065454 8.62455L145.069766 9.71775V11.678325C145.069766 12.4605 145.051339 13.014525 145.277366 13.7088M144.785254 9.71775H142.739276C140.861726 9.71775 139.886539 10.757475 139.886539 11.87805C139.886539 12.998625 140.815121 13.7556 142.026874 13.7556C143.513546 13.7556 144.732926 12.66615 145.033354 11.7993 M154.532744 10.092675C154.532744 12.391725 153.129531 13.755225 151.398576 13.755225C149.667621 13.755225 148.264401 12.391725 148.264401 10.092675C148.264401 7.793625 149.667621 6.430118 151.398576 6.430118C153.129531 6.430118 154.532744 7.793625 154.532744 10.092675Z M9.03482 31.593225V21.092467M8.765008 30.579525C8.118508 31.403025 7.294775 31.75515 6.312605 31.75515C4.676608 31.75515 3.43811 30.7719 3.43811 28.0932C3.43811 25.414553 4.755853 24.431303 6.391843 24.431303C7.34405 24.431303 8.25122 24.835695 8.765008 25.6311 M17.658096 30.913575C16.927753 31.6161 16.159228 31.75395 15.270133 31.75395C13.718556 31.75395 12.321126 30.7707 12.321126 28.092075C12.321126 25.413368 13.678168 24.430118 15.229746 24.430118C16.781331 24.430118 17.983843 25.222245 17.983843 27.9009H12.569203 M25.514691 24.580485V34.79505M25.789101 25.592925C26.451358 24.770333 27.337333 24.418583 28.319008 24.418583C29.955006 24.418583 31.138993 25.42806 31.138993 28.1067C31.138993 30.7854 29.875768 31.7424 28.239771 31.7424C27.286356 31.7424 26.322006 31.337025 25.789101 30.539625 M37.0511 24.45681C36.015785 24.314205 35.079493 24.989453 34.598008 25.964475M34.332035 24.579518V31.59195 M45.52775 28.092675C45.52775 30.391725 44.124538 31.755225 42.393583 31.755225C40.662628 31.755225 39.259408 30.391725 39.259408 28.092675C39.259408 25.793625 40.662628 24.430118 42.393583 24.430118C44.124538 24.430118 45.52775 25.793625 45.52775 28.092675Z M48.723591 21.711548H48.744096M48.734443 24.586493V33.4071C48.734443 34.013325 48.268138 35.0547 47.033619 34.8411 M57.445594 30.913575C56.715252 31.6161 55.946727 31.75395 55.057632 31.75395C53.506054 31.75395 52.108624 30.7707 52.108624 28.092075C52.108624 25.413368 53.465667 24.430118 55.017244 24.430118C56.568829 24.430118 57.771342 25.222245 57.771342 27.9009H52.356702 M63.034489 31.74435C61.977244 31.849125 61.333812 31.29915 61.333812 30.290175V22.560698M62.946244 24.4815H61.623687M59.751168 24.4815H61.051579 M71.815245 28.092675C71.815245 30.391725 70.412033 31.755225 68.681078 31.755225C66.950123 31.755225 65.546903 30.391725 65.546903 28.092675C65.546903 25.793625 66.950123 24.430118 68.681078 24.430118C70.412033 24.430118 71.815245 25.793625 71.815245 28.092675Z M79.578376 25.78605C79.356578 25.05315 78.490846 24.437805 77.283278 24.437805C75.867488 24.437805 74.952736 25.085183 74.883998 26.063325C74.805218 27.184275 75.730801 27.61635 77.178676 28.00395C78.448883 28.347675 79.906441 28.7079 79.790723 30.09165C79.716196 30.982875 78.983618 31.75935 77.216078 31.75935C75.786631 31.75935 74.978596 31.14765 74.727826 30.3183"></path></g></g></g><g id="g-root-tx_ideateso_2591v1nocu88-stroke" data-item-order="0" data-item-id="tx_ideateso_2591v1nocu88" data-item-class="Label Stroke" data-item-index="none" data-renderer-id="0" transform="matrix(1, 0, 0, 1, 181, 208.6778564453125)"><g id="tx_ideateso_2591v1nocu88-stroke" fill="none" stroke-linecap="square" stroke-linejoin="miter" stroke-miterlimit="4" stroke="#da5da8" stroke-width="2" transform="matrix(1, 0, 0, 1, 11, 2)"><g xmlns="http://www.w3.org/2000/svg" transform="translate(-109, 8)"><path d="M121.530963 18.1165L121.539213 4.97778H122.508063L127.811353 18.1151H128.126583L133.445703 4.97778H134.415603L134.410203 18.1165 M139.627635 10.2457C139.991995 9.28012 141.408345 8.56665 142.748365 8.56665C144.601605 8.56665 146.103955 9.8797 146.103955 11.4994L146.109705 12.957V15.5711C146.109705 16.614 146.085135 17.3527 146.386505 18.2784M145.730355 12.957H143.002385C140.498985 12.957 139.198735 14.3433 139.198735 15.8374C139.198735 17.3315 140.436845 18.3408 142.052515 18.3408C144.034745 18.3408 145.660585 16.8882 146.061155 15.7324 M150.932918 8.77398V22.3934M151.298798 10.1239C152.181808 9.02711 153.363108 8.55811 154.672008 8.55811C156.853338 8.55811 158.431988 9.90408 158.431988 13.4756C158.431988 17.0472 156.747688 18.3232 154.566358 18.3232C153.295138 18.3232 152.009338 17.7827 151.298798 16.7195 M169.357462 17.2181C168.383672 18.1548 167.358972 18.3386 166.173512 18.3386C164.104742 18.3386 162.241502 17.0276 162.241502 13.4561C162.241502 9.88449 164.050892 8.57349 166.119662 8.57349C168.188442 8.57349 169.791792 9.62966 169.791792 13.2012H162.572272 M173.957637 10.2457C174.321997 9.28012 175.738347 8.56665 177.078367 8.56665C178.931607 8.56665 180.433957 9.8797 180.433957 11.4994L180.439707 12.957V15.5711C180.439707 16.614 180.415137 17.3527 180.716507 18.2784M180.060357 12.957H177.332387C174.828987 12.957 173.528737 14.3433 173.528737 15.8374C173.528737 17.3315 174.766847 18.3408 176.382517 18.3408C178.364747 18.3408 179.990587 16.8882 180.391157 15.7324 M188.874799 8.60908C187.494379 8.41894 186.245989 9.31927 185.604009 10.6193M185.249379 8.77269V18.1226"></path></g></g></g><g id="g-root-tx_understa_4g2jk01q6n7yh-stroke" data-item-order="0" data-item-id="tx_understa_4g2jk01q6n7yh" data-item-class="Label Stroke" data-item-index="none" data-renderer-id="0" transform="matrix(1, 0, 0, 1, 625, 45.525146484375)"><g id="tx_understa_4g2jk01q6n7yh-stroke" fill="none" stroke-linecap="square" stroke-linejoin="miter" stroke-miterlimit="4" stroke="#3bc482" stroke-width="2" transform="matrix(1, 0, 0, 1, 2, 3)"><g xmlns="http://www.w3.org/2000/svg" transform="translate(8, 7)"><path d="M4.04822 16.587375L4.054408 6.733335H4.781045L8.758513 16.586325H8.994935L12.984275 6.733335H13.7117L13.70765 16.587375 M22.518094 15.913575C21.787752 16.6161 21.019227 16.75395 20.130132 16.75395C18.578554 16.75395 17.181124 15.7707 17.181124 13.092075C17.181124 10.413368 18.538167 9.430118 20.089744 9.430118C21.641329 9.430118 22.843842 10.222245 22.843842 12.9009H17.429202 M25.981714 6.09375V16.5948 M29.658552 6.064268V16.5963M34.806575 16.5963V12.055725C34.806575 11.521875 34.878687 9.593108 33.083585 9.440618C31.768512 9.328905 30.504695 10.15998 29.91452 11.195775 M44.192748 13.092675C44.192748 15.391725 42.789535 16.755225 41.05858 16.755225C39.327625 16.755225 37.924405 15.391725 37.924405 13.092675C37.924405 10.793625 39.327625 9.430118 41.05858 9.430118C42.789535 9.430118 44.192748 10.793625 44.192748 13.092675Z M50.041098 9.45681C49.005783 9.314205 48.06949 9.989452 47.588005 10.964475M47.322033 9.579518V16.59195 M52.803828 6.72807H52.821776M52.791656 9.603015V16.60845 M56.575722 10.684275C56.848992 9.96009 57.911254 9.424988 58.916269 9.424988C60.306199 9.424988 61.432962 10.409775 61.432962 11.62455L61.437274 12.71775V14.678325C61.437274 15.4605 61.418847 16.014525 61.644874 16.7088M61.152762 12.71775H59.106784C57.229234 12.71775 56.254047 13.757475 56.254047 14.87805C56.254047 15.998625 57.182629 16.7556 58.394382 16.7556C59.881054 16.7556 61.100434 15.66615 61.400862 14.7993 M74.668844 15.19035C74.389867 16.2369 73.214167 16.75395 72.112342 16.75395C70.509314 16.75395 69.184912 15.7707 69.184912 13.092075C69.184912 10.413368 70.586962 9.430118 72.189989 9.430118C73.320247 9.430118 74.557829 10.057823 74.732797 11.18655 M83.642752 13.092675C83.642752 15.391725 82.23954 16.755225 80.508585 16.755225C78.77763 16.755225 77.37441 15.391725 77.37441 13.092675C77.37441 10.793625 78.77763 9.430118 80.508585 9.430118C82.23954 9.430118 83.642752 10.793625 83.642752 13.092675Z M86.786685 9.584753L86.78688 16.595925M91.912597 16.595925V12.05535C91.912597 11.521425 91.984395 9.592695 90.197077 9.440205C88.878547 9.327705 87.611767 10.17123 87.029512 11.21715 M97.721989 16.74435C96.664744 16.849125 96.021312 16.29915 96.021312 15.290175V7.560698M97.633744 9.4815H96.311187M94.438668 9.4815H95.739079 M101.966468 5.945708L101.031045 7.165905M100.78107 9.585203V16.590675 M104.561679 9.584753L104.561874 16.595925M109.687591 16.595925V12.05535C109.687591 11.521425 109.759389 9.592695 107.972071 9.440205C106.653541 9.327705 105.386761 10.17123 104.804506 11.21715 M118.374965 16.5861L118.37477 9.57495M113.249053 9.57495L113.249053 14.115525C113.249053 14.649375 113.177803 16.57185 114.964573 16.730625C116.532245 16.869975 117.487318 16.2396 118.014095 15.352575 M122.065712 10.684275C122.338982 9.96009 123.401245 9.424988 124.40626 9.424988C125.79619 9.424988 126.922952 10.409775 126.922952 11.62455L126.927265 12.71775V14.678325C126.927265 15.4605 126.908837 16.014525 127.134865 16.7088M126.642752 12.71775H124.596775C122.719225 12.71775 121.744037 13.757475 121.744037 14.87805C121.744037 15.998625 122.67262 16.7556 123.884372 16.7556C125.371045 16.7556 126.590425 15.66615 126.890852 14.7993"></path></g></g></g><g id="g-root-stra_hx4snn1nycfsz-stroke" data-item-order="0" data-item-id="stra_hx4snn1nycfsz" data-item-class="Icon Stroke" data-item-index="none" data-renderer-id="0" transform="matrix(1, 0, 0, 1, 320.0340576171875, 244.17724609375)"><g id="stra_hx4snn1nycfsz-stroke" fill="none" stroke-linecap="round" stroke-linejoin="round" stroke-miterlimit="1.5" stroke="#da5da8" stroke-width="1" transform="matrix(2, 0, 0, 2, -12, -14)"><g xmlns="http://www.w3.org/2000/svg" transform="translate(11, 12)"><path d="M15,17.239v2.716c0,1.426-1.2,2-3,2s-3-.574-3-2V17.239M13,17.455v-6a1,1,0,1,1,1,1H10a1,1,0,0,1,0-2,.951.951,0,0,1,1,1v6M14.5,17.455a6.336,6.336,0,0,0,4-6,6.619,6.619,0,0,0-6.5-6.5,6.619,6.619,0,0,0-6.5,6.5,6.336,6.336,0,0,0,4,6ZM9 19.455L15 19.455M12 0.545L12 2.455M12 21.955L12 23.455M1 10.455L3.291 10.455M3.591 3.045L5.5 4.955M23 10.455L20.709 10.455M20.409 3.045L18.5 4.955"></path></g></g></g><g id="g-root-tx_understa_diki801ru9kp5-stroke" data-item-order="0" data-item-id="tx_understa_diki801ru9kp5" data-item-class="Label Stroke" data-item-index="none" data-renderer-id="0" transform="matrix(1, 0, 0, 1, 376.161376953125, 244.17724609375)"><g id="tx_understa_diki801ru9kp5-stroke" fill="none" stroke-linecap="square" stroke-linejoin="miter" stroke-miterlimit="4" stroke="#da5da8" stroke-width="2" transform="matrix(1, 0, 0, 1, 1, 6)"><g xmlns="http://www.w3.org/2000/svg" transform="translate(9, 4)"><path d="M4.148833 9.703215V19.595175 M13.31732 19.593225V9.092468M13.047508 18.579525C12.401008 19.403025 11.577275 19.75515 10.595105 19.75515C8.959108 19.75515 7.72061 18.7719 7.72061 16.0932C7.72061 13.414553 9.038353 12.431303 10.674343 12.431303C11.62655 12.431303 12.53372 12.835695 13.047508 13.6311 M21.940596 18.913575C21.210254 19.6161 20.441729 19.75395 19.552634 19.75395C18.001056 19.75395 16.603626 18.7707 16.603626 16.092075C16.603626 13.413368 17.960669 12.430118 19.512246 12.430118C21.063831 12.430118 22.266344 13.222245 22.266344 15.9009H16.851704 M25.301684 12.584753L25.301879 19.595925M30.427597 19.595925V15.05535C30.427597 14.521425 30.499394 12.592695 28.712077 12.440205C27.393547 12.327705 26.126767 13.17123 25.544512 14.21715 M36.236992 19.74435C35.179747 19.849125 34.536315 19.29915 34.536315 18.290175V10.560698M36.148747 12.4815H34.82619M32.953671 12.4815H34.254082 M39.303832 9.72807H39.32178M39.29166 12.603015V19.60845 M46.073236 8.944658C45.947273 8.930738 45.735968 8.930325 45.640621 8.930325C44.455688 8.930325 43.707436 9.775905 43.707436 10.818968V19.596825M45.526081 12.497925H43.959488M42.318256 12.497925H43.462898 M48.431335 9.72807H48.449282M48.419162 12.603015V19.60845 M57.223848 18.19035C56.944871 19.2369 55.769171 19.75395 54.667346 19.75395C53.064318 19.75395 51.739916 18.7707 51.739916 16.092075C51.739916 13.413368 53.141966 12.430118 54.744993 12.430118C55.875251 12.430118 57.112833 13.057823 57.287801 14.18655 M60.438229 13.684275C60.711499 12.96009 61.773761 12.424988 62.778776 12.424988C64.168706 12.424988 65.295469 13.409775 65.295469 14.62455L65.299781 15.71775V17.678325C65.299781 18.4605 65.281354 19.014525 65.507381 19.7088M65.015269 15.71775H62.969291C61.091741 15.71775 60.116554 16.757475 60.116554 17.87805C60.116554 18.998625 61.045136 19.7556 62.256889 19.7556C63.743561 19.7556 64.962941 18.66615 65.263369 17.7993 M71.626105 12.45681C70.59079 12.314205 69.654497 12.989452 69.173012 13.964475M68.90704 12.579518V19.59195 M9.63275 34.092675C9.63275 36.391725 8.229538 37.755225 6.498582 37.755225C4.767628 37.755225 3.364408 36.391725 3.364408 34.092675C3.364408 31.793625 4.767628 30.430118 6.498582 30.430118C8.229538 30.430118 9.63275 31.793625 9.63275 34.092675Z M12.77219 30.580485V40.79505M13.0466 31.592925C13.708858 30.770333 14.594833 30.418583 15.576508 30.418583C17.212505 30.418583 18.396493 31.42806 18.396493 34.1067C18.396493 36.7854 17.133268 37.7424 15.49727 37.7424C14.543855 37.7424 13.579505 37.337025 13.0466 36.539625 M27.45275 34.092675C27.45275 36.391725 26.049537 37.755225 24.318582 37.755225C22.587627 37.755225 21.184407 36.391725 21.184407 34.092675C21.184407 31.793625 22.587627 30.430118 24.318582 30.430118C26.049537 30.430118 27.45275 31.793625 27.45275 34.092675Z M33.3011 30.45681C32.265785 30.314205 31.329493 30.989453 30.848008 31.964475M30.582035 30.579518V37.59195 M38.15699 37.74435C37.099745 37.849125 36.456313 37.29915 36.456313 36.290175V28.560698M38.068745 30.4815H36.746188M34.873669 30.4815H36.17408 M46.194973 37.5861L46.194778 30.57495M41.06906 30.57495L41.06906 35.115525C41.06906 35.649375 40.99781 37.57185 42.78458 37.730625C44.352253 37.869975 45.307325 37.2396 45.834103 36.352575 M49.796683 30.584753L49.796878 37.595925M54.922596 37.595925V33.05535C54.922596 32.521425 54.994393 30.592695 53.207076 30.440205C51.888546 30.327705 50.621766 31.17123 50.039511 32.21715 M58.638831 27.72807H58.656779M58.626659 30.603015V37.60845 M67.572322 37.593225V27.092467M67.30251 36.579525C66.65601 37.403025 65.832277 37.75515 64.850107 37.75515C63.21411 37.75515 61.975612 36.7719 61.975612 34.0932C61.975612 31.414553 63.293355 30.431303 64.929345 30.431303C65.881552 30.431303 66.788722 30.835695 67.30251 31.6311 M71.298226 31.684275C71.571496 30.96009 72.633758 30.424988 73.638773 30.424988C75.028703 30.424988 76.155466 31.409775 76.155466 32.62455L76.159778 33.71775V35.678325C76.159778 36.4605 76.141351 37.014525 76.367378 37.7088M75.875266 33.71775H73.829288C71.951738 33.71775 70.976551 34.757475 70.976551 35.87805C70.976551 36.998625 71.905133 37.7556 73.116886 37.7556C74.603558 37.7556 75.822938 36.66615 76.123366 35.7993 M85.032325 37.593225V27.092467M84.762513 36.579525C84.116013 37.403025 83.29228 37.75515 82.31011 37.75515C80.674113 37.75515 79.435615 36.7719 79.435615 34.0932C79.435615 31.414553 80.753358 30.431303 82.389348 30.431303C83.341555 30.431303 84.248725 30.835695 84.762513 31.6311 M93.655605 36.913575C92.925262 37.6161 92.156737 37.75395 91.267642 37.75395C89.716065 37.75395 88.318635 36.7707 88.318635 34.092075C88.318635 31.413368 89.675677 30.430118 91.227255 30.430118C92.77884 30.430118 93.981352 31.222245 93.981352 33.9009H88.566712 M101.635886 31.78605C101.414088 31.05315 100.548356 30.437805 99.340788 30.437805C97.924998 30.437805 97.010246 31.085183 96.941508 32.063325C96.862728 33.184275 97.788311 33.61635 99.236186 34.00395C100.506393 34.347675 101.963951 34.7079 101.848233 36.09165C101.773706 36.982875 101.041128 37.75935 99.273588 37.75935C97.844141 37.75935 97.036106 37.14765 96.785336 36.3183 M114.874832 37.593225V27.092467M114.605019 36.579525C113.958519 37.403025 113.134787 37.75515 112.152617 37.75515C110.516619 37.75515 109.278122 36.7719 109.278122 34.0932C109.278122 31.414553 110.595864 30.431303 112.231854 30.431303C113.184062 30.431303 114.091232 30.835695 114.605019 31.6311 M123.498104 36.913575C122.767761 37.6161 121.999236 37.75395 121.110141 37.75395C119.558564 37.75395 118.161134 36.7707 118.161134 34.092075C118.161134 31.413368 119.518176 30.430118 121.069754 30.430118C122.621339 30.430118 123.823851 31.222245 123.823851 33.9009H118.409211 M136.464985 37.5861L136.46479 30.57495M131.339072 30.57495L131.339072 35.115525C131.339072 35.649375 131.267822 37.57185 133.054592 37.730625C134.622265 37.869975 135.577337 37.2396 136.104115 36.352575 M144.685889 31.78605C144.464091 31.05315 143.598359 30.437805 142.390791 30.437805C140.975001 30.437805 140.060249 31.085183 139.991511 32.063325C139.912731 33.184275 140.838314 33.61635 142.286189 34.00395C143.556396 34.347675 145.013954 34.7079 144.898236 36.09165C144.823709 36.982875 144.091131 37.75935 142.323591 37.75935C140.894144 37.75935 140.086109 37.14765 139.835339 36.3183 M154.022765 34.092675C154.022765 36.391725 152.619552 37.755225 150.888597 37.755225C149.157642 37.755225 147.754422 36.391725 147.754422 34.092675C147.754422 31.793625 149.157642 30.430118 150.888597 30.430118C152.619552 30.430118 154.022765 31.793625 154.022765 34.092675Z"></path></g></g></g><g id="g-root-tx_understa_1hclrmb1noct8i-stroke" data-item-order="0" data-item-id="tx_understa_1hclrmb1noct8i" data-item-class="Label Stroke" data-item-index="none" data-renderer-id="0" transform="matrix(1, 0, 0, 1, 80.74533081054688, 279.7030029296875)"><g id="tx_understa_1hclrmb1noct8i-stroke" fill="none" stroke-linecap="square" stroke-linejoin="miter" stroke-miterlimit="4" stroke="#dd8433" stroke-width="2" transform="matrix(1, 0, 0, 1, 11, 2)"><g xmlns="http://www.w3.org/2000/svg" transform="translate(-1, 8)"><path d="M21.017503 18.1371L13.454123 18.1423V4.94958C14.402043 4.94958 19.575803 4.95044 20.975803 4.95044M19.963563 11.2966H13.918163 M25.058914 8.77967L25.059174 18.1279M31.893464 18.1279V12.0738C31.893464 11.3619 31.989194 8.79026 29.606104 8.58694C27.848064 8.43694 26.159024 9.56164 25.382684 10.9562 M39.639321 18.3258C38.229661 18.4655 37.371751 17.7322 37.371751 16.3869V6.08093M39.521661 8.642H37.758251M35.261559 8.642H36.995441 M50.197462 17.2181C49.223672 18.1548 48.198972 18.3386 47.013512 18.3386C44.944742 18.3386 43.081502 17.0276 43.081502 13.4561C43.081502 9.88449 44.890892 8.57349 46.959662 8.57349C49.028442 8.57349 50.631792 9.62966 50.631792 13.2012H43.412272 M54.678913 8.77967L54.679173 18.1279M61.513463 18.1279V12.0738C61.513463 11.3619 61.609193 8.79026 59.226103 8.58694C57.468063 8.43694 55.779023 9.56164 55.002683 10.9562 M73.289764 18.1243V4.12329M72.930014 16.7727C72.068014 17.8707 70.969704 18.3402 69.660144 18.3402C67.478814 18.3402 65.827484 17.0292 65.827484 13.4576C65.827484 9.88607 67.584474 8.57507 69.765794 8.57507C71.035404 8.57507 72.244964 9.11426 72.930014 10.1748 M84.787462 17.2181C83.813672 18.1548 82.788972 18.3386 81.603512 18.3386C79.534742 18.3386 77.671502 17.0276 77.671502 13.4561C77.671502 9.88449 79.480892 8.57349 81.549662 8.57349C83.618442 8.57349 85.221792 9.62966 85.221792 13.2012H78.002272 M92.874799 8.60908C91.494379 8.41894 90.245989 9.31927 89.604009 10.6193M89.249379 8.77269V18.1226"></path></g></g></g><g id="g-root-1_4hy8741s46c5d-stroke" data-item-order="0" data-item-id="1_4hy8741s46c5d" data-item-class="Icon Stroke" data-item-index="none" data-renderer-id="0" transform="matrix(1, 0, 0, 1, 582.5000610351562, 39.025146484375)"><g id="1_4hy8741s46c5d-stroke" fill="none" stroke-linecap="round" stroke-linejoin="round" stroke-miterlimit="1.5" stroke="#3bc482" stroke-width="0.757" transform="matrix(2.642852783203125, 0, 0, 2.642852783203125, -21.7142333984375, -21.714202880859375)"><g xmlns="http://www.w3.org/2000/svg" transform="translate(12, 12)"><path d="M6,10.08v2a.29.29,0,0,1-.29.28H3.61a1.45,1.45,0,0,1-.88-.51M2.73,11.86s-1.09-.95,1.44-3.48H5.3L3.61,5.59H.5l.85,1.09s-.57.1-.57.89A10,10,0,0,0,2.73,11.86ZM10.35,6.37l1.48-1a.26.26,0,0,1,.21,0,.26.26,0,0,1,.19.12l1.15,1.72a1,1,0,0,1,0,.89M13.42,8S13.1,9.3,9.79,9V8.13L7.85,10.67,9.69,13.5l.1-1.33s.37.45,1,0A18.73,18.73,0,0,0,13.42,8ZM4.35,4.28,3,3.66a.3.3,0,0,1-.14-.38L4,1A1,1,0,0,1,4.74.5M4.74.5s1.23,0,2.79,3l-.81,1h3.36l1.19-3.14-1.4.43a1.21,1.21,0,0,0-.73-1A5.87,5.87,0,0,0,7,.5Z"></path></g></g></g><g id="g-root-tx_definepo_1hbctgg1ruf56y-stroke" data-item-order="0" data-item-id="tx_definepo_1hbctgg1ruf56y" data-item-class="Label Stroke" data-item-index="none" data-renderer-id="0" transform="matrix(1, 0, 0, 1, 199, 375.525146484375)"><g id="tx_definepo_1hbctgg1ruf56y-stroke" fill="none" stroke-linecap="square" stroke-linejoin="miter" stroke-miterlimit="4" stroke="#93c131" stroke-width="2" transform="matrix(1, 0, 0, 1, 1, 12)"><g xmlns="http://www.w3.org/2000/svg" transform="translate(9, -2)"><path d="M7.052615 25.6353L4.045655 25.637025V15.711218C4.756595 15.711218 5.7155 15.709553 6.7655 15.709553C7.85498 15.682208 10.690175 16.629968 10.690175 20.6331C10.690175 24.636225 8.046388 25.6353 7.052615 25.6353Z M19.105595 24.913575C18.375253 25.6161 17.606728 25.75395 16.717633 25.75395C15.166055 25.75395 13.768625 24.7707 13.768625 22.092075C13.768625 19.413368 15.125668 18.430118 16.677245 18.430118C18.22883 18.430118 19.431343 19.222245 19.431343 21.9009H14.016703 M25.553231 14.944658C25.427269 14.930738 25.215964 14.930325 25.120616 14.930325C23.935684 14.930325 23.187431 15.775905 23.187431 16.818968V25.596825M25.006076 18.497925H23.439484M21.798251 18.497925H22.942894 M27.911328 15.72807H27.929276M27.899156 18.603015V25.60845 M31.59418 18.584753L31.594375 25.595925M36.720093 25.595925V21.05535C36.720093 20.521425 36.79189 18.592695 35.004573 18.440205C33.686043 18.327705 32.419263 19.17123 31.837008 20.21715 M40.436328 15.72807H40.454276M40.424156 18.603015V25.60845 M46.823599 18.45681C45.788284 18.314205 44.851992 18.989453 44.370507 19.964475M44.104534 18.579518V25.59195 M53.94719 18.580485V28.79505M54.2216 19.592925C54.883857 18.770333 55.769832 18.418583 56.751507 18.418583C58.387505 18.418583 59.571492 19.42806 59.571492 22.1067C59.571492 24.7854 58.308267 25.7424 56.67227 25.7424C55.718855 25.7424 54.754505 25.337025 54.2216 24.539625 M68.627749 22.092675C68.627749 24.391725 67.224536 25.755225 65.493581 25.755225C63.762626 25.755225 62.359406 24.391725 62.359406 22.092675C62.359406 19.793625 63.762626 18.430118 65.493581 18.430118C67.224536 18.430118 68.627749 19.793625 68.627749 22.092675Z M71.874218 15.09375V25.5948 M76.871474 14.945708L75.936052 16.165905M75.686077 18.585203V25.590675 M81.694493 25.74435C80.637248 25.849125 79.993815 25.29915 79.993815 24.290175V16.560698M81.606248 18.4815H80.28369M78.411171 18.4815H79.711583 M84.761329 15.72807H84.779276M84.749156 18.603015V25.60845 M93.553839 24.19035C93.274861 25.2369 92.099161 25.75395 90.997336 25.75395C89.394309 25.75395 88.069906 24.7707 88.069906 22.092075C88.069906 19.413368 89.471956 18.430118 91.074984 18.430118C92.205241 18.430118 93.442824 19.057823 93.617791 20.18655 M96.768219 19.684275C97.041489 18.96009 98.103752 18.424988 99.108767 18.424988C100.498697 18.424988 101.625459 19.409775 101.625459 20.62455L101.629772 21.71775V23.678325C101.629772 24.4605 101.611344 25.014525 101.837372 25.7088M101.345259 21.71775H99.299282C97.421732 21.71775 96.446544 22.757475 96.446544 23.87805C96.446544 24.998625 97.375127 25.7556 98.586879 25.7556C100.073552 25.7556 101.292932 24.66615 101.593359 23.7993 M109.870871 19.78605C109.649074 19.05315 108.783341 18.437805 107.575774 18.437805C106.159984 18.437805 105.245231 19.085183 105.176494 20.063325C105.097714 21.184275 106.023296 21.61635 107.471171 22.00395C108.741379 22.347675 110.198936 22.7079 110.083219 24.09165C110.008691 24.982875 109.276114 25.75935 107.508574 25.75935C106.079126 25.75935 105.271091 25.14765 105.020321 24.3183 M9.03482 43.593225V33.092467M8.765008 42.579525C8.118508 43.403025 7.294775 43.75515 6.312605 43.75515C4.676608 43.75515 3.43811 42.7719 3.43811 40.0932C3.43811 37.414553 4.755853 36.431303 6.391843 36.431303C7.34405 36.431303 8.25122 36.835695 8.765008 37.6311 M17.658096 42.913575C16.927753 43.6161 16.159228 43.75395 15.270133 43.75395C13.718556 43.75395 12.321126 42.7707 12.321126 40.092075C12.321126 37.413368 13.678168 36.430118 15.229746 36.430118C16.781331 36.430118 17.983843 37.222245 17.983843 39.9009H12.569203 M30.624973 43.5861L30.624778 36.57495M25.499061 36.57495L25.499061 41.115525C25.499061 41.649375 25.427811 43.57185 27.214581 43.730625C28.782253 43.869975 29.737326 43.2396 30.264103 42.352575 M38.845874 37.78605C38.624076 37.05315 37.758344 36.437805 36.550776 36.437805C35.134986 36.437805 34.220234 37.085183 34.151496 38.063325C34.072716 39.184275 34.998299 39.61635 36.446174 40.00395C37.716381 40.347675 39.173939 40.7079 39.058221 42.09165C38.983694 42.982875 38.251116 43.75935 36.483576 43.75935C35.054129 43.75935 34.246094 43.14765 33.995324 42.3183 M48.182753 40.092675C48.182753 42.391725 46.779541 43.755225 45.048586 43.755225C43.317631 43.755225 41.914411 42.391725 41.914411 40.092675C41.914411 37.793625 43.317631 36.430118 45.048586 36.430118C46.779541 36.430118 48.182753 37.793625 48.182753 40.092675Z"></path></g></g></g><g id="g-root-tx_understa_1lsf3fk1t8abre-stroke" data-item-order="0" data-item-id="tx_understa_1lsf3fk1t8abre" data-item-class="Label Stroke" data-item-index="none" data-renderer-id="0" transform="matrix(1, 0, 0, 1, 280.1500244140625, 312.465087890625)"><g id="tx_understa_1lsf3fk1t8abre-stroke" fill="none" stroke-linecap="square" stroke-linejoin="miter" stroke-miterlimit="4" stroke="#dd8433" stroke-width="2" transform="matrix(1, 0, 0, 1, 5, 7)"><g xmlns="http://www.w3.org/2000/svg" transform="translate(9, 9)"><path d="M9.715625 13.602825L4.04309 13.606725V3.712185C4.75403 3.712185 8.63435 3.71283 9.68435 3.71283M8.92517 8.47245H4.39112 M12.746682 6.584753L12.746877 13.595925M17.872595 13.595925V9.05535C17.872595 8.521425 17.944392 6.592695 16.157075 6.440205C14.838545 6.327705 13.571765 7.17123 12.98951 8.21715 M23.681988 13.74435C22.624743 13.849125 21.981311 13.29915 21.981311 12.290175V4.560698M23.593743 6.4815H22.271186M20.398667 6.4815H21.699078 M31.600593 12.913575C30.870251 13.6161 30.101726 13.75395 29.212631 13.75395C27.661053 13.75395 26.263623 12.7707 26.263623 10.092075C26.263623 7.413368 27.620666 6.430118 29.172243 6.430118C30.723828 6.430118 31.926341 7.222245 31.926341 9.9009H26.511701 M34.96168 6.584753L34.961875 13.595925M40.087593 13.595925V9.05535C40.087593 8.521425 40.15939 6.592695 38.372073 6.440205C37.053543 6.327705 35.786763 7.17123 35.204508 8.21715 M48.919818 13.593225V3.092467M48.650006 12.579525C48.003506 13.403025 47.179773 13.75515 46.197603 13.75515C44.561606 13.75515 43.323108 12.7719 43.323108 10.0932C43.323108 7.414553 44.640851 6.431303 46.276841 6.431303C47.229048 6.431303 48.136218 6.835695 48.650006 7.6311 M52.691329 3.72807H52.709277M52.679157 6.603015V13.60845 M56.389768 6.610628L56.38997 13.6218M61.51568 13.6218L61.507528 8.602275C61.45919 7.89465 61.183993 6.80886 59.778328 6.48687C58.32356 6.15363 57.21371 6.936203 56.661403 7.946175M66.641975 13.6218V9.081225C66.641975 8.5473 66.727925 6.90453 64.904675 6.48687C63.38285 6.138277 62.232125 7.01061 61.706833 8.087025 M75.213092 12.913575C74.48275 13.6161 73.714225 13.75395 72.82513 13.75395C71.273552 13.75395 69.876122 12.7707 69.876122 10.092075C69.876122 7.413368 71.233165 6.430118 72.784742 6.430118C74.336327 6.430118 75.53884 7.222245 75.53884 9.9009H70.1242 M78.574176 6.584753L78.574371 13.595925M83.700088 13.595925V9.05535C83.700088 8.521425 83.771886 6.592695 81.984568 6.440205C80.666038 6.327705 79.399258 7.17123 78.817003 8.21715 M89.50948 13.74435C88.452235 13.849125 87.808802 13.29915 87.808802 12.290175V4.560698M89.421235 6.4815H88.098677M86.226158 6.4815H87.52657 M98.290236 10.092675C98.290236 12.391725 96.887023 13.755225 95.156068 13.755225C93.425113 13.755225 92.021893 12.391725 92.021893 10.092675C92.021893 7.793625 93.425113 6.430118 95.156068 6.430118C96.887023 6.430118 98.290236 7.793625 98.290236 10.092675Z M111.184806 13.593225V3.092467M110.914994 12.579525C110.268494 13.403025 109.444761 13.75515 108.462591 13.75515C106.826594 13.75515 105.588096 12.7719 105.588096 10.0932C105.588096 7.414553 106.905839 6.431303 108.541829 6.431303C109.494036 6.431303 110.401206 6.835695 110.914994 7.6311 M114.910713 7.684275C115.183983 6.96009 116.246246 6.424987 117.251261 6.424987C118.641191 6.424987 119.767953 7.409775 119.767953 8.62455L119.772266 9.71775V11.678325C119.772266 12.4605 119.753838 13.014525 119.979866 13.7088M119.487753 9.71775H117.441776C115.564226 9.71775 114.589038 10.757475 114.589038 11.87805C114.589038 12.998625 115.517621 13.7556 116.729373 13.7556C118.216046 13.7556 119.435426 12.66615 119.735853 11.7993 M128.258825 3.703215V13.595175 M131.610142 13.608975L135.321644 3.72951L135.762547 3.729495L139.485262 13.608975M132.973207 10.72065H138.117187 M3.77969 24.580485V34.79505M4.0541 25.592925C4.716358 24.770333 5.602333 24.418583 6.584008 24.418583C8.220005 24.418583 9.403993 25.42806 9.403993 28.1067C9.403993 30.7854 8.140767 31.7424 6.50477 31.7424C5.551355 31.7424 4.587005 31.337025 4.0541 30.539625 M17.598095 30.913575C16.867753 31.6161 16.099228 31.75395 15.210133 31.75395C13.658555 31.75395 12.261125 30.7707 12.261125 28.092075C12.261125 25.413368 13.618168 24.430118 15.169745 24.430118C16.72133 24.430118 17.923843 25.222245 17.923843 27.9009H12.509203 M21.061714 21.09375V31.5948 M24.835722 25.684275C25.108992 24.96009 26.171255 24.424988 27.17627 24.424988C28.5662 24.424988 29.692962 25.409775 29.692962 26.62455L29.697275 27.71775V29.678325C29.697275 30.4605 29.678847 31.014525 29.904875 31.7088M29.412762 27.71775H27.366785C25.489235 27.71775 24.514047 28.757475 24.514047 29.87805C24.514047 30.998625 25.44263 31.7556 26.654382 31.7556C28.141055 31.7556 29.360435 30.66615 29.660862 29.7993 M43.66775 28.092675C43.66775 30.391725 42.264537 31.755225 40.533582 31.755225C38.802627 31.755225 37.399407 30.391725 37.399407 28.092675C37.399407 25.793625 38.802627 24.430118 40.533582 24.430118C42.264537 24.430118 43.66775 25.793625 43.66775 28.092675Z M49.5161 24.45681C48.480785 24.314205 47.544493 24.989453 47.063008 25.964475M46.797035 24.579518V31.59195 M57.401871 24.489345V31.990875C57.401871 35.5134 53.431806 35.250525 52.355638 34.102725M57.151611 30.4299C56.641506 31.2456 55.723303 31.660425 54.758893 31.660425C53.122903 31.660425 51.805161 30.677175 51.805161 27.998475C51.805161 25.319805 53.043658 24.336548 54.679656 24.336548C55.630678 24.336548 56.609458 24.84705 57.151611 25.8768 M61.060723 25.684275C61.333993 24.96009 62.396255 24.424988 63.40127 24.424988C64.7912 24.424988 65.917963 25.409775 65.917963 26.62455L65.922275 27.71775V29.678325C65.922275 30.4605 65.903848 31.014525 66.129875 31.7088M65.637763 27.71775H63.591785C61.714235 27.71775 60.739048 28.757475 60.739048 29.87805C60.739048 30.998625 61.66763 31.7556 62.879383 31.7556C64.366055 31.7556 65.585435 30.66615 65.885863 29.7993 M69.544185 24.584753L69.54438 31.595925M74.670097 31.595925V27.05535C74.670097 26.521425 74.741895 24.592695 72.954577 24.440205C71.636047 24.327705 70.369267 25.17123 69.787012 26.21715 M78.386329 21.72807H78.404276M78.374156 24.603015V31.60845 M81.679209 24.585203H86.687101V24.701633L81.615444 31.42815V31.5963L86.906754 31.596225 M89.958222 25.684275C90.231492 24.96009 91.293754 24.424988 92.298769 24.424988C93.688699 24.424988 94.815462 25.409775 94.815462 26.62455L94.819774 27.71775V29.678325C94.819774 30.4605 94.801347 31.014525 95.027374 31.7088M94.535262 27.71775H92.489284C90.611734 27.71775 89.636547 28.757475 89.636547 29.87805C89.636547 30.998625 90.565129 31.7556 91.776882 31.7556C93.263554 31.7556 94.482934 30.66615 94.783362 29.7993 M100.532196 34.85865C101.009586 34.934325 101.682029 34.688475 101.760119 34.0524C101.834744 33.4446 101.439711 33.014925 100.859999 32.91345L101.019989 31.878225M103.517384 30.19035C103.238399 31.2369 102.062699 31.75395 100.960874 31.75395C99.357846 31.75395 98.033444 30.7707 98.033444 28.092075C98.033444 25.413368 99.435494 24.430118 101.038521 24.430118C102.168779 24.430118 103.406361 25.057823 103.581329 26.18655 M107.244134 22.009275C107.381392 21.665993 107.826554 21.27768 108.359384 21.27768C109.084927 21.27768 109.499264 22.009275 110.292502 22.009275C111.259057 22.009275 111.510704 21.278385 111.510704 21.278385M106.773224 25.684275C107.046494 24.96009 108.108757 24.424988 109.113772 24.424988C110.503702 24.424988 111.630464 25.409775 111.630464 26.62455L111.634777 27.71775V29.678325C111.634777 30.4605 111.616349 31.014525 111.842377 31.7088M111.350264 27.71775H109.304287C107.426737 27.71775 106.451549 28.757475 106.451549 29.87805C106.451549 30.998625 107.380132 31.7556 108.591884 31.7556C110.078557 31.7556 111.297937 30.66615 111.598364 29.7993 M121.097754 28.092675C121.097754 30.391725 119.694541 31.755225 117.963586 31.755225C116.232631 31.755225 114.829411 30.391725 114.829411 28.092675C114.829411 25.793625 116.232631 24.430118 117.963586 24.430118C119.694541 24.430118 121.097754 25.793625 121.097754 28.092675Z"></path></g></g></g><g id="g-root-tx_definepo_18gyrdf1nocu17-stroke" data-item-order="0" data-item-id="tx_definepo_18gyrdf1nocu17" data-item-class="Label Stroke" data-item-index="none" data-renderer-id="0" transform="matrix(1, 0, 0, 1, -9, 339.525146484375)"><g id="tx_definepo_18gyrdf1nocu17-stroke" fill="none" stroke-linecap="square" stroke-linejoin="miter" stroke-miterlimit="4" stroke="#93c131" stroke-width="2" transform="matrix(1, 0, 0, 1, 6, 8)"><g xmlns="http://www.w3.org/2000/svg" transform="translate(8, 8)"><path d="M4.74121 18.1308V4.94395L10.01962 4.92822C11.11845 4.96678 13.503 5.74944 13.503 8.57165C13.503 11.3939 11.11845 12.2536 10.01962 12.3307L5.26909 12.3449 M25.417 13.4569C25.417 16.5223 23.54605 18.3403 21.23811 18.3403C18.93017 18.3403 17.05921 16.5223 17.05921 13.4569C17.05921 10.3915 18.93017 8.57349 21.23811 8.57349C23.54605 8.57349 25.417 10.3915 25.417 13.4569Z M29.60891 8.77967L29.60917 18.1279M36.44346 18.1279V12.0738C36.44346 11.3619 36.53919 8.79026 34.1561 8.58694C32.39806 8.43694 30.70902 9.56164 29.93268 10.9562 M44.18932 18.3258C42.77966 18.4655 41.92175 17.7322 41.92175 16.3869V6.08093M44.07166 8.642H42.30825M39.811558 8.642H41.54544 M55.897001 13.4569C55.897001 16.5223 54.026051 18.3403 51.718111 18.3403C49.410171 18.3403 47.539211 16.5223 47.539211 13.4569C47.539211 10.3915 49.410171 8.57349 51.718111 8.57349C54.026051 8.57349 55.897001 10.3915 55.897001 13.4569Z M73.089759 18.1243V4.12329M72.730009 16.7727C71.868009 17.8707 70.769699 18.3402 69.460139 18.3402C67.278809 18.3402 65.627479 17.0292 65.627479 13.4576C65.627479 9.88607 67.384469 8.57507 69.565789 8.57507C70.835399 8.57507 72.044959 9.11426 72.730009 10.1748 M84.587458 17.2181C83.613668 18.1548 82.588968 18.3386 81.403508 18.3386C79.334738 18.3386 77.471498 17.0276 77.471498 13.4561C77.471498 9.88449 79.280888 8.57349 81.349658 8.57349C83.418438 8.57349 85.021788 9.62966 85.021788 13.2012H77.802268 M4.74121 42.1308V28.94395L10.01962 28.92822C11.11845 28.96678 13.503 29.74944 13.503 32.57165C13.503 35.3939 11.11845 36.2536 10.01962 36.3307L5.26909 36.3449 M17.73763 34.2457C18.10199 33.28012 19.51834 32.56665 20.85836 32.56665C22.7116 32.56665 24.21395 33.8797 24.21395 35.4994L24.2197 36.957V39.5711C24.2197 40.614 24.19513 41.3527 24.4965 42.2784M23.84035 36.957H21.11238C18.60898 36.957 17.30873 38.3433 17.30873 39.8374C17.30873 41.3315 18.54684 42.3408 20.16251 42.3408C22.14474 42.3408 23.77058 40.8882 24.17115 39.7324 M32.6548 32.60908C31.27438 32.41894 30.02599 33.31927 29.38401 34.6193M29.02938 32.77269V42.1226 M39.129319 42.3258C37.719659 42.4655 36.861749 41.7322 36.861749 40.3869V30.08093M39.011659 32.642H37.248249M34.751557 32.642H36.485439 M43.21844 28.97076H43.24237M43.20221 32.80402V42.1446 M55.12976 42.1243V28.12329M54.77001 40.7727C53.90801 41.8707 52.8097 42.3402 51.50014 42.3402C49.31881 42.3402 47.66748 41.0292 47.66748 37.4576C47.66748 33.88607 49.42447 32.57507 51.60579 32.57507C52.8754 32.57507 54.08496 33.11426 54.77001 34.1748 M60.097628 34.2457C60.461988 33.28012 61.878338 32.56665 63.218358 32.56665C65.071598 32.56665 66.573948 33.8797 66.573948 35.4994L66.579698 36.957V39.5711C66.579698 40.614 66.555128 41.3527 66.856498 42.2784M66.200348 36.957H63.472378C60.968978 36.957 59.668728 38.3433 59.668728 39.8374C59.668728 41.3315 60.906838 42.3408 62.522508 42.3408C64.504738 42.3408 66.130578 40.8882 66.531148 39.7324"></path></g></g></g><g id="g-root-tx_implemen_vbq15c1raejv1-stroke" data-item-order="0" data-item-id="tx_implemen_vbq15c1raejv1" data-item-class="Label Stroke" data-item-index="none" data-renderer-id="0" transform="matrix(1, 0, 0, 1, 413.254638671875, -9)"><g id="tx_implemen_vbq15c1raejv1-stroke" fill="none" stroke-linecap="square" stroke-linejoin="miter" stroke-miterlimit="4" stroke="#3bc482" stroke-width="2" transform="matrix(1, 0, 0, 1, 9, 1)"><g xmlns="http://www.w3.org/2000/svg" transform="translate(1, 9)"><path d="M11.073537 18.1453L16.022207 4.97268L16.610077 4.97266L21.573697 18.1453M12.890957 14.2942H19.749597 M25.542918 8.77398V22.3934M25.908798 10.1239C26.791808 9.02711 27.973108 8.55811 29.282008 8.55811C31.463338 8.55811 33.041988 9.90408 33.041988 13.4756C33.041988 17.0472 31.357688 18.3232 29.176358 18.3232C27.905138 18.3232 26.619338 17.7827 25.908798 16.7195 M43.967459 17.2181C42.993669 18.1548 41.968969 18.3386 40.783509 18.3386C38.714739 18.3386 36.851499 17.0276 36.851499 13.4561C36.851499 9.88449 38.660889 8.57349 40.729659 8.57349C42.798439 8.57349 44.401789 9.62966 44.401789 13.2012H37.182269 M52.0548 8.60908C50.67438 8.41894 49.42599 9.31927 48.78401 10.6193M48.42938 8.77269V18.1226 M59.67431 3.92621C59.50636 3.90765 59.22462 3.9071 59.09749 3.9071C57.51758 3.9071 56.51991 5.03454 56.51991 6.42529V18.1291M58.94477 8.6639H56.85598M54.66767 8.6639H56.19386 M69.287462 17.2181C68.313672 18.1548 67.288972 18.3386 66.103512 18.3386C64.034742 18.3386 62.171502 17.0276 62.171502 13.4561C62.171502 9.88449 63.980892 8.57349 66.049662 8.57349C68.118442 8.57349 69.721792 9.62966 69.721792 13.2012H62.502272 M73.948439 4.97076H73.972369M73.932209 8.80402V18.1446 M81.646263 22.4782C82.282783 22.5791 83.179373 22.2513 83.283493 21.4032C83.382993 20.5928 82.856283 20.0199 82.083333 19.8846L82.296653 18.5043M85.626513 16.2538C85.254533 17.6492 83.686933 18.3386 82.217833 18.3386C80.080463 18.3386 78.314593 17.0276 78.314593 13.4561C78.314593 9.88449 80.183993 8.57349 82.321363 8.57349C83.828373 8.57349 85.478483 9.41043 85.711773 10.9154 M97.647001 13.4569C97.647001 16.5223 95.776051 18.3403 93.468111 18.3403C91.160171 18.3403 89.289211 16.5223 89.289211 13.4569C89.289211 10.3915 91.160171 8.57349 93.468111 8.57349C95.776051 8.57349 97.647001 10.3915 97.647001 13.4569Z M101.957629 10.2457C102.321989 9.28012 103.738339 8.56665 105.078359 8.56665C106.931599 8.56665 108.433949 9.8797 108.433949 11.4994L108.439699 12.957V15.5711C108.439699 16.614 108.415129 17.3527 108.716499 18.2784M108.060349 12.957H105.332379C102.828979 12.957 101.528729 14.3433 101.528729 15.8374C101.528729 17.3315 102.766839 18.3408 104.382509 18.3408C106.364739 18.3408 107.990579 16.8882 108.391149 15.7324 M116.874799 8.60908C115.494379 8.41894 114.245989 9.31927 113.604009 10.6193M113.249379 8.77269V18.1226"></path></g></g></g><g id="g-root-robo_hv9deb1nycgso-stroke" data-item-order="0" data-item-id="robo_hv9deb1nycgso" data-item-class="Icon Stroke" data-item-index="none" data-renderer-id="0" transform="matrix(1, 0, 0, 1, 145, 381.525146484375)"><g id="robo_hv9deb1nycgso-stroke" fill="none" stroke-linecap="round" stroke-linejoin="round" stroke-miterlimit="1.5" stroke="#93c131" stroke-width="1" transform="matrix(2, 0, 0, 2, -14, -14)"><g xmlns="http://www.w3.org/2000/svg" transform="translate(12, 12)"><path d="M16.273 6.969a1.437 1.437 0 1 0 2.874 0a1.437 1.437 0 1 0 -2.874 0M18.932,1.408,19.355,2.8a.954.954,0,0,0,1.125.653l1.411-.328a1.283,1.283,0,0,1,1.221,2.126l-.987,1.065a.96.96,0,0,0,0,1.305l.987,1.065a1.283,1.283,0,0,1-1.221,2.126l-1.411-.327a.952.952,0,0,0-1.125.653l-.423,1.392a1.276,1.276,0,0,1-2.443,0l-.424-1.392a.951.951,0,0,0-1.124-.653l-1.411.327a1.283,1.283,0,0,1-1.221-2.126L13.3,7.621a.96.96,0,0,0,0-1.305l-.987-1.065A1.283,1.283,0,0,1,13.53,3.125l1.411.328A.953.953,0,0,0,16.065,2.8l.424-1.392A1.276,1.276,0,0,1,18.932,1.408ZM17.73,15.705a8.248,8.248,0,0,1-2.649,3.268V23.5M6.68,23.5V20.98H5.84a2.52,2.52,0,0,1-2.52-2.52V15.939H.96a.419.419,0,0,1-.4-.549C2.3,10,3.509,4.179,10.251,4.179"></path></g></g></g><g id="g-root-codi_znsc2b1nycglm-stroke" data-item-order="0" data-item-id="codi_znsc2b1nycglm" data-item-class="Icon Stroke" data-item-index="none" data-renderer-id="0" transform="matrix(1, 0, 0, 1, 234.89797973632812, 315.423095703125)"><g id="codi_znsc2b1nycglm-stroke" fill="none" stroke-linecap="round" stroke-linejoin="round" stroke-miterlimit="1.5" stroke="#dd8433" stroke-width="1.14" transform="matrix(1.7542520761489868, 0, 0, 1.7542520761489868, -11.051025390625, -11.051025390625)"><g xmlns="http://www.w3.org/2000/svg" transform="translate(12, 12)"><path d="M15.513,6.784h.521a.521.521,0,0,1,.521.521v3.647M15.513 10.952L17.597 10.952M21.079.489H21.6a.521.521,0,0,1,.521.521V4.657M21.079 4.657L23.163 4.657M21.079,13.078H21.6a.521.521,0,0,1,.521.521v3.647M21.079 17.246L23.163 17.246M23.424,9.649a1.3,1.3,0,1,1-2.605,0V8.086a1.3,1.3,0,0,1,2.605,0ZM17.857,15.944a1.3,1.3,0,0,1-2.6,0V14.381a1.3,1.3,0,1,1,2.6,0ZM21.079,19.321H21.6a.521.521,0,0,1,.521.521v3.647M21.079 23.489L23.163 23.489M17.857,22.187a1.3,1.3,0,0,1-2.6,0V20.624a1.3,1.3,0,1,1,2.6,0ZM17.857,3.451a1.3,1.3,0,0,1-2.6,0V1.887a1.3,1.3,0,0,1,2.6,0ZM9.553,17.261a3.25,3.25,0,0,0-3.25-3.25c-.052,0-.1.013-.153.015M9.215,4.4A2,2,0,1,0,6.576,2.511a2,2,0,0,0,.081.533c-.111-.01-.218-.033-.331-.033A3.732,3.732,0,0,0,3.361,9.033a2.985,2.985,0,0,0,0,5.956,3.732,3.732,0,0,0,2.965,6.022c.113,0,.22-.024.331-.034a2,2,0,1,0,2.558-1.352M6.15,10c.052,0,.1.015.153.015a3.25,3.25,0,0,0,3.25-3.25M10.574,2.414a2.978,2.978,0,0,1,1.5-.4M10.485,22.108a3.325,3.325,0,0,0,1.591.4M12.076 7.011L12.076 17.511"></path></g></g></g></g></svg>