<?xml version="1.0" encoding="UTF-8"?>
<svg xmlns="http://www.w3.org/2000/svg" width="501" height="236.7" version="1.1" xmlns:xlink="http://www.w3.org/1999/xlink" viewBox="0 0 501 236.7">
  <defs>
    <linearGradient id="linear-gradient" x1="145.7" y1="95.3" x2="296.7" y2="95.3" gradientUnits="userSpaceOnUse">
      <stop offset="0" stop-color="#9aa7d5"/>
      <stop offset=".3" stop-color="#adb8dd"/>
      <stop offset=".7" stop-color="#c9d0e8"/>
      <stop offset="1" stop-color="#d4daed"/>
    </linearGradient>
  </defs>
  <!-- Generator: Adobe Illustrator 28.6.0, SVG Export Plug-In . SVG Version: 1.2.0 Build 709)  -->
  <g>
    <g id="_x30__Ponto_de_partida">
      <g id="Linha-2" data-name="Linha">
        <path d="M29.4,121.6l49.4,27.7c16.3,9.2,36.4,9.2,52.8,0l113.5-63.8" fill="none" stroke="#8daad9" stroke-miterlimit="10" stroke-width="5"/>
        <path d="M10.9,122.9c5.8,3.3,15.2,3.3,21,0,5.8-3.3,5.8-8.8,0-12.1-5.8-3.3-15.2-3.3-21,0-5.8,3.3-5.8,8.8,0,12.1Z" fill="#8daad9"/>
        <g id="pontilhado">
          <g>
            <path d="M141.6,164.5c1.1.6,2.9.6,4.1,0,1.1-.6,1.1-1.6,0-2.2-1.1-.6-2.9-.6-4.1,0-1.1.6-1.1,1.6,0,2.2Z" fill="#8daad9"/>
            <path d="M131.6,170.1c1.1.6,2.9.6,4.1,0,1.1-.6,1.1-1.6,0-2.2-1.1-.6-2.9-.6-4.1,0s-1.1,1.6,0,2.2Z" fill="#8daad9"/>
            <path d="M118.8,174.2c1.1.6,2.9.6,4.1,0,1.1-.6,1.1-1.6,0-2.2-1.1-.6-2.9-.6-4.1,0s-1.1,1.6,0,2.2Z" fill="#8daad9"/>
            <path d="M104,175.8c1.1.6,2.9.6,4.1,0,1.1-.6,1.1-1.6,0-2.2-1.1-.6-2.9-.6-4.1,0s-1.1,1.6,0,2.2Z" fill="#8daad9"/>
            <path d="M88.1,174.2c1.1.6,2.9.6,4.1,0,1.1-.6,1.1-1.6,0-2.2-1.1-.6-2.9-.6-4.1,0s-1.1,1.6,0,2.2Z" fill="#8daad9"/>
            <path d="M151.9,158.9c1.1.6,2.9.6,4.1,0,1.1-.6,1.1-1.6,0-2.2-1.1-.6-2.9-.6-4.1,0s-1.1,1.6,0,2.2Z" fill="#8daad9"/>
            <path d="M162.2,153.3c1.1.6,2.9.6,4.1,0,1.1-.6,1.1-1.6,0-2.2s-2.9-.6-4.1,0c-1.1.6-1.1,1.6,0,2.2Z" fill="#8daad9"/>
            <path d="M172.5,147.8c1.1.6,2.9.6,4.1,0,1.1-.6,1.1-1.6,0-2.2-1.1-.6-2.9-.6-4.1,0-1.1.6-1.1,1.6,0,2.2Z" fill="#8daad9"/>
            <path d="M182.7,142.2c1.1.6,2.9.6,4.1,0s1.1-1.6,0-2.2-2.9-.6-4.1,0-1.1,1.6,0,2.2Z" fill="#8daad9"/>
          </g>
          <g>
            <path d="M78.7,168.5c-1.1.6-2.9.6-4.1,0-1.1-.6-1.1-1.6,0-2.2,1.1-.6,2.9-.6,4.1,0,1.1.6,1.1,1.6,0,2.2Z" fill="#8daad9"/>
            <path d="M68.4,162.9c-1.1.6-2.9.6-4.1,0-1.1-.6-1.1-1.6,0-2.2,1.1-.6,2.9-.6,4.1,0s1.1,1.6,0,2.2Z" fill="#8daad9"/>
            <path d="M58.1,157.3c-1.1.6-2.9.6-4.1,0-1.1-.6-1.1-1.6,0-2.2,1.1-.6,2.9-.6,4.1,0,1.1.6,1.1,1.6,0,2.2Z" fill="#8daad9"/>
            <path d="M47.8,151.8c-1.1.6-2.9.6-4.1,0-1.1-.6-1.1-1.6,0-2.2,1.1-.6,2.9-.6,4.1,0s1.1,1.6,0,2.2Z" fill="#8daad9"/>
            <path d="M37.6,146.2c-1.1.6-2.9.6-4.1,0-1.1-.6-1.1-1.6,0-2.2,1.1-.6,2.9-.6,4.1,0,1.1.6,1.1,1.6,0,2.2Z" fill="#8daad9"/>
          </g>
        </g>
      </g>
      <g id="plataforma">
        <g>
          <path d="M296.7,95.3v-7.1s-71.2-36-71.2-36c-2.6-1.5-5.8-1.5-8.4,0l-71.5,36v7.1h0c0,1,.5,2.1,1.5,2.7l70,40.4c2.6,1.5,5.8,1.5,8.3,0l69.7-40.2c1.1-.6,1.6-1.8,1.5-2.9h0Z" fill="url(#linear-gradient)"/>
          <path d="M217.2,45.1l-70,40.4c-2.1,1.2-2.1,4.2,0,5.4l70,40.4c2.6,1.5,5.8,1.5,8.3,0l69.7-40.2c2.1-1.2,2.1-4.2,0-5.4l-69.7-40.6c-2.6-1.5-5.8-1.5-8.4,0Z" fill="#f0f4fb"/>
        </g>
      </g>
      <g id="texto">
        <g>
          <path d="M206.6,187.3c-14.9-8.7-17.5-17.1-9.6-21.6,8-4.6,22.3-3,37.2,5.7,14.9,8.7,17.5,17,9.6,21.6-7.9,4.6-22.3,3-37.2-5.7ZM226.7,175.7c-10.3-6-17.1-7-20.8-4.9-3.7,2.1-2,6.1,8.3,12.1s17.1,7,20.8,4.9c3.7-2.2,2-6.1-8.2-12.1Z" fill="#8daad9"/>
          <path d="M227.4,149l45.2,26.4-7.5,4.3-36.8-21.5-6.4,3.7-8.4-4.9,13.9-8Z" fill="#8daad9"/>
        </g>
        <g>
          <path d="M251.8,140.2c3.2,1.9,3.5,4,.7,5.6l-2.1,1.2,4,2.3-2.4,1.4-14.4-8.4,4.5-2.6c2.7-1.6,6.5-1.4,9.7.5ZM249.3,141.6c-1.6-.9-3.2-1-4.7-.2l-1.9,1.1,5,2.9,1.9-1.1c1.5-.8,1.3-1.8-.3-2.7Z" fill="#8daad9"/>
          <path d="M256.3,141.8c-3.3-2-3.9-4.4-1.4-5.8s6.7-1.1,10,.8c3.3,2,3.9,4.4,1.4,5.8-2.5,1.4-6.7,1.1-10.1-.8ZM262.7,138.2c-1.9-1.1-3.9-1.3-5.1-.6s-.9,1.8,1,3,4,1.3,5.1.6.9-1.8-1.1-3Z" fill="#8daad9"/>
          <path d="M273.8,130.8l6.4,3.7-2.3,1.3-5.9-3.4c-1.8-1-3.2-1.2-4.2-.6-1.1.6-.9,1.6,1.1,2.8l5.5,3.2-2.3,1.3-11.1-6.5,2.2-1.3,1.3.8c-.3-.9,0-1.7,1.2-2.4,1.9-1.1,4.8-1,8.2,1Z" fill="#8daad9"/>
          <path d="M286.8,130.1c0,.5-.5,1.1-1.2,1.5-1.9,1.1-4.3.9-6.9-.6l-4.6-2.7-1.2.7-2.5-1.4,1.2-.7-2.7-1.6,2.3-1.3,2.7,1.6,2-1.1,2.5,1.4-2,1.1,4.5,2.6c.9.6,1.8.6,2.4.3.3-.2.5-.5.5-.8l2.9,1Z" fill="#8daad9"/>
          <path d="M282.3,126.9c-3.3-2-3.9-4.4-1.4-5.8,2.5-1.4,6.7-1.1,10,.8,3.3,2,3.9,4.4,1.4,5.8-2.5,1.4-6.7,1.1-10.1-.8ZM288.6,123.2c-1.9-1.1-3.9-1.3-5.1-.6s-.9,1.8,1,3,4,1.3,5.1.6.9-1.8-1.1-3Z" fill="#8daad9"/>
          <path d="M294.9,108.2l15.3,8.9-2.2,1.3-1.3-.7c.4.9,0,1.7-1,2.3-2.2,1.3-6.2,1-9.7-1.1-3.5-2-4-4.3-1.8-5.6,1-.6,2.2-.8,3.7-.6l-5.4-3.1,2.3-1.3ZM302.4,115.2c-1.9-1.1-4-1.3-5.1-.6-1.1.7-.9,1.8,1,3s4,1.3,5.1.6c1.1-.7.9-1.8-1.1-3Z" fill="#8daad9"/>
          <path d="M315.4,108.8l-6,3.4c1.6.7,3.3.7,4.5,0,.8-.5,1.1-1,.9-1.8l3.1.4c.4,1.1,0,2.1-1.5,2.9-2.7,1.6-6.9,1.2-10.2-.7-3.3-1.9-3.9-4.4-1.5-5.8,2.3-1.3,6.3-1.1,9.9,1,.2.1.6.4.8.5ZM307.5,111.2l3.9-2.2c-1.6-.7-3.2-.8-4.2-.2-1,.6-.9,1.6.4,2.5Z" fill="#8daad9"/>
          <path d="M279.7,157.1c3.5,2,4,4.3,1.8,5.6-1,.6-2.2.8-3.7.6l5.2,3-2.3,1.3-15.1-8.8,2.2-1.3,1.3.7c-.4-.9,0-1.7,1-2.3,2.2-1.3,6.2-1,9.7,1.1ZM277.4,158.4c-1.9-1.1-3.9-1.3-5.1-.6-1.1.7-.9,1.8,1.1,3s3.9,1.3,5.1.6c1.1-.7.9-1.8-1.1-3Z" fill="#8daad9"/>
          <path d="M287.3,151.8l6.3,3.7-2.1,1.2-1.4-.8c.6.8.3,1.6-.9,2.3-1.9,1.1-4.4.9-6.3-.3-2-1.1-2.3-2.5,0-3.9l1.8-1.1c-1.4-.8-2.8-.9-4-.2-.8.5-1.3,1.2-1.2,1.9l-3.1-.8c0-1,.8-2,2.1-2.8,2.4-1.4,5.4-1.3,8.7.7ZM287.8,154.8l-1.1-.7-1.6.9c-1.1.6-.9,1.1-.1,1.6.8.5,1.8.5,2.6,0,.8-.4.9-1.1.2-1.9Z" fill="#8daad9"/>
          <path d="M289.3,144.9l3,1.7c-.2,0-.4.2-.6.3-1.3.7-1.1,1.8,1,3l5.2,3.1-2.3,1.3-11.1-6.5,2.2-1.3,1.5.9c-.5-.9-.1-1.8,1.1-2.5Z" fill="#8daad9"/>
          <path d="M306.8,147.3c0,.5-.5,1.1-1.2,1.5-1.9,1.1-4.3.9-6.9-.6l-4.6-2.7-1.2.7-2.5-1.4,1.2-.7-2.7-1.6,2.3-1.3,2.7,1.6,2-1.1,2.5,1.4-2,1.1,4.5,2.6c.9.6,1.8.6,2.4.3.3-.2.5-.5.5-.8l2.9,1Z" fill="#8daad9"/>
          <path d="M293.9,138.6c-1-.6-1.2-1.4-.4-1.9s2.2-.4,3.2.2c1.1.6,1.3,1.4.4,1.9s-2.2.4-3.2-.2ZM297.5,140.3l2.3-1.3,11.1,6.5-2.3,1.3-11.1-6.5Z" fill="#8daad9"/>
          <path d="M305.8,130.7l15.3,8.9-2.2,1.3-1.3-.7c.4.9,0,1.7-1,2.3-2.2,1.3-6.2,1-9.7-1.1s-4-4.3-1.8-5.6c1-.6,2.2-.8,3.7-.6l-5.4-3.1,2.3-1.3ZM313.3,137.7c-1.9-1.1-4-1.3-5.1-.6-1.1.7-.9,1.8,1,3,1.9,1.1,4,1.3,5.1.6,1.1-.7.9-1.8-1.1-3Z" fill="#8daad9"/>
          <path d="M323.9,130.7l6.3,3.7-2.1,1.2-1.4-.8c.6.8.3,1.6-.9,2.3-1.9,1.1-4.4.9-6.3-.3-2-1.1-2.3-2.5,0-3.9l1.8-1.1c-1.4-.8-2.8-.9-4-.2-.8.5-1.3,1.2-1.2,1.9l-3.1-.8c0-1,.8-2,2.1-2.7,2.4-1.4,5.4-1.3,8.7.7ZM324.4,133.7l-1.1-.7-1.6.9c-1.1.6-.9,1.1-.1,1.6.8.5,1.8.5,2.6,0,.8-.4.9-1.1.2-1.9Z" fill="#8daad9"/>
        </g>
        <g>
          <path d="M244.9,203.7c.6-.5,1.4-1.1,2.4-1.7,1.8-1,3.6-1.4,5.6-1.3,2,.1,4,.8,6.2,2,2.2,1.3,3.5,2.6,3.9,3.9.4,1.3-.4,2.5-2.3,3.6-.9.5-1.7.9-2.4,1.2l-13.3-7.7ZM258,209.9c.4-.1.9-.4,1.4-.7,2.6-1.5,2-3.6-1.6-5.7-3.2-1.9-6.5-2.3-9.1-.8-.6.4-1,.7-1.3.9l10.6,6.2Z" fill="#8daad9"/>
          <path d="M263.9,202.9c2.4,1.4,4.5,1.3,5.7.6.9-.5,1.2-1,1.4-1.4l1.5.6c-.2.4-.6,1-1.7,1.7-2.1,1.2-5.3.8-8.3-.9-2.9-1.7-4-3.8-2-4.9,2.2-1.3,5.6,0,7.4,1,.4.2.6.4.8.5l-4.8,2.8ZM266.3,200.1c-1.1-.7-3.2-1.5-4.6-.7-1.3.7-.2,2,.9,2.8l3.7-2.1Z" fill="#8daad9"/>
          <path d="M274.9,201.8l-8.3-4.9-1,.6-1.3-.8,1-.6-.5-.3c-2.6-1.5-3.1-3.1-1.2-4.2.6-.4,1.7-.6,2.4-.6l1,1c-.6,0-1.4.2-2,.5-1.3.8-.4,1.7,1.1,2.6l.5.3,4-2.3,9.7,5.7-1.2.7-8.3-4.9-2.8,1.6,8.3,4.9-1.2.7Z" fill="#8daad9"/>
          <path d="M275.2,193.4c-1-.6-1.8-1.1-2.7-1.5l1.1-.6,1.7.9h0c-.6-.8-.7-1.7.5-2.4,1-.5,3.2-.9,6.6,1l5.8,3.4-1.3.7-5.6-3.3c-1.6-.9-3.3-1.4-4.5-.8-.8.5-.6,1.3.1,2,.2.2.4.4.7.5l5.8,3.4-1.3.7-7.1-4.1Z" fill="#8daad9"/>
          <path d="M279.2,184.9c.6.3.8.8.3,1.1-.4.3-1.2.2-1.8-.2-.6-.4-.8-.8-.3-1.1.5-.3,1.2-.2,1.9.2ZM290.2,193l-9.7-5.7,1.3-.7,9.7,5.7-1.3.7Z" fill="#8daad9"/>
          <path d="M286.8,187.2c-1.1-.7-2.1-1.2-3.1-1.7l1.1-.6,1.9,1.1h0c-1-1-1.1-1.9-.2-2.4.1,0,.3-.1.4-.2l1.7,1c-.2,0-.3.1-.5.2-.9.5-.6,1.4.6,2.3.2.2.5.3.8.5l5.2,3-1.2.7-6.7-3.9Z" fill="#8daad9"/>
          <path d="M297.4,183.6c2.4,1.4,4.5,1.3,5.7.6.9-.5,1.2-1,1.4-1.4l1.5.6c-.2.4-.6,1-1.7,1.7-2.1,1.2-5.3.8-8.3-.9-2.9-1.7-4-3.8-2-4.9,2.2-1.3,5.6,0,7.4,1,.4.2.6.4.8.5l-4.8,2.8ZM299.8,180.8c-1.1-.7-3.2-1.5-4.6-.7-1.3.7-.2,2,.9,2.8l3.7-2.1Z" fill="#8daad9"/>
          <path d="M303.1,169.1l11.7,6.8c.9.5,1.9,1.1,2.6,1.4l-1.1.6-1.7-.9h0c.7.9.7,1.8-.5,2.5-1.7,1-4.9.5-7.9-1.2-3.2-1.9-3.8-3.9-2.1-4.8,1.1-.6,2.5-.6,3.6-.3h0s-5.8-3.4-5.8-3.4l1.3-.7ZM310.3,174.7c-.2-.1-.5-.3-.8-.4-1.3-.5-2.9-.7-3.8-.1-1.3.7-.5,2.1,1.7,3.4,2,1.1,4.3,1.7,5.6.9.8-.5.8-1.4-.3-2.3-.2-.2-.4-.3-.7-.5l-1.7-1Z" fill="#8daad9"/>
          <path d="M308.4,168.1c.6.3.8.8.3,1.1-.4.3-1.2.2-1.8-.2-.6-.4-.8-.8-.3-1.1.5-.3,1.2-.2,1.9.2ZM319.4,176.2l-9.7-5.7,1.3-.7,9.7,5.7-1.3.7Z" fill="#8daad9"/>
          <path d="M320.7,173.3c.7,0,1.7-.2,2.4-.5.9-.5.7-1.1,0-1.6-.8-.5-1.7-.6-3.1-.3-1.9.4-3.4.1-4.6-.5-1.6-.9-1.9-2.2-.5-3,.7-.4,1.6-.6,2.3-.6l1,.9c-.5,0-1.3.1-2,.5-.7.4-.6,1,.2,1.4.8.5,1.6.4,2.9.2,1.8-.3,3.3-.2,4.7.7,1.7,1,2,2.2.3,3.2-.8.4-1.7.7-2.6.7l-1-1Z" fill="#8daad9"/>
          <path d="M326.4,170c.7,0,1.7-.2,2.3-.5.9-.5.7-1.1,0-1.6-.8-.5-1.7-.6-3.1-.3-1.9.4-3.4.1-4.6-.5-1.6-.9-1.9-2.2-.5-3,.7-.4,1.6-.6,2.3-.6l1,.9c-.5,0-1.3.1-2,.5-.7.4-.6,1,.2,1.4.8.5,1.6.4,2.9.2,1.8-.3,3.3-.2,4.7.7,1.7,1,2,2.2.3,3.2-.8.4-1.7.7-2.6.7l-1-1Z" fill="#8daad9"/>
          <path d="M330.2,164.7c2.4,1.4,4.5,1.3,5.7.6.9-.5,1.2-1,1.4-1.4l1.5.6c-.2.4-.6,1-1.7,1.7-2.1,1.2-5.3.8-8.3-.9s-4-3.8-2-4.9c2.2-1.3,5.6,0,7.4,1,.4.2.6.4.8.5l-4.8,2.8ZM332.6,161.8c-1.1-.7-3.2-1.5-4.6-.7-1.3.7-.2,2,.9,2.8l3.7-2.1Z" fill="#8daad9"/>
          <path d="M334.1,159.5c-1-.6-1.8-1.1-2.7-1.5l1.1-.6,1.6.9h0c-.5-.8-.8-1.7.4-2.3.9-.5,2.5-.5,3.9,0h0c-.3-.5-.5-.9-.5-1.2,0-.5.2-.9.8-1.3.9-.5,3.1-.8,6.5,1.1l5.7,3.3-1.2.7-5.5-3.2c-1.9-1.1-3.5-1.5-4.5-.9-.7.4-.5,1.2.1,1.8.2.2.5.4.8.6l6,3.5-1.2.7-5.8-3.4c-1.5-.9-3.1-1.3-4.1-.7-.8.5-.5,1.3.2,1.9.2.2.5.4.8.6l5.8,3.4-1.2.7-7.1-4.1Z" fill="#8daad9"/>
          <path d="M342,148.7c.6.3.8.8.3,1.1-.4.3-1.2.2-1.8-.2-.6-.4-.8-.8-.3-1.1.5-.3,1.2-.2,1.9.2ZM353,156.8l-9.7-5.7,1.3-.7,9.7,5.7-1.3.7Z" fill="#8daad9"/>
          <path d="M349.3,150.7c-1-.6-1.8-1.1-2.7-1.5l1.1-.6,1.7.9h0c-.6-.8-.7-1.7.5-2.4,1-.6,3.2-.9,6.6,1l5.8,3.4-1.3.7-5.6-3.3c-1.6-.9-3.3-1.4-4.5-.8-.8.5-.6,1.3.1,2,.2.2.4.4.7.5l5.8,3.4-1.3.7-7.1-4.1Z" fill="#8daad9"/>
          <path d="M368,148.1l-1.3-.7h0c.4.7.3,1.5-.7,2.1-1.4.8-3.5.4-4.9-.4-2.3-1.4-2.1-3,.5-4.5h-.2c-.8-.6-2.4-1.3-3.8-.5-.6.4-1,.9-1.1,1.5l-1.4-.5c0-.6.5-1.3,1.4-1.8,2.1-1.2,4.6-.3,6.6.8l3.6,2.1c.8.5,1.7,1,2.4,1.3l-1.1.7ZM362.9,145.3c-1.4.8-2.6,1.9-.7,3,1.1.7,2.2.7,2.9.3.9-.5.7-1.3,0-1.9-.1-.1-.3-.3-.5-.4l-1.7-1Z" fill="#8daad9"/>
          <path d="M364.4,142.4c-1.1-.7-2.1-1.2-3.1-1.7l1.1-.6,1.9,1.1h0c-1-1-1.1-1.9-.2-2.4.1,0,.3-.1.4-.2l1.7,1c-.2,0-.3.1-.5.2-.9.5-.6,1.4.6,2.3.2.2.5.3.8.5l5.2,3-1.2.7-6.7-3.9Z" fill="#8daad9"/>
          <path d="M285.9,223.3l-1.3-.7h0c.4.7.3,1.5-.7,2.1-1.4.8-3.5.4-4.9-.4-2.3-1.4-2.1-3,.5-4.5h-.2c-.8-.6-2.4-1.3-3.8-.5-.6.4-1,.9-1.1,1.5l-1.4-.5c0-.6.5-1.3,1.4-1.8,2.1-1.2,4.6-.3,6.6.8l3.6,2.1c.8.5,1.7,1,2.4,1.3l-1.1.7ZM280.8,220.5c-1.4.8-2.6,1.9-.7,3,1.1.7,2.2.7,2.9.3.9-.5.7-1.3,0-1.9-.1-.1-.3-.3-.5-.4l-1.7-1Z" fill="#8daad9"/>
          <path d="M287,220.6c.7,0,1.7-.2,2.4-.5.9-.5.7-1.1,0-1.6-.8-.5-1.7-.6-3.1-.3-1.9.4-3.4.1-4.6-.5-1.6-.9-1.9-2.2-.5-3,.7-.4,1.6-.6,2.3-.6l1,.9c-.5,0-1.3.1-2,.5-.7.4-.6,1,.2,1.4.8.5,1.6.4,2.9.2,1.8-.3,3.3-.2,4.7.7,1.7,1,2,2.2.3,3.2-.8.4-1.7.7-2.6.7l-1-1Z" fill="#8daad9"/>
          <path d="M291.1,212.7c-1.2-.7-2.3-1.3-3.2-1.8l1.1-.6,1.7.9h0c-.7-1-.6-1.9.6-2.5,1.7-1,4.9-.5,7.8,1.2,3.5,2,3.7,3.9,2.1,4.8-.9.5-2.3.7-3.6.3h0s5.3,3.1,5.3,3.1l-1.2.7-10.5-6.1ZM294.9,213.5c.3.2.5.3.8.4,1.4.6,3,.6,3.9.1,1.3-.8.6-2.1-1.6-3.4-1.9-1.1-4.3-1.7-5.6-.9-.9.5-.8,1.5.3,2.4.2.2.4.3.6.5l1.7,1Z" fill="#8daad9"/>
          <path d="M307.1,205.4c3.6,2.1,3.4,4,1.7,5-1.9,1.1-5.2.8-8.3-1-3.2-1.9-3.6-3.9-1.7-5,2-1.1,5.3-.7,8.3,1ZM301.7,208.6c2.1,1.2,4.6,1.7,5.8,1,1.2-.7.5-2.1-1.7-3.4-1.6-1-4.3-1.8-5.8-1-1.5.9-.2,2.3,1.6,3.4Z" fill="#8daad9"/>
          <path d="M299.4,199.1l1.3-.7,14.2,8.3-1.3.7-14.2-8.3Z" fill="#8daad9"/>
          <path d="M305.9,197.4c.6.3.8.8.3,1.1-.4.3-1.2.2-1.8-.2-.6-.4-.8-.8-.3-1.1.5-.3,1.2-.2,1.9.2ZM316.9,205.4l-9.7-5.7,1.3-.7,9.7,5.7-1.3.7Z" fill="#8daad9"/>
          <path d="M309.3,195.3l2.8,1.6,1.8-1,1.3.8-1.8,1,5.2,3c1.2.7,2.1,1,2.8.6.3-.2.5-.4.6-.5l1.4.7c-.1.2-.4.5-.9.8-.6.3-1.3.5-2.1.3-.9,0-1.9-.5-3-1.2l-5.3-3.1-1.1.6-1.3-.8,1.1-.6-2.3-1.4.8-1Z" fill="#8daad9"/>
          <path d="M314,192.7c.6.3.8.8.3,1.1-.4.3-1.2.2-1.8-.2-.6-.4-.8-.8-.3-1.1.5-.3,1.2-.2,1.9.2ZM325,200.8l-9.7-5.7,1.3-.7,9.7,5.7-1.3.7Z" fill="#8daad9"/>
          <path d="M332.9,195.8c0,.3-.5.9-1.4,1.5-2.1,1.2-5.4.8-8.4-.9-3-1.7-3.7-3.8-1.4-5.1.7-.4,1.7-.7,2.2-.7l1.1,1c-.5,0-1.2.2-1.9.6-1.6.9-.8,2.4,1.2,3.5,2.2,1.3,4.6,1.5,6,.7.7-.4.9-.8,1.1-1.2l1.5.6Z" fill="#8daad9"/>
          <path d="M338.5,193l-1.3-.7h0c.4.7.3,1.5-.7,2.1-1.4.8-3.5.4-4.9-.4-2.3-1.4-2.1-3,.5-4.5h-.2c-.8-.6-2.4-1.3-3.8-.5-.6.4-1,.9-1.1,1.5l-1.4-.5c0-.6.5-1.3,1.4-1.8,2.1-1.2,4.6-.3,6.6.8l3.6,2.1c.8.5,1.7,1,2.4,1.3l-1.1.7ZM333.4,190.2c-1.4.8-2.6,1.9-.7,3,1.1.7,2.2.7,2.9.3.9-.5.7-1.3,0-1.9-.1-.1-.3-.3-.5-.4l-1.7-1Z" fill="#8daad9"/>
          <path d="M339.6,190.3c.7,0,1.7-.2,2.4-.5.9-.5.7-1.1-.1-1.6-.8-.5-1.7-.6-3.1-.3-1.9.4-3.4.1-4.6-.5-1.6-.9-1.9-2.2-.5-3,.7-.4,1.6-.6,2.3-.6l1,.9c-.5,0-1.3.1-2,.5-.7.4-.6,1,.2,1.4.8.5,1.6.4,2.9.2,1.8-.3,3.3-.2,4.7.7,1.7,1,2,2.2.3,3.2-.8.4-1.7.7-2.6.7l-1-1Z" fill="#8daad9"/>
          <path d="M342,174.5l11.7,6.8c.9.5,1.9,1.1,2.6,1.4l-1.1.6-1.7-.9h0c.7.9.7,1.8-.5,2.5-1.7,1-4.9.5-7.9-1.2-3.2-1.9-3.8-3.9-2.1-4.8,1.1-.6,2.5-.6,3.6-.3h0s-5.8-3.4-5.8-3.4l1.3-.7ZM349.2,180.2c-.2-.1-.5-.3-.8-.4-1.3-.5-2.9-.7-3.8-.1-1.3.7-.5,2.1,1.7,3.4,2,1.1,4.3,1.7,5.6.9.8-.5.8-1.4-.3-2.3-.2-.2-.4-.3-.7-.5l-1.7-1Z" fill="#8daad9"/>
          <path d="M354.4,178.5c2.4,1.4,4.5,1.3,5.7.6.9-.5,1.2-1,1.4-1.4l1.5.6c-.2.4-.6,1-1.7,1.7-2.1,1.2-5.3.8-8.3-.9-2.9-1.7-4-3.8-2-4.9,2.2-1.3,5.6,0,7.4,1,.4.2.6.4.8.5l-4.8,2.8ZM356.8,175.7c-1.1-.7-3.2-1.5-4.6-.7-1.3.7-.2,2,.9,2.8l3.7-2.1Z" fill="#8daad9"/>
          <path d="M371.5,170.9c1,.6,1.9,1.1,2.7,1.5l-1.1.6-1.7-.9h0c.5.7.7,1.7-.5,2.4-1.1.6-3.2.9-6.6-1.1l-5.7-3.3,1.3-.7,5.4,3.1c1.8,1.1,3.5,1.6,4.6.9.8-.5.6-1.3,0-1.9-.2-.2-.5-.4-.8-.6l-5.9-3.5,1.3-.7,7,4.1Z" fill="#8daad9"/>
          <path d="M374.3,170.2c.7,0,1.7-.2,2.4-.5.9-.5.7-1.1,0-1.6-.8-.5-1.7-.6-3.1-.3-1.9.4-3.4.1-4.6-.5-1.6-.9-1.9-2.2-.5-3,.7-.4,1.6-.6,2.3-.6l1,.9c-.5,0-1.3.1-2,.5-.7.4-.6,1,.2,1.4.8.5,1.6.4,2.9.2,1.8-.3,3.3-.2,4.7.7,1.7,1,2,2.2.3,3.2-.8.4-1.7.7-2.6.7l-1-1Z" fill="#8daad9"/>
          <path d="M383.2,161.5c3.6,2.1,3.4,4,1.7,5-1.9,1.1-5.2.8-8.3-1-3.2-1.9-3.6-3.9-1.7-5,2-1.1,5.3-.7,8.3,1ZM377.8,164.7c2.1,1.2,4.6,1.7,5.8,1,1.2-.7.5-2.1-1.7-3.4-1.6-1-4.3-1.8-5.8-1s-.2,2.3,1.6,3.4Z" fill="#8daad9"/>
          <path d="M388,163.2c-.7-.4-.9-.9-.4-1.2s1.4-.2,2.1.3c.7.4.9.9.4,1.2-.5.3-1.4.2-2.1-.3Z" fill="#8daad9"/>
        </g>
      </g>
      <g id="Desenho">
        <g id="Pessoa">
          <g>
            <path d="M207.7,71.6l-7.7-4.3c-.7-.4-1.5-.4-2.1,0l-14.9,8.3c-1.5.8-1.5,3,0,3.8l7.7,4.3c.7.4,1.5.4,2.1,0l14.8-8.3c1.5-.8,1.5-3,0-3.8Z" fill="#d3dcf0"/>
            <g>
              <path d="M186.5,75.1h0s0,0,0,0Z" fill="#2e4484"/>
              <path d="M190.5,73.5l-3.5-.3s-.6,1-.6,1.5c0,.3,0,.4,0,.4l1,.9.3-.4v.7c0,0,2.1,1.9,2.9,2.1.9.3,2.3-.2,2.5-.4.6-.4,0-1.1-.6-1.6-.5-.5-2.1-3-2.1-3Z" fill="#2e4484"/>
            </g>
            <path d="M204.3,74.8c-.6-.4-2.4-2.4-2.4-2.4l-3.2.3s-.4,1-.3,1.5c0,.5,0,.5,0,.5l1.1.6.2-.4.2.7s2.2,1.4,3,1.5c.9.1,2.1-.6,2.2-.8.4-.4-.2-1-.8-1.4Z" fill="#2e4484"/>
            <path d="M198.4,72.6s1.1.8,2.6.7c1.5-.1,1.5-.4,1.5-.4l1.4-33.3-7-2,1.4,35Z" fill="#5bc3b1"/>
            <path d="M186.4,73s.9.9,2.1,1.1c1.2.2,2.7-.5,2.7-.5,0,0,6.7-30,7.7-33.7l-7.7-1.2-4.8,34.3Z" fill="#5bc3b1"/>
            <g>
              <path d="M221.7,26.1c-.4.3-2.6,2.2-2.9,3.2.2.1.6.5.7.6.5-.7.8-1.3,1.3-2.1.4-.5,1-1,1.3-1.5,0-.2,0-.4-.3-.3Z" fill="#f9aa85"/>
              <path d="M221.5,27c-.4.4-2.7,2.1-2.9,3.2.2.1.6.5.6.6.5-.7.8-1.3,1.3-2.1.4-.5,1-1,1.3-1.5,0-.2-.1-.3-.3-.2Z" fill="#f9aa85"/>
              <path d="M221.4,27.6c-.4.3-2.5,1.9-2.7,3,.2.1.3.4.4.6.7,0,.9-1.3,1.4-1.9.3-.5,1-.9,1.2-1.4,0-.2-.1-.3-.2-.2Z" fill="#f9aa85"/>
              <path d="M218.9,28.1c-.2.2-.5.5-.7.7-.2.2-.4.4-.6.6.4,0,1,.3,1.4.6.5-.2,1-.5,1.4-1.4,0-.2.5-.6.4-.7-.3-.3-1.2.7-1.3.8-.4,0,1.4-1.4,1.8-1.8.1-.1.5-.4.3-.6-.3-.3-2.4,1.6-2.6,1.7Z" fill="#f9aa85"/>
            </g>
            <path d="M218.5,28.4c-1.9-1-10.3-4.5-18-7.4,0,0-.1,3.3-.7,4,.4.2,4.7,3.5,19.5,6.4,0,0-.9-1.4-.7-3Z" fill="#f066a5"/>
            <path d="M201.7,21.5c-2.2-1.3-8.9-2.4-11.6,3.3-1.8,3.9,0,21.5,0,21.5,0,0,6.2.7,10-1.5l1.3-3.1,1.5,2.4s1.6-.3,2.1-.9c0,0-1.3-12.8-1.3-16.1s-.2-4.7-1.9-5.7Z" fill="#bc4274"/>
            <path d="M200,18l-3.7-2s-.3,3.4-.9,4.6c0,0,3.8,5.2,5.6,4.5,1-.4-.7-2.8-1.6-4.1-1.2-1.7.6-3.1.6-3.1Z" fill="#f9aa85"/>
            <path d="M201.1,10.3c-1.4-.7-4.9,0-5.7,2.4-.5,1.5.3,3.7.3,3.7,0,0,2,2.6,2.9,3.2.2.1,1.6.8,2.3,0,.7-.8,1.6-2.9,1.4-5.4-.2-2.4-.3-3.5-1.3-3.9Z" fill="#f9aa85"/>
            <path d="M201.4,10.2c-1.5-1.5-4.7-1.9-6.4,0-1.7,2-.7,5.3,1.1,6.6,0,0-.5-2.1.3-3.4,1.8.7,3.5.5,4.3.2,3.7-1.3,2.6-3.8,2.6-3.8,0,0-.5,1.8-2,.3Z" fill="#723e25"/>
            <g>
              <path d="M215.1,28.6c-.5.3-2.7,2.1-3,3.1.2.1.5.5.6.7.5-.7.8-1.3,1.3-2,.4-.5,1-.9,1.3-1.5.1-.2,0-.4-.3-.3Z" fill="#f9aa85"/>
              <path d="M214.7,29.6c-.4.4-2.8,2-3,3.1.2.1.5.5.6.7.5-.7.8-1.3,1.3-2,.4-.5,1-.9,1.3-1.5.1-.2-.1-.3-.2-.2Z" fill="#f9aa85"/>
              <path d="M214.6,30.1c-.4.3-2.6,1.9-2.8,2.9.1.1.3.4.4.6.7,0,1-1.2,1.5-1.9.3-.5,1-.9,1.2-1.4,0-.2-.1-.3-.2-.2Z" fill="#f9aa85"/>
              <path d="M212.1,30.5c-.3.2-.5.5-.8.7-.2.2-.4.4-.6.6.4,0,1,.4,1.4.7.5-.2,1-.4,1.4-1.4,0-.2.5-.6.4-.7-.3-.3-1.2.7-1.4.7-.4,0,1.4-1.3,1.9-1.7.1-.1.5-.4.4-.5-.3-.4-2.5,1.5-2.6,1.6Z" fill="#f9aa85"/>
            </g>
            <path d="M211.8,30.8c-1.8-1.1-10.1-5.2-17.7-8.2-1.4-.5-3.4,2-1.3,4.2,1.2,1.3,5.1,3.7,19.7,7.1,0,0-.9-1.5-.6-3Z" fill="#f066a5"/>
          </g>
        </g>
        <g id="Lego">
          <g>
            <path d="M257.1,89.7l-17.1-10.2c-1-.6-2.2-.6-3.2,0l-25.8,15.7c-2,1.2-2,4.1,0,5.3l17.1,10.2c1,.6,2.2.6,3.2,0l25.8-15.7c2-1.2,2-4.1,0-5.3Z" fill="#d3dcf0"/>
            <polygon points="213.7 78.4 230.1 87.9 254.3 73.5 238 64.1 213.7 78.4" fill="#9a98cb"/>
            <polygon points="213.7 97.2 230.1 106.7 230.1 87.9 213.7 78.4 213.7 97.2" fill="#6b6eb3"/>
            <polygon points="230.1 106.7 254.3 92.3 254.3 73.5 230.1 87.9 230.1 106.7" fill="#2e4484"/>
            <path d="M228.5,82.1c0,1.3,1.5,2.3,3.8,2.3s3.8-1,3.8-2.3v-2.5h-7.7v2.5Z" fill="#6b6eb3"/>
            <path d="M219.1,76.8c0,1.2,1.9,2.2,4.1,2.2s4.1-1,4.1-2.2v-2.8h-8.2v2.8Z" fill="#6b6eb3"/>
            <path d="M240,75c0,1.2,1.9,2.2,4.1,2.2s4.1-1,4.1-2.2v-2.6h-8.2v2.6Z" fill="#6b6eb3"/>
            <path d="M231.2,69.7c0,1.2,1.6,2.2,3.8,2.2s3.8-1,3.8-2.2v-2.8h-7.7v2.8Z" fill="#6b6eb3"/>
            <ellipse cx="235.1" cy="66.8" rx="3.8" ry="2" fill="#9a98cb"/>
            <path d="M232.3,77.2c-2.1,0-3.9.9-3.9,2.1s1.7,2.1,3.9,2.1,3.9-.9,3.9-2.1-1.7-2.1-3.9-2.1Z" fill="#9a98cb"/>
            <path d="M244.1,69.9c-2.3,0-4.1,1-4.1,2.2s1.8,2.2,4.1,2.2,4.1-1,4.1-2.2-1.9-2.2-4.1-2.2Z" fill="#9a98cb"/>
            <path d="M223.3,71.8c-2.2,0-4,1-4,2.2s1.8,2.2,4,2.2,4-1,4-2.2-1.8-2.2-4-2.2Z" fill="#9a98cb"/>
            <polygon points="213.6 59.6 213.7 78.4 230.2 87.8 230.1 69 213.6 59.6" fill="#fdbc5a"/>
            <polygon points="230.1 69 230.1 87.8 254.4 73.4 254.3 54.6 230.1 69" fill="#f89b40"/>
            <polygon points="213.6 59.6 230.1 69 254.3 54.6 237.8 45.2 213.6 59.6" fill="#ffdb5a"/>
            <path d="M228.1,60.5v2.9c0,1.2,1.8,2.2,4.1,2.1,2.2,0,4-1,4-2.2v-2.9s-8.1,0-8.1,0Z" fill="#fdbc5a"/>
            <path d="M219.2,55.1v2.9c0,1.2,1.8,2.2,4.1,2.1,2.2,0,4-1,4-2.2v-2.9s-8.1,0-8.1,0Z" fill="#fdbc5a"/>
            <path d="M239.8,53.3v2.9c0,1.2,1.8,2.2,4.1,2.1,2.2,0,4-1,4-2.2v-2.9s-8.1,0-8.1,0Z" fill="#fdbc5a"/>
            <path d="M230.9,48v2.9c0,1.2,1.8,2.2,4.1,2.1,2.2,0,4-1,4-2.2v-2.9s-8.1,0-8.1,0Z" fill="#fdbc5a"/>
            <path d="M232.2,58.3c-2.2,0-4,1-4,2.2,0,1.2,1.8,2.2,4,2.1,2.2,0,4-1,4-2.2,0-1.2-1.8-2.2-4.1-2.1Z" fill="#ffdb5a"/>
            <path d="M223.3,53c-2.2,0-4,1-4,2.2,0,1.2,1.8,2.2,4.1,2.1,2.2,0,4-1,4-2.2,0-1.2-1.8-2.2-4.1-2.1Z" fill="#ffdb5a"/>
            <path d="M243.9,51.1c-2.2,0-4,1-4,2.2,0,1.2,1.8,2.2,4,2.1,2.2,0,4-1,4-2.2,0-1.2-1.8-2.2-4.1-2.1Z" fill="#ffdb5a"/>
            <path d="M235,45.8c-2.2,0-4,1-4,2.2,0,1.2,1.8,2.2,4,2.1,2.2,0,4-1,4-2.2,0-1.2-1.8-2.2-4.1-2.1Z" fill="#ffdb5a"/>
          </g>
          <g>
            <polygon points="205.7 36.1 222.1 45.6 246.2 31.2 230 21.7 205.7 36.1" fill="#96bfe6"/>
            <polygon points="205.7 54.8 222.1 64.3 222.1 45.6 205.7 36.1 205.7 54.8" fill="#6a9fd5"/>
            <polygon points="222.1 64.3 246.2 50 246.2 31.2 222.1 45.6 222.1 64.3" fill="#427abe"/>
            <path d="M220.5,39.7c0,1.3,1.5,2.3,3.8,2.3s3.8-1,3.8-2.3v-2.5h-7.7v2.5Z" fill="#6a9fd5"/>
            <path d="M211.1,34.5c0,1.2,1.9,2.2,4.1,2.2s4.1-1,4.1-2.2v-2.8h-8.2v2.8Z" fill="#6a9fd5"/>
            <path d="M232,32.7c0,1.2,1.9,2.2,4.1,2.2s4.1-1,4.1-2.2v-2.6h-8.2v2.6Z" fill="#6a9fd5"/>
            <path d="M223.2,27.4c0,1.2,1.6,2.2,3.8,2.2s3.8-1,3.8-2.2v-2.8h-7.7v2.8Z" fill="#6a9fd5"/>
            <path d="M227,22.4c-2.1,0-3.8.9-3.8,2s1.7,2,3.8,2,3.8-.9,3.8-2-1.7-2-3.8-2Z" fill="#96bfe6"/>
            <path d="M224.3,34.9c-2.1,0-3.9.9-3.9,2.1s1.7,2.1,3.9,2.1,3.9-.9,3.9-2.1-1.7-2.1-3.9-2.1Z" fill="#96bfe6"/>
            <path d="M236.1,27.6c-2.3,0-4.1,1-4.1,2.2s1.8,2.2,4.1,2.2,4.1-1,4.1-2.2-1.9-2.2-4.1-2.2Z" fill="#96bfe6"/>
            <path d="M215.2,29.5c-2.3,0-4.1,1-4.1,2.2s1.8,2.2,4.1,2.2,4.1-1,4.1-2.2-1.8-2.2-4.1-2.2Z" fill="#96bfe6"/>
          </g>
        </g>
      </g>
    </g>
  </g>
</svg>